<svg xmlns="http://www.w3.org/2000/svg" enable-background="new 0 0 2000 2000" viewBox="0 0 2000 2000"><path fill="#ece9f8" fill-rule="evenodd" d="M997.9,1500.8c183.5,0,352.5,2.7,486.5,7.3c328-187.5,214.5-553,96.7-759.7 c-163.9-287.7-551.3-391.1-711.5-161.6C652.1,898.5,442.3,789.7,329,1026.4c-113.3,236.6,58.8,463.5,182.3,481.8 C645.4,1503.6,814.3,1500.8,997.9,1500.8L997.9,1500.8z M710.4,702.9c-84,63.9-222.8,113.4-269,45.5c-34.5-50.8,8-146,91.1-218.2 c83.1-72.2,194.4-115.8,255-62.7C859.6,530.6,775.1,653.7,710.4,702.9z" class="colore9eef8 svgShape" clip-rule="evenodd"/><path fill="#d8d2ec" fill-rule="evenodd" d="M997.9,1500.8c435.8,0,789.1,15.5,789.1,34.6c0,19.1-353.3,34.6-789.1,34.6c-435.8,0-789.1-15.5-789.1-34.6 C208.8,1516.3,562.1,1500.8,997.9,1500.8z" class="colord2deec svgShape" clip-rule="evenodd"/><path fill="#fff" fill-rule="evenodd" d="M1252.3,546.9c197.1,43.9,322.5,225.2,334.8,312.7c5,35.9-4.3-48.1-104.8-124.6 c-89.8-68.4-159.8-81-266.7-89.3c-75.5-5.8-154.6-15.1-149-60.2C1071,549.8,1125.1,518.5,1252.3,546.9L1252.3,546.9z M737,473.5 c33.9,2,54.6,29.9,56,62c0.6,13.7-10.1-22.1-47.7-27c-23.3-3.1-26.8,3.8-35.2-5.8C701.7,493.1,709.6,471.9,737,473.5z" class="colorfff svgShape" clip-rule="evenodd"/><path fill="#d8d2ec" fill-rule="evenodd" d="M489.5,1421.2c-9-11.3-21.7-20.6-25.4-34.5c-4.4-16.4,5.3-33.7,2.9-50.6c-3-21.2-23.4-35-34.5-53.3 c-10.9-17.9-5.8-24-6.8-44.9c-1.5-31.6-27.4-71.4-61.9-60.7c-35,10.9-29.3,43.4-23.1,67.9c4.4,17.4,1.5,20-2.7,37.4 c-5.2,21.1-21.8,41.5-14.8,62.1c4.3,12.7,16.8,21.3,21.3,34c5.1,14.3-1.1,29.9-3.5,44.9c-5,31.7,2.2,58,25.2,84.1 c2.5,2.4,5,4.5,7.7,6.6c32.2-1.8,68.5-3.5,108.2-5l0.3-0.3C503.5,1485.9,509.8,1446.5,489.5,1421.2z" class="colord2deec svgShape" clip-rule="evenodd"/><path fill="#fff" fill-rule="evenodd" d="M379.8,1205.7c-0.5-1.4-2.1-2.1-3.6-1.6c-1.4,0.5-2.1,2.1-1.6,3.6c2.7,7.2,5,14.6,7,22.4 c-0.8-0.7-1.6-1.4-2.5-2.1c-3.8-3-8-5.7-12.8-7.9c-1.4-0.7-3-0.1-3.7,1.3c-0.6,1.4-0.1,3,1.3,3.7c4.4,2.1,8.3,4.5,11.7,7.2 c3.2,2.6,6,5.5,8.4,8.7c3.5,16.9,5.9,35.1,7.9,54.2c-3.2-5-6.6-9.5-10.3-13.4c-6.3-6.9-13.3-12.2-21-16c-1.4-0.7-3-0.1-3.7,1.2 c-0.7,1.4-0.1,3,1.2,3.7c7,3.5,13.5,8.4,19.4,14.8c5.8,6.4,11.1,14.1,15.8,23.3l0.5,5.2c1.2,11.4,2.4,23.1,3.8,35.1 c0,0.1,0,0.2,0,0.3c1.5,12.5,3.2,25.3,5.4,38.2c-6-9.2-12.4-17.4-19.3-24.5c-10.1-10.4-21.2-18.5-33.2-24.3 c-1.4-0.7-3-0.1-3.7,1.3c-0.7,1.4-0.1,3,1.3,3.7c11.5,5.5,22,13.2,31.7,23.2c9.6,9.9,18.3,22,26.1,36.3 c3.4,17.2,7.7,34.7,13.5,52.4l0,0l0,0.1v0c2.8,8.7,6,17.4,9.6,26.2c-8.4-7.2-17.3-13.4-26.7-18.6c-13.1-7.3-27.2-12.7-42.2-16.2 c-1.5-0.3-3,0.6-3.3,2.1c-0.3,1.5,0.6,3,2.1,3.3c14.6,3.4,28.2,8.6,40.8,15.6c12.5,7,24.1,15.7,34.7,26.3 c2.5,5.4,5.1,10.9,7.9,16.4l6.1-0.3c-9.8-18.8-17.5-37.6-23.5-56.2c-1-13.5,0.6-27,4.8-40.5c4.3-13.7,11.3-27.4,21.1-41.1 c0.9-1.2,0.6-3-0.7-3.9c-1.2-0.9-3-0.6-3.9,0.7c-10.1,14.2-17.3,28.4-21.8,42.6c-2.5,8.1-4.2,16.2-4.9,24.3 c-8.3-30-12.9-59.3-16.3-87.3c3.2-11.9,6.9-21.9,10.9-30.1c4-8.2,8.3-14.5,13-18.9c1.1-1,1.2-2.8,0.1-3.9c-1-1.1-2.8-1.2-3.9-0.1 c-5.2,4.9-9.9,11.7-14.2,20.5c-2.7,5.4-5.2,11.7-7.5,18.7c-0.8-7.4-1.6-14.7-2.3-21.8l-0.6-5.6c0-0.1,0-0.2,0-0.3 C395,1269.6,391,1235.1,379.8,1205.7z" class="colorfff svgShape" clip-rule="evenodd"/><path fill="#cfc4f3" fill-rule="evenodd" d="M396.9,1436.1c-9.6-5.2-21.2-7.9-27.9-16.5c-7.9-10.2-6.3-25.1-13-36.1c-8.4-13.9-26.7-17.4-39.8-26.9 c-12.9-9.3-11.1-15-18-29.3c-10.4-21.5-40.2-41.6-61.1-24c-21.2,17.9-7.5,38.9,4,54.2c8.2,10.9,7,13.4,9.2,26.9 c2.7,16.2-2.9,35.4,8.1,47.7c6.8,7.6,18,9.9,24.9,17.4c7.8,8.5,8.1,21.1,10.9,32.3c3.7,14.8,10.2,26.8,20.4,36.4 c27.6-2.1,60.1-4,96.7-5.8c2.8-4,5.1-8.4,6.7-13C425.8,1477,418.5,1447.7,396.9,1436.1z" class="colorc4def3 svgShape" clip-rule="evenodd"/><path fill="#fff" fill-rule="evenodd" d="M256.6,1318.4c-0.8-0.8-2.1-0.9-3-0.1c-0.8,0.8-0.9,2.1-0.1,3c4,4.2,7.8,8.7,11.5,13.6 c-0.8-0.3-1.5-0.5-2.3-0.7c-3.5-1-7.3-1.6-11.3-1.7c-1.2,0-2.1,0.9-2.2,2c0,1.2,0.9,2.1,2,2.2c3.7,0.1,7.1,0.7,10.3,1.6 c3,0.9,5.8,2,8.5,3.6c7.5,10.7,14.5,22.7,21.6,35.4c-3.7-2.5-7.4-4.6-11.1-6.3c-6.4-2.9-12.9-4.6-19.4-4.9c-1.2-0.1-2.1,0.8-2.2,2 c-0.1,1.2,0.8,2.1,2,2.2c5.9,0.3,11.9,1.9,17.9,4.6c6,2.7,11.9,6.6,17.9,11.6l1.9,3.5c4.2,7.6,8.5,15.4,13.1,23.3 c0,0.1,0.1,0.2,0.1,0.2c4.7,8.3,9.7,16.6,15.1,25c-6.9-4.7-13.8-8.4-20.7-11.3c-10.1-4.2-20.2-6.6-30.3-7.1 c-1.2-0.1-2.1,0.8-2.2,2c-0.1,1.2,0.8,2.1,2,2.2c9.6,0.4,19.3,2.7,28.9,6.8c9.6,4,19.3,9.9,29,17.5c7.5,11,15.7,21.9,24.9,32.5 l0,0l0,0l0,0c4.5,5.2,9.3,10.3,14.4,15.4c-8-2.5-16-4.2-24.1-5.1c-11.3-1.2-22.7-0.8-34.2,1.2c-1.1,0.2-1.9,1.3-1.7,2.4 c0.2,1.1,1.3,1.9,2.4,1.7c11.1-2,22.2-2.4,33-1.2c10.8,1.1,21.4,3.8,32,8c3.6,3.4,7.4,6.7,11.3,9.9l6.2-0.3 c-13.7-10.9-25.6-22.6-36.1-34.7c-4.7-9.1-7.6-19-8.6-29.6c-1.1-10.8-0.2-22.4,2.5-34.9c0.2-1.1-0.5-2.2-1.6-2.5 c-1.1-0.2-2.2,0.5-2.5,1.6c-2.8,12.9-3.7,24.9-2.6,36.2c0.6,6.4,1.9,12.5,3.8,18.4c-14.7-18.4-26.6-37.5-37.2-56 c-1.2-9.2-1.7-17.3-1.3-24.2c0.4-6.9,1.5-12.5,3.5-17c0.5-1.1,0-2.3-1.1-2.8c-1.1-0.5-2.3,0-2.8,1.1c-2.2,4.9-3.4,11.1-3.8,18.5 c-0.2,4.6-0.1,9.7,0.3,15.2c-2.8-4.9-5.4-9.8-8.1-14.5l-2.1-3.7c0-0.1-0.1-0.1-0.1-0.2C286.1,1358.5,273.1,1335.6,256.6,1318.4z" class="colorfff svgShape" clip-rule="evenodd"/><path fill="#d8d2ec" fill-rule="evenodd" d="M1471.3,1410.5c9.8-12.3,23.6-22.5,27.7-37.7c4.8-17.9-5.8-36.8-3.1-55.2c3.3-23.1,25.6-38.1,37.7-58.1 c11.8-19.6,6.3-26.2,7.4-49c1.6-34.4,29.9-77.9,67.5-66.3c38.2,11.9,32,47.4,25.3,74.1c-4.8,19-1.7,21.8,3,40.8 c5.6,23,23.8,45.3,16.2,67.8c-4.7,13.9-18.3,23.3-23.2,37.1c-5.6,15.6,1.2,32.6,3.8,49c5.5,34.6-2.4,63.3-27.5,91.8 c-3,2.9-6.2,5.5-9.5,8c-34.7-1.8-73.5-3.4-115.6-4.8c-0.6-0.6-1.2-1.2-1.7-1.8C1456.1,1481.2,1449.3,1438.1,1471.3,1410.5z" class="colord2deec svgShape" clip-rule="evenodd"/><path fill="#fff" fill-rule="evenodd" d="M1591.1,1175.3c0.6-1.6,2.3-2.3,3.9-1.7c1.6,0.6,2.3,2.3,1.7,3.9c-3,7.8-5.5,16-7.6,24.5 c0.9-0.8,1.8-1.5,2.7-2.3c4.1-3.3,8.8-6.2,14-8.6c1.5-0.7,3.3-0.1,4,1.4c0.7,1.5,0.1,3.3-1.4,4c-4.8,2.3-9,4.9-12.8,7.9 c-3.5,2.8-6.6,6-9.2,9.5c-3.9,18.4-6.4,38.3-8.7,59.2c3.5-5.4,7.2-10.3,11.2-14.6c6.9-7.5,14.5-13.3,22.9-17.5 c1.5-0.7,3.3-0.1,4,1.4c0.7,1.5,0.1,3.3-1.4,4c-7.7,3.8-14.7,9.2-21.1,16.2c-6.4,6.9-12.1,15.4-17.2,25.4l-0.6,5.7 c-1.3,12.5-2.6,25.2-4.2,38.3c0,0.1,0,0.3,0,0.4c-1.6,13.6-3.5,27.6-5.9,41.7c6.5-10.1,13.5-19,21.1-26.7 c11-11.3,23.1-20.2,36.3-26.5c1.5-0.7,3.3-0.1,4,1.4c0.7,1.5,0.1,3.3-1.4,4c-12.5,6-24,14.5-34.5,25.3c-10.5,10.8-20,24-28.5,39.6 c-3.7,18.8-8.4,37.9-14.7,57.2l0,0l0,0.1l0,0c-3.1,9.5-6.5,19-10.4,28.6c9.1-7.8,18.8-14.6,29.1-20.3c14.3-8,29.7-13.8,46.1-17.6 c1.6-0.4,3.3,0.6,3.6,2.3c0.4,1.6-0.6,3.2-2.3,3.6c-15.9,3.7-30.7,9.4-44.5,17c-13.6,7.6-26.3,17.1-37.9,28.7 c-2.9,6.4-5.9,12.7-9.2,19.1l-6.7-0.3c11-21,19.6-41.9,26.3-62.6c1.1-14.7-0.6-29.5-5.2-44.2c-4.7-14.9-12.3-29.9-23-44.9 c-1-1.4-0.6-3.2,0.7-4.2c1.4-1,3.2-0.6,4.2,0.7c11,15.5,18.9,31,23.8,46.5c2.8,8.8,4.6,17.6,5.4,26.5 c9.1-32.7,14.1-64.7,17.8-95.2c-3.5-12.9-7.5-23.9-11.9-32.8c-4.3-8.9-9.1-15.8-14.2-20.6c-1.2-1.1-1.3-3.1-0.1-4.3 c1.1-1.2,3.1-1.3,4.3-0.1c5.6,5.3,10.8,12.8,15.5,22.4c2.9,5.9,5.6,12.7,8.2,20.4c0.9-8.1,1.7-16,2.5-23.8l0.6-6.1 c0-0.1,0-0.2,0-0.3C1574.5,1245.1,1578.8,1207.4,1591.1,1175.3z" class="colorfff svgShape" clip-rule="evenodd"/><path fill="#cfc4f3" fill-rule="evenodd" d="M1572.4,1426.7c10.5-5.7,23.1-8.6,30.4-18c8.7-11.1,6.9-27.4,14.2-39.4c9.1-15.2,29.1-19,43.5-29.3 c14.1-10.1,12.1-16.4,19.7-32c11.3-23.5,43.9-45.4,66.7-26.2c23.1,19.6,8.2,42.5-4.4,59.1c-9,11.8-7.6,14.7-10,29.3 c-2.9,17.7,3.1,38.6-8.8,52c-7.4,8.3-19.7,10.8-27.2,18.9c-8.5,9.2-8.8,23.1-11.9,35.3c-4.1,16.4-11.3,29.6-22.8,40.2 c-30.1-2.1-65.1-4-104.2-5.7c-3.4-4.7-6.2-9.8-8.1-15.3C1540.9,1471.4,1548.9,1439.4,1572.4,1426.7z" class="colorc4def3 svgShape" clip-rule="evenodd"/><path fill="#fff" fill-rule="evenodd" d="M1725.5 1298.4c.9-.9 2.3-.9 3.2-.1.9.9.9 2.3.1 3.2-4.4 4.6-8.6 9.5-12.6 14.8.8-.3 1.7-.6 2.5-.8 3.8-1.1 7.9-1.7 12.3-1.9 1.3 0 2.3.9 2.4 2.2 0 1.3-.9 2.3-2.2 2.4-4 .2-7.7.7-11.2 1.7-3.3.9-6.4 2.2-9.2 3.9-8.2 11.7-15.8 24.8-23.6 38.6 4-2.8 8.1-5 12.1-6.9 7-3.2 14.1-5 21.1-5.4 1.3-.1 2.3.9 2.4 2.1.1 1.3-.9 2.3-2.1 2.4-6.5.4-13 2-19.5 5-6.5 2.9-13 7.1-19.5 12.6l-2.1 3.8c-4.6 8.3-9.3 16.8-14.2 25.4 0 .1-.1.2-.1.2-5.2 9-10.6 18.2-16.5 27.3 7.5-5.1 15.1-9.2 22.6-12.4 11-4.6 22.1-7.2 33.1-7.7 1.3-.1 2.3.9 2.4 2.2.1 1.3-.9 2.3-2.2 2.4-10.5.5-21 2.9-31.6 7.4-10.5 4.4-21 10.8-31.6 19.1-8.1 12-17.1 23.9-27.2 35.5l0 0 0 0 0 0c-5 5.7-10.2 11.3-15.7 16.8 8.7-2.8 17.5-4.6 26.3-5.5 12.3-1.3 24.8-.9 37.3 1.4 1.2.2 2.1 1.4 1.9 2.6-.2 1.2-1.4 2.1-2.6 1.9-12.2-2.1-24.2-2.6-36.1-1.3-11.7 1.2-23.4 4.2-34.9 8.8-4.3 4-8.8 7.9-13.5 11.8l-6.9-.3c15.5-12.2 28.8-25.3 40.6-38.8 5.2-9.9 8.3-20.7 9.4-32.3 1.2-11.8.2-24.5-2.7-38.1-.3-1.2.5-2.4 1.7-2.7 1.2-.3 2.4.5 2.7 1.7 3.1 14 4 27.2 2.8 39.5-.7 7-2 13.6-4.1 20 16-20.1 29-40.9 40.6-61.1 1.4-10.1 1.8-18.9 1.5-26.4-.4-7.5-1.6-13.7-3.8-18.5-.5-1.2 0-2.5 1.2-3 1.2-.5 2.5 0 3 1.2 2.4 5.4 3.7 12.1 4.2 20.2.3 5 .1 10.5-.3 16.6 3-5.4 5.9-10.6 8.8-15.9l2.2-4.1c0-.1.1-.2.1-.2C1693.3 1342.1 1707.5 1317.1 1725.5 1298.4zM940.6 673.2c-2.8 38.8-8.5 44.1-45.5 47.1 37 3 42.7 8.3 45.5 47.1 2.8-38.8 8.5-44.1 45.5-47.1C949.1 717.3 943.4 711.9 940.6 673.2L940.6 673.2zM1090.8 775.4c-1.5 20.7-4.6 23.6-24.3 25.1 19.7 1.6 22.8 4.4 24.3 25.1 1.5-20.7 4.6-23.5 24.3-25.1C1095.4 798.9 1092.3 796.1 1090.8 775.4L1090.8 775.4zM1025 616.1c-1.5 21-4.6 23.9-24.6 25.5 20 1.6 23.1 4.5 24.6 25.5 1.5-21 4.6-23.9 24.6-25.5C1029.6 640 1026.5 637.1 1025 616.1zM886.1 1308.7c2.3 31.4 6.9 35.7 36.9 38.2-29.9 2.4-34.6 6.7-36.9 38.2-2.3-31.4-6.9-35.7-36.9-38.2C879.2 1344.4 883.8 1340.1 886.1 1308.7L886.1 1308.7zM764.4 1391.5c1.2 16.8 3.7 19.1 19.7 20.4-16 1.3-18.5 3.6-19.7 20.4-1.2-16.8-3.7-19.1-19.7-20.4C760.7 1410.6 763.2 1408.3 764.4 1391.5L764.4 1391.5zM817.7 1262.5c1.2 17 3.7 19.3 19.9 20.6-16.2 1.3-18.7 3.7-19.9 20.6-1.2-17-3.7-19.3-19.9-20.6C813.9 1281.8 816.4 1279.4 817.7 1262.5zM1364.4 1231.3c-1.8 24-5.3 27.4-28.2 29.2 22.9 1.8 26.5 5.2 28.2 29.2 1.8-24 5.3-27.4 28.2-29.2C1369.7 1258.6 1366.1 1255.3 1364.4 1231.3L1364.4 1231.3zM1457.6 1294.7c-.9 12.8-2.8 14.6-15.1 15.6 12.2 1 14.1 2.8 15.1 15.6.9-12.8 2.8-14.6 15.1-15.6C1460.4 1309.3 1458.5 1307.5 1457.6 1294.7L1457.6 1294.7zM1416.8 1195.9c-.9 13-2.9 14.8-15.3 15.8 12.4 1 14.3 2.8 15.3 15.8.9-13 2.9-14.8 15.3-15.8C1419.6 1210.7 1417.7 1208.9 1416.8 1195.9z" class="colorfff svgShape" clip-rule="evenodd"/><path fill="#9c88e3" fill-rule="evenodd" d="M1010.8,837.7l11.2-24.4c60,27.5,74.7,34.2,134.7,61.8c3.4,1.5,4.8,5.5,3.3,8.9l-5.6,12.2 c-1.5,3.3-5.5,4.8-8.9,3.3C1085.5,871.9,1070.8,865.2,1010.8,837.7z" class="color88b9e3 svgShape" clip-rule="evenodd"/><polygon fill="#9679f9" fill-rule="evenodd" points="1022 813.3 1010.8 837.7 983.4 810.3" class="colorf9af79 svgShape" clip-rule="evenodd"/><rect width="8.8" height="135.1" x="1073.5" y="786" fill="#6041c9" fill-rule="evenodd" class="color4189c9 svgShape" clip-rule="evenodd" transform="rotate(-65.362 1077.822 853.573)"/><path fill="#6041c9" fill-rule="evenodd" d="M1144.8 869.6l-11.2 24.4 11.8 5.4c3.3 1.5 7.3.1 8.9-3.3l5.6-12.2c1.5-3.3.1-7.3-3.3-8.9L1144.8 869.6zM993.5 820.4c7.2-.4 8.5-3.4 3.9-9l-14-1.1L993.5 820.4z" class="color4189c9 svgShape" clip-rule="evenodd"/><path fill="#9679f9" fill-rule="evenodd" d="M1104.3,886c-0.2-11.8-6.5-14.7-7.8-21.1c-5.4,2.4-6.8,6.8-4.2,13.2c-2.5-2-4.9-4.1-7.3-6.4 c-7.9-3.6-14-6.4-18.4-8.5c2.7,7.1,6.5,15.3,11.3,24.7c2.9,4.5,7.2,3.7,12.6,8.1C1095.1,890.6,1099.7,887.3,1104.3,886z" class="colorf9af79 svgShape" clip-rule="evenodd"/><path fill="#3b2684" fill-rule="evenodd" d="M1259.2,796.8c36.7,13.3,60.3,14.6,70.7,3.9c10.6-2.5,17.5-11.8,20.7-28.1c10.9-24.8,1.6-64.4-13.8-44.8 c-12.7-32.5-63.8-13.7-92.5-31.7c-17.5,11.4-10.8,39.6,1.7,49.2C1245.5,777.6,1247.2,794.9,1259.2,796.8z" class="color263c84 svgShape" clip-rule="evenodd"/><path fill="#3b2684" fill-rule="evenodd" d="M1345,731.3c-4-3.1-5.2-6.4-3.8-10c6.1-3.4,11.9-3.5,17.4-0.3C1355.3,721.1,1350.7,724.6,1345,731.3z" class="color263c84 svgShape" clip-rule="evenodd"/><path fill="#3b2684" fill-rule="evenodd" d="M1337.5 722.7c2.8 3.2 5.4 3.9 7.8 2.1 1.5-6 .6-11.2-2.6-15.7C1343.1 712.1 1341.3 716.7 1337.5 722.7zM1318 736.3c6.9-2.7 12.2-1.8 15.7 2.7-.3 10.4-5.7 31.2-13.9 35.8C1318.4 773.9 1318.7 751.9 1318 736.3z" class="color263c84 svgShape" clip-rule="evenodd"/><path fill="#3b2684" fill-rule="evenodd" d="M1315.5,726.3c11.7,5.7,15.6,10.8,11.6,15.4c-17.7,2.6-34.6,0.7-50.7-5.7 C1286.1,736.8,1299.1,733.6,1315.5,726.3z" class="color263c84 svgShape" clip-rule="evenodd"/><path fill="#3b2684" fill-rule="evenodd" d="M1246.8,743.8c13.2-13.4,38.2-15,72.7-2.4c21.8-5.4,26.7-15.5,17.5-31.9c-13-23.1-41.1-4.8-75.6-26.6 C1262.6,699.8,1211.3,714.3,1246.8,743.8z" class="color263c84 svgShape" clip-rule="evenodd"/><path fill="#9679f9" fill-rule="evenodd" d="M1329.6,755.2c-9.1-2-8.3,16.8-7.6,26.1C1323.4,799.6,1344,758.2,1329.6,755.2z" class="colorf9af79 svgShape" clip-rule="evenodd"/><path fill="#9679f9" fill-rule="evenodd" d="M1340.3,831.3c-5.1,0.4-13-0.6-14.5-2.4c-5.4-6.8-9.1-14-10.5-18.5c1-3,2.2-6.8,3.3-11.3 c19.5-13.2,22.2-23,8-29.4c-2.9,1.6-6.4,6.5-10.6,14.8c-3.4-0.1-5.9-1.9-7.7-5.2c4-13.9,6.6-25.3,7.9-34 c-9.6-14.3-32.1-16.3-61.8-12.5c-1.4,7.9-2.5,16.3-3.4,25.2c-3.7,3.4-14.5,60.5,22.1,62.8c0.2,4.2-0.1,9.3-0.4,9.9 c-0.4,0.9-1.9,1.8-4,2.5l0,0C1268,852.7,1291.9,852,1340.3,831.3z" class="colorf9af79 svgShape" clip-rule="evenodd"/><path fill="#3b2684" fill-rule="evenodd" d="M1254.3,732.9c29.8-3.9,52.2-1.8,61.8,12.5c-1.2,8.7-3.8,20-7.9,34c1.7,3.3,4.3,5.1,7.7,5.2 c4.2-8.3,7.8-13.2,10.6-14.8c14.2,6.4,11.5,16.2-8,29.4c-1.1,4.6-2.2,8.3-3.3,11.3c17.5-3.9,32.2-19.6,34.3-26.4 c20.5-40.3-2.4-57.4-14.6-63.6c-5.4-39.9-63.4-4.6-92.4-23.9C1231.1,712.5,1245.3,732.5,1254.3,732.9z" class="color263c84 svgShape" clip-rule="evenodd"/><path fill="#7957ed" fill-rule="evenodd" d="M1292.6,816.8c-4.8,2.3-11.3,3.7-19.6,4.1c0.2,2.8,0,6-0.1,8C1281.2,827.3,1287.8,823.2,1292.6,816.8z" class="colored7d57 svgShape" clip-rule="evenodd"/><path fill="#3b2684" fill-rule="evenodd" d="M1258.6,723.1c-4.5,3.5-5.9,7.2-4.3,11.3c6.9,3.9,13.4,4,19.6,0.4C1270.1,734.6,1265,730.6,1258.6,723.1z" class="color263c84 svgShape" clip-rule="evenodd"/><path fill="#9679f9" fill-rule="evenodd" d="M1386.4,1482.8l6.6,21.2c1.1,2.6,4.5,8.8,5.2,11.3c2.3,9.3-43.2,2.5-35-3.9c0.7-0.6,5.2-6.9,4.7-10.1 c-0.8-5-3-12.7-3-12.7L1386.4,1482.8z" class="colorf9af79 svgShape" clip-rule="evenodd"/><path fill="#3b2684" fill-rule="evenodd" d="M1363.2,1511.2c0,0,10.4,0.5,15.5-0.1c5.1-0.5,10.2-8.2,14.1-7.4c4.3,0.8,10.2,20.2,10.2,20.2 c-31.9,16.4-55.8,20.5-69.8,20C1327.1,1543.7,1345.1,1522.8,1363.2,1511.2z" class="color263c84 svgShape" clip-rule="evenodd"/><path fill="#9679f9" fill-rule="evenodd" d="M1291.8,1492.9l0.8,22.2c0.4,2.8,2.1,9.7,2,12.3c-0.2,9.6-42.4-9-32.7-13c0.9-0.4,6.8-5.3,7.2-8.6 c0.5-5.1,0.5-13,0.5-13L1291.8,1492.9z" class="colorf9af79 svgShape" clip-rule="evenodd"/><path fill="#3b2684" fill-rule="evenodd" d="M1261.9,1514.2c0,0,9.9,3.2,15,4c5.1,0.8,12-5.2,15.6-3.5c3.9,1.9,4.5,22.1,4.5,22.1s-59.2,5.1-72.6,1 C1218.5,1536,1241.4,1520.6,1261.9,1514.2z" class="color263c84 svgShape" clip-rule="evenodd"/><path fill="#9c88e3" fill-rule="evenodd" d="M1089.5,896.3c13.7,58.6,37.7,104.1,72.1,136.4c12.4-3.8,23.4-12.2,33-25.4c-0.5,42.4,0.5,84.6,3.2,126.6 c25.1,11.9,58.4,11.1,100-2.3l16.9-20.8c4.3-0.8,14.2,3.9,18.9,11.2c39.5-30.1,66.1-62.5,81.8-94.6 c-4.2-69.1-13.6-123.6-28.2-163.5c-7.3-11.3-24.6-22.4-51.8-33.3c-45,19.3-67.2,19.9-66.6,1.8c-13.2,4.3-30.8,12-52.6,23 c-18.2,13.8-33.7,51.4-46.6,112.6c-20.9-26.1-42.5-53.9-64.9-83.1C1099.5,886.2,1094.5,890,1089.5,896.3L1089.5,896.3z M1323.7,1092.1c-13.1-43-5.9-96.1,21.7-159.2c6.9,31.1,14.4,61.8,22.5,92C1358.4,1029.2,1343.7,1051.7,1323.7,1092.1z" class="color88b9e3 svgShape" clip-rule="evenodd"/><path fill="#5336b7" fill-rule="evenodd" d="M1328.5,1148.1c-6.4-0.5-16.7-6-30.8-16.6c-41.6,13.4-74.9,14.2-100,2.3c-4.5,70.7,12.9,144.8,35,227.4 c21.6,36.3,20.7,61.7,32.2,145.4c6.4,4.6,16.9,3.9,31.7-2c4.7-71.3,1.4-118.5-17.1-145.2c2.9-23.9-4.7-82.7-5-119.6 c13.5,30,22.7,70.6,40.3,111.5c21.4,49.9,36.2,103.2,47.5,151.9c11.9,2.3,23.1,0.9,33.5-4.1c-12-80-25.2-135.1-39.8-165.2 c0.6-78.7-6.9-149.3-22.5-212C1330.6,1129.4,1328.9,1138.1,1328.5,1148.1z" class="color4361ac svgShape" clip-rule="evenodd"/><path fill="#9679f9" fill-rule="evenodd" d="M1297.7,1131.5c14.2,10.6,24.5,16.1,30.8,16.6c0.4-10,2-18.7,4.9-26.1c-4.7-7.3-14.6-12.1-18.9-11.2 L1297.7,1131.5z" class="colorf9af79 svgShape" clip-rule="evenodd"/><path fill="#785ed3" fill-rule="evenodd" d="M1194.6 1007.3c1.4-41.2 4.7-74.9 9.9-101.2-13.3 55.9-26.2 93-38.7 111.3-7.9-.2-17.9-4.9-30-14 7.8 10.8 16.4 20.6 25.8 29.4C1174 1028.9 1185 1020.5 1194.6 1007.3zM1314.6 1110.8c2.4-6 5.4-12.2 9.1-18.7-13.1-43-5.9-96.1 21.7-159.2-40 56.9-51.4 117.6-34.1 182L1314.6 1110.8z" class="color5e9bd3 svgShape" clip-rule="evenodd"/><path fill="#4b31a5" fill-rule="evenodd" d="M1329,1158.2c-0.5-3.6-0.6-7-0.4-10c-6.4-0.5-16.7-6-30.8-16.6c-3.4,1.1-6.7,2.1-9.9,3 C1297.7,1144.9,1311.5,1152.8,1329,1158.2z" class="color3155a5 svgShape" clip-rule="evenodd"/><path fill="#6041c9" fill-rule="evenodd" d="M1270.9,831.7c-0.1,1.9,0.3,4.3,0.8,5.6h0c0.6,1.6,1.7,2.9,3.4,3.8c1.8,1,4.3,1.7,7.4,1.9 c11.2,0.8,28.9-3.4,54.7-13l6.1,3c-26.5,9.9-49.2,15.7-61.1,14.9c-3.9-0.3-7-1.1-9.5-2.5c-2.7-1.5-4.5-3.6-5.6-6.4v0 c-0.8-2-1.1-3.5-0.9-6.1L1270.9,831.7z" class="color4189c9 svgShape" clip-rule="evenodd"/><path fill="#6041c9" fill-rule="evenodd" d="M1268,850c-0.7,0.4-1.5,0.2-1.9-0.5c-0.4-0.7-0.2-1.5,0.5-1.9c1.7-1,5.2-1.2,10.4-0.5 c5,0.7,11.8,2.1,20.2,4.2c0.7,0.2,1.2,1,1,1.7c-0.2,0.7-1,1.2-1.7,1c-8.4-2.1-15.1-3.5-19.9-4.2C1272,849.2,1269.2,849.3,1268,850 L1268,850z M1267.4,854c1.1-0.7,4-0.7,8.6-0.1c4.9,0.6,11.5,2,19.9,4.2c0.7,0.2,1.5-0.3,1.7-1c0.2-0.7-0.3-1.5-1-1.7 c-8.5-2.2-15.2-3.6-20.2-4.2c-5.3-0.7-8.7-0.5-10.4,0.5c-0.7,0.4-0.9,1.3-0.5,1.9C1265.9,854.1,1266.7,854.4,1267.4,854z" class="color4189c9 svgShape" clip-rule="evenodd"/><g fill="#000" class="color000 svgShape"><path fill="#f1eefd" fill-rule="evenodd" d="M891.5,486.5H630.2H382c70.9,8.6,65.4,188.9,70.4,241.9c12.1,126.6,29.3,273.7,49.1,310 c26.1,47.6,84.4,77.9,98,130.7c27.3,105.9-15.1,404.6,98,392.1h261.4h248.2c-96.5-11.7-58.6-290.5-84.8-392.1 c-13.6-52.8-71.9-83-98-130.7c-22.8-41.6-42-229.1-54.1-364.1C966.1,629.3,974.8,477.3,891.5,486.5z" class="coloreef8fd svgShape" clip-rule="evenodd"/><path fill="#ccc1f3" fill-rule="evenodd" d="M1207.1,1561.1h45.9c52.4-33.9,49-69.2,7-110.1c-26.1-25.5-20.2-14.1-53.8-4.3 c-155.9,45.7-508.4-3.4-496.3-14.4c10,0.7,68.6,70.3-19.3,129.3l268.3-0.4h210.2H1207.1z" class="colorc1ddf3 svgShape" clip-rule="evenodd"/><path fill="#d8d2ec" fill-rule="evenodd" d="M738.2,1487.4c-0.5-17.9-7.6-33.1-14.7-42.9c-1.5-2.1-3-3.9-4.5-5.5c-2.5-2.5-5.2-4.7-8.2-6.5 c-0.3-0.1-0.6-0.2-0.9-0.2c0,0,0.2,0,0.5,0c-16-6.6-35.7-5.3-43.2,18.3c-5.2,16.2,10.5,37.3,34.6,36.5 C717.3,1487.3,725.5,1487.4,738.2,1487.4z" class="colord2deec svgShape" clip-rule="evenodd"/><path fill="#cfc4f3" fill-rule="evenodd" d="M733,1462l-17.6-1c-9.6,16.1-22.4,22.8-35.6,19.3c0,0.6,1.4,0.7,1.4,1.2c5.7,3.6,12.7,5.7,20.7,5.5 c15.4,0.2,23.6,0.3,36.4,0.3C737.9,1478,735.9,1469.5,733,1462z" class="colorc4def3 svgShape" clip-rule="evenodd"/><path fill="#ccc1f3" fill-rule="evenodd" d="M382,486.5c-53.1,2-58.8,90.1,1,128.8h62.1C438.3,553.5,422.8,491.5,382,486.5z" class="colorc1ddf3 svgShape" clip-rule="evenodd"/><path fill="#785ed3" fill-rule="evenodd" d="M602.9,612c3.4,32.2-19.9,58.4-52.1,58.6c-32.1,0.2-60.9-25.7-64.3-57.8c-3.4-32.2,19.9-58.4,52.1-58.6 C570.7,554,599.5,579.8,602.9,612z" class="color5e9bd3 svgShape" clip-rule="evenodd"/><path fill="#fff" fill-rule="evenodd" d="M558.4 584.9c1 9.2-5.7 16.6-14.8 16.7-9.2.1-17.4-7.3-18.3-16.5-1-9.2 5.7-16.6 14.8-16.7C549.2 568.3 557.4 575.7 558.4 584.9zM544.1 607.2L544.1 607.2c-17 .1-29.3 14-27.5 31l0 0c.5 4.5 4.5 8 8.9 8l45.4-.3c4.5 0 7.7-3.7 7.2-8.1l0 0C576.3 620.8 561.1 607.1 544.1 607.2z" class="colorfff svgShape" clip-rule="evenodd"/><path fill="#9c88e3" fill-rule="evenodd" d="M631.9 574.1h255.8c2.5 0 4.5 1 4.5 2.3v0c0 1.2-2 2.3-4.5 2.3H631.9c-2.5 0-4.5-1-4.5-2.3v0C627.3 575.1 629.4 574.1 631.9 574.1zM633.9 595.3h178.3c2.5 0 4.5 1 4.5 2.3v0c0 1.2-2.1 2.3-4.5 2.3H633.9c-2.5 0-4.5-1-4.5-2.3v0C629.4 596.3 631.4 595.3 633.9 595.3zM635.6 616.5h111.3c2.5 0 4.5 1 4.5 2.3v0c0 1.2-2 2.3-4.5 2.3H635.6c-2.5 0-4.5-1-4.5-2.3v0C631 617.5 633.1 616.5 635.6 616.5zM768 616.5h119.8c2.5 0 4.5 1 4.5 2.3v0c0 1.2-2.1 2.3-4.5 2.3H768c-2.5 0-4.5-1-4.5-2.3v0C763.5 617.5 765.5 616.5 768 616.5zM836.4 595.3h51.7c2.5 0 4.5 1 4.5 2.3v0c0 1.2-2.1 2.3-4.5 2.3h-51.7c-2.5 0-4.5-1-4.5-2.3v0C831.9 596.3 833.9 595.3 836.4 595.3zM532.5 772.2h378.2c2.5 0 4.5 1 4.5 2.3v0c0 1.2-2.1 2.3-4.5 2.3H532.5c-2.5 0-4.5-1-4.5-2.3v0C528 773.2 530 772.2 532.5 772.2zM534.5 793.4h178.3c2.5 0 4.5 1 4.5 2.3v0c0 1.2-2.1 2.3-4.5 2.3H534.5c-2.5 0-4.5-1-4.5-2.3v0C530 794.4 532 793.4 534.5 793.4zM536.2 814.6h111.3c2.5 0 4.5 1 4.5 2.3v0c0 1.2-2 2.3-4.5 2.3H536.2c-2.5 0-4.5-1-4.5-2.3v0C531.7 815.6 533.7 814.6 536.2 814.6zM668.7 814.6h251.8c2.5 0 4.5 1 4.5 2.3l0 0c0 1.2-2.1 2.3-4.5 2.3H668.7c-2.5 0-4.5-1-4.5-2.3l0 0C664.1 815.6 666.2 814.6 668.7 814.6zM737.1 793.4h179.5c2.5 0 4.5 1 4.5 2.3v0c0 1.2-2.1 2.3-4.5 2.3H737.1c-2.5 0-4.5-1-4.5-2.3v0C732.5 794.4 734.6 793.4 737.1 793.4zM559 890.3h111.3c2.5 0 4.5 1 4.5 2.3v0c0 1.2-2 2.3-4.5 2.3H559c-2.5 0-4.5-1-4.5-2.3v0C554.4 891.3 556.5 890.3 559 890.3zM691.4 890.3h251.8c2.5 0 4.5 1 4.5 2.3l0 0c0 1.2-2.1 2.3-4.5 2.3H691.4c-2.5 0-4.5-1-4.5-2.3l0 0C686.9 891.3 688.9 890.3 691.4 890.3zM561 913.1h111.3c2.5 0 4.5 1 4.5 2.3v0c0 1.2-2 2.3-4.5 2.3H561c-2.5 0-4.5-1-4.5-2.3v0C556.5 914.1 558.5 913.1 561 913.1zM693.5 913.1h251.8c2.5 0 4.5 1 4.5 2.3l0 0c0 1.2-2.1 2.3-4.5 2.3H693.5c-2.5 0-4.5-1-4.5-2.3l0 0C689 914.1 691 913.1 693.5 913.1zM566 935.8h111.3c2.5 0 4.5 1 4.5 2.3v0c0 1.2-2 2.3-4.5 2.3H566c-2.5 0-4.5-1-4.5-2.3v0C561.4 936.9 563.5 935.8 566 935.8zM698.4 935.8h251.8c2.5 0 4.5 1 4.5 2.3l0 0c0 1.2-2.1 2.3-4.5 2.3H698.4c-2.5 0-4.5-1-4.5-2.3l0 0C693.9 936.9 695.9 935.8 698.4 935.8zM596 1037.9h111.3c2.5 0 4.5 1 4.5 2.3v0c0 1.2-2 2.3-4.5 2.3H596c-2.5 0-4.5-1-4.5-2.3v0C591.4 1039 593.5 1037.9 596 1037.9zM728.4 1037.9h251.8c2.5 0 4.5 1 4.5 2.3l0 0c0 1.2-2.1 2.3-4.5 2.3H728.4c-2.5 0-4.5-1-4.5-2.3l0 0C723.9 1039 725.9 1037.9 728.4 1037.9z" class="color88b9e3 svgShape" clip-rule="evenodd"/><path fill="#fff" fill-rule="evenodd" d="M853.2,1294.9l-7.1-108.6c-0.7-10.2-9.6-18.6-19.8-18.6H717.7c-10.2,0-18.1,8.4-17.4,18.6l7.1,108.6 c0.7,10.2,9.6,18.6,19.8,18.6h108.6C846.1,1313.5,853.9,1305.1,853.2,1294.9z" class="colorfff svgShape" clip-rule="evenodd"/><path fill="#9c88e3" fill-rule="evenodd" d="M851.7,1295l-7.1-108.6c-0.3-4.7-2.5-9-5.8-12.2c-3.3-3.1-7.8-5.1-12.5-5.1H717.7c-0.4,0-0.8,0-1.1,0h0 c-4.2,0.3-7.9,2.1-10.6,5c-2.6,2.8-4.2,6.7-4.2,10.9c0,0.4,0,0.8,0,1.1v0l7.1,108.6c0.3,4.7,2.5,9,5.8,12.2 c3.3,3.1,7.8,5.1,12.5,5.1h108.6c0.4,0,0.8,0,1.1,0h0c4.2-0.3,7.9-2.1,10.6-5h0c2.6-2.8,4.2-6.7,4.2-10.9 C851.8,1295.7,851.8,1295.3,851.7,1295L851.7,1295L851.7,1295z M847.6,1186.2l7.1,108.6c0,0.4,0,0.9,0,1.3c0,5-1.9,9.6-5.1,12.9h0 c-3.2,3.4-7.6,5.6-12.6,5.9c-0.4,0-0.9,0-1.3,0H727.2c-5.5,0-10.7-2.3-14.5-5.9c-3.9-3.6-6.4-8.6-6.8-14.1l-7.1-108.6 c0-0.4,0-0.9,0-1.3c0-5,1.9-9.6,5.1-12.9c3.2-3.4,7.6-5.6,12.6-5.9c0.4,0,0.9,0,1.3,0h108.6c5.5,0,10.7,2.2,14.5,5.9 C844.7,1175.7,847.3,1180.7,847.6,1186.2z" class="color88b9e3 svgShape" clip-rule="evenodd"/><path fill="#fff" fill-rule="evenodd" d="M837.1,1336.1H728.5c-10.2,0-18.1,8.4-17.4,18.6l5.3,81.8c0.4,0.4,0.9,0.7,1.3,1.2l12.5,2.9 c13,2.9,31.8,6.1,54.5,9.2c22.8,3.2,49.7,6.3,78.9,8.9l-6.8-104.1C856.3,1344.5,847.4,1336.1,837.1,1336.1z" class="colorfff svgShape" clip-rule="evenodd"/><path fill="#9c88e3" fill-rule="evenodd" d="M837.1,1337.6H728.5c-0.4,0-0.8,0-1.1,0h0c-4.2,0.3-7.9,2.1-10.6,5h0c-2.6,2.8-4.2,6.7-4.2,10.9 c0,0.4,0,0.8,0,1.1v0l5.3,81.2l0.2,0.1l0,0l0.4,0.3l12.2,2.9c6.6,1.4,14.7,3,24,4.6c9,1.5,19.2,3.1,30.4,4.6 c11.7,1.6,24.5,3.2,38.1,4.8c12.4,1.4,25.5,2.8,39,4l-6.7-102.3c-0.3-4.7-2.5-9-5.9-12.2C846.3,1339.5,841.9,1337.6,837.1,1337.6 L837.1,1337.6z M728.5,1334.6h108.6c5.5,0,10.7,2.2,14.5,5.9c3.9,3.6,6.4,8.6,6.8,14.1l6.8,104.1l0.1,1.7l-1.7-0.2 c-14.3-1.3-27.9-2.7-40.7-4.2c-13.7-1.5-26.5-3.2-38.2-4.8c-11.2-1.5-21.4-3.1-30.5-4.7c-9.4-1.6-17.5-3.1-24.1-4.6l0,0l-12.5-2.9 l-0.7-0.4l-0.6-0.6l0,0l-0.6-0.6l-0.5-0.4l0-0.6l-5.3-81.8c0-0.4,0-0.9,0-1.3c0-5,1.9-9.6,5.1-12.9h0c3.2-3.4,7.6-5.6,12.6-5.9 C727.7,1334.6,728.1,1334.6,728.5,1334.6z" class="color88b9e3 svgShape" clip-rule="evenodd"/><path fill="#fff" fill-rule="evenodd" d="M905.8,1354.7l7,107.9c47.3,3.1,97.9,4.7,145.8,3.3c0.1-0.9,0.1-1.8,0-2.7l-7.1-108.6 c-0.7-10.2-9.6-18.6-19.8-18.6H923.2C913,1336.1,905.2,1344.5,905.8,1354.7z" class="colorfff svgShape" clip-rule="evenodd"/><path fill="#9c88e3" fill-rule="evenodd" d="M907.3,1354.6l6.9,106.6c24.4,1.6,49.6,2.8,74.7,3.3c22.9,0.5,45.9,0.6,68.3,0l0-1.1v0l-7.1-108.6 c-0.3-4.7-2.5-9-5.8-12.2c-3.3-3.1-7.8-5.1-12.5-5.1H923.2c-0.4,0-0.8,0-1.1,0h0c-4.2,0.3-7.9,2.1-10.6,5 c-2.6,2.8-4.2,6.7-4.2,10.9C907.3,1353.9,907.3,1354.3,907.3,1354.6L907.3,1354.6L907.3,1354.6z M911.4,1462.7l-7-107.9 c0-0.4,0-0.9,0-1.3c0-5,1.9-9.6,5.1-12.9c3.2-3.4,7.6-5.6,12.6-5.9c0.4,0,0.9,0,1.3,0h108.6c5.5,0,10.7,2.2,14.5,5.9 c3.9,3.6,6.4,8.6,6.8,14.1l7.1,108.6c0,0.5,0,0.9,0,1.4c0,0.5,0,1-0.1,1.4l-0.1,1.3l-1.3,0c-22.9,0.6-46.4,0.6-69.8,0.1 c-25.8-0.6-51.4-1.8-76.2-3.4l-1.3-0.1L911.4,1462.7z" class="color88b9e3 svgShape" clip-rule="evenodd"/><path fill="#fff" fill-rule="evenodd" d="M921.9,1313.5h108.6c10.2,0,18.1-8.4,17.4-18.6l-7.1-108.6c-0.7-10.2-9.6-18.6-19.8-18.6H912.4 c-10.2,0-18.1,8.4-17.4,18.6l7.1,108.6C902.8,1305.1,911.7,1313.5,921.9,1313.5z" class="colorfff svgShape" clip-rule="evenodd"/><path fill="#9c88e3" fill-rule="evenodd" d="M921.9,1312h108.6c0.4,0,0.8,0,1.1,0h0c4.2-0.3,7.9-2.1,10.6-4.9h0c2.6-2.8,4.2-6.7,4.2-10.9 c0-0.4,0-0.8,0-1.1v0l-7.1-108.6c-0.3-4.7-2.5-9-5.9-12.2c-3.3-3.1-7.8-5.1-12.5-5.1H912.4c-0.4,0-0.8,0-1.1,0h0 c-4.2,0.3-7.9,2.1-10.6,5h0c-2.6,2.8-4.2,6.7-4.2,10.9c0,0.4,0,0.8,0,1.1v0l7.1,108.6c0.3,4.7,2.5,9,5.9,12.2 C912.8,1310,917.2,1312,921.9,1312L921.9,1312z M1030.5,1315H921.9c-5.5,0-10.7-2.3-14.5-5.9c-3.9-3.6-6.4-8.6-6.8-14.1 l-7.1-108.6c0-0.4,0-0.9,0-1.3c0-5,1.9-9.6,5.1-12.9h0c3.2-3.4,7.6-5.6,12.6-5.9c0.4,0,0.9,0,1.3,0H1021c5.5,0,10.7,2.2,14.5,5.9 c3.9,3.6,6.4,8.6,6.8,14.1l7.1,108.6c0,0.4,0,0.9,0,1.3c0,5-1.9,9.6-5.1,12.9h0c-3.2,3.4-7.6,5.6-12.6,5.9 C1031.4,1315,1031,1315,1030.5,1315z" class="color88b9e3 svgShape" clip-rule="evenodd"/><polygon fill="#c8bcf3" fill-rule="evenodd" points="835.9 1290.2 734.2 1290.2 731.4 1234.4 833.1 1234.4" class="colorbcdbf3 svgShape" clip-rule="evenodd"/><polygon fill="#9c88e3" fill-rule="evenodd" points="832.9 1244.9 731.2 1244.9 730.8 1236.4 832.5 1236.4" class="color88b9e3 svgShape" clip-rule="evenodd"/><polygon fill="#ccc1f3" fill-rule="evenodd" points="728.2 1239.4 835.5 1239.4 819.5 1200 738.8 1200" class="colorc1ddf3 svgShape" clip-rule="evenodd"/><polygon fill="#b4a4ec" fill-rule="evenodd" points="835.6 1241.5 728.3 1241.5 728.2 1239.2 835.5 1239.2" class="colora4ccec svgShape" clip-rule="evenodd"/><polygon fill="#9c88e3" fill-rule="evenodd" points="820.5 1279.2 800 1279.2 798.4 1249.8 819 1249.8" class="color88b9e3 svgShape" clip-rule="evenodd"/><polygon fill="#c8bcf3" fill-rule="evenodd" points="818.7 1264 813.4 1264 812.7 1250.7 818.1 1250.7" class="colorbcdbf3 svgShape" clip-rule="evenodd"/><polygon fill="#c8bcf3" fill-rule="evenodd" points="812.2 1264 806.8 1264 806.1 1250.7 811.5 1250.7" class="colorbcdbf3 svgShape" clip-rule="evenodd"/><polygon fill="#c8bcf3" fill-rule="evenodd" points="805.6 1264 800.1 1264 799.4 1250.7 804.9 1250.7" class="colorbcdbf3 svgShape" clip-rule="evenodd"/><polygon fill="#c8bcf3" fill-rule="evenodd" points="819.5 1278.3 814.2 1278.3 813.5 1264.9 818.8 1264.9" class="colorbcdbf3 svgShape" clip-rule="evenodd"/><polygon fill="#c8bcf3" fill-rule="evenodd" points="812.9 1278.3 807.5 1278.3 806.8 1264.9 812.3 1264.9" class="colorbcdbf3 svgShape" clip-rule="evenodd"/><polygon fill="#c8bcf3" fill-rule="evenodd" points="806.3 1278.3 800.9 1278.3 800.2 1264.9 805.6 1264.9" class="colorbcdbf3 svgShape" clip-rule="evenodd"/><polygon fill="#bcb0e4" fill-rule="evenodd" points="817.3 1252 812.8 1252 812.7 1250.7 818.1 1250.7 818.7 1264 817.9 1264" class="colorb0c2e4 svgShape" clip-rule="evenodd"/><polygon fill="#bcb0e4" fill-rule="evenodd" points="810.8 1252 806.2 1252 806.1 1250.7 811.5 1250.7 812.2 1264 811.4 1264" class="colorb0c2e4 svgShape" clip-rule="evenodd"/><polygon fill="#bcb0e4" fill-rule="evenodd" points="804.1 1252 799.5 1252 799.4 1250.7 804.9 1250.7 805.6 1264 804.7 1264" class="colorb0c2e4 svgShape" clip-rule="evenodd"/><polygon fill="#bcb0e4" fill-rule="evenodd" points="818 1266.3 813.5 1266.3 813.5 1264.9 818.8 1264.9 819.5 1278.3 818.7 1278.3" class="colorb0c2e4 svgShape" clip-rule="evenodd"/><polygon fill="#bcb0e4" fill-rule="evenodd" points="811.5 1266.3 806.9 1266.3 806.8 1264.9 812.3 1264.9 812.9 1278.3 812.1 1278.3" class="colorb0c2e4 svgShape" clip-rule="evenodd"/><polygon fill="#bcb0e4" fill-rule="evenodd" points="804.8 1266.3 800.2 1266.3 800.2 1264.9 805.6 1264.9 806.3 1278.3 805.5 1278.3" class="colorb0c2e4 svgShape" clip-rule="evenodd"/><polygon fill="#9c88e3" fill-rule="evenodd" points="822.3 1248 740.7 1248 740.4 1241.5 821.9 1241.5" class="color88b9e3 svgShape" clip-rule="evenodd"/><polygon fill="#fff" fill-rule="evenodd" points="822.4 1249.7 740.8 1249.7 740.7 1247.7 822.3 1247.7" class="colorfff svgShape" clip-rule="evenodd"/><polygon fill="#9c88e3" fill-rule="evenodd" points="794.7 1292.3 774.1 1292.3 771.9 1249.8 792.5 1249.8" class="color88b9e3 svgShape" clip-rule="evenodd"/><polygon fill="#c8bcf3" fill-rule="evenodd" points="792 1259.1 786.7 1259.1 786.2 1250.7 791.6 1250.7" class="colorbcdbf3 svgShape" clip-rule="evenodd"/><polygon fill="#c8bcf3" fill-rule="evenodd" points="785.5 1259.1 780 1259.1 779.6 1250.7 785 1250.7" class="colorbcdbf3 svgShape" clip-rule="evenodd"/><polygon fill="#c8bcf3" fill-rule="evenodd" points="778.8 1259.1 773.4 1259.1 772.9 1250.7 778.4 1250.7" class="colorbcdbf3 svgShape" clip-rule="evenodd"/><polygon fill="#c8bcf3" fill-rule="evenodd" points="792.3 1264.8 787 1264.8 786.7 1260 792 1260" class="colorbcdbf3 svgShape" clip-rule="evenodd"/><polygon fill="#c8bcf3" fill-rule="evenodd" points="785.7 1264.8 780.3 1264.8 780.1 1260 785.5 1260" class="colorbcdbf3 svgShape" clip-rule="evenodd"/><polygon fill="#c8bcf3" fill-rule="evenodd" points="779.1 1264.8 773.7 1264.8 773.4 1260 778.8 1260" class="colorbcdbf3 svgShape" clip-rule="evenodd"/><polygon fill="#b4a4ec" fill-rule="evenodd" points="790.8 1252 786.3 1252 786.2 1250.7 791.6 1250.7 792 1259.1 791.2 1259.1" class="colora4ccec svgShape" clip-rule="evenodd"/><polygon fill="#b4a4ec" fill-rule="evenodd" points="784.3 1252 779.7 1252 779.6 1250.7 785 1250.7 785.5 1259.1 784.6 1259.1" class="colora4ccec svgShape" clip-rule="evenodd"/><polygon fill="#b4a4ec" fill-rule="evenodd" points="777.6 1252 773 1252 772.9 1250.7 778.4 1250.7 778.8 1259.1 778 1259.1" class="colora4ccec svgShape" clip-rule="evenodd"/><polygon fill="#b4a4ec" fill-rule="evenodd" points="791.3 1261.3 786.8 1261.3 786.7 1260 792 1260 792.3 1264.8 791.5 1264.8" class="colora4ccec svgShape" clip-rule="evenodd"/><polygon fill="#b4a4ec" fill-rule="evenodd" points="784.7 1261.3 780.1 1261.3 780.1 1260 785.5 1260 785.7 1264.8 784.9 1264.8" class="colora4ccec svgShape" clip-rule="evenodd"/><polygon fill="#b4a4ec" fill-rule="evenodd" points="778.1 1261.3 773.5 1261.3 773.4 1260 778.8 1260 779.1 1264.8 778.3 1264.8" class="colora4ccec svgShape" clip-rule="evenodd"/><polygon fill="#c8bcf3" fill-rule="evenodd" points="792.6 1270.7 787.3 1270.7 787 1265.9 792.3 1265.9" class="colorbcdbf3 svgShape" clip-rule="evenodd"/><polygon fill="#c8bcf3" fill-rule="evenodd" points="786.1 1270.7 780.6 1270.7 780.4 1265.9 785.8 1265.9" class="colorbcdbf3 svgShape" clip-rule="evenodd"/><polygon fill="#c8bcf3" fill-rule="evenodd" points="779.4 1270.7 774 1270.7 773.7 1265.9 779.1 1265.9" class="colorbcdbf3 svgShape" clip-rule="evenodd"/><polygon fill="#b4a4ec" fill-rule="evenodd" points="791.6 1267.2 787.1 1267.2 787 1265.9 792.3 1265.9 792.6 1270.7 791.8 1270.7" class="colora4ccec svgShape" clip-rule="evenodd"/><polygon fill="#b4a4ec" fill-rule="evenodd" points="785 1267.2 780.4 1267.2 780.4 1265.9 785.8 1265.9 786.1 1270.7 785.2 1270.7" class="colora4ccec svgShape" clip-rule="evenodd"/><polygon fill="#b4a4ec" fill-rule="evenodd" points="778.4 1267.2 773.8 1267.2 773.7 1265.9 779.1 1265.9 779.4 1270.7 778.6 1270.7" class="colora4ccec svgShape" clip-rule="evenodd"/><polygon fill="#c8bcf3" fill-rule="evenodd" points="792.9 1276.6 787.6 1276.6 787.3 1271.7 792.6 1271.7" class="colorbcdbf3 svgShape" clip-rule="evenodd"/><polygon fill="#c8bcf3" fill-rule="evenodd" points="786.4 1276.6 780.9 1276.6 780.7 1271.7 786.1 1271.7" class="colorbcdbf3 svgShape" clip-rule="evenodd"/><polygon fill="#c8bcf3" fill-rule="evenodd" points="779.7 1276.6 774.3 1276.6 774 1271.7 779.4 1271.7" class="colorbcdbf3 svgShape" clip-rule="evenodd"/><polygon fill="#b4a4ec" fill-rule="evenodd" points="791.9 1273.1 787.4 1273.1 787.3 1271.7 792.6 1271.7 792.9 1276.6 792.1 1276.6" class="colora4ccec svgShape" clip-rule="evenodd"/><polygon fill="#b4a4ec" fill-rule="evenodd" points="785.4 1273.1 780.7 1273.1 780.7 1271.7 786.1 1271.7 786.4 1276.6 785.5 1276.6" class="colora4ccec svgShape" clip-rule="evenodd"/><polygon fill="#b4a4ec" fill-rule="evenodd" points="778.7 1273.1 774.1 1273.1 774 1271.7 779.4 1271.7 779.7 1276.6 778.9 1276.6" class="colora4ccec svgShape" clip-rule="evenodd"/><polygon fill="#c8bcf3" fill-rule="evenodd" points="793.6 1291.3 788.3 1291.3 787.6 1277.7 792.9 1277.7" class="colorbcdbf3 svgShape" clip-rule="evenodd"/><polygon fill="#c8bcf3" fill-rule="evenodd" points="787.1 1291.3 781.7 1291.3 781 1277.7 786.4 1277.7" class="colorbcdbf3 svgShape" clip-rule="evenodd"/><polygon fill="#c8bcf3" fill-rule="evenodd" points="780.4 1291.3 775 1291.3 774.3 1277.7 779.7 1277.7" class="colorbcdbf3 svgShape" clip-rule="evenodd"/><polygon fill="#b4a4ec" fill-rule="evenodd" points="792.2 1279 787.7 1279 787.6 1277.7 792.9 1277.7 793.6 1291.3 792.8 1291.3" class="colora4ccec svgShape" clip-rule="evenodd"/><polygon fill="#b4a4ec" fill-rule="evenodd" points="785.7 1279 781 1279 781 1277.7 786.4 1277.7 787.1 1291.3 786.3 1291.3" class="colora4ccec svgShape" clip-rule="evenodd"/><polygon fill="#b4a4ec" fill-rule="evenodd" points="779 1279 774.4 1279 774.3 1277.7 779.7 1277.7 780.4 1291.3 779.6 1291.3" class="colora4ccec svgShape" clip-rule="evenodd"/><polygon fill="#9c88e3" fill-rule="evenodd" points="766.9 1279.2 746.3 1279.2 744.8 1249.8 765.4 1249.8" class="color88b9e3 svgShape" clip-rule="evenodd"/><polygon fill="#c8bcf3" fill-rule="evenodd" points="765.1 1264 759.8 1264 759.1 1250.7 764.4 1250.7" class="colorbcdbf3 svgShape" clip-rule="evenodd"/><polygon fill="#c8bcf3" fill-rule="evenodd" points="758.6 1264 753.1 1264 752.4 1250.7 757.9 1250.7" class="colorbcdbf3 svgShape" clip-rule="evenodd"/><polygon fill="#c8bcf3" fill-rule="evenodd" points="751.9 1264 746.5 1264 745.8 1250.7 751.2 1250.7" class="colorbcdbf3 svgShape" clip-rule="evenodd"/><polygon fill="#c8bcf3" fill-rule="evenodd" points="765.8 1278.3 760.5 1278.3 759.8 1264.9 765.1 1264.9" class="colorbcdbf3 svgShape" clip-rule="evenodd"/><polygon fill="#c8bcf3" fill-rule="evenodd" points="759.3 1278.3 753.9 1278.3 753.2 1264.9 758.6 1264.9" class="colorbcdbf3 svgShape" clip-rule="evenodd"/><polygon fill="#c8bcf3" fill-rule="evenodd" points="752.6 1278.3 747.2 1278.3 746.5 1264.9 752 1264.9" class="colorbcdbf3 svgShape" clip-rule="evenodd"/><polygon fill="#b4a4ec" fill-rule="evenodd" points="763.7 1252 759.2 1252 759.1 1250.7 764.4 1250.7 765.1 1264 764.3 1264" class="colora4ccec svgShape" clip-rule="evenodd"/><polygon fill="#b4a4ec" fill-rule="evenodd" points="757.1 1252 752.5 1252 752.4 1250.7 757.9 1250.7 758.6 1264 757.7 1264" class="colora4ccec svgShape" clip-rule="evenodd"/><polygon fill="#b4a4ec" fill-rule="evenodd" points="750.5 1252 745.9 1252 745.8 1250.7 751.2 1250.7 751.9 1264 751.1 1264" class="colora4ccec svgShape" clip-rule="evenodd"/><polygon fill="#b4a4ec" fill-rule="evenodd" points="764.4 1266.3 759.9 1266.3 759.8 1264.9 765.1 1264.9 765.8 1278.3 765 1278.3" class="colora4ccec svgShape" clip-rule="evenodd"/><polygon fill="#b4a4ec" fill-rule="evenodd" points="757.9 1266.3 753.2 1266.3 753.2 1264.9 758.6 1264.9 759.3 1278.3 758.5 1278.3" class="colora4ccec svgShape" clip-rule="evenodd"/><polygon fill="#b4a4ec" fill-rule="evenodd" points="751.2 1266.3 746.6 1266.3 746.5 1264.9 752 1264.9 752.6 1278.3 751.8 1278.3" class="colora4ccec svgShape" clip-rule="evenodd"/><polygon fill="#fff" fill-rule="evenodd" points="823.7 1292.9 821.4 1292.9 819.2 1248.9 821.4 1248.9" class="colorfff svgShape" clip-rule="evenodd"/><polygon fill="#fff" fill-rule="evenodd" points="798.8 1292.5 796.6 1292.5 794.3 1248.5 796.6 1248.5" class="colorfff svgShape" clip-rule="evenodd"/><polygon fill="#fff" fill-rule="evenodd" points="771.4 1292.5 769.2 1292.5 766.9 1248.5 769.2 1248.5" class="colorfff svgShape" clip-rule="evenodd"/><polygon fill="#fff" fill-rule="evenodd" points="746.2 1292.5 743.9 1292.5 741.7 1248.5 743.9 1248.5" class="colorfff svgShape" clip-rule="evenodd"/><path fill="#fff" fill-rule="evenodd" d="M799.3 1290.7h1.7l-.5-9h-1.7L799.3 1290.7 799.3 1290.7zM801.5 1290.7h1.7l-.5-9h-1.7L801.5 1290.7 801.5 1290.7zM803.8 1290.7h1.7l-.5-9h-1.7L803.8 1290.7 803.8 1290.7zM806.1 1290.7h1.7l-.5-9h-1.7L806.1 1290.7 806.1 1290.7zM808.3 1290.7h1.7l-.5-9h-1.7L808.3 1290.7 808.3 1290.7zM810.6 1290.7h1.7l-.5-9h-1.7L810.6 1290.7 810.6 1290.7zM812.9 1290.7h1.7l-.5-9h-1.7L812.9 1290.7 812.9 1290.7zM815.2 1290.7h1.7l-.5-9h-1.7L815.2 1290.7 815.2 1290.7zM817.4 1290.7h1.7l-.5-9H817L817.4 1290.7 817.4 1290.7zM819.7 1290.7h1.7l-.5-9h-1.7L819.7 1290.7 819.7 1290.7zM821.3 1279.7l.6 12.3h-23.4l-.6-12.3H821.3zM746.4 1290.7h1.7l-.5-9H746L746.4 1290.7 746.4 1290.7zM748.7 1290.7h1.7l-.5-9h-1.7L748.7 1290.7 748.7 1290.7zM751 1290.7h1.7l-.5-9h-1.7L751 1290.7 751 1290.7zM753.2 1290.7h1.7l-.5-9h-1.7L753.2 1290.7 753.2 1290.7zM755.5 1290.7h1.7l-.5-9h-1.7L755.5 1290.7 755.5 1290.7zM757.8 1290.7h1.7l-.5-9h-1.7L757.8 1290.7 757.8 1290.7zM760.1 1290.7h1.7l-.5-9h-1.7L760.1 1290.7 760.1 1290.7zM762.3 1290.7h1.7l-.5-9h-1.7L762.3 1290.7 762.3 1290.7zM764.6 1290.7h1.7l-.5-9h-1.7L764.6 1290.7 764.6 1290.7zM766.9 1290.7h1.7l-.5-9h-1.7L766.9 1290.7 766.9 1290.7zM768.5 1279.7l.6 12.3h-23.4l-.6-12.3H768.5z" class="colorfff svgShape" clip-rule="evenodd"/><polygon fill="#9c88e3" fill-rule="evenodd" points="838.3 1294.6 729.5 1294.6 729.4 1292.2 838.2 1292.2" class="color88b9e3 svgShape" clip-rule="evenodd"/><path fill="#785ed3" fill-rule="evenodd" d="M771.2,1363h3.3l-0.1-2.5c-0.1-2.7,2-4.9,4.7-4.9h21.7c2.7,0,5,2.2,5.1,4.9l0.1,2.3h3.3l-0.1-2.3 c-0.1-4.5-3.9-8.2-8.4-8.2h-21.7c-4.5,0-8.1,3.7-7.9,8.2L771.2,1363z" class="color5e9bd3 svgShape" clip-rule="evenodd"/><path fill="#9c88e3" fill-rule="evenodd" d="M803.8 1366.4c0 .6.5 1.1 1.1 1.1h5.6c.6 0 1.1-.5 1.1-1.1l-.1-3.6c0-.6-.5-1.1-1.1-1.1h-5.6c-.6 0-1.1.5-1.1 1.1L803.8 1366.4zM768.9 1366.4c0 .6.5 1.1 1.1 1.1h5.6c.6 0 1.1-.5 1.1-1.1l-.1-3.6c0-.6-.5-1.1-1.1-1.1h-5.6c-.6 0-1.1.5-1.1 1.1L768.9 1366.4z" class="color88b9e3 svgShape" clip-rule="evenodd"/><path fill="#ccc1f3" fill-rule="evenodd" d="M743.9,1428.1c0.1,3.6,3.1,6.5,6.8,6.5H834c3.6,0,6.4-2.9,6.3-6.5l-1.9-58.8c-0.1-1.8-1.6-3.3-3.4-3.3 h-89.9c-1.8,0-3.2,1.5-3.2,3.3L743.9,1428.1z" class="colorc1ddf3 svgShape" clip-rule="evenodd"/><path fill="#9c88e3" fill-rule="evenodd" d="M745.4,1369.2h89.9c1.8,0,3.3,1.5,3.4,3.3l0.6,19.6c0.2,7.2-5.4,13.1-12.7,13.1h-30.4l0.1,3.4 c0.1,2.7-2,4.9-4.7,4.9c-2.7,0-5-2.2-5.1-4.9l-0.1-3.4h-30.1c-7.2,0-13.3-5.9-13.5-13.1l-0.6-19.6 C742.2,1370.7,743.6,1369.2,745.4,1369.2z" class="color88b9e3 svgShape" clip-rule="evenodd"/><path fill="#c8bcf3" fill-rule="evenodd" d="M742.8,1388.8c0.2,7.2,6.3,13.1,13.5,13.1h70.3c7.2,0,12.9-5.9,12.7-13.1l-0.6-19.6 c-0.1-1.8-1.6-3.3-3.4-3.3h-89.9c-1.8,0-3.2,1.5-3.2,3.3L742.8,1388.8z" class="colorbcdbf3 svgShape" clip-rule="evenodd"/><path fill="#785ed3" fill-rule="evenodd" d="M786.5,1405.3c0.1,2.7,2.4,4.9,5.1,4.9c2.7,0,4.8-2.2,4.7-4.9l-0.2-7.8h-9.8L786.5,1405.3z" class="color5e9bd3 svgShape" clip-rule="evenodd"/><path fill="#ccc1f3" fill-rule="evenodd" d="M787.5,1404.9c0.1,2.1,1.8,3.8,3.9,3.8c2.1,0,3.8-1.7,3.7-3.8l-0.2-6.1h-7.6L787.5,1404.9z" class="colorc1ddf3 svgShape" clip-rule="evenodd"/><polygon fill="#785ed3" fill-rule="evenodd" points="787.3 1403.2 795.7 1403.2 795.7 1401.9 787.3 1401.9" class="color5e9bd3 svgShape" clip-rule="evenodd"/><path fill="#785ed3" fill-rule="evenodd" d="M731.6,1463.8l-15.2-0.8c-6.2,10-15.5,19.2-27.9,20.1c5,1.8,8.6,2.1,13.3,2.1c11.4,0.2,22.9,0.3,34.3,0.3 C735.8,1478,734.3,1470.9,731.6,1463.8L731.6,1463.8z M730,1459.9l-14.6-0.8c-0.7,0-1.4,0.3-1.8,0.9c-7.1,12-18.6,22.3-33.5,18.4 l-0.3-0.1c-8.2-6.1-14.1-17.1-10.8-27.3c5.9-18.6,20.9-24.3,38.7-17.9c0.5,1.5,3,3,7.3,4.6c1.3,1.1,2.5,2.2,3.5,3.5h0 C723.6,1447.6,726.8,1452.4,730,1459.9L730,1459.9z M680,1483.2L680,1483.2L680,1483.2c6.2,3.9,12.8,5.7,19.9,5.8 c12.1,0,24.3,0.3,36.5,0.3c-0.4,30.7-22.2,54-46.3,70.3c-44.3-0.7-61.7-56.1-69.5-126.6c-4.3-38.5-5.6-81.4-7-122.5 c-1.8-55.9-3.5-108.4-12.2-141.9c-13.9-53.8-72.1-83.6-98.2-131.1c-9.8-17.9-19-63.5-27.2-120.5c-8.3-57.2-15.6-125.5-21.6-188.8 c-0.8-8.6-1.4-20.6-2-34.6c-3.1-67.3-8.3-181.9-56.9-205.2h496.1v0l0.2,0c49.7-5.5,65.6,49,71.5,102c2.3,20.9,3.1,41.5,3.7,58.3 c0.4,10.3,0.7,19.1,1.3,25.7c6.1,67.5,13.9,148.2,23.1,217.2c9.2,69.2,19.7,126.7,31.3,147.7c11.2,20.5,28.2,37.6,45.1,54.7 c22.6,22.9,45.1,45.6,52.8,75.5c8.5,33.1,10.2,85.4,12,141.1c1.6,49.9,3.3,102.5,10.2,146.7c-111.9,14.3-266.9,2.6-357.8-10 c-22.7-3.2-41.5-6.4-54.5-9.2c-5.2-1.1-9.4-2.1-12.5-2.9c-2.2-2-4.2-3.5-5.8-4.2c-0.2-0.1-0.6-0.3-0.8-0.4v0 c-20.2-8.3-38.8-2.3-45.8,19.5C661.3,1462.8,669.2,1476.3,680,1483.2L680,1483.2z M722.6,1440.2c2.1,0.5,4.4,1.1,6.9,1.6 c13.1,2.9,31.9,6.1,54.8,9.3c88.1,12.2,236.4,23.6,347.8,11.3c22.7-2.5,2.4,0.7,34.4-4.8c14.4-2.5,27.9-5.5,40.2-9.1 c9.3-2.7,15.6-5.5,20.4-7.7c11.6-5.2,13.5-6.1,31.5,11.5c20.6,20.1,31.7,38.7,31.3,56.3c-0.4,17.4-12.3,34.1-37.6,50.6h-35.9 c-17,0-25.4,0-36.4,0H697.5v0l-0.3,0c30.2-22,41.3-45.2,42.8-65.8C741.4,1474.8,734.6,1454.7,722.6,1440.2L722.6,1440.2z M381.1,488.3c-21.8,1.3-34.7,17.7-38.3,38.2c-2,11.5-1.2,24.5,2.8,37.3c5.8,18.7,18.2,37,37.8,49.9h59.5 c-6.8-60.4-22-120.3-61.1-125.1C381.6,488.4,381.3,488.4,381.1,488.3L381.1,488.3z M354.8,495.7c6.8-6.3,15.5-10.2,26.1-10.8 c0.3-0.2,0.6-0.3,1-0.3h509.5c52.7-5.7,69.5,50.6,75.6,105.5c2.3,20.9,3.1,41.7,3.7,58.5c0.4,10.2,0.7,19.1,1.3,25.5 c6.1,67.4,13.9,148,23.1,217c9.1,68.7,19.6,125.8,30.8,146.3c26,47.6,84.3,77.3,98.2,131.1c8.7,33.5,10.4,86,12.2,141.9 c1.6,49.8,3.3,102.4,10.1,146.3c21.7-2.9,41.8-6.9,59.3-12c9-2.6,15.2-5.4,19.9-7.5c13.6-6.1,15.9-7.1,35.8,12.3 c21.4,20.8,32.9,40.4,32.5,59.1c-0.5,18.8-13,36.6-39.6,53.9c-0.3,0.3-0.8,0.4-1.2,0.4h-294c-89.5,0-178.9,0.4-268.4,0.4 c-47.4-0.1-65.8-57.2-73.9-130c-4.3-38.6-5.7-81.6-7-122.8c-1.8-55.7-3.5-108-12-141.1c-7.7-29.9-30.2-52.6-52.8-75.5 c-16.9-17.1-33.9-34.3-45.1-54.7c-10-18.3-19.4-64.4-27.7-121.8c-8.3-57.1-15.6-125.6-21.7-188.9c-0.8-8.7-1.4-20.7-2-34.8 c-1-22.1-2.2-49.4-5.2-76.8l-61.3-0.3c-20.6-13.3-33.6-32.5-39.6-52C335.5,542.3,336.6,512.6,354.8,495.7z" class="color5e9bd3 svgShape" clip-rule="evenodd"/><g fill="#000" class="color000 svgShape"><path fill="#9c88e3" fill-rule="evenodd" d="M965.7,1195.6c-27.3,0-48.4,22.2-47.1,49.4c1.3,27.3,24.5,49.4,51.8,49.4s48.4-22.2,47.1-49.4 C1016.2,1217.8,993,1195.6,965.7,1195.6L965.7,1195.6z M970.6,1298.6c-29.5,0-54.6-24-56-53.5c-1.4-29.5,21.5-53.5,51-53.5 c29.5,0,54.6,24,56,53.5C1023,1274.6,1000.1,1298.6,970.6,1298.6z" class="color88b9e3 svgShape" clip-rule="evenodd"/><path fill="#9c88e3" fill-rule="evenodd" d="M965.7,1195.6c-16,0-27.9,22.2-26.6,49.4c1.3,27.3,15.3,49.4,31.3,49.4c16,0,27.9-22.2,26.6-49.4 C995.7,1217.8,981.7,1195.6,965.7,1195.6L965.7,1195.6z M970.6,1298.6c-18.2,0-34.2-24-35.6-53.5c-1.4-29.5,12.3-53.5,30.5-53.5 c18.2,0,34.2,24,35.6,53.5C1002.5,1274.6,988.8,1298.6,970.6,1298.6z" class="color88b9e3 svgShape" clip-rule="evenodd"/><path fill="#9c88e3" fill-rule="evenodd" d="M965.7,1195.6c-2.5,0-7.5,16.8-6,49.4c1.5,32.6,8.2,49.4,10.6,49.4c2.5,0,7.5-16.8,6-49.4 C974.8,1212.4,968.2,1195.6,965.7,1195.6L965.7,1195.6z M970.6,1298.6c-9.8,0-14-35-14.9-53.5c-0.9-18.5,0.1-53.5,9.9-53.5 c9.8,0,14,35,14.9,53.5C981.3,1263.6,980.4,1298.6,970.6,1298.6z" class="color88b9e3 svgShape" clip-rule="evenodd"/><polygon fill="#9c88e3" fill-rule="evenodd" points="916.7 1247.1 1019.6 1247.1 1019.4 1243 916.5 1243" class="color88b9e3 svgShape" clip-rule="evenodd"/><path fill="#9c88e3" fill-rule="evenodd" d="M967.3 1228.3c-16.8 0-32.9-4.5-43-12.1l2.4-3.2c9.4 7.1 24.5 11.3 40.5 11.3 16.1 0 31-4.3 39.7-11.5l2.7 3.2C1000.1 1223.6 984.3 1228.3 967.3 1228.3zM1009.8 1277.3c-9.4-7.2-24.6-11.5-40.7-11.5-16 0-30.7 4.2-39.4 11.3l-2.7-3.2c9.4-7.6 25.1-12.1 41.9-12.1 17 0 33.2 4.6 43.3 12.4L1009.8 1277.3zM967.4 1211c-12.1 0-25-3.9-26.1-11.4l4-.4c.6 3.7 9.7 7.8 21.9 7.8 12.2 0 20.8-4 21.2-7.7l4.1.6C991.7 1206.3 981.2 1211 967.4 1211zM948.8 1290.9l-4.1-.4c.5-7.5 12.9-11.4 25-11.4 13.8 0 24.8 4.7 26.1 11.2l-4 .6c-.7-3.7-9.7-7.7-21.9-7.7C957.8 1283.1 949.1 1287.2 948.8 1290.9z" class="color88b9e3 svgShape" clip-rule="evenodd"/></g><path fill="#785ed3" fill-rule="evenodd" d="M983.5,1384.2c0,0,8-13.8,24.8-13.9c14.9-0.2,25.6,13.8,26.1,30.2c0.6,18.9-12.8,41.5-48.6,61.3 c-37-19.1-51.7-41.4-52.2-60.4c-0.5-16.4,9.4-30.5,24.3-30.6C974.6,1370.6,983.5,1384.2,983.5,1384.2z" class="color5e9bd3 svgShape" clip-rule="evenodd"/></g><g fill="#000" class="color000 svgShape"><path fill="#fff" fill-rule="evenodd" d="M374.7,1111.7c0-14.8,12-26.8,26.7-26.8c14.8,0,26.8,12,26.8,26.8c0,14.8-12,26.7-26.8,26.7 C386.6,1138.4,374.7,1126.4,374.7,1111.7L374.7,1111.7z M401.4,1143c17.3,0,31.4-14,31.4-31.4c0-17.3-14-31.4-31.4-31.4 c-17.3,0-31.4,14-31.4,31.4C370,1129,384.1,1143,401.4,1143z" class="colorfff svgShape" clip-rule="evenodd"/><path fill="#fff" fill-rule="evenodd" d="M401.4,1097.2c-8,0-14.5,6.5-14.5,14.5c0,8,6.5,14.5,14.5,14.5s14.5-6.5,14.5-14.5 C415.9,1103.7,409.4,1097.2,401.4,1097.2z" class="colorfff svgShape" clip-rule="evenodd"/></g><g fill="#000" class="color000 svgShape"><path fill="#fff" fill-rule="evenodd" d="M517.9,1359.7c0-18.1,14.7-32.8,32.8-32.8c18.1,0,32.8,14.7,32.8,32.8c0,18.1-14.7,32.8-32.8,32.8 C532.6,1392.5,517.9,1377.8,517.9,1359.7L517.9,1359.7z M550.7,1398.1c21.2,0,38.4-17.2,38.4-38.5c0-21.2-17.2-38.5-38.4-38.5 c-21.2,0-38.5,17.2-38.5,38.5C512.3,1380.9,529.5,1398.1,550.7,1398.1z" class="colorfff svgShape" clip-rule="evenodd"/><circle cx="550.7" cy="1359.7" r="17.7" fill="#fff" fill-rule="evenodd" class="colorfff svgShape" clip-rule="evenodd"/></g><g fill="#000" class="color000 svgShape"><path fill="#fff" fill-rule="evenodd" d="M1498.2,986.3c0-18.1,14.7-32.8,32.8-32.8c18.1,0,32.8,14.7,32.8,32.8c0,18.1-14.7,32.8-32.8,32.8 C1512.8,1019.1,1498.2,1004.4,1498.2,986.3L1498.2,986.3z M1531,1024.7c21.2,0,38.4-17.2,38.4-38.5c0-21.2-17.2-38.5-38.4-38.5 c-21.2,0-38.5,17.2-38.5,38.5C1492.5,1007.5,1509.7,1024.7,1531,1024.7z" class="colorfff svgShape" clip-rule="evenodd"/><path fill="#fff" fill-rule="evenodd" d="M1531,968.6c-9.8,0-17.7,7.9-17.7,17.7c0,9.8,7.9,17.7,17.7,17.7c9.8,0,17.7-7.9,17.7-17.7 C1548.7,976.5,1540.8,968.6,1531,968.6z" class="colorfff svgShape" clip-rule="evenodd"/></g><g fill="#000" class="color000 svgShape"><path fill="#fff" fill-rule="evenodd" d="M1439.3,1155.2c0-12,9.7-21.7,21.7-21.7c12,0,21.7,9.7,21.7,21.7s-9.7,21.7-21.7,21.7 C1449,1176.9,1439.3,1167.2,1439.3,1155.2L1439.3,1155.2z M1461,1180.7c14.1,0,25.5-11.4,25.5-25.5c0-14.1-11.4-25.5-25.5-25.5 c-14.1,0-25.5,11.4-25.5,25.5C1435.5,1169.2,1447,1180.7,1461,1180.7z" class="colorfff svgShape" clip-rule="evenodd"/><path fill="#fff" fill-rule="evenodd" d="M1461,1143.4c-6.5,0-11.8,5.3-11.8,11.8c0,6.5,5.3,11.8,11.8,11.8c6.5,0,11.8-5.3,11.8-11.8 C1472.8,1148.7,1467.5,1143.4,1461,1143.4z" class="colorfff svgShape" clip-rule="evenodd"/></g><g fill="#000" class="color000 svgShape"><path fill="#fff" fill-rule="evenodd" d="M1073.4,682.9c0-12,9.7-21.7,21.7-21.7c12,0,21.7,9.7,21.7,21.7s-9.7,21.7-21.7,21.7 C1083.1,704.7,1073.4,694.9,1073.4,682.9L1073.4,682.9z M1095.1,708.4c14.1,0,25.5-11.4,25.5-25.5c0-14.1-11.4-25.5-25.5-25.5 c-14.1,0-25.5,11.4-25.5,25.5C1069.6,697,1081,708.4,1095.1,708.4z" class="colorfff svgShape" clip-rule="evenodd"/><path fill="#fff" fill-rule="evenodd" d="M1095.1,671.2c-6.5,0-11.8,5.3-11.8,11.8c0,6.5,5.3,11.8,11.8,11.8c6.5,0,11.8-5.3,11.8-11.8 C1106.9,676.4,1101.6,671.2,1095.1,671.2z" class="colorfff svgShape" clip-rule="evenodd"/></g></svg>