<svg xmlns="http://www.w3.org/2000/svg" width="40" height="40" fill="none" viewBox="0 0 40 40"><g id="🦆 icon &quot;virtual reality eye bold&quot;"><path id="Vector" fill="#ACACAC" d="M20 5.94883C27.4203 5.9491 33.7881 11.359 36.5167 19.0729L36.561 19.214L36.8338 20L36.561 20.7861C33.7882 28.6416 27.42 34.052 19.9992 34.052C12.5784 34.052 6.2101 28.6416 3.48166 20.927L3.43735 20.786L3.16621 19.9999L3.43903 19.2139C6.21189 11.359 12.5797 5.94901 20 5.94878V5.94883ZM33.1287 20C30.7434 14.0546 25.7637 10.0245 20 10.0245C14.2363 10.0245 9.25655 14.0546 6.90908 19.8957L6.87129 20C9.25659 25.9455 14.2363 29.9756 20 29.9756C25.7637 29.9756 30.7435 25.9455 33.0909 20.1043L33.1287 20ZM20 13.9611C22.7779 13.9611 25.0299 16.6649 25.0299 20C25.0299 23.3352 22.7779 26.039 20 26.039C17.2221 26.039 14.9701 23.3352 14.9701 20C14.9731 16.6662 17.2233 13.9646 19.9997 13.9611H20ZM20 21.9448C20.8946 21.9448 21.6198 21.0741 21.6198 20C21.6198 18.9259 20.8946 18.0552 20 18.0552C19.1054 18.0552 18.3802 18.9259 18.3802 20C18.3812 21.0736 19.1058 21.9435 19.9999 21.9447H20L20 21.9448ZM21.705 11.9959H18.295V0H21.705V11.9959ZM21.705 40H18.295V28.0041H21.705V40ZM13.3333 22.0471H0V17.953H13.3333V22.0471ZM40 22.0471H26.6667V17.953H40V22.0471Z"/></g></svg>