<svg width="74" height="74" viewBox="0 0 74 74" fill="none" xmlns="http://www.w3.org/2000/svg">
<path d="M56.6667 60H16.6667C15.7222 60 14.93 59.68 14.29 59.04C13.65 58.4 13.3311 57.6089 13.3333 56.6667V48.8333C13.3333 47.7222 13.57 46.6945 14.0433 45.75C14.5167 44.8056 15.1967 44.0278 16.0833 43.4167C18.9167 41.3056 22.1811 39.6522 25.8767 38.4567C29.5722 37.2611 33.1689 36.6645 36.6667 36.6667C40.1667 36.6667 43.7645 37.2633 47.46 38.4567C51.1556 39.65 54.4189 41.3033 57.25 43.4167C58.1389 44.0278 58.82 44.8056 59.2933 45.75C59.7667 46.6945 60.0022 47.7222 60 48.8333V56.6667C60 57.6111 59.68 58.4033 59.04 59.0433C58.4 59.6833 57.6089 60.0022 56.6667 60ZM36.6667 33.3333C33 33.3333 29.8611 32.0278 27.25 29.4167C24.6389 26.8056 23.3333 23.6667 23.3333 20C23.3333 16.3333 24.6389 13.1945 27.25 10.5833C29.8611 7.97223 33 6.66668 36.6667 6.66668C40.3333 6.66668 43.4722 7.97223 46.0833 10.5833C48.6945 13.1945 50 16.3333 50 20C50 23.6667 48.6945 26.8056 46.0833 29.4167C43.4722 32.0278 40.3333 33.3333 36.6667 33.3333ZM13.3333 6.66668H6.66668V13.3333C6.66668 14.2778 6.34668 15.07 5.70668 15.71C5.06668 16.35 4.27557 16.6689 3.33334 16.6667C2.3889 16.6667 1.59668 16.3467 0.956678 15.7067C0.316678 15.0667 -0.00221069 14.2756 1.1534e-05 13.3333V6.66668C1.1534e-05 4.83335 0.653345 3.26334 1.96001 1.95668C3.26668 0.650012 4.83557 -0.00221069 6.66668 1.1534e-05H13.3333C14.2778 1.1534e-05 15.07 0.320011 15.71 0.960011C16.35 1.60001 16.6689 2.39112 16.6667 3.33334C16.6667 4.27779 16.3467 5.07001 15.7067 5.71001C15.0667 6.35001 14.2756 6.6689 13.3333 6.66668ZM6.66668 73.3333C4.83335 73.3333 3.26334 72.68 1.95668 71.3733C0.650012 70.0667 -0.00221069 68.4978 1.1534e-05 66.6667V60C1.1534e-05 59.0556 0.320011 58.2633 0.960011 57.6233C1.60001 56.9833 2.39112 56.6645 3.33334 56.6667C4.27779 56.6667 5.07001 56.9867 5.71001 57.6267C6.35001 58.2667 6.6689 59.0578 6.66668 60V66.6667H13.3333C14.2778 66.6667 15.07 66.9867 15.71 67.6267C16.35 68.2667 16.6689 69.0578 16.6667 70C16.6667 70.9445 16.3467 71.7367 15.7067 72.3767C15.0667 73.0167 14.2756 73.3356 13.3333 73.3333H6.66668ZM66.6667 73.3333H60C59.0556 73.3333 58.2633 73.0133 57.6233 72.3733C56.9833 71.7333 56.6645 70.9422 56.6667 70C56.6667 69.0556 56.9867 68.2633 57.6267 67.6233C58.2667 66.9833 59.0578 66.6645 60 66.6667H66.6667V60C66.6667 59.0556 66.9867 58.2633 67.6267 57.6233C68.2667 56.9833 69.0578 56.6645 70 56.6667C70.9445 56.6667 71.7367 56.9867 72.3767 57.6267C73.0167 58.2667 73.3356 59.0578 73.3333 60V66.6667C73.3333 68.5 72.68 70.07 71.3733 71.3767C70.0667 72.6833 68.4978 73.3356 66.6667 73.3333ZM60 6.66668C59.0556 6.66668 58.2633 6.34668 57.6233 5.70668C56.9833 5.06668 56.6645 4.27557 56.6667 3.33334C56.6667 2.3889 56.9867 1.59668 57.6267 0.956678C58.2667 0.316678 59.0578 -0.00221069 60 1.1534e-05H66.6667C68.5 1.1534e-05 70.07 0.653345 71.3767 1.96001C72.6833 3.26668 73.3356 4.83557 73.3333 6.66668V13.3333C73.3333 14.2778 73.0133 15.07 72.3733 15.71C71.7333 16.35 70.9422 16.6689 70 16.6667C69.0556 16.6667 68.2633 16.3467 67.6233 15.7067C66.9833 15.0667 66.6645 14.2756 66.6667 13.3333V6.66668H60Z" fill="white"/>
</svg>
