<svg xmlns="http://www.w3.org/2000/svg" xmlns:xlink="http://www.w3.org/1999/xlink" viewBox="0 0 1000 1000"><defs><linearGradient id="g" x1="6178.691" x2="6738.89" y1="784.929" y2="718.106" gradientTransform="matrix(-1 0 -.0626 1 7028.504 0)" gradientUnits="userSpaceOnUse"><stop offset="0" stop-color="#ffffff" class="stopColorfff svgShape"/><stop offset=".373" stop-color="#fdfdfd" class="stopColorfdfdfd svgShape"/><stop offset=".507" stop-color="#f6f6f6" class="stopColorf6f6f6 svgShape"/><stop offset=".603" stop-color="#ebebeb" class="stopColorebebeb svgShape"/><stop offset=".68" stop-color="#dadada" class="stopColordadada svgShape"/><stop offset=".746" stop-color="#c4c4c4" class="stopColorc4c4c4 svgShape"/><stop offset=".805" stop-color="#a8a8a8" class="stopColora8a8a8 svgShape"/><stop offset=".858" stop-color="#888888" class="stopColor888 svgShape"/><stop offset=".907" stop-color="#626262" class="stopColor626262 svgShape"/><stop offset=".952" stop-color="#373737" class="stopColor373737 svgShape"/><stop offset=".993" stop-color="#090909" class="stopColor090909 svgShape"/><stop offset="1" stop-color="#000000" class="stopColor000000 svgShape"/></linearGradient><linearGradient id="j" x1="6212.684" x2="6770.279" y1="362.96" y2="861.369" gradientTransform="matrix(-1 0 -.0626 1 7028.504 0)" gradientUnits="userSpaceOnUse"><stop offset="0" stop-color="#ebebeb" class="stopColorebebeb svgShape"/><stop offset=".105" stop-color="#e2e2e2" class="stopColore2e2e2 svgShape"/><stop offset=".279" stop-color="#c8c8c8" class="stopColorc8c8c8 svgShape"/><stop offset=".499" stop-color="#9f9f9f" class="stopColor9f9f9f svgShape"/><stop offset=".646" stop-color="gray" class="stopColorgray svgShape"/></linearGradient><linearGradient id="p" x1="6230.303" x2="6738.303" y1="780.494" y2="719.898" gradientTransform="matrix(-1 0 -.0626 1 7028.504 0)" gradientUnits="userSpaceOnUse"><stop offset="0" stop-color="#000000" class="stopColor000000 svgShape"/><stop offset=".373" stop-color="#020202" class="stopColor020202 svgShape"/><stop offset=".507" stop-color="#090909" class="stopColor090909 svgShape"/><stop offset=".603" stop-color="#141414" class="stopColor141414 svgShape"/><stop offset=".68" stop-color="#252525" class="stopColor252525 svgShape"/><stop offset=".746" stop-color="#3b3b3b" class="stopColor3b3b3b svgShape"/><stop offset=".805" stop-color="#575757" class="stopColor575757 svgShape"/><stop offset=".858" stop-color="#777777" class="stopColor777 svgShape"/><stop offset=".907" stop-color="#9d9d9d" class="stopColor9d9d9d svgShape"/><stop offset=".952" stop-color="#c8c8c8" class="stopColorc8c8c8 svgShape"/><stop offset=".993" stop-color="#f6f6f6" class="stopColorf6f6f6 svgShape"/><stop offset="1" stop-color="#ffffff" class="stopColorfff svgShape"/></linearGradient><linearGradient id="a" x1="6226.261" x2="6759.719" y1="360.586" y2="837.42" gradientTransform="matrix(-1 0 -.0626 1 7028.504 0)" gradientUnits="userSpaceOnUse"><stop offset="0" stop-color="#ffffff" class="stopColorfff svgShape"/><stop offset=".064" stop-color="#f6f7fc" class="stopColorf6f7fc svgShape"/><stop offset=".17" stop-color="#dce3f4" class="stopColordce3f4 svgShape"/><stop offset=".305" stop-color="#b3c1e7" class="stopColorb3c1e7 svgShape"/><stop offset=".464" stop-color="#7993d5" class="stopColor7993d5 svgShape"/><stop offset=".642" stop-color="#3158be" class="stopColor3158be svgShape"/><stop offset=".646" stop-color="#2f57bd" class="stopColor2f57bd svgShape"/></linearGradient><linearGradient id="r" x1="322.742" x2="930.112" y1="687.145" y2="825.237" gradientTransform="matrix(1 0 .0266 1 -2.181 0)" xlink:href="#a"/><linearGradient id="c" x1="5406.896" x2="5355.026" y1="1468.997" y2="1496.959" gradientTransform="rotate(-92.069 2540 3454.127)" gradientUnits="userSpaceOnUse"><stop offset="0" stop-color="#fcdb46" class="stopColorfcdb46 svgShape"/><stop offset="1" stop-color="#ff7655" class="stopColorff7655 svgShape"/></linearGradient><linearGradient id="b" x1="5371.242" x2="5395.254" y1="1480.157" y2="1480.157" gradientTransform="rotate(-92.069 2540 3454.127)" gradientUnits="userSpaceOnUse"><stop offset=".008" stop-color="#ffffff" class="stopColorfff svgShape"/><stop offset="1" stop-color="#c49a6c" class="stopColorc49a6c svgShape"/></linearGradient><linearGradient id="s" x1="5399.151" x2="5401.763" y1="1463.454" y2="1463.454" xlink:href="#b"/><linearGradient id="t" x1="5402.647" x2="5407.13" y1="1470.995" y2="1470.995" xlink:href="#b"/><linearGradient id="u" x1="7020.743" x2="6968.872" y1="7155.405" y2="7183.368" gradientTransform="scale(-1 1) rotate(-56.685 -2725.775 10792.36)" xlink:href="#c"/><linearGradient id="v" x1="6985.089" x2="7009.101" y1="7166.565" y2="7166.565" gradientTransform="scale(-1 1) rotate(-56.685 -2725.775 10792.36)" xlink:href="#b"/><linearGradient id="w" x1="7012.998" x2="7015.61" y1="7149.861" y2="7149.861" gradientTransform="scale(-1 1) rotate(-56.685 -2725.775 10792.36)" xlink:href="#b"/><linearGradient id="x" x1="7016.494" x2="7020.977" y1="7157.403" y2="7157.403" gradientTransform="scale(-1 1) rotate(-56.685 -2725.775 10792.36)" xlink:href="#b"/><radialGradient id="d" cx="173.859" cy="303.163" r="1159.468" gradientTransform="matrix(-.8186 -.0964 -.1002 .9941 1010.483 51.306)" gradientUnits="userSpaceOnUse"><stop offset="0" stop-color="#6469d4" class="stopColor6469d4 svgShape"/><stop offset="1" stop-color="#d4f3fb" class="stopColord4f3fb svgShape"/></radialGradient><radialGradient id="k" cx="71.096" cy="311.629" r="1159.505" gradientTransform="matrix(.8234 0 0 1 130.77 0)" xlink:href="#d"/><radialGradient id="l" cx="193.625" cy="830.518" r="492.197" xlink:href="#d"/><radialGradient id="m" cx="11793.951" cy="-255.393" r="638.651" gradientTransform="matrix(-.4518 0 0 .6859 6239.813 888.699)" xlink:href="#d"/><radialGradient id="n" cx="172.772" cy="106.386" r="538.659" gradientUnits="userSpaceOnUse"><stop offset="0" stop-color="#06375b" class="stopColor06375b svgShape"/><stop offset="1" stop-color="#8b99e1" class="stopColor8b99e1 svgShape"/></radialGradient><filter id="f" width="571.627" height="44.214" x="246.947" y="730.623" color-interpolation-filters="sRGB" filterUnits="userSpaceOnUse"><feFlood flood-color="#fff" result="bg"/><feBlend in="SourceGraphic" in2="bg"/></filter><filter id="i" width="340.669" height="217.243" x="321.274" y="509.542" color-interpolation-filters="sRGB" filterUnits="userSpaceOnUse"><feFlood flood-color="#fff" result="bg"/><feBlend in="SourceGraphic" in2="bg"/></filter><mask id="o" width="571.627" height="44.214" x="246.947" y="730.623" maskUnits="userSpaceOnUse"><g filter="url(#f)" mask="url(#e)" fill="#000000" class="color000 svgShape"><path d="M246.958 752.72c-1.39 12.212 125.506 22.117 283.43 22.117 157.926-.001 286.947-9.907 288.177-22.12 1.23-12.206-125.668-22.095-283.433-22.094s-286.785 9.89-288.174 22.097Z" style="mix-blend-mode:multiply" fill="url(#g)"/></g></mask><mask id="q" width="340.669" height="217.243" x="321.274" y="509.542" maskUnits="userSpaceOnUse"><g filter="url(#i)" mask="url(#h)" fill="#000000" class="color000 svgShape"><path d="M656.9 726.784a4.821 4.821 0 0 0 3.606-1.803 5.97 5.97 0 0 0 1.43-4.103l-9.52-207.307a3.929 3.929 0 0 0-3.822-4.029l-322.26.001a4.848 4.848 0 0 0-3.599 1.784 5.95 5.95 0 0 0-1.457 4.067l7.94 207.326a3.924 3.924 0 0 0 3.811 4.065Z" style="mix-blend-mode:multiply" fill="url(#j)"/></g></mask></defs><g data-name="Layer 1" fill="#000000" class="color000 svgShape"><path fill="url(#d)" d="M753.133 268.102c-82.446-63.63-207.197-147.985-401.617-74.536-67.125 25.364-126.149 74.428-171.626 133.969a498.873 498.873 0 0 0-76.202 142.825c-33.93 101.217-28.84 204.163 33.275 264.823 114.986 112.283 262.649 33.178 425.548 56.159 139.651 19.707 244.29-16.314 304.525-85.798a227.456 227.456 0 0 0 26.373-37.392c11.09-19.641 18.537-43.154 21.8-69.219 12.357-97.821-33.52-231.59-162.076-330.83Z"/><path fill="url(#k)" d="M280.266 254.131c88.338-53.607 220.81-122.867 406.726-27.098 64.188 33.07 117.947 88.753 157.19 153.266 28.834 47.348 49.852 99.478 61.44 150.903C929.207 635.794 913.83 737.538 846 790.573c-125.562 98.166-264.429 2.246-428.673 6.028-140.805 3.248-241.218-44.805-294.136-120.93a232.67 232.67 0 0 1-22.47-40.259c-9.057-20.823-14.103-45.07-14.734-71.362-2.48-98.693 56.534-226.306 194.278-309.919Z"/><path fill="url(#l)" d="M116.924 752.21c0 4.325 47.895 7.83 106.976 7.83s106.977-3.505 106.977-7.83-47.895-7.828-106.977-7.828-106.976 3.505-106.976 7.829Z"/><path fill="url(#m)" d="M660.177 754.015c0 5.32 61.122 9.634 136.52 9.634 75.396 0 136.518-4.313 136.518-9.634s-61.122-9.633-136.519-9.633-136.519 4.313-136.519 9.633Z"/><path fill="#e9aa8e" d="m863.625 748.787-1.088 4.898 3.36.697 1.586-5.083-3.858-.512z" class="colore9aa8e svgShape"/><path fill="#fad1de" d="M863.025 751.494a6.59 6.59 0 0 0-.366 2.288l3.133.582s1.16-2.031.778-2.186c-1.527-.619-2.865-1.109-3.545-.684Z" class="colorfad1de svgShape"/><path fill="#312c58" d="M865.78 757.268c-.864.592-10.89-.018-11.597-1.205a.933.933 0 0 1 .524-1.516s.08-.01.228-.018c.943-.09 4.583-.487 5.89-1.4 1.513-1.046 2.186-1.67 2.16-.91-.032.766 1.577 2.341 2.819 1.514.723-.487.89.594.73 1.692l-.002.005a3 3 0 0 1-.752 1.838Z" class="color312c58 svgShape"/><path fill="#716aaf" d="M866.533 755.425c-.073-.502-.254-1.404-.621-.892-.493.694-2.888-.13-3.898-.377-1.012-.243-5.655.707-5.655.707a4.035 4.035 0 0 1-1.424-.334c.943-.09 4.583-.487 5.89-1.4 1.513-1.046 2.186-1.67 2.16-.91-.032.766 1.577 2.341 2.819 1.514.723-.487.89.594.73 1.692Z" opacity=".44" class="color716aaf svgShape"/><path fill="#e9aa8e" d="m907.758 742.863 2.648 4.262 2.888-1.851-2.42-4.743-3.116 2.332z" class="colore9aa8e svgShape"/><path fill="#fad1de" d="M909.222 745.218a6.59 6.59 0 0 0 1.338 1.891l2.647-1.775s-.592-2.262-.972-2.106c-1.525.626-2.824 1.21-3.013 1.99Z" class="colorfad1de svgShape"/><path fill="#312c58" d="M915.23 747.419c-.204 1.028-7.798 7.602-9.133 7.248a.933.933 0 0 1-.686-1.45s.051-.063.15-.172c.612-.724 2.936-3.553 3.232-5.119.35-1.807.395-2.724.908-2.161.512.57 2.764.57 3.073-.89.177-.853 1.052-.199 1.705.7l.003.004a2.998 2.998 0 0 1 .747 1.84Z" class="color312c58 svgShape"/><path fill="#716aaf" d="M914.479 745.574c-.404-.307-1.164-.826-1.068-.203.133.841-2.154 1.927-3.05 2.457-.893.534-3.548 4.46-3.548 4.46a4.033 4.033 0 0 1-1.252.757c.612-.724 2.936-3.553 3.232-5.119.35-1.807.395-2.724.908-2.161.512.57 2.764.57 3.073-.89.177-.853 1.052-.199 1.705.7Z" opacity=".44" class="color716aaf svgShape"/><path fill="#203a6f" d="m877.494 671.647-14.99 78.055 5.157.93s26.388-62.271 26.775-74.468-16.942-4.517-16.942-4.517Z" class="color203a6f svgShape"/><path fill="#0f4c86" d="M905.376 672.124s6.54 7.102-1.498 26.562c-3.042 7.365-1.52 15.553-2.656 19.385 5.185 7.82 11.2 23.57 11.2 23.57l-4.283 3.079s-12.53-6.582-18.202-26.216-7.817-47.81-7.817-47.81Z" class="color0f4c86 svgShape"/><path fill="#e9aa8e" d="M880.895 638.636s-.877 4.298-2.166 9.438c-1.382 5.497-3.228 11.95-4.97 15.125-3.305 6.03-10.443 13.809-10.724 14.11a.017.017 0 0 0-.007.01l-1.097-.47s8.655-20.939 10.656-23.918c1.304-1.937 2.178-7.49 2.632-11.144l.002-.011.02-.115c.227-1.898.347-3.25.347-3.25Z" class="colore9aa8e svgShape"/><path fill="#d0876a" d="M878.73 648.074c-1.383 5.497-3.229 11.95-4.97 15.125-3.306 6.03-10.444 13.809-10.725 14.11a50.796 50.796 0 0 1 4.895-7.321c2.586-3.044 6.583-13.336 6.832-16.839.255-3.502 2.63-8.517 1.514-9.441a2.79 2.79 0 0 1-1.057-1.921l.002-.011c-.004-.074-.003-.113-.003-.113l.022-.002 3.836-.292s-.088 3.08-.347 6.705Z" opacity=".55" class="colord0876a svgShape"/><path fill="#6f6eb2" d="M907.278 680.972c-1.249 1.44-5.32 2.429-10.672 2.1h-.005a40.93 40.93 0 0 1-16.701-4.863c-12.254-6.62 1.396-51.74 3.375-55.155s11.934-5.31 16.803-5.12c0 0 10.415-.235 13.952 5.86 1.17 2.013 1.089 8.65.372 16.728-1.461 16.349-5.532 38.601-7.124 40.45Z" class="color6f6eb2 svgShape"/><path fill="#feaa32" d="M873.673 670.432c.598 8.35 5.608 9.913 8.054 10.29l7.378 1.9a15.36 15.36 0 0 0 5.112 1.223c4.112.42 9.25.045 12.202-1.442 5.043-2.538 6.708-28.815 6.708-28.815-1.05 1.509-2.467 1.496-3.882.591-2.851-1.819-5.68-7.251-5.416-11.034.275-3.954 1.338-17.292 2.347-20.295 1.003-3.005 2.91-3.51 2.91-3.51l-2.659-.913s-1.499.256-2.583 4.644c-.638 2.563-.642 5.022-1.731 7.67a12.936 12.936 0 0 1-1.176 2.233 4.97 4.97 0 0 1-9.167-1.85 14.979 14.979 0 0 1-.265-5.094c.912-4.894 2.554-6.701 1.797-8.09a.374.374 0 0 0-.17-.169c-.384-.255-1.23-.224-1.843.709-.58.883-2.909 15.03-5.582 22.31-2.673 7.272-9.19 6.8-9.999 8.108-.81 1.315-2.777 11.303-2.035 21.534Z" class="colorfeaa32 svgShape"/><path fill="#e68d00" d="M890.305 629.33c-.55 4.526 2.163 8.226 5.938 8.97 3.782.745 5.997-7.355 5.997-7.355l-.127-.205a12.936 12.936 0 0 1-1.176 2.234 4.97 4.97 0 0 1-9.167-1.85 14.979 14.979 0 0 1-.265-5.094c.912-4.894 2.554-6.701 1.797-8.09a.374.374 0 0 0-.17-.169 1.125 1.125 0 0 0-.038.55c.132 1.06-2.244 6.477-2.79 11.01Z" opacity=".25" class="colore68d00 svgShape"/><path fill="#e68d00" d="M894.217 683.845c4.112.42 9.25.045 12.202-1.442 5.043-2.538 6.708-28.815 6.708-28.815-1.05 1.509-2.467 1.496-3.882.591l-.064.062s3.769 3.394-.22 10.555c-3.232 5.788-16.255 13.69-14.744 19.05Z" opacity=".15" class="colore68d00 svgShape"/><path fill="#e9aa8e" d="m896.462 617.781 1.197-3.559 3.681.345.546 3.805s-2.084 4.165-3.455 3.98c-1.303-.177-2.017-4.23-1.969-4.57Z" class="colore9aa8e svgShape"/><path fill="#6f6eb2" d="M885.775 621.61s-11.299 8.596-12.313 19.34c0 0 4.79 2.872 6.282.785 1.492-2.087 6.03-20.125 6.03-20.125Z" class="color6f6eb2 svgShape"/><path fill="#433a87" d="m897.731 619.05.523 3.557-2.503-3.262 1.98-.295z" class="color433a87 svgShape"/><path fill="#574a9d" d="m893.387 621.218 4.435-2.172-.968-2.399-2.407.9s.512 1.495-1.06 3.67Z" class="color574a9d svgShape"/><path fill="#433a87" d="m900.381 619.394-1.834 3.254 3.235-2.343-1.401-.911z" class="color433a87 svgShape"/><path fill="#574a9d" d="m903.866 622.694-3.662-3.312 1.544-2.316 2.17 1.115a6.221 6.221 0 0 0-.052 4.513Z" class="color574a9d svgShape"/><path fill="#e9aa8e" d="M863.027 677.319s.76 1.452.36 2.337c-.398.886-1.985 3.177-2.797 1.437-.811-1.74-1.229-4.027 1.339-4.243Z" class="colore9aa8e svgShape"/><path fill="#d0876a" d="M860.767 678.24s.963.086 1.313-.507c0 0-.05 1.195-1.313.507Z" class="colord0876a svgShape"/><path fill="#d0876a" d="M860.324 678.692s1.902-.283 2.103.018.537 1.778-.216 2.287c0 0 .459-1.444.028-2.068Z" class="colord0876a svgShape"/><path fill="#574a9d" d="M877.619 642.474s1.81-7.997 3.622-10.835c0 0-3.527 6.564-4.108 10.78Z" class="color574a9d svgShape"/><path fill="#d0876a" d="M897.29 615.391s1.104 2.542 2.1 1.831a4.213 4.213 0 0 1 2.2-.71l-.21-1.589Z" opacity=".55" class="colord0876a svgShape"/><path fill="#121e3c" d="M895.408 609.871s-5.986-5.333.028-9.977c4.151-3.205 12.34 4.429 10.962 8.18-1.378 3.75-2.594 3.879-2.594 3.879Z" class="color121e3c svgShape"/><path fill="#e9aa8e" d="M904.915 609.011c-.579 1.27-1.683 6.656-5.64 7.096-3.962.445-3.76-6.971-3.646-7.453a2.348 2.348 0 0 1 .128-.4c.85-2.08 3.904-.933 6.154-.561.083.013.166.021.242.034 2.397.334 2.478-.952 2.478-.952s.625-.509 1.163.617c.543 1.12-.88 1.62-.88 1.62Z" class="colore9aa8e svgShape"/><path fill="#d0876a" d="M902.513 610.55a12.963 12.963 0 0 0-3.073-2.445 4.502 4.502 0 0 0-3.432.13 1.415 1.415 0 0 1-.25.019c.849-2.08 3.903-.933 6.154-.561.156.88.601 2.857.601 2.857Z" opacity=".55" class="colord0876a svgShape"/><path fill="#121e3c" d="M901.548 606.342s.864 5.565 1.302 4.228 1.39-4.548 1.39-4.548Z" class="color121e3c svgShape"/><path fill="#d0876a" d="M905.025 607.077s.62.589.382.916l-.521.716a2.036 2.036 0 0 0 .323-.832c-.016-.304-.39-.667-.183-.8Z" class="colord0876a svgShape"/><path fill="#312c58" d="M894.64 607.711s1.57-2.98 7.166-.872c0 0-5.762-4.91-7.165.872Z" opacity=".5" class="color312c58 svgShape"/><path fill="url(#n)" fill-rule="evenodd" d="M281.778 308.754v20.418h2.93v26.263h26.263v-26.263h32.538v-.163h9.672l-17.202 267.816h-7.123v23.2h111.115v-23.2h-6.23L416.537 329.01h30.76v.163H557.69v75.365h-4.282v4.796h4.436l.971 9.575.702.36c1.41.708 5.464 3.312 5.556 5.904.04 1.404-1.142 2.872-3.517 4.299-3.712 2.227-4.762 1.639-4.933 1.485-1.028-.84-.457-5.025.685-8.24l-2.758-.993c-.514 1.467-2.952 8.89.228 11.499a3.865 3.865 0 0 0 2.512.834c2.284 0 4.757-1.485 5.767-2.09 3.369-2.021 5.025-4.34 4.927-6.908-.148-4.02-4.584-6.95-6.428-8.017l-.783-7.708h5.636v-4.796h-5.807v-75.365h2.93v-21.126l-78.804-15.392-88.715-17.34-19.617-3.826-4.59-.896-.972.4-47.823 20.268Zm93.648-20.52-4.59.971-41.046 8.701 40.8-17.283.246.417Zm9.104 146.202-23.536-36.003 23.535-33.053 23.536 33.053Zm0 6.853 27.677 42.682-27.677 47.197-27.678-47.197Zm-24.054-48.064 3.63-56.527 18.391 25.828Zm3.794-91.779 6.566 2.775 5.56 2.307 19.619 8.238 10.254 4.3h-42Zm40.965 29.381-20.706 28.866-20.1-28.021.171-2.663h40.518Zm4.073 63.409-22.746-31.71 18.995-26.678Zm5.48 85.333-.356.609-27.672-42.33 23.064-35.568Zm.469 7.287 6.975 108.604-35.203-60.03Zm2.453 109.97h-66.36l33.18-57.096Zm-70.143-2.63 6.83-106.317 27.633 47.55Zm7.353-114.466 4.915-76.524 22.464 34.642Zm21.477-182.76 6.314-1.33 21.345 2.835 1.401 15.832-9.443-2.72-19.617-8.223-5.562-2.318-4.567-1.924 4.567-.97Zm71.323-2.626-51.706-5.996-10.922-1.256-3.637-5.686 14.56 2.832Zm-31.895 25.148-1.123-20.158 140.06 16.215v4.853Zm6.495 277.333h-.01l.01-.012ZM290.53 315.183l32.483-6.885 32.487-6.892v17.66h-1.445v1.336h-63.524Z"/><g mask="url(#o)" fill="#000000" class="color000 svgShape"><path d="M246.958 752.72c-1.39 12.212 125.506 22.117 283.43 22.117 157.926-.001 233.855-10.869 235.085-23.081 1.23-12.207-72.576-21.134-230.341-21.133s-286.785 9.89-288.174 22.097Z" style="mix-blend-mode:multiply" fill="url(#p)" opacity=".1"/></g><path fill="#0c4060" d="m368.588 744.072-40.118-17.876-.542.629s43.589 28.216 47.161 27.867c.159-.016-6.501-10.62-6.501-10.62Z" class="color0c4060 svgShape"/><path fill="#06375b" d="M674.336 704.619a22.838 22.838 0 0 1-5.468 15.697c-3.744 4.38-8.76 6.909-13.79 6.909H331.003c-8.096 0-14.227-6.556-14.566-15.57l-7.658-193.693a22.727 22.727 0 0 1 5.58-15.528 18.505 18.505 0 0 1 13.762-6.824h322.153a14.046 14.046 0 0 1 12.25 7.093 18.184 18.184 0 0 1 2.374 8.293l8.717 178.943Z" class="color06375b svgShape"/><path fill="#fdfdfd" d="M326.93 504.896h322.226c4.093 0 7.21 3.285 7.418 7.819l8.824 180.422c.274 5.957-4.422 11.465-9.776 11.465l-323.904.001c-4.115 0-7.223-3.318-7.397-7.898l-7.207-180.455c-.225-5.9 4.49-11.354 9.816-11.354Z" class="colorfdfdfd svgShape"/><g mask="url(#q)" fill="#000000" class="color000 svgShape"><path fill="url(#a)" d="M656.185 699.907a4.821 4.821 0 0 0 3.606-1.803 5.97 5.97 0 0 0 1.43-4.102l-8.805-180.431a3.929 3.929 0 0 0-3.822-4.029l-322.26.001a4.848 4.848 0 0 0-3.599 1.784 5.95 5.95 0 0 0-1.457 4.067l7.225 180.449a3.923 3.923 0 0 0 3.811 4.065Z"/></g><path fill="#06375b" d="m372.616 754.971 396.131-.963c2.985 0 5.723-2.744 6.115-6.128l.552-4.772-406.826.964-.603 4.771c-.427 3.384 1.646 6.128 4.63 6.128Z" class="color06375b svgShape"/><path fill="#475f97" d="m775.414 743.108-113.602-16.913-333.342.001 40.052 17.91 406.892-.998z" class="color475f97 svgShape"/><path fill="url(#r)" d="m726.041 738.516-81.135-7.714-267.127.001 32.819 8.693 315.443-.98z" opacity=".55"/><path fill="#0682c0" d="m886.305 495.712-264.53-38.334c-9.453-1.37-18.21 4.895-19.561 13.994l-24.52 165.244 298.762 43.295 24.521-165.244c1.35-9.099-5.219-17.585-14.672-18.955Z" class="color0682c0 svgShape"/><path fill="#175689" d="m673.615 689.939-106.828-15.485c-9.453-1.371-16.022-9.848-14.68-18.947l37.37-159.804 24.105-.093 48.942 7.093a18.184 18.184 0 0 1 2.374 8.293Z" opacity=".25" class="color175689 svgShape"/><path fill="#d8f0fa" d="m600.807 480.857-24.521 165.245c-1.35 9.098 5.219 17.585 14.672 18.955l264.53 38.334c9.453 1.37 18.21-4.896 19.56-13.994l24.522-165.244ZM637.114 474.22a4.545 4.545 0 1 1-3.853-4.978 4.479 4.479 0 0 1 3.853 4.978ZM648.18 475.823a4.545 4.545 0 1 1-3.854-4.978 4.48 4.48 0 0 1 3.853 4.978Z" class="colord8f0fa svgShape"/><path fill="#feaa32" d="M659.245 477.427a4.545 4.545 0 1 1-3.854-4.978 4.479 4.479 0 0 1 3.854 4.978Z" class="colorfeaa32 svgShape"/><g opacity=".5" fill="#000000" class="color000 svgShape"><path fill="#175689" d="m703.002 582.951 1.79-12.06-9.69-2.29a33.01 33.01 0 0 0-3.273-12.277l7.402-6.395-7.593-9.809-8.498 4.986a35.755 35.755 0 0 0-11.285-6.545l.501-9.581-12.53-1.816-2.303 9.32a36.048 36.048 0 0 0-12.718 3.067l-6.692-7.187-10.123 7.242 5.24 8.226a33.32 33.32 0 0 0-6.71 10.83l-9.947-.555-1.789 12.06 9.69 2.29a33.022 33.022 0 0 0 3.28 12.279l-7.41 6.393 7.593 9.81 8.497-4.98c.088.071.168.141.256.212a35.825 35.825 0 0 0 11.037 6.328l-1.257 9.536 14.022 2.032 1.567-9.491a36.415 36.415 0 0 0 5.917-.813 35.045 35.045 0 0 0 3.718-1.052 34.753 34.753 0 0 0 3.075-1.196l6.693 7.18 10.123-7.242-5.232-8.225a33.251 33.251 0 0 0 6.702-10.832Zm-46.376 8.86c-12.19-1.767-20.663-12.713-18.921-24.453 1.74-11.732 13.038-19.814 25.227-18.048 12.198 1.768 20.663 12.713 18.922 24.446-1.742 11.74-13.03 19.823-25.228 18.055Z" class="color175689 svgShape"/><path fill="#2b3990" d="M695.113 568.622a22.662 22.662 0 00-10.272-14.829l10.597-8.67 3.801 4.83-7.4 6.396a33.05 33.05 0 013.274 12.273zM624.454 572.469a22.662 22.662 0 0010.272 14.829l-10.598 8.67-3.8-4.83 7.4-6.396a33.048 33.048 0 01-3.274-12.273zM657.52 536.485c-11.077 2.208-15.31 9.787-15.31 9.787l-9.078-10.278 4.984-3.627 6.693 7.18a36.008 36.008 0 0112.712-3.062zM686.435 605.097l-4.984 3.627-6.693-7.18a36.81 36.81 0 01-3.06 1.2q-1.6.542-3.264.938a35.88 35.88 0 01-6.388.924 26.762 26.762 0 005.889-1.884 24.058 24.058 0 003.775-2.15 19.566 19.566 0 005.647-5.753zM686.365 593.27c6.153-9.122 3.563-17.406 3.563-17.406L703.841 577l-.837 5.98-9.966-.555a33.28 33.28 0 01-6.673 10.844zM633.202 547.82c-6.154 9.123-3.564 17.407-3.564 17.407l-13.912-1.137.836-5.98 9.966.555a33.287 33.287 0 016.674-10.844zM652.879 612.961l-6.431-.932 1.257-9.525a35.823 35.823 0 01-11.305-6.515c.095.061.194.12.29.178 9.396 5.77 17.803 3.388 17.803 3.388zM683.165 545.1c-9.513-5.998-18.09-3.564-18.09-3.564l1.075-13.399 6.212.851-.5 9.6a35.767 35.767 0 0111.303 6.513z" opacity=".2" class="color2b3990 svgShape"/><path fill="#14527c" d="M663.293 546.879c-13.586-1.97-26.174 7.037-28.115 20.113-1.941 13.084 7.5 25.282 21.087 27.25 13.594 1.97 26.182-7.035 28.124-20.119 1.94-13.076-7.502-25.274-21.096-27.244Zm-6.667 44.932c-12.19-1.767-20.663-12.713-18.921-24.453 1.74-11.732 13.038-19.814 25.227-18.048 12.198 1.768 20.663 12.713 18.922 24.446-1.742 11.74-13.03 19.823-25.228 18.055Z" class="color14527c svgShape"/></g><g opacity=".5" fill="#000000" class="color000 svgShape"><path fill="#175689" d="m725.404 615.978.771-5.198-4.176-.987a14.223 14.223 0 0 0-1.41-5.292l3.19-2.756-3.273-4.228-3.662 2.15a15.413 15.413 0 0 0-4.864-2.822l.216-4.129-5.4-.783-.993 4.017a15.537 15.537 0 0 0-5.482 1.322l-2.884-3.098-4.363 3.121 2.258 3.546a14.36 14.36 0 0 0-2.892 4.668l-4.287-.239-.771 5.198 4.176.987a14.233 14.233 0 0 0 1.413 5.292l-3.193 2.756 3.273 4.228 3.662-2.147c.038.03.072.061.11.092a15.436 15.436 0 0 0 4.757 2.727l-.541 4.11 6.043.876.676-4.09a15.685 15.685 0 0 0 2.55-.351 15.122 15.122 0 0 0 1.602-.454c.452-.15.894-.324 1.326-.515l2.884 3.095 4.363-3.122-2.255-3.545a14.335 14.335 0 0 0 2.889-4.669Zm-19.988 3.818a9.266 9.266 0 1 1 10.873-7.781 9.404 9.404 0 0 1-10.873 7.781Z" class="color175689 svgShape"/><path fill="#2b3990" d="M722.004 609.802a9.767 9.767 0 00-4.427-6.391l4.567-3.737 1.638 2.081-3.19 2.757a14.246 14.246 0 011.412 5.29zM691.55 611.46a9.768 9.768 0 004.427 6.391l-4.568 3.737-1.638-2.082 3.19-2.756a14.248 14.248 0 01-1.412-5.29zM705.802 595.95a9.857 9.857 0 00-6.6 4.219l-3.912-4.43 2.148-1.563 2.885 3.094a15.525 15.525 0 015.479-1.32zM718.264 625.523l-2.148 1.563-2.885-3.095a15.227 15.227 0 01-2.725.921 15.47 15.47 0 01-2.754.4 11.53 11.53 0 002.538-.813 10.35 10.35 0 001.627-.927 8.433 8.433 0 002.434-2.479zM718.233 620.425a9.296 9.296 0 001.536-7.502l5.997.49-.36 2.578-4.296-.24a14.344 14.344 0 01-2.877 4.674zM695.32 600.836a9.295 9.295 0 00-1.536 7.502l-5.996-.49.36-2.577 4.296.24a14.346 14.346 0 012.876-4.675zM703.8 628.912l-2.771-.401.542-4.106a15.44 15.44 0 01-4.872-2.808c.04.027.083.052.124.077a10.317 10.317 0 007.674 1.46zM716.855 599.664a10.339 10.339 0 00-7.797-1.536l.463-5.775 2.677.367-.215 4.137a15.42 15.42 0 014.872 2.807z" opacity=".2" class="color2b3990 svgShape"/><path fill="#14527c" d="M708.29 600.43a10.326 10.326 0 1 0 9.092 11.743 10.565 10.565 0 0 0-9.092-11.743Zm-2.52 16.974a6.845 6.845 0 1 1 8.034-5.75 6.947 6.947 0 0 1-8.033 5.75Z" class="color14527c svgShape"/></g><g opacity=".5" fill="#000000" class="color000 svgShape"><path fill="#175689" d="M854.581 585.484a16.984 16.984 0 0 0-12.352-8.223l-81.575-11.822a17.227 17.227 0 0 0-14.598 4.732 15.82 15.82 0 0 0-2.806 18.842 17.142 17.142 0 0 0 12.617 8.686l81.575 11.821a17.074 17.074 0 0 0 14.21-4.374 15.835 15.835 0 0 0 2.929-19.662Zm-5.902 16.704a12.844 12.844 0 0 1-10.635 3.276l-81.575-11.822a12.779 12.779 0 0 1-9.443-6.506 11.711 11.711 0 0 1-1.314-7.39 11.848 11.848 0 0 1 3.406-6.707 12.866 12.866 0 0 1 10.934-3.543l81.575 11.821a12.75 12.75 0 0 1 9.236 6.156 11.756 11.756 0 0 1 1.512 7.73 11.878 11.878 0 0 1-3.696 6.985Z" opacity=".89" class="color175689 svgShape"/><path fill="#ffffff" d="M852.375 595.202a11.878 11.878 0 0 1-3.696 6.986 12.844 12.844 0 0 1-10.635 3.276l-81.575-11.822a12.779 12.779 0 0 1-9.443-6.506 11.711 11.711 0 0 1-1.314-7.39 11.848 11.848 0 0 1 3.406-6.707 12.866 12.866 0 0 1 10.934-3.543l81.575 11.821a12.75 12.75 0 0 1 9.236 6.156 11.756 11.756 0 0 1 1.512 7.73Z" opacity=".21" class="colorfff svgShape"/><path fill="#175689" d="m762.709 569.853-3.591 24.2-2.734-.395a12.789 12.789 0 0 1-9.461-6.522l2.096-14.126a12.877 12.877 0 0 1 10.957-3.553ZM777.534 572.001l-3.591 24.201-12.944-1.876 3.591-24.2 12.944 1.875zM792.359 574.15l-3.592 24.2-12.943-1.875 3.591-24.201 12.944 1.876zM807.183 576.298l-3.591 24.201-12.943-1.876 3.591-24.2 12.943 1.875z" opacity=".55" class="color175689 svgShape"/><path fill="#ffffff" d="m822.008 578.447-3.591 24.2-12.943-1.876 3.591-24.2 12.943 1.876zM836.833 580.595l-3.591 24.2-12.933-1.874 3.591-24.2 12.933 1.874zM850.956 587.47l-2.188 14.746a12.878 12.878 0 0 1-10.664 3.284l-2.97-.43 3.59-24.201 2.971.43a12.782 12.782 0 0 1 9.261 6.172Z" opacity=".3" class="colorfff svgShape"/></g><path fill="#ffffff" d="m789.668 580.252-.463 3.123a2.211 2.211 0 0 1 1.062-.582 2.104 2.104 0 0 1 .78-.017 2.541 2.541 0 0 1 2.064 1.33 4.25 4.25 0 0 1 .252 2.551l-.465 3.135a3.587 3.587 0 0 1-1.454 2.493 3.541 3.541 0 0 1-2.706.628 3.3 3.3 0 0 1-2.33-1.405 3.426 3.426 0 0 1-.59-2.576l.051-.348 2.208.154-.026.506a1.299 1.299 0 0 0 .563 1.267.94.94 0 0 0 .397.153 1.257 1.257 0 0 0 1.607-1.202l.529-3.564a1.345 1.345 0 0 0-.328-1.127.965.965 0 0 0-.614-.29 1.005 1.005 0 0 0-.964.322 1.593 1.593 0 0 0-.367.8l-.058.395-2.28-.33 1.18-7.952 6.67.966-.327 2.206ZM798.57 581.542l-.463 3.123a2.213 2.213 0 0 1 1.062-.582 2.107 2.107 0 0 1 .78-.017 2.541 2.541 0 0 1 2.064 1.33 4.252 4.252 0 0 1 .252 2.551l-.466 3.135a3.586 3.586 0 0 1-1.454 2.493 3.54 3.54 0 0 1-2.705.628 3.299 3.299 0 0 1-2.33-1.405 3.426 3.426 0 0 1-.591-2.576l.052-.348 2.207.153-.026.507a1.298 1.298 0 0 0 .564 1.267.94.94 0 0 0 .396.152 1.257 1.257 0 0 0 1.608-1.201l.528-3.564a1.345 1.345 0 0 0-.328-1.127.965.965 0 0 0-.613-.291 1.006 1.006 0 0 0-.965.323 1.593 1.593 0 0 0-.366.8l-.059.395-2.28-.33 1.18-7.953 6.67.967-.327 2.206ZM806.025 588.982a1.152 1.152 0 0 1-.5.798 1.262 1.262 0 0 1-.942.227 1.248 1.248 0 0 1-.84-.485 1.15 1.15 0 0 1-.243-.905l.411-2.771a1.167 1.167 0 0 1 .498-.806 1.258 1.258 0 0 1 .945-.226 1.242 1.242 0 0 1 .839.489 1.162 1.162 0 0 1 .243.909Zm-2.085 6.134-.892-.13 6.67-9.516.884.128Zm.342-6.402a.421.421 0 0 0 .087.333.484.484 0 0 0 .65.094.424.424 0 0 0 .18-.294l.411-2.77a.42.42 0 0 0-.086-.333.484.484 0 0 0-.651-.095.424.424 0 0 0-.18.294Zm4.811 1.733a1.23 1.23 0 0 1 .835.488 1.168 1.168 0 0 1 .24.909l-.412 2.77a1.14 1.14 0 0 1-.496.798 1.315 1.315 0 0 1-1.776-.261 1.136 1.136 0 0 1-.245-.901l.412-2.77a1.164 1.164 0 0 1 .497-.806 1.257 1.257 0 0 1 .945-.227Zm.256 1.263a.42.42 0 0 0-.086-.333.484.484 0 0 0-.651-.094.424.424 0 0 0-.18.294l-.41 2.77a.42.42 0 0 0 .086.333.485.485 0 0 0 .651.094.425.425 0 0 0 .18-.294ZM821.52 557.706l-67.286-9.751a2.647 2.647 0 1 0-.777 5.232l67.287 9.751a2.647 2.647 0 1 0 .776-5.232ZM851.236 562.012l-20.918-3.031a2.647 2.647 0 1 0-.777 5.232l20.918 3.031a2.647 2.647 0 1 0 .777-5.232ZM842.508 620.828l-14.453-2.095-6.465-.936-8.797-1.275-5.656-.82-61.631-8.931a2.647 2.647 0 1 0-.777 5.232l61.632 8.931 5.655.82 8.798 1.275 6.465.937 14.453 2.094a2.647 2.647 0 1 0 .776-5.232ZM811.163 627.504l-67.287-9.75a2.647 2.647 0 1 0-.776 5.231l67.286 9.751a2.647 2.647 0 1 0 .777-5.232Z" class="colorfff svgShape"/><path fill="#f9c5c7" d="m180.321 746.622-4.238-.53-.714 3.149 4.747 1.432.205-4.051z" class="colorf9c5c7 svgShape"/><path fill="#121e3c" d="M173.364 751.737c-.573-2.783 2.395-2.004 2.395-2.004s.198-3.327.89-3.578c0 0 1.435.07-.053-.72s-2.65-1.21-3.121-.867c-.397.288-2.416 6.502-3.047 8.469-.12.371 1.422.378 1.422.378s1.954.462 1.514-1.678Z" class="color121e3c svgShape"/><path fill="#203a6f" d="M215.84 705.004s21.45 40.483 17.352 45.505c-6.766 8.294-55.04.287-55.04.287s.368-5.306 1.35-5.306 34.817-3.862 34.817-3.862-29.188-29.188-10.264-35.642c9.485-3.234 11.786-.982 11.786-.982Z" class="color203a6f svgShape"/><path fill="#e5adb3" d="M240.02 683.183s5.924 28.073 14.106 23.7 9.182-22.58 9.182-22.58a12.09 12.09 0 0 0-3.155.39c-4.047 2.065-6.027 10.571-6.027 10.571s.403-22.22-6.368-24.335c-6.772-2.116-7.739 12.254-7.739 12.254Z" class="colore5adb3 svgShape"/><path fill="#6f6eb2" d="M242.41 691.56c1.792 2.987 9.708-3.13 11.629-4.897s-1.616-19.09-5.709-19.09c-2.458 0-13.122 11.983-5.92 23.987Z" class="color6f6eb2 svgShape"/><path fill="#f9c5c7" d="m259.158 746.571 1.694 4.189h3.574l-.954-6.138-4.314 1.949z" class="colorf9c5c7 svgShape"/><path fill="#0f4c86" d="M254.644 710.08c-5.079-3.197-20.503-2.444-20.503-2.444l-1.505-3.198H199.25s-7.917 11.785 1.257 18.55c14.68 10.825 41.535 2.14 41.535 2.14s11.144 19.72 17.502 23.259c1.036.577 4.882.442 4.694-.687s-4.515-34.422-9.593-37.62Z" class="color0f4c86 svgShape"/><path fill="#6f6eb2" d="M235.364 658.748s-14.813-.535-24.688 19.215-16.082 24.688-13.966 26.522c2.116 1.834 27.563 8.235 34.845.846 7.357-7.465 22.57-30.633 19.56-35.409-3.253-5.162-6.3-12.332-15.751-11.174Z" class="color6f6eb2 svgShape"/><path fill="#feaa32" d="M229.561 659.658s5.473 9.608 4.378 19.702c-1.094 10.094.325 11.797 4.095 8.878s6.202-9.972 6.202-16.905-1.216-7.945-1.216-7.945l.544-2.667s4.483 8.18 2.375 15.599c-1.246 4.385-3.527 16.418-7.662 20.918s-6.567 9.729-13.378 11.188-29.917-.567-29.796-4.337l15.567-25.945s-1.054 13.053 6.243 14.026a12.234 12.234 0 0 0 14.027-10.945c.405-3.324.243-16.702-5.19-20.026Z" class="colorfeaa32 svgShape"/><path fill="#0f4c86" d="m242.41 691.56.437.436-.055-10.53-.873 10.421.491-.327z" class="color0f4c86 svgShape"/><path fill="#f9c5c7" d="M251.616 653.78s-2.083 9.996-4.165 9.163a18.644 18.644 0 0 1-3.887-2.222l-1.59 7.05a8.075 8.075 0 0 1-7.434-5.245 2.729 2.729 0 0 1 .972-3.54 16.077 16.077 0 0 0 3.817-3.54s3.332-5.483 6.803-5.206 5.484 3.54 5.484 3.54Z" class="colorf9c5c7 svgShape"/><path fill="#e4b0b3" d="m243.977 656.674-1.447 2.874-2.23-1.437s1.967 5.652 2.601 5.567l.663-2.957ZM251.158 655.728l-.146.562s-3.207-1.31-3.823-2.796l-1.543.633 1.507-2.772 4.005 3.698Z" class="colore4b0b3 svgShape"/><path fill="#121e3c" d="M238.427 656.094s4.859 2.453 5.97 0c0 0-1.458-2.73 0-3.147s1.25 1.18 1.25 1.18 1.595-1.874 1.595-1.666 3.81 4.94 6.516 3.063 2.985-6.874-.972-7.29-3.034-2.487-4.654-3.315c-4.895-2.502-12.128.544-9.705 11.175Z" class="color121e3c svgShape"/><path fill="#121e3c" d="M245.576 657.62v2.69a6.37 6.37 0 0 1 3.154-1.088c1.36.11 1.275.35 1.275.35s-.794 4.068-2.2 3.62a23.942 23.942 0 0 1-4.241-2.47l.413-4.048a1.079 1.079 0 0 1 1.599.946Z" class="color121e3c svgShape"/><path fill="#f9c5c7" d="M249.415 660.364s-1.99-.435-3.023.38c-1.034.817 2.094 1.442 2.094 1.442s.99-.326.93-1.822ZM229.72 696.886V682.64c-1.71.295-3.423.58-5.132.874-1.855.319-3.718.583-5.582.832-.926.124-1.858.221-2.781.362l-.461.068c1.017 10.49 3.817 23.902 10.43 24.647 8.96 1.01 13.382-15.435 15.016-20.045a17.777 17.777 0 0 1-1.8-1.145Z" class="colorf9c5c7 svgShape"/><path fill="#e5adb3" d="M215.893 686.322s6.329 3.219 10.012 2.646 3.816 7.918 3.816 7.918l.194-13.647Z" opacity=".5" class="colore5adb3 svgShape"/><path fill="#e5adb3" d="M261.315 679.429c-1.3.066-1.484 2.098-1.484 2.098a.635.635 0 0 0-.917.026c-.373.395 1.06 2.853 1.535 3.641.8.195 1.61.34 2.42.48a17.439 17.439 0 0 1 1.386-3.836c.92-1.674-1.641-2.475-2.94-2.409Z" class="colore5adb3 svgShape"/><path fill="#6f6eb2" d="M215.262 686.165s11.543 2.148 15.24-3.386c2.884-4.32-.595-21.28-4.96-21.372-7.622-.163-12.96 11.715-10.28 24.758Z" class="color6f6eb2 svgShape"/><path fill="#121e3c" d="M268.692 752.295a12.595 12.595 0 0 1-4.259-2.271s-3.243.767-3.684.176c0 0-.344-1.394-.673.258-.328 1.652-.396 2.886.068 3.239.464.353 9.607.492 9.607.492s1.067-1.39-1.059-1.894Z" class="color121e3c svgShape"/><path fill="#0f4c86" d="M230.859 676.654a14.486 14.486 0 0 1-1.271 6.912c-.207.448.875-.314.875-.314s1.581-2.128.396-6.598ZM215.893 686.322s-1.082-8.254-.632-10.246c0 0-1.46 7.612.122 10.247.365.608.51-.001.51-.001Z" class="color0f4c86 svgShape"/><path fill="#feaa32" d="M237.903 650.659a8.417 8.417 0 0 1 5.771-1.784c4.412.334 10.26 2.975 11.249 2.787 1.76-.334.39-8.49-4.255-10.034-10.564-3.512-14.379 5.184-12.765 9.03Z" class="colorfeaa32 svgShape"/><path fill="#ea9024" d="M243.283 648.819s9.83-1.296 12.325-.125c2.494 1.17 5.82 2.968-.685 2.968a26.553 26.553 0 0 1-11.64-2.843Z" class="colorea9024 svgShape"/><path fill="#d88225" d="M246.682 649.237s7.874 1.923 9.292 1.45-1.173-1.729-1.173-1.729Z" class="colord88225 svgShape"/><path fill="#d88225" d="M243.185 641.293s5.331 2.565 4.646 6.913l5.038-.223s-1.11-5.07-3.992-6.397a7.872 7.872 0 0 0-5.692-.293Z" opacity=".5" class="colord88225 svgShape"/><path fill="#262262" d="M879.187 500.018c-32.588-7.113-255.167-57.281-287.821-64.077-8.166-1.684-16.334-3.37-24.53-4.888-2.05-.368-4.102-.75-6.16-1.005a10.25 10.25 0 0 0-.766-.068 1.002 1.002 0 0 0-.676.14c-.456.223-.91.484-1.357.746-.897.525-1.783 1.073-2.667 1.623-3.534 2.209-287.004 246.973-295.006 249.348l-.014.004-.016.003a100.78 100.78 0 0 0-10.486 1.778c-3.442.825-6.7 2.302-10.103 3.355a14.412 14.412 0 0 0-7.804 6.731 10.184 10.184 0 0 0-1.395 5.005 5.376 5.376 0 0 0 2.295 4.442 9.473 9.473 0 0 0 2.371 1.137 5.09 5.09 0 0 1 2.058 1.771 14.832 14.832 0 0 1 2.053 4.971 59.495 59.495 0 0 1 1.3 10.633c.208 3.567.229 7.143.147 10.715-.005 3.584-.168 7.137-.31 10.758l-1.492-.193a156.894 156.894 0 0 0 1.134-21.268 54.211 54.211 0 0 0-1.134-10.562 14.509 14.509 0 0 0-1.947-4.88 4.803 4.803 0 0 0-1.921-1.695 10.019 10.019 0 0 1-2.42-1.16 5.668 5.668 0 0 1-2.43-4.662 10.484 10.484 0 0 1 1.415-5.163 14.739 14.739 0 0 1 7.97-6.916c3.383-1.058 6.633-2.548 10.118-3.399a101.153 101.153 0 0 1 10.526-1.824l-.037.007c15.953-4.83 291.43-246.98 294.96-249.203.885-.553 1.77-1.104 2.67-1.636.452-.265.902-.527 1.382-.763a1.344 1.344 0 0 1 .828-.173c.27.01.53.036.791.066 2.081.254 4.131.628 6.186.991 8.208 1.494 16.38 3.156 24.553 4.815 32.678 6.7 256.748 55.812 289.358 62.828.34 1.361-1.623 1.668-1.623 1.668Z" class="color262262 svgShape"/><path fill="#121e3c" d="m625.862 461.347 1.425 5.716a2.99 2.99 0 0 0-1.425-5.716ZM624.926 461.57a2.989 2.989 0 0 0 1.43 5.735ZM881.745 498.127l1.425 5.716a2.99 2.99 0 0 0-1.425-5.716ZM880.81 498.35a2.989 2.989 0 0 0 1.43 5.735Z" class="color121e3c svgShape"/><path fill="#feaa32" d="M906.625 607.62a6.82 6.82 0 0 0-3.768-3.205c-3.431-1.152-8.692-.997-9.376-1.456-1.218-.818 2.457-6.621 6.457-6.321 9.095.683 9.149 8.554 6.687 10.983Z" class="colorfeaa32 svgShape"/><path fill="#ea9024" d="M903.17 604.497s-5.317-4.393-9.243-4.028c-2.25.209-4.292 3.901.038 4.084 7.461.315 9.204-.056 9.204-.056Z" class="colorea9024 svgShape"/><path fill="#d88225" d="M905.682 598.77s-4.846.26-5.74 3.806l-3.722-1.777s2.48-3.526 5.08-3.622a6.345 6.345 0 0 1 4.382 1.592Z" opacity=".5" class="colord88225 svgShape"/><path fill="#574a9d" d="M871.176 647.003s2.674 6.314 5.91 6.816 18.046 13.745 24.515 11.684c4.754-1.515 9.038-17.795 9.038-17.795l-11.35 13.03Z" opacity=".13" class="color574a9d svgShape"/><path fill="#e9aa8e" d="M900.678 662.656a8.012 8.012 0 0 1-4.51-.637c-7.23-2.587-18.516-10.817-18.516-10.817s.824-2.287 1.157-2.077c.334.21 17.673 5.716 18.6 4.74.733-.764 3.22-6.66 5.399-9.621a4.865 4.865 0 0 1 1.65-1.606c2.353-1.01 6.958 2.317 6.958 2.317s-5.545 16.15-10.738 17.7Z" class="colore9aa8e svgShape"/><path fill="#e9aa8e" d="M878.809 649.126a27.19 27.19 0 0 1-1.006-3.22c-.407-1.7-.922 1.288-.922 1.288s-7.127-2.156-5.212.317 5.982 3.69 5.982 3.69Z" class="colore9aa8e svgShape"/><path fill="#d0876a" d="M900.678 662.656a8.012 8.012 0 0 1-4.51-.637c-.69-1.392 2.488-1.52 5.015-1.343 3.18.228 8.855-11.441 7.457-11.31-1.398.133-5.587-4.103-5.587-4.103a1.668 1.668 0 0 1-.245-1.02 4.865 4.865 0 0 1 1.65-1.605c2.353-1.01 6.958 2.317 6.958 2.317s-5.545 16.15-10.738 17.7Z" opacity=".55" class="colord0876a svgShape"/><path fill="#6f6eb2" d="M909.027 619.545s16.814 7.847 2.051 28.158c0 0-7.528-1.605-8.437-4.053-.908-2.448 6.386-24.105 6.386-24.105Z" class="color6f6eb2 svgShape"/><path fill="#574a9d" d="M902.845 643.452c.006.158 1.471-7.671 2.995-10.298a17.582 17.582 0 0 1 2.574-3.626 17.782 17.782 0 0 0-5.57 13.924ZM910.831 647.393l3.048-3.888s-.946 2.942-3.048 3.888Z" class="color574a9d svgShape"/><path fill="#f9c5c7" d="M241.62 683.783c-1.243-.385-2.114 1.461-2.114 1.461a.635.635 0 0 0-.87-.29c-.486.243.017 3.043.193 3.947.684.457 1.395.87 2.109 1.28a17.448 17.448 0 0 1 2.618-3.126c1.438-1.257-.693-2.888-1.936-3.272Z" class="colorf9c5c7 svgShape"/><path fill="#ce9da4" d="M260.675 679.516c-.741.64-1.366 4.274.49 3.888 1.857-.385 3.647-2.252 3.433-3.152-.315-1.331-3.168-1.388-3.923-.736Z" class="colorce9da4 svgShape"/><path fill="#b5858e" d="m260.605 681.347-.342 1.68a2.48 2.48 0 0 0 .342-1.68ZM262.306 681.174l.066 1.715a2.48 2.48 0 0 0-.066-1.715ZM263.213 680.61l.065 1.714a2.48 2.48 0 0 0-.065-1.715ZM261.476 681.103c-.012-.068-.267 2.285-.267 2.285a6.326 6.326 0 0 0 .267-2.285Z" class="colorb5858e svgShape"/><path fill="#c38675" d="m187.492 740.354.748 6.335-4.325.784-1.329-5.915 4.906-1.204z" class="colorc38675 svgShape"/><path fill="#302650" d="M189.05 744.261s-.8-.828-1.098-.211a5.944 5.944 0 0 0 .006 2.347 25.34 25.34 0 0 1-3.791.41c-.38-.15-.935-1.262-1.139-.595-.204.667-.074 6.751 1.26 7.158s17.12-9.268 15.218-10.021-10.456.912-10.456.912Z" class="color302650 svgShape"/><path fill="#c38675" d="m141.697 740.713-.567 5.94-3.881-1.159 1.544-6.093 2.904 1.312z" class="colorc38675 svgShape"/><path fill="#302650" d="M136.729 743.047c.56-.414.344.81.56 1.157a25.333 25.333 0 0 0 3.288 1.93s.787-1.57 1.394-1.888c.608-.318.756.823.756.823s7.862 3.761 8.94 5.499c1.08 1.738-14.376.137-15.204-.985-.828-1.121-.295-6.121.266-6.536Z" class="color302650 svgShape"/><path fill="#c38675" d="M230.119 605.396s-2.455 6.568-5.35 7.31a5.979 5.979 0 0 1-4.75-.578s-2.247-1.163.38-5.366c1.3-2.081 9.72-1.366 9.72-1.366Z" class="colorc38675 svgShape"/><path fill="#c38675" d="m197.226 606.322.874 13.858 20.86-11.733 1.058 3.681s-21.574 20.07-26.365 18.656c-4.79-1.413-6.705-22.226-6.705-22.226Z" class="colorc38675 svgShape"/><path fill="#6f6eb2" d="M193.804 591.084s8.225 16.349 3.572 18.882a19.53 19.53 0 0 1-9.191 2.342Z" class="color6f6eb2 svgShape"/><path fill="#203a6f" d="m171.527 660.242-16.282 51.199-13.127 31.397-4.515-.584 7.817-48.747s3.321-47.545 6.622-53.003c3.302-5.459 19.485 19.738 19.485 19.738Z" class="color203a6f svgShape"/><path fill="#0f4c86" d="M153.46 639.759s-.192 30.726 7.074 42.064c7.266 11.338 21.84 60.88 21.84 60.88l5.539-1.767-4.43-56.974-5.363-37.164Z" class="color0f4c86 svgShape"/><path fill="#6f6eb2" d="M195.976 595.676s-5.745 17.718-9.985 32.09-7.561 26.325-11.026 26.543-24.945-7.958-23.362-15.348c1.583-7.39 20.199-49.028 30.508-53.096 6.106-2.41 8.108-2.524 13.865 9.811Z" class="color6f6eb2 svgShape"/><path fill="#feaa32" d="M177.208 589.458s9.458 9.107 6.726 18.565c-2.732 9.458-6.936 25.22-17.654 20.176s-3.363-15.132-3.363-15.132-18.285 26.061-12.61 30.685 22.978 17.655 31.385 6.726 8.967-36.57 11.069-42.245.21-19.336.21-19.336-1.4 22.839-5.184 28.934c-3.783 6.095 6.305-22.418-8.477-30.265a1.856 1.856 0 0 0-2.102 1.892Z" class="colorfeaa32 svgShape"/><path fill="#c38675" d="M218.685 608.7s2.798-4.929 3.664-4.984c.867-.054 4.655 3.924 2.833 3.46a27.105 27.105 0 0 1-2.627-.769s-1.744 4.69-3.1 4.508c-.58-.078-.77-2.215-.77-2.215Z" class="colorc38675 svgShape"/><path fill="#302650" d="M175.838 615.268s2.982-.816 7.36-11.343c0 0-2.224 11.479-7.36 11.343Z" class="color302650 svgShape"/><path fill="#241e3f" d="M188.87 581.697s-2.88-.563-3.115-8.422 18.565-2.102 13.451-.35c0 0 .315 5.576-4.127 5.093-4.443-.483-5.468-3.767-6.21 3.68Z" class="color241e3f svgShape"/><path fill="#c38675" d="m184.465 587.938 3.27-6.666.297-2.848s-1.528-4.065-.105-4.098c2.942-.07 2.511-1.377 2.511-1.377a5.595 5.595 0 0 0 5.813.56c3.436-1.505 1.377 10.83-1.227 11.655-2.604.825-2.538-1.004-2.538-1.004s.816 5.495-.522 6.368c-1.661 1.084-7.5-2.59-7.5-2.59Z" class="colorc38675 svgShape"/><path fill="#241e3f" d="M192.028 572.967s-1.711 4.09.388 6.798 5.87 2.016 5.192 3.673c-.679 1.657-3.435 3.995-4.92 1.459-1.486-2.536-1.075-3.101-1.94-6.26a11.652 11.652 0 0 1 .57-6.608Z" class="color241e3f svgShape"/><path fill="#262262" d="M623.627 464.445c-7.819-5.9-58.257-31.709-62.434-33.783a14.568 14.568 0 0 0-1.585-.65 3.785 3.785 0 0 0-.794-.176 1.15 1.15 0 0 0-.37.019l-.397.162c-1.055.419-2.12.9-3.182 1.356l-6.367 2.8-12.724 5.653-25.438 11.345-101.827 45.07L205.072 608.5l.138-.136-.001.002q-3.573 6.328-7.272 12.505c-2.437 4.152-4.91 8.265-7.457 12.294-2.55 4.024-5.152 7.993-7.975 11.68a26.402 26.402 0 0 1-4.626 4.945 11.817 11.817 0 0 0-2.224 2.401 31.59 31.59 0 0 0-1.918 2.944 81.924 81.924 0 0 0-5.912 13.639 125.754 125.754 0 0 0-4.083 14.876 111.22 111.22 0 0 0-2.19 15.553 74.277 74.277 0 0 0 .598 15.627l-.916.248a75.977 75.977 0 0 1-.377-15.974 112.625 112.625 0 0 1 2.337-15.683 125.927 125.927 0 0 1 4.226-14.92 82.26 82.26 0 0 1 6.06-13.652 32.066 32.066 0 0 1 1.94-2.992 12.194 12.194 0 0 1 2.294-2.483 26.117 26.117 0 0 0 4.546-4.891c2.798-3.676 5.39-7.647 7.926-11.673 5.059-8.075 9.882-16.435 14.572-24.919v-.001l.054-.098.085-.037 203.546-111.8 101.72-45.527 25.471-11.209 12.744-5.567 6.38-2.756c1.067-.45 2.12-.92 3.208-1.343l.405-.162a1.379 1.379 0 0 1 .462-.026 4.025 4.025 0 0 1 .852.194 14.867 14.867 0 0 1 1.615.673c4.205 2.122 55.622 26.777 63.42 32.73Z" class="color262262 svgShape"/><path fill="#c38675" d="m178.874 608.46-7.973 12.83 10.903 25.543-3.367 1.158s-16.395-22.885-16.487-29.247c-.092-6.362 9.784-18.721 9.784-18.721Z" class="colorc38675 svgShape"/><path fill="#c38675" d="M181.49 646.579s5.515 1.837 5.703 2.89c.188 1.053-5.725 5.932-6.786 4.94-1.062-.993-1.97-6.418-1.97-6.418Z" class="colorc38675 svgShape"/><path fill="#c38675" d="M181.618 646.758s3.892-1.462 4.581-.35-.663 2.43-.663 2.43Z" class="colorc38675 svgShape"/><path fill="#6f6eb2" d="M177.419 589.948s-16.745 9.12-11.207 16.492c3.884 5.17 7.43 11.184 11.44 7.07 13.2-13.54-.233-23.562-.233-23.562Z" class="color6f6eb2 svgShape"/><path fill="#c38675" d="M222.465 610.055s-2.171-3.153-.7-3.994 7.005.42 7.005.42-1.54 5.185-6.305 3.574Z" class="colorc38675 svgShape"/><path fill="#feaa32" d="M185.469 574.874a8.14 8.14 0 0 1 5.242-2.578c4.264-.349 10.249 1.288 11.166.959 1.63-.586-.912-8.168-5.584-8.94-10.622-1.754-12.948 7.13-10.824 10.559Z" class="colorfeaa32 svgShape"/><path fill="#ea9024" d="M190.329 572.302s9.192-2.726 11.752-1.986 6.008 1.954-.204 2.939a25.677 25.677 0 0 1-11.548-.953Z" class="colorea9024 svgShape"/><path fill="#d88225" d="M193.638 572.187s7.812.644 9.095-.023c1.283-.668-1.383-1.473-1.383-1.473Z" class="colord88225 svgShape"/><path fill="#d88225" d="M189.096 565.129s5.48 1.642 5.484 5.899l4.777-.976s-1.827-4.675-4.78-5.505a7.613 7.613 0 0 0-5.481.582Z" opacity=".5" class="colord88225 svgShape"/><path fill="#175689" d="m415.896 578.896-24.54-33.867c-1.441-1.993-4.53-1.993-5.562 0l-17.6 33.867c-1.034 1.986.77 4.472 3.243 4.472h42.133a2.753 2.753 0 0 0 2.326-4.472Zm-22.48-2.5a1.408 1.408 0 0 1-1.49 1.528h-.349a1.802 1.802 0 0 1-1.803-1.528l-.035-.345a1.408 1.408 0 0 1 1.49-1.528h.349a1.801 1.801 0 0 1 1.803 1.528Zm-.856-8.36.113 2.888a1.404 1.404 0 0 1-1.491 1.437 1.807 1.807 0 0 1-1.786-1.437l-.478-2.887-2.245-9.986a2.247 2.247 0 0 1 2.462-2.55h.638a2.856 2.856 0 0 1 2.985 2.55Z" opacity=".35" class="color175689 svgShape"/><path fill="#175689" d="M503.337 566.322h-71.072a5.163 5.163 0 0 0-5.15 4.774l-.007.105a5.165 5.165 0 0 0 5.148 5.558h71.08c2.146 0 3.885-2.336 3.885-5.219 0-2.882-1.74-5.218-3.884-5.218ZM573.353 566.322h-54.364c-2.146 0-3.885 2.336-3.885 5.218 0 2.883 1.74 5.219 3.885 5.219h54.364c2.145 0 3.884-2.336 3.884-5.219 0-2.882-1.739-5.218-3.884-5.218ZM371.37 602.347h97.885c2.145 0 3.884-2.337 3.884-5.219s-1.739-5.218-3.884-5.218H371.37c-2.145 0-3.884 2.336-3.884 5.218s1.74 5.219 3.884 5.219ZM573.353 591.91h-88.446c-2.145 0-3.884 2.336-3.884 5.218s1.74 5.219 3.884 5.219h88.446c2.145 0 3.884-2.337 3.884-5.219s-1.739-5.218-3.884-5.218ZM430.496 617.497H371.37c-2.145 0-3.884 2.336-3.884 5.219 0 2.882 1.74 5.218 3.884 5.218h59.126c2.145 0 3.884-2.336 3.884-5.218 0-2.883-1.739-5.219-3.884-5.219ZM503.337 617.497h-57.19c-2.144 0-3.883 2.336-3.883 5.219 0 2.882 1.739 5.218 3.884 5.218h57.189c2.145 0 3.884-2.336 3.884-5.218 0-2.883-1.74-5.219-3.884-5.219Z" opacity=".25" class="color175689 svgShape"/><path fill="#6f6eb2" d="M475.643 633.861a40.31 40.31 0 0 0 16.031 2.678c7.11-.303 12.404-2.597 13.633-4.858 1.277-2.355 1.09-23.582-.402-40.847-.905-10.449-2.29-19.444-4.124-21.92-4.856-6.58-15.917-4.212-15.917-4.212-5.222.747-15.491 5.006-16.99 9.487s-6.463 54.216 7.77 59.672Z" class="color6f6eb2 svgShape"/><path fill="#e9aa8e" d="M467.134 586.902s-.188 5.316-.7 11.72c-.551 6.85-1.466 14.937-2.913 19.082-2.745 7.872-9.722 18.603-9.998 19.02a.021.021 0 0 0-.007.014l-1.406-.343s6.157-26.772 7.953-30.735c1.17-2.576 1.103-9.392.915-13.853v-.155c-.108-2.314-.235-3.956-.235-3.956Z" class="colore9aa8e svgShape"/><path fill="#d0876a" d="M466.435 598.623c-.552 6.849-1.467 14.936-2.914 19.08-2.745 7.873-9.722 18.604-9.998 19.022a61.583 61.583 0 0 1 4.387-9.736c2.483-4.158 5.2-17.265 4.797-21.503-.397-4.24 1.44-10.712-.08-11.593a3.384 3.384 0 0 1-1.65-2.086v-.013c-.02-.088-.026-.135-.026-.135l.027-.007 4.528-1.117s.511 3.7.929 8.088Z" opacity=".55" class="colord0876a svgShape"/><path fill="#e9aa8e" d="M453.515 636.737s1.2 1.584.9 2.723c-.3 1.14-1.739 4.197-3.058 2.279-1.319-1.92-2.276-4.57.75-5.343Z" class="colore9aa8e svgShape"/><path fill="#d0876a" d="M450.997 638.291s1.17-.09 1.47-.87c0 0 .18 1.44-1.47.87Z" class="colord0876a svgShape"/><path fill="#d0876a" d="M450.558 638.92s2.218-.719 2.518-.4c.3.32.999 2.02.2 2.779 0 0 .26-1.819-.38-2.478Z" class="colord0876a svgShape"/><path fill="#97b5c6" d="m437.998 627.686 32.037 26.093a5.022 5.022 0 1 0 6.344-7.788l-32.038-26.093a5.022 5.022 0 1 0-6.343 7.788Zm34.487 23.87a1.79 1.79 0 1 1 2.517-.258 1.788 1.788 0 0 1-2.517.258Z" class="color97b5c6 svgShape"/><path fill="#bfcdd6" d="m441.65 629.008 29.194 23.778a3.741 3.741 0 1 0 4.726-5.802l-29.195-23.778a3.741 3.741 0 1 0-4.725 5.802Zm30.835 22.548a1.79 1.79 0 1 1 2.517-.258 1.788 1.788 0 0 1-2.517.258Z" class="colorbfcdd6 svgShape"/><path fill="#97b5c6" d="M424.636 621.383a2.327 2.327 0 0 1 2.147-.933l4.586 1.756a2.327 2.327 0 0 0 2.076-.842l1.829-2.245c.946-1.162 1.566-4.13.221-4.79l-8.487-2.438a2.328 2.328 0 0 1-.196-4.074c1.763-1.087 4.591-1.933 8.975-1.218 9.105 1.485 9.835 7.327 7.04 13.719a2.296 2.296 0 0 1-.325.53l-4.896 6.012a2.327 2.327 0 0 1-1.038.728l-4.275 1.49a2.328 2.328 0 0 1-1.846-.135l-5.015-4.12a2.328 2.328 0 0 1-.796-3.44Z" class="color97b5c6 svgShape"/><path fill="#bfcdd6" d="M441.51 620.039a1.026 1.026 0 0 0 .144-.234c1.05-2.402 2.017-5.785.667-8.265-1.022-1.877-3.29-3.114-6.74-3.677-3.313-.54-6.113-.179-8.096 1.045a1.077 1.077 0 0 0-.271.235 1.059 1.059 0 0 0-.203.89 1.016 1.016 0 0 0 .48.664l8.466 2.432.102.05a2.62 2.62 0 0 1 1.396 1.904 6.508 6.508 0 0 1-1.188 4.845l-1.829 2.245a3.591 3.591 0 0 1-3.218 1.305l-.159-.019-4.557-1.745a1.041 1.041 0 0 0-.804.386 1.079 1.079 0 0 0-.032.042 1.047 1.047 0 0 0 .358 1.546l.117.061 4.994 4.104a1.052 1.052 0 0 0 .734.017l4.275-1.492a1.044 1.044 0 0 0 .467-.327Z" class="colorbfcdd6 svgShape"/><path fill="#97b5c6" d="M444.626 626.477a.683.683 0 0 1 .954-.14l25.353 20.65a.713.713 0 0 1-.897 1.1l-25.353-20.648a.683.683 0 0 1-.057-.962Z" class="color97b5c6 svgShape"/><path fill="#e9aa8e" d="M454.415 639.46c-.3 1.14-1.739 4.197-3.058 2.279-1.319-1.92-2.315-5.941.75-5.343.942.184 2.607 1.925 2.308 3.064Z" class="colore9aa8e svgShape"/><path fill="#d8977d" d="M452.408 636.69s-1.474.782-1.499 1.078 1.45-.852 1.5-1.077ZM453.278 637.29s-1.799.99-1.829 1.364 1.769-1.079 1.829-1.364ZM453.742 638.205s-1.798.989-1.828 1.364 1.769-1.08 1.828-1.364ZM454.057 639.014s-1.371.823-1.394 1.135 1.348-.898 1.394-1.135Z" class="colord8977d svgShape"/><path fill="#e9aa8e" d="m471.939 724.404.728 6.04 3.613-.414.278-6.594-4.619.968z" class="colore9aa8e svgShape"/><path fill="#fad1de" d="M472.123 727.741a7.988 7.988 0 0 0 .502 2.764l3.819-.595s.507-2.79.009-2.813c-1.996-.093-3.723-.115-4.33.644Z" class="colorfad1de svgShape"/><path fill="#312c58" d="M476.468 733.821c-.975.815-8.97 6.094-9.96 4.742-.984-1.35-1.08-3.917 3.237-7.114 1.793-1.329 2.222-4.239 2.279-3.318.049.928 2.662 2.563 4.064 1.42.817-.67 1.144.614 1.076 1.959v.006a3.635 3.635 0 0 1-.696 2.305Z" class="color312c58 svgShape"/><path fill="#203a6f" d="M469.087 624.514s-9.227 13.922 2.715 101.263c.178 1.308 4.894 2.222 5.195.937 15.082-64.363 17.188-81.975 14.157-96.456s-22.067-5.744-22.067-5.744Z" class="color203a6f svgShape"/><path fill="#e9aa8e" d="m505.214 724.404.728 6.04 3.613-.414.277-6.594-4.618.968z" class="colore9aa8e svgShape"/><path fill="#fad1de" d="M505.398 727.741a7.99 7.99 0 0 0 .502 2.764l3.818-.595s.507-2.79.01-2.813c-1.997-.093-3.724-.115-4.33.644Z" class="colorfad1de svgShape"/><path fill="#312c58" d="M509.743 733.821c-.975.815-8.97 6.094-9.96 4.742-.984-1.35-1.08-3.917 3.237-7.114 1.793-1.329 2.222-4.239 2.278-3.318.05.928 2.662 2.563 4.065 1.42.816-.67 1.144.614 1.076 1.959v.006a3.635 3.635 0 0 1-.696 2.305Z" class="color312c58 svgShape"/><path fill="#0f4c86" d="M480.934 626.43s-6.082 15.555 24.015 98.412c.45 1.24 5.253 1.14 5.276-.18 1.166-66.096-.49-83.756-6.508-97.273s-22.783-.959-22.783-.959Z" class="color0f4c86 svgShape"/><path fill="#574a9d" d="M489.81 636.54c7.98-.304 13.92-2.598 15.3-4.859 1.432-2.355 1.224-23.582-.451-40.847a17.876 17.876 0 0 0-2.382-2.933 64.26 64.26 0 0 1-6.197-6.352c.505.707 6.863 9.649 5.638 15.866-1.278 6.472 4.24 17.103-.08 23.42-2.96 4.333-11.391 11.459-11.829 15.704Z" opacity=".2" class="color574a9d svgShape"/><path fill="#6f6eb2" d="M470.238 571.002s-11.788 12.542-10.85 25.592c0 0 6.303 2.475 7.67-.32s3.18-25.272 3.18-25.272Z" class="color6f6eb2 svgShape"/><path fill="#574a9d" d="M465.966 597.203s.562-9.925 2.16-13.682c0 0-2.902 8.556-2.752 13.712Z" class="color574a9d svgShape"/><path fill="#e9aa8e" d="M495.784 582.323s2.866 1.884 6.674 3.963c5.302 2.893 12.44 6.156 16.236 5.214a3.778 3.778 0 0 0 .511-.154c1.252-.485 2.563-1.938 3.855-3.956 5.02-7.839 9.75-24.1 9.75-24.1s-2.483-1.582-2.651-1.138c-.162.45-12.717 18.583-14.331 18.334-.687-.1-2.658-1.971-5-3.868a20.279 20.279 0 0 0-6.21-3.788c-1.157-.337-8.834 9.493-8.834 9.493Z" class="colore9aa8e svgShape"/><path fill="#d0876a" d="M502.458 586.286c5.302 2.893 12.44 6.156 16.236 5.214-2.26-2.435-6.197-7.455-5.067-9.036a4.972 4.972 0 0 1 2.2-1.978c-.686-.1-2.657-1.971-4.999-3.868-1.587-.37-2.731 1.224-5.994 4.487-2.24 2.24-2.752 3.788-2.376 5.181Z" opacity=".55" class="colord0876a svgShape"/><path fill="#e9aa8e" d="M528.739 558.317a32.09 32.09 0 0 1 1.42 3.835l2.65 1.137a.021.021 0 0 1 .007-.013c.175-.25 3.756-3.196 2.49-6.644-.81-2.204-4.73 2.237-4.73 2.237a.238.238 0 0 0-.034-.027c-.296-.276-2.617-2.335-1.803-.525Z" class="colore9aa8e svgShape"/><path fill="#6f6eb2" d="M496.203 566.316s8.154 1.599 18.706 12.15c0 0-6.4 12.257-9.433 11.352-18.226-5.436-9.273-23.502-9.273-23.502Z" class="color6f6eb2 svgShape"/><path fill="#574a9d" d="M504.497 589.558s-6.815-6.815-9.173-9.233c0 0 8.333 10.852 9.352 10.672Z" class="color574a9d svgShape"/><path fill="#d0876a" d="M489.608 551.807s.86.58.64 1.02l-.48.958a2.468 2.468 0 0 0 .22-1.059c-.08-.36-.6-.72-.38-.92Z" class="colord0876a svgShape"/><path fill="#574a9d" d="M484.732 570.673s.839 15.348-1.919 24.94c-2.758 9.593 1.11 40.289 1.11 40.289h.6s-3.556-27.386-1.29-36.871c3.957-16.567 1.499-28.358 1.499-28.358Z" class="color574a9d svgShape"/><path fill="#e9aa8e" d="m481.492 565.242.718-4.495 4.471-.325 1.414 4.44s-1.657 5.398-3.334 5.45c-1.594.05-3.258-4.654-3.269-5.07Z" class="colore9aa8e svgShape"/><path fill="#433a87" d="m483.263 566.506 1.338 4.148-3.646-3.399 2.308-.749z" class="color433a87 svgShape"/><path fill="#574a9d" d="m478.503 569.968 4.868-3.485-1.637-2.675-2.698 1.559s.91 1.684-.533 4.6Z" class="color574a9d svgShape"/><path fill="#433a87" d="m486.5 566.386-1.54 4.258 3.399-3.449-1.859-.809z" class="color433a87 svgShape"/><path fill="#574a9d" d="m489.11 569.912-2.822-3.505 1.381-3.079 2.818.9s-2.97 2.846-1.377 5.684Z" class="color574a9d svgShape"/><path fill="#d0876a" d="M482.004 562.219s1.828 2.818 2.877 1.769a5.107 5.107 0 0 1 2.489-1.29l-.57-1.858Z" opacity=".55" class="colord0876a svgShape"/><path fill="#121e3c" d="M477.08 548.868c.308-2.032 15.366-6.054 14.348 2.776-.554 4.813-2.324 5.159-2.324 5.159l-10.457-.808s-2.385-1.741-1.567-7.127Z" class="color121e3c svgShape"/><path fill="#e9aa8e" d="M489.548 554.765c-.437 1.635-.385 6.593-5.027 7.912-4.65 1.326-5.894-7.582-5.854-8.181a2.841 2.841 0 0 1 .074-.505c.6-2.658 4.481-1.897 7.247-1.904.1 0 .201-.007.296-.007 2.933-.08 2.904-.633 2.904-.633s.893-.874 1.514.505a2.016 2.016 0 0 1-1.154 2.813Z" class="colore9aa8e svgShape"/><path fill="#d0876a" d="M488.179 554.605s-3.086-.93-5.064-1.529a5.459 5.459 0 0 0-4.078.841 1.727 1.727 0 0 1-.296.074c.28-3.073 6.058-2.077 8.823-2.084a18.388 18.388 0 0 1 .615 2.698Z" opacity=".55" class="colord0876a svgShape"/><path fill="#121e3c" d="M487.37 551.097s.78 5.78 1.035 4.093 1.634-3.54.883-4.362c-.327-.358-1.918.27-1.918.27Z" class="color121e3c svgShape"/><path fill="#312c58" d="M477.297 553.566s1.28-3.877 8.394-2.479c0 0-7.874-4.716-8.394 2.479Z" opacity=".5" class="color312c58 svgShape"/><path fill="#121e3c" d="M482.61 554.56a2.096 2.096 0 0 0 2.114 1.944 2.158 2.158 0 0 0-.457-4.288 2.096 2.096 0 0 0-1.658 2.345Zm.188-.02a1.874 1.874 0 0 1 1.493-2.1 1.933 1.933 0 0 1 .41 3.84 1.874 1.874 0 0 1-1.903-1.74ZM479.046 554.852a1.833 1.833 0 0 0 1.753 1.773 1.968 1.968 0 0 0-.413-3.875 1.834 1.834 0 0 0-1.34 2.102Zm.155-.016a1.638 1.638 0 0 1 1.207-1.884 1.764 1.764 0 0 1 .37 3.471 1.639 1.639 0 0 1-1.577-1.587Z" class="color121e3c svgShape"/><path fill="#121e3c" d="m483.023 553.156-1.499.08.48.529.709-.04.31-.569z" class="color121e3c svgShape"/><path fill="#feaa32" d="M491.309 549.707a7.48 7.48 0 0 0-4.717-1.28c-3.605.24-8.384 2.134-9.193 2-1.438-.24-.32-6.088 3.478-7.195 8.633-2.518 11.75 3.717 10.432 6.475Z" class="colorfeaa32 svgShape"/><path fill="#ea9024" d="M486.912 548.388s-8.034-.93-10.072-.09-4.757 2.128.56 2.128a24.065 24.065 0 0 0 9.512-2.038Z" class="colorea9024 svgShape"/><path fill="#d88225" d="M484.134 548.688s-6.435 1.379-7.594 1.039c-1.16-.34.96-1.239.96-1.239Z" class="colord88225 svgShape"/><path fill="#d88225" d="M486.992 542.992s-4.357 1.839-3.797 4.956l-4.117-.16s.907-3.635 3.263-4.586a7.273 7.273 0 0 1 4.651-.21Z" opacity=".5" class="colord88225 svgShape"/><path fill="#feaa32" d="M468.19 627.528c2.32 8.942 7.824 9.567 10.431 9.453l8.022.484a15.45 15.45 0 0 0 5.54.236c4.34-.424 9.58-1.931 12.33-4.178 4.701-3.835 1.068-32.733 1.068-32.733-.78 1.864-2.248 2.153-3.897 1.473-3.321-1.366-7.356-6.66-7.853-10.825-.522-4.353-2.14-19.068-1.709-22.547.426-3.478 2.296-4.434 2.296-4.434l-2.937-.423s-1.5.598-1.727 5.597c-.138 2.92.36 5.592-.228 8.7a14.855 14.855 0 0 1-.761 2.678 5.162 5.162 0 0 1-9.862-.047 17.269 17.269 0 0 1-1.313-5.477c-.054-5.51 1.277-7.825.21-9.17a.395.395 0 0 0-.21-.148c-.45-.196-1.319.02-1.762 1.163-.42 1.084.053 16.949-1.23 25.426-1.282 8.471-8.123 9.352-8.692 10.947-.57 1.601-.57 12.871 2.284 23.825Z" class="colorfeaa32 svgShape"/><path fill="#e68d00" d="M477.02 579.327c.354 5.033 3.915 8.47 7.974 8.47 4.065 0 4.706-9.27 4.706-9.27l-.174-.196a14.855 14.855 0 0 1-.761 2.678 5.162 5.162 0 0 1-9.862-.047 17.269 17.269 0 0 1-1.313-5.477c-.054-5.51 1.277-7.825.21-9.17a.395.395 0 0 0-.21-.148 1.3 1.3 0 0 0 .072.605c.354 1.123-1.001 7.515-.641 12.555Z" opacity=".25" class="colore68d00 svgShape"/><path fill="#e68d00" d="M492.182 637.7c4.34-.423 9.58-1.93 12.332-4.177 4.7-3.835 1.067-32.733 1.067-32.733-.78 1.864-2.248 2.153-3.897 1.473l-.054.081s4.592 2.88 1.925 11.512c-2.165 6.977-14.029 18.348-11.373 23.845Z" opacity=".15" class="colore68d00 svgShape"/><path fill="#dd891b" d="m491.187 681.293-17.279-7.995h-92.325l15.473 8.253 94.131-.258z" class="colordd891b svgShape"/><path fill="#c6781a" d="M473.048 681.723v-6.018H383.99l12.808 5.588 76.25.43z" class="colorc6781a svgShape"/><path fill="#6f6eb2" d="M408.919 658.34h27.509v32.666h-27.509z" transform="rotate(168.491 422.673 674.673)" class="color6f6eb2 svgShape"/><path fill="#6f6eb2" d="M465.626 648.812h8.94v53.921h-8.94z" transform="rotate(-169.226 470.096 675.773)" class="color6f6eb2 svgShape"/><path fill="#175689" d="M470.439 650.087h5.797v.489h-5.797z" transform="rotate(-169.227 473.337 650.332)" class="color175689 svgShape"/><path fill="#175689" d="M470.285 650.901h3.842v.297h-3.842z" transform="rotate(-169.226 472.205 651.05)" class="color175689 svgShape"/><path fill="#175689" d="M470.131 651.707h3.842v.297h-3.842z" transform="rotate(-169.227 472.052 651.856)" class="color175689 svgShape"/><path fill="#175689" d="M469.978 652.514h3.842v.297h-3.842z" transform="rotate(-169.225 471.899 652.662)" class="color175689 svgShape"/><path fill="#175689" d="M469.824 653.32h3.842v.297h-3.842z" transform="rotate(-169.228 471.745 653.468)" class="color175689 svgShape"/><path fill="#175689" d="M469.623 654.376h5.797v.489h-5.797z" transform="rotate(-169.226 472.521 654.62)" class="color175689 svgShape"/><path fill="#175689" d="M469.469 655.19h3.841v.297h-3.841z" transform="rotate(-169.226 471.39 655.338)" class="color175689 svgShape"/><path fill="#175689" d="M469.315 655.996h3.842v.297h-3.842z" transform="rotate(-169.227 471.236 656.144)" class="color175689 svgShape"/><path fill="#175689" d="M469.162 656.802h3.842v.297h-3.842z" transform="rotate(-169.226 471.083 656.95)" class="color175689 svgShape"/><path fill="#175689" d="M469.008 657.608h3.842v.297h-3.842z" transform="rotate(-169.225 470.93 657.757)" class="color175689 svgShape"/><path fill="#175689" d="M468.807 658.664h5.797v.489h-5.797z" transform="rotate(-169.226 471.705 658.909)" class="color175689 svgShape"/><path fill="#175689" d="M468.653 659.478h3.841v.297h-3.841z" transform="rotate(-169.228 470.573 659.626)" class="color175689 svgShape"/><path fill="#175689" d="M468.499 660.284h3.842v.297h-3.842z" transform="rotate(-169.228 470.42 660.433)" class="color175689 svgShape"/><path fill="#175689" d="M468.346 661.091h3.842v.297h-3.842z" transform="rotate(-169.228 470.267 661.239)" class="color175689 svgShape"/><path fill="#175689" d="M468.192 661.897h3.842v.297h-3.842z" transform="rotate(-169.225 470.113 662.045)" class="color175689 svgShape"/><path fill="#175689" d="M467.991 662.953h5.797v.489h-5.797z" transform="rotate(-169.226 470.89 663.197)" class="color175689 svgShape"/><path fill="#175689" d="M467.837 663.766h3.842v.297h-3.842z" transform="rotate(-169.225 469.757 663.915)" class="color175689 svgShape"/><path fill="#175689" d="M467.683 664.573h3.841v.297h-3.841z" transform="rotate(-169.227 469.604 664.721)" class="color175689 svgShape"/><path fill="#175689" d="M467.53 665.379h3.841v.297h-3.841z" transform="rotate(-169.228 469.45 665.527)" class="color175689 svgShape"/><path fill="#175689" d="M467.376 666.185h3.842v.297h-3.842z" transform="rotate(-169.228 469.297 666.334)" class="color175689 svgShape"/><path fill="#175689" d="M467.175 667.241h5.797v.489h-5.797z" transform="rotate(-169.226 470.073 667.486)" class="color175689 svgShape"/><path fill="#175689" d="M467.021 668.055h3.841v.297h-3.841z" transform="rotate(-169.224 468.941 668.203)" class="color175689 svgShape"/><path fill="#175689" d="M466.867 668.861h3.842v.297h-3.842z" transform="rotate(-169.225 468.788 669.01)" class="color175689 svgShape"/><path fill="#175689" d="M466.714 669.667h3.841v.297h-3.841z" transform="rotate(-169.228 468.634 669.816)" class="color175689 svgShape"/><path fill="#175689" d="M466.56 670.473h3.842v.297h-3.842z" transform="rotate(-169.228 468.481 670.622)" class="color175689 svgShape"/><path fill="#175689" d="M466.359 671.529h5.797v.489h-5.797z" transform="rotate(-169.226 469.257 671.774)" class="color175689 svgShape"/><path fill="#175689" d="M466.205 672.343h3.841v.297h-3.841z" transform="rotate(-169.225 468.125 672.492)" class="color175689 svgShape"/><path fill="#175689" d="M466.051 673.149h3.841v.297h-3.841z" transform="rotate(-169.226 467.972 673.298)" class="color175689 svgShape"/><path fill="#175689" d="M465.898 673.956h3.842v.297h-3.842z" transform="rotate(-169.225 467.818 674.104)" class="color175689 svgShape"/><path fill="#175689" d="M465.744 674.762h3.841v.297h-3.841z" transform="rotate(-169.228 467.665 674.91)" class="color175689 svgShape"/><path fill="#175689" d="M465.543 675.818h5.797v.489h-5.797z" transform="rotate(-169.226 468.441 676.062)" class="color175689 svgShape"/><path fill="#175689" d="M465.389 676.632h3.841v.297h-3.841z" transform="rotate(-169.226 467.31 676.78)" class="color175689 svgShape"/><path fill="#175689" d="M465.235 677.438h3.842v.297h-3.842z" transform="rotate(-169.226 467.156 677.586)" class="color175689 svgShape"/><path fill="#175689" d="M465.082 678.244h3.842v.297h-3.842z" transform="rotate(-169.225 467.002 678.393)" class="color175689 svgShape"/><path fill="#175689" d="M464.928 679.05h3.842v.297h-3.842z" transform="rotate(-169.225 466.849 679.199)" class="color175689 svgShape"/><path fill="#175689" d="M464.727 680.106h5.797v.489h-5.797z" transform="rotate(-169.226 467.625 680.35)" class="color175689 svgShape"/><path fill="#175689" d="M464.573 680.92h3.841v.297h-3.841z" transform="rotate(-169.226 466.493 681.069)" class="color175689 svgShape"/><path fill="#175689" d="M464.419 681.726h3.841v.297h-3.841z" transform="rotate(-169.226 466.34 681.875)" class="color175689 svgShape"/><path fill="#175689" d="M464.266 682.533h3.841v.297h-3.841z" transform="rotate(-169.226 466.186 682.681)" class="color175689 svgShape"/><path fill="#175689" d="M464.112 683.339h3.842v.297h-3.842z" transform="rotate(-169.225 466.033 683.487)" class="color175689 svgShape"/><path fill="#175689" d="M463.911 684.395h5.797v.489h-5.797z" transform="rotate(-169.226 466.81 684.64)" class="color175689 svgShape"/><path fill="#175689" d="M463.756 685.209h3.841v.297h-3.841z" transform="rotate(-169.224 465.677 685.357)" class="color175689 svgShape"/><path fill="#175689" d="M463.603 686.015h3.841v.297h-3.841z" transform="rotate(-169.226 465.524 686.163)" class="color175689 svgShape"/><path fill="#175689" d="M463.45 686.821h3.842v.297h-3.842z" transform="rotate(-169.226 465.37 686.97)" class="color175689 svgShape"/><path fill="#175689" d="M463.296 687.627h3.842v.297h-3.842z" transform="rotate(-169.226 465.217 687.776)" class="color175689 svgShape"/><path fill="#175689" d="M463.095 688.683h5.797v.489h-5.797z" transform="rotate(-169.226 465.993 688.928)" class="color175689 svgShape"/><path fill="#175689" d="M462.94 689.497h3.841v.297h-3.841z" transform="rotate(-169.226 464.861 689.645)" class="color175689 svgShape"/><path fill="#175689" d="M462.787 690.303h3.841v.297h-3.841z" transform="rotate(-169.226 464.708 690.452)" class="color175689 svgShape"/><path fill="#175689" d="M462.634 691.109h3.841v.297h-3.841z" transform="rotate(-169.224 464.554 691.258)" class="color175689 svgShape"/><path fill="#175689" d="M462.48 691.916h3.841v.297h-3.841z" transform="rotate(-169.224 464.4 692.064)" class="color175689 svgShape"/><path fill="#175689" d="M462.279 692.972h5.797v.489h-5.797z" transform="rotate(-169.226 465.177 693.216)" class="color175689 svgShape"/><path fill="#175689" d="M462.124 693.785h3.842v.297h-3.842z" transform="rotate(-169.228 464.045 693.934)" class="color175689 svgShape"/><path fill="#175689" d="M461.971 694.592h3.841v.297h-3.841z" transform="rotate(-169.226 463.892 694.74)" class="color175689 svgShape"/><path fill="#175689" d="M461.818 695.398h3.841v.297h-3.841z" transform="rotate(-169.226 463.738 695.546)" class="color175689 svgShape"/><path fill="#175689" d="M461.664 696.204h3.842v.297h-3.842z" transform="rotate(-169.225 463.585 696.352)" class="color175689 svgShape"/><path fill="#175689" d="M461.463 697.26h5.797v.489h-5.797z" transform="rotate(-169.226 464.361 697.504)" class="color175689 svgShape"/><path fill="#175689" d="M461.308 698.074h3.841v.297h-3.841z" transform="rotate(-169.228 463.23 698.222)" class="color175689 svgShape"/><path fill="#175689" d="M461.155 698.88h3.842v.297h-3.842z" transform="rotate(-169.228 463.076 699.028)" class="color175689 svgShape"/><path fill="#175689" d="M461.002 699.686h3.842v.297h-3.842z" transform="rotate(-169.226 462.922 699.835)" class="color175689 svgShape"/><path fill="#175689" d="M460.848 700.492h3.841v.297h-3.841z" transform="rotate(-169.226 462.769 700.64)" class="color175689 svgShape"/><path fill="#6f6eb2" d="m439.93 674.17 20.813 26.672a4.112 4.112 0 1 0 6.484-5.06l-20.814-26.672a4.112 4.112 0 1 0-6.484 5.06Zm23.174 25.344a1.465 1.465 0 1 1 2.056.253 1.465 1.465 0 0 1-2.056-.253Z" class="color6f6eb2 svgShape"/><path fill="#175689" d="m442.603 675.891 18.967 24.305a3.063 3.063 0 1 0 4.83-3.769l-18.967-24.305a3.063 3.063 0 1 0-4.83 3.77Zm20.501 23.623a1.465 1.465 0 1 1 2.056.253 1.465 1.465 0 0 1-2.056-.253Z" class="color175689 svgShape"/><path fill="#6f6eb2" d="M430.412 666.702a1.905 1.905 0 0 1 1.884-.354l3.341 2.239a1.906 1.906 0 0 0 1.81-.293l1.87-1.46c.967-.754 2.003-3.01 1.05-3.782l-6.33-3.495a1.907 1.907 0 0 1 .587-3.287c1.605-.546 4.017-.706 7.386.664 6.997 2.846 6.514 7.643 3.118 12.236a1.883 1.883 0 0 1-.356.363l-5.005 3.906a1.906 1.906 0 0 1-.962.392l-3.684.41a1.906 1.906 0 0 1-1.449-.444l-3.251-4.204a1.906 1.906 0 0 1-.009-2.891Z" class="color6f6eb2 svgShape"/><path fill="#175689" d="M444.127 668.706a.84.84 0 0 0 .158-.16c1.276-1.725 2.665-4.25 2.04-6.476-.474-1.685-2.058-3.086-4.71-4.164a9.68 9.68 0 0 0-6.653-.643.885.885 0 0 0-.26.139.868.868 0 0 0-.324.673.834.834 0 0 0 .262.617l6.315 3.486.072.058a2.145 2.145 0 0 1 .767 1.775 5.328 5.328 0 0 1-1.832 3.65l-1.87 1.46a2.941 2.941 0 0 1-2.806.454l-.124-.044-3.319-2.224a.852.852 0 0 0-.712.161.745.745 0 0 0-.033.028.857.857 0 0 0 .004 1.3l.082.07 3.238 4.186a.862.862 0 0 0 .582.147l3.685-.41a.856.856 0 0 0 .432-.177Z" class="color175689 svgShape"/><path fill="#6f6eb2" d="M445.44 674.414a.56.56 0 0 1 .787.063l16.472 21.106a.584.584 0 0 1-.917.716l-16.472-21.107a.56.56 0 0 1 .13-.778Z" class="color6f6eb2 svgShape"/><path fill="#2b3990" d="M434.126 657.755s7.997 2.347 8.679 4.977-2.514 4.543-2.514 4.543 2.38-2.015.97-4.024c-1.41-2.008-6.827-4.156-7.032-4.418-.204-.262-.103-1.078-.103-1.078Z" opacity=".25" class="color2b3990 svgShape"/><path fill="#6f6eb2" d="M399.494 667.903a2.745 2.745 0 0 0-4.641 2.046l.508 22.576a2.745 2.745 0 1 0 5.488-.123l-.508-22.576a2.738 2.738 0 0 0-.847-1.923Zm-1.382 25.809a.978.978 0 1 1 .956-1 .978.978 0 0 1-.956 1Z" class="color6f6eb2 svgShape"/><path fill="#175689" d="M397.597 669.846a2.048 2.048 0 0 0-2 2.09l.463 20.573a2.045 2.045 0 1 0 4.089-.092l-.463-20.573a2.047 2.047 0 0 0-2.09-1.998Zm.515 23.866a.978.978 0 1 1 .956-1 .978.978 0 0 1-.956 1Z" class="color175689 svgShape"/><path fill="#6f6eb2" d="M402.106 661.946a1.273 1.273 0 0 0-1.124.613l-.78 2.568a1.272 1.272 0 0 1-1.06.613l-1.583.036c-.818.018-2.307-.71-2.14-1.512l1.795-4.48a1.272 1.272 0 0 0-1.691-1.45 6.957 6.957 0 0 0-3.537 3.462c-2.415 4.427-.139 6.702 3.556 7.64a1.252 1.252 0 0 0 .338.038l4.236-.095a1.27 1.27 0 0 0 .663-.204l2.077-1.344a1.272 1.272 0 0 0 .561-.841l-.095-3.546a1.272 1.272 0 0 0-1.216-1.498Z" class="color6f6eb2 svgShape"/><path fill="#175689" d="M395.864 668.774a.56.56 0 0 1-.15-.015c-1.388-.353-3.172-1.071-3.789-2.486-.467-1.07-.24-2.464.675-4.141a6.461 6.461 0 0 1 3.167-3.143.588.588 0 0 1 .193-.038.579.579 0 0 1 .452.212.556.556 0 0 1 .126.429l-1.792 4.469-.013.06a1.432 1.432 0 0 0 .354 1.242 3.557 3.557 0 0 0 2.488 1.113l1.582-.036a1.963 1.963 0 0 0 1.643-.95l.045-.075.776-2.552a.57.57 0 0 1 .436-.217h.03a.572.572 0 0 1 .546.673l-.012.072.094 3.53a.576.576 0 0 1-.239.323l-2.078 1.344a.57.57 0 0 1-.297.091Z" class="color175689 svgShape"/><path fill="#6f6eb2" d="M397.596 672.28a.373.373 0 0 0-.38.364l.401 17.866a.39.39 0 0 0 .777-.018l-.402-17.865a.373.373 0 0 0-.396-.348Z" class="color6f6eb2 svgShape"/><path fill="#2b3990" d="M396.407 658.89s-3.141 4.591-2.383 6.238 3.218 1.287 3.218 1.287-2.08-.037-2.2-1.67c-.12-1.634 1.772-5.032 1.767-5.254s-.402-.6-.402-.6Z" opacity=".25" class="color2b3990 svgShape"/><path fill="#175689" d="M461.845 660.474c3.782 1.154 4.675 2.75 4.675 2.75-6.06-1.24-8.058 1.74-8.058 1.74l2.029 3.903-.095.695-.01.079c-3.081 3.825-4.874 2.71-4.874 2.71s-3.805-5.206-4.793-2.114a3.796 3.796 0 0 1-2.264 2.714 2.271 2.271 0 0 1-.896.132 7.11 7.11 0 0 1-3.438-5.034q.216-.303.415-.54c1.399-1.644 2.347-1.045 4.022-1.328a1.734 1.734 0 0 0 1.505-2.062c3.978-3.752 8-4.798 11.782-3.645Z" class="color175689 svgShape"/><path fill="url(#c)" d="m460.491 668.867 9.08 14.665 5.1 8.241a14.666 14.666 0 0 1 1.267 2.046c.306.862-1.677 2.598-3.054 2.023-.574-.24-1.479-2.001-1.479-2.001l-5.64-7.623-10.253-13.867a8.355 8.355 0 0 0 4.214-2.584 11.05 11.05 0 0 0 .765-.9Z"/><path fill="#175689" d="M474.672 691.774a6.837 6.837 0 0 1-3.267 2.067l-5.64-7.622a10.075 10.075 0 0 0 3.806-2.687Z" class="color175689 svgShape"/><path style="mix-blend-mode:lighten" fill="url(#b)" d="m473.493 695.664-16.604-23.426-1.082.273 16.903 23.064.783.089z" opacity=".35"/><path fill="#2b3990" d="M444.589 667.495a9.353 9.353 0 0 0 3.866 5.456 2.271 2.271 0 0 1-.896.132 7.11 7.11 0 0 1-3.438-5.034q.216-.303.415-.54Z" opacity=".25" class="color2b3990 svgShape"/><path d="M444.918 667.99a3.491 3.491 0 0 1 2.566-1.301c1.94-.266 2.236-.705 2.236-.705a5.297 5.297 0 0 1-2.217 1.25 4.619 4.619 0 0 0-2.245 1.525Z" style="mix-blend-mode:lighten" fill="url(#s)" opacity=".25"/><path d="m450.39 665.075-.008-.936s4.421-4.268 8.65-3.797c0 0-4.261.076-8.643 4.733Z" style="mix-blend-mode:lighten" fill="url(#t)" opacity=".25"/><path fill="#2b3990" d="M466.52 663.225c-6.06-1.24-8.058 1.738-8.058 1.738l2.029 3.904a11.05 11.05 0 0 1-.765.9l-3.123-5.437s5.987-3.347 9.917-1.105Z" opacity=".25" class="color2b3990 svgShape"/><path fill="#175689" d="M404.16 655.045c-2.416 3.13-2.22 4.95-2.22 4.95 4.223-4.52 7.577-3.249 7.577-3.249l.607 4.358.48.511.053.059c4.727 1.334 5.543-.613 5.543-.613s.088-6.448 2.683-4.499a3.796 3.796 0 0 0 3.418.902 2.275 2.275 0 0 0 .807-.411 7.11 7.11 0 0 0-.112-6.095 8.455 8.455 0 0 0-.65-.2c-2.094-.531-2.52.507-4.049 1.246a1.734 1.734 0 0 1-2.421-.81c-5.415-.755-9.301.72-11.716 3.851Z" class="color175689 svgShape"/><path fill="url(#u)" d="m410.124 661.104 1.089 17.213.613 9.673a14.68 14.68 0 0 0 .152 2.401c.25.88 2.872 1.147 3.661-.118a6.351 6.351 0 0 0 .048-2.489l.183-9.48.33-17.243a8.356 8.356 0 0 1-4.932.333 11.03 11.03 0 0 1-1.144-.29Z"/><path fill="#175689" d="M411.826 687.99a6.835 6.835 0 0 0 3.86-.205l.184-9.48a10.072 10.072 0 0 1-4.657.012Z" class="color175689 svgShape"/><path style="mix-blend-mode:lighten" fill="url(#v)" d="m415.04 690.48-.028-28.714 1.041-.404-.426 28.592-.587.526z" opacity=".35"/><path fill="#2b3990" d="M422.294 650.777a9.353 9.353 0 0 1 .007 6.687 2.275 2.275 0 0 0 .807-.411 7.11 7.11 0 0 0-.112-6.095 8.455 8.455 0 0 0-.65-.2Z" opacity=".25" class="color2b3990 svgShape"/><path d="M422.313 651.371a3.491 3.491 0 0 0-2.846.425c-1.736.907-2.232.72-2.232.72a5.297 5.297 0 0 0 2.531-.264 4.62 4.62 0 0 1 2.714-.058Z" style="mix-blend-mode:lighten" fill="url(#w)" opacity=".25"/><path d="m416.163 652.163-.535-.768s-6.077-.92-9.252 1.913c0 0 3.518-2.405 9.787-1.145Z" style="mix-blend-mode:lighten" fill="url(#x)" opacity=".25"/><path fill="#2b3990" d="M401.94 659.995c4.223-4.52 7.577-3.249 7.577-3.249l.607 4.358a11.03 11.03 0 0 0 1.144.29l-.602-6.24s-6.82.737-8.726 4.84Z" opacity=".25" class="color2b3990 svgShape"/><path fill="#175689" d="M403.202 685.753a15.302 15.302 0 0 0 2.197 5.288l-2.782 3.346 3.902 3.902 3.346-2.782c.403.263.82.51 1.25.735a14.954 14.954 0 0 0 1.536.713 15.393 15.393 0 0 0 2.5.749l.067 4.354h6.178l.068-4.354a15.337 15.337 0 0 0 5.165-2.12l.124-.077 3.346 2.782 3.902-3.902-2.786-3.346a15.306 15.306 0 0 0 2.2-5.288l4.325-.397v-5.52l-4.325-.397a15.33 15.33 0 0 0-2.2-5.289l2.786-3.346-3.902-3.902-3.346 2.786a15.34 15.34 0 0 0-5.289-2.2l-.397-4.325h-5.52l-.397 4.325a15.325 15.325 0 0 0-5.285 2.2l-3.346-2.786-3.902 3.902 2.782 3.346a15.3 15.3 0 0 0-2.196 5.289l-4.326.397v5.52Zm6.585-3.144a8.524 8.524 0 1 1 8.523 8.526 8.523 8.523 0 0 1-8.523-8.526Z" class="color175689 svgShape"/><path fill="#2b3990" d="M403.196 679.447a10.105 10.105 0 015.38-5.977l-4.016-4.573-1.949 1.917 2.783 3.347a15.323 15.323 0 00-2.198 5.286zM433.423 685.759a10.105 10.105 0 01-5.38 5.977l4.016 4.574 1.949-1.918-2.783-3.346a15.325 15.325 0 002.198-5.287zM421.465 667.488a10.105 10.105 0 015.977 5.38l4.572-4.016-1.917-1.948-3.346 2.782a15.317 15.317 0 00-5.286-2.198zM404.604 696.355l1.918 1.948 3.346-2.783c.4.264.816.509 1.243.737q.655.347 1.347.632a15.15 15.15 0 002.696.83 11.442 11.442 0 01-2.419-1.228 10.502 10.502 0 01-1.49-1.208 8.835 8.835 0 01-2.068-2.944zM405.392 691.06a10.106 10.106 0 01-.423-8.031l-6.073-.394-.022 2.734 4.334.398a15.324 15.324 0 002.183 5.293zM431.227 674.147a10.106 10.106 0 01.423 8.03l6.073.394.022-2.733-4.334-.399a15.321 15.321 0 00-2.184-5.292zM418.573 702.057h2.833l.067-4.35a15.339 15.339 0 005.292-2.185c-.044.021-.09.041-.136.061a10.08 10.08 0 01-7.894.362zM409.854 669.684a10.104 10.104 0 018.03-.423l.394-6.073-2.734-.022-.398 4.334a15.32 15.32 0 00-5.292 2.184z" opacity=".2" class="color2b3990 svgShape"/><path fill="#14527c" d="M409.142 682.609a9.167 9.167 0 1 0 9.168-9.166 9.167 9.167 0 0 0-9.168 9.166Zm.944 0a8.225 8.225 0 1 1 8.224 8.227 8.224 8.224 0 0 1-8.224-8.227Z" class="color14527c svgShape"/><path fill="#feaa32" d="M396.798 690.319h94.389v49.516h-94.389z" transform="rotate(180 443.992 715.077)" class="colorfeaa32 svgShape"/><path fill="#f19b17" d="M468.75 690.319h22.437v49.516H468.75z" opacity=".67" transform="rotate(180 479.968 715.077)" class="colorf19b17 svgShape"/><path fill="#f29c17" d="M396.798 681.293h94.389v13.152h-94.389z" transform="rotate(180 443.992 687.869)" class="colorf29c17 svgShape"/><path fill="#f19b17" d="M420.008 732.613h3.868v2.321h-3.868z" transform="rotate(180 421.943 733.774)" class="colorf19b17 svgShape"/><path fill="#f19b17" d="M414.421 732.613h3.868v2.321h-3.868z" transform="rotate(180 416.355 733.774)" class="colorf19b17 svgShape"/><path fill="#f19b17" d="M406.039 730.937h6.662v3.997h-6.662z" transform="rotate(180 409.37 732.936)" class="colorf19b17 svgShape"/><path fill="#dd891b" d="M381.583 673.298v59.295l15.215 7.241v-58.541l-15.215-7.995z" class="colordd891b svgShape"/><path fill="#ffbe4c" d="m244.461 675.123-7.508 16.01v-16.01h7.508z" class="colorffbe4c svgShape"/><path fill="#0b8cc8" d="m258.389 675.123-9.624 20.524h-11.812v-4.514l7.508-16.01h13.928z" class="color0b8cc8 svgShape"/><path fill="#ffbe4c" d="m272.577 675.123-9.623 20.524h-13.938l9.624-20.524h13.937z" class="colorffbe4c svgShape"/><path fill="#0b8cc8" d="m286.504 675.123-9.612 20.524h-13.938l9.623-20.524h13.927z" class="color0b8cc8 svgShape"/><path fill="#ffbe4c" d="m300.693 675.123-9.623 20.524h-13.938l9.624-20.524h13.937z" class="colorffbe4c svgShape"/><path fill="#0b8cc8" d="m314.631 675.123-9.623 20.524H291.07l9.623-20.524h13.938z" class="color0b8cc8 svgShape"/><path fill="#ffbe4c" d="m328.809 675.123-9.623 20.524h-13.938l9.624-20.524h13.937z" class="colorffbe4c svgShape"/><path fill="#0b8cc8" d="m342.747 675.123-9.624 20.524h-13.937l9.623-20.524h13.938z" class="color0b8cc8 svgShape"/><path fill="#ffbe4c" d="M355.648 675.123v2.712l-8.346 17.812h-13.927l9.613-20.524h12.66z" class="colorffbe4c svgShape"/><path fill="#0b8cc8" d="M355.648 677.835v17.812h-8.346l8.346-17.812z" class="color0b8cc8 svgShape"/><path fill="#43b5d5" d="M249.647 695.65h11.944v60.589h-11.944z" class="color43b5d5 svgShape"/><path fill="#c0f0ff" d="M249.647 699.406h8.585v56.834h-8.585z" class="colorc0f0ff svgShape"/><path fill="#43b5d5" d="M327.779 695.65h11.944v60.589h-11.944z" class="color43b5d5 svgShape"/><path fill="#c0f0ff" d="M327.779 699.406h8.585v56.834h-8.585z" class="colorc0f0ff svgShape"/><path style="mix-blend-mode:multiply" fill="#43b5d5" d="M236.953 675.123h118.694v5.474H236.953z" opacity=".44" class="color43b5d5 svgShape"/><path fill="#c0f0ff" d="M644.005 734.209h-33.778l.21-.652.867-2.664 5.854-18.035 1.837-5.664 6.112-18.827.855-2.637a1.214 1.214 0 0 1 2.309 0l6.966 21.464.53 1.63 1.307 4.034Z" class="colorc0f0ff svgShape"/><path fill="#ffbe4c" d="m621.102 707.194-2.656 5.664h-1.288l1.837-5.664h2.107z" class="colorffbe4c svgShape"/><path fill="#0b8cc8" d="m624.949 707.193-2.656 5.666h-3.848l2.657-5.666h3.847z" class="color0b8cc8 svgShape"/><path fill="#ffbe4c" d="m628.818 707.193-2.657 5.666h-3.848l2.657-5.666h3.848z" class="colorffbe4c svgShape"/><path fill="#0b8cc8" d="m632.665 707.193-2.657 5.666h-3.847l2.657-5.666h3.847z" class="color0b8cc8 svgShape"/><path fill="#ffbe4c" d="m635.767 708.825-1.891 4.033h-3.846l2.656-5.664h2.551l.53 1.631z" class="colorffbe4c svgShape"/><path fill="#0b8cc8" d="M637.074 712.858h-3.198l1.891-4.033 1.307 4.033z" class="color0b8cc8 svgShape"/><path fill="#006697" d="M644.005 734.209h-33.072c-.175-.223-.34-.441-.495-.652-1.474-1.97-2.313-3.296-2.364-3.378a17.294 17.294 0 0 0 3.23.714 38.919 38.919 0 0 0 17.341-1.97c12.793-4.17 3.756-25.161-.137-35.31a13.558 13.558 0 0 0-3.4-5.246l.854-2.637a1.214 1.214 0 0 1 2.309 0l6.966 21.464.53 1.63 1.307 4.034Z" opacity=".1" class="color006697 svgShape"/><path fill="#c0f0ff" d="M644.356 731.149h-34.478a3.615 3.615 0 0 0-3.615 3.614v2.502h41.708v-2.502a3.615 3.615 0 0 0-3.615-3.614Z" class="colorc0f0ff svgShape"/><path fill="#0782be" d="M617.158 712.858h19.916l.748 2.256-20.664-2.256z" opacity=".49" class="color0782be svgShape"/><path fill="#8adaed" d="M834.703 755.36h-33.777l.21-.651.866-2.664 5.855-18.036 1.837-5.663 6.112-18.828.854-2.636a1.214 1.214 0 0 1 2.309 0l6.966 21.464.53 1.63 1.307 4.033Z" class="color8adaed svgShape"/><path fill="#ffbe4c" d="m811.8 728.346-2.656 5.663h-1.287l1.837-5.663h2.106z" class="colorffbe4c svgShape"/><path fill="#0b8cc8" d="m815.648 728.344-2.657 5.666h-3.848l2.657-5.666h3.848z" class="color0b8cc8 svgShape"/><path fill="#ffbe4c" d="m819.516 728.344-2.657 5.666h-3.847l2.656-5.666h3.848z" class="colorffbe4c svgShape"/><path fill="#0b8cc8" d="m823.363 728.344-2.656 5.666h-3.848l2.657-5.666h3.847z" class="color0b8cc8 svgShape"/><path fill="#ffbe4c" d="m826.466 729.976-1.892 4.033h-3.846l2.656-5.663h2.551l.531 1.63z" class="colorffbe4c svgShape"/><path fill="#0b8cc8" d="M827.772 734.009h-3.198l1.892-4.033 1.306 4.033z" class="color0b8cc8 svgShape"/><path fill="#006697" d="M834.703 755.36h-33.071a26.22 26.22 0 0 1-.496-.651c-1.474-1.97-2.313-3.296-2.363-3.378a17.293 17.293 0 0 0 3.23.714 38.919 38.919 0 0 0 17.34-1.97c12.794-4.17 3.757-25.162-.136-35.31a13.557 13.557 0 0 0-3.401-5.247l.854-2.636a1.214 1.214 0 0 1 2.309 0l6.966 21.464.53 1.63 1.307 4.033Z" opacity=".1" class="color006697 svgShape"/><path fill="#75c1ea" d="M835.054 752.3h-34.478a3.615 3.615 0 0 0-3.614 3.615v2.502h41.707v-2.502a3.615 3.615 0 0 0-3.615-3.615Z" class="color75c1ea svgShape"/><path fill="#0782be" d="M807.857 734.009h19.915l.748 2.257-20.663-2.257z" opacity=".49" class="color0782be svgShape"/></g></svg>