<svg xmlns="http://www.w3.org/2000/svg" data-name="Layer 1" viewBox="-0.01 0 3156.76 1636.8"><path fill="#eff2f5" d="M2620.19 593.31a759.62 759.62 0 0 0-206.46 28.44c-168.78-217.32-432.57-357.21-729.06-357.21-439.77 0-807.61 307.68-900.12 719.49A181.85 181.85 0 0 0 569 1198.28c-169.48 43.56-301.41 180.68-337.52 353A464.27 464.27 0 0 0 287 1884h2872.89a755.75 755.75 0 0 0 218.49-532.5c0-418.74-339.46-758.19-758.19-758.19Z" transform="translate(-221.63 -247.2)" class="coloreff2f5 svgShape"></path><path fill="#90b4c1" d="M2638.1 1722.5H961.9a56.09 56.09 0 0 1 0-112.18h1676.2a56.09 56.09 0 0 1 0 112.18Z" transform="translate(-221.63 -247.2)" class="color90b4c1 svgShape"></path><path fill="#7b7e8d" d="M1887.3 688.93a33.24 33.24 0 0 1 32 24.09h-63.91a33.24 33.24 0 0 1 31.91-24.09Z" transform="translate(-221.63 -247.2)" class="color7b7e8d svgShape"></path><path fill="#7b7e8d" d="M1924.69 696.4a22.94 22.94 0 0 1 22.05 16.6h-44.1a22.94 22.94 0 0 1 22.05-16.6ZM1877.16 713c-4.29-14.85-21.3-25.94-41.63-25.94s-37.34 11.09-41.63 25.94Z" transform="translate(-221.63 -247.2)" class="color7b7e8d svgShape"></path><path fill="#ffffff" d="M1096 592.14a101 101 0 0 1 97.12 73.22H998.89a101 101 0 0 1 97.11-73.22ZM622.63 557.5A148.83 148.83 0 0 1 765.7 665.36H479.56A148.83 148.83 0 0 1 622.63 557.5Z" transform="translate(-221.63 -247.2)" class="colorfff svgShape"></path><path fill="#ffffff" d="M1066.63 665.36c-21.94-75.91-108.87-132.61-212.79-132.61S663 589.45 641.06 665.36Z" transform="translate(-221.63 -247.2)" class="colorfff svgShape"></path><path fill="#b3cbd4" d="M862.65 637.14a76.64 76.64 0 0 1 73.67 55.54H789a76.64 76.64 0 0 1 73.65-55.54Z" transform="translate(-221.63 -247.2)" class="colorb3cbd4 svgShape"></path><path fill="#b3cbd4" d="M948.86 654.36a52.89 52.89 0 0 1 50.84 38.33H898a52.89 52.89 0 0 1 50.86-38.33ZM839.28 692.68c-9.9-34.24-49.11-59.82-96-59.82s-86.09 25.58-96 59.82Z" transform="translate(-221.63 -247.2)" class="colorb3cbd4 svgShape"></path><path fill="#ffffff" d="M2361.09 747.64a97 97 0 0 0-93.22 70.28h186.44a97 97 0 0 0-93.22-70.28ZM2815.46 714.4a142.85 142.85 0 0 0-137.32 103.52h274.64a142.85 142.85 0 0 0-137.32-103.52Z" transform="translate(-221.63 -247.2)" class="colorfff svgShape"></path><path fill="#ffffff" d="M2389.29 817.92c21.06-72.86 104.5-127.28 204.24-127.28s183.18 54.42 204.24 127.28Z" transform="translate(-221.63 -247.2)" class="colorfff svgShape"></path><path fill="#b3cbd4" d="M2750.39 788.7a87.66 87.66 0 0 0-84.26 63.52h168.53a87.66 87.66 0 0 0-84.27-63.52Z" transform="translate(-221.63 -247.2)" class="colorb3cbd4 svgShape"></path><path fill="#b3cbd4" d="M2651.77 808.39a60.49 60.49 0 0 0-58.15 43.84h116.3a60.49 60.49 0 0 0-58.15-43.84ZM2777.11 852.23c11.32-39.16 56.17-68.42 109.78-68.42s98.46 29.25 109.78 68.42Z" transform="translate(-221.63 -247.2)" class="colorb3cbd4 svgShape"></path><path fill="#c0d4db" d="M2628 1532.42a143.44 143.44 0 0 0-137.88 103.95h275.76A143.44 143.44 0 0 0 2628 1532.42Z" transform="translate(-221.63 -247.2)" class="colorc0d4db svgShape"></path><path fill="#c0d4db" d="M2466.62 1564.63a99 99 0 0 0-95.15 71.73h190.3a99 99 0 0 0-95.15-71.73ZM2671.71 1636.36c18.52-64.08 91.91-112 179.64-112s161.12 47.87 179.64 112Z" transform="translate(-221.63 -247.2)" class="colorc0d4db svgShape"></path><path fill="#4c5265" d="M2511.76 1522.06a7.38 7.38 0 0 1 9.6 9.35 212.35 212.35 0 0 1 18.16 18.21 115 115 0 0 1-2.51-27.28 7.4 7.4 0 1 1 4 .38c-.63 15.29 3.54 31.08 4.21 33.52a319.94 319.94 0 0 1 46.75 78l-3.71 1.45a298.94 298.94 0 0 0-18.35-36.77c-3.61-6.22-8-13.29-13.12-20.72a78.5 78.5 0 0 0-27.53.28 7.37 7.37 0 1 1-1.12-3.84 86.07 86.07 0 0 1 25.47-1 237 237 0 0 0-34.53-39 7.38 7.38 0 1 1-7.29-12.62Z" transform="translate(-221.63 -247.2)" class="color4c5265 svgShape"></path><path fill="#4c5265" d="M2603 1571.76a78.46 78.46 0 0 0-25.87-9.43 7.37 7.37 0 1 1 .3-4 86.06 86.06 0 0 1 24.18 8.07 237 237 0 0 0-18.58-48.65 7.39 7.39 0 1 1 3.31-2.25 212.32 212.32 0 0 1 10.58 23.44 115 115 0 0 1 7.26-26.42 7.4 7.4 0 1 1 3.58 1.75c-6 14.09-7.64 30.34-7.86 32.85a320 320 0 0 1 16.28 89.45l-4 .05a298.88 298.88 0 0 0-4.22-40.87c-1.12-7.07-2.74-15.24-4.96-23.99Z" transform="translate(-221.63 -247.2)" class="color4c5265 svgShape"></path><path fill="#dcd7d5" d="M1262.83 1487c91 0 167.75 61 191.54 144.4h-383.08c23.79-83.4 100.53-144.4 191.54-144.4Z" transform="translate(-221.63 -247.2)" class="colordcd7d5 svgShape"></path><path fill="#dcd7d5" d="M1487 1531.76a137.5 137.5 0 0 1 132.18 99.65H1354.8a137.5 137.5 0 0 1 132.2-99.65ZM1202.07 1631.41c-25.73-89-127.68-155.52-249.55-155.52s-223.81 66.5-249.52 155.52Z" transform="translate(-221.63 -247.2)" class="colordcd7d5 svgShape"></path><path fill="#fcb2b6" d="M2303.76 1698.62a56.26 56.26 0 0 1 54.08 40.77h-108.16a56.26 56.26 0 0 1 54.08-40.77Z" transform="translate(-221.63 -247.2)" class="colorfcb2b6 svgShape"></path><path fill="#fcb2b6" d="M2367 1711.26a38.82 38.82 0 0 1 37.32 28.13h-74.64a38.82 38.82 0 0 1 37.32-28.13ZM2286.6 1739.39c-7.26-25.13-36-43.91-70.46-43.91s-63.19 18.77-70.46 43.91Z" transform="translate(-221.63 -247.2)" class="colorfcb2b6 svgShape"></path><path fill="#695052" d="M1245.38 1688a69.47 69.47 0 0 0-66.79 50.35h133.57a69.47 69.47 0 0 0-66.78-50.35Z" transform="translate(-221.63 -247.2)" class="color695052 svgShape"></path><path fill="#695052" d="M1167.23 1703.63a47.94 47.94 0 0 0-46.09 34.75h92.18a47.94 47.94 0 0 0-46.09-34.75ZM1266.57 1738.37c9-31 44.52-54.22 87-54.22s78 23.18 87 54.22Z" transform="translate(-221.63 -247.2)" class="color695052 svgShape"></path><path fill="#b7aea9" d="M789.09 1249.95c-13.19 24.85-41.85 35.45-41.85 35.45s-7.27-29.68 5.93-54.53 41.83-35.45 41.83-35.45 7.29 29.68-5.91 54.53ZM837.41 1367.27c-17.13 22.32-47.15 28-47.15 28s-2.25-30.48 14.89-52.79 47.15-28 47.15-28 2.24 30.52-14.89 52.79ZM684.22 1163.11c17.63 21.93 16.07 52.45 16.07 52.45s-30.14-5-47.77-27-16.07-52.45-16.07-52.45 30.14 5.07 47.77 27ZM699.56 1261.59c28 2.76 48.7 25.23 48.7 25.23s-24.69 18-52.69 15.25-48.7-25.23-48.7-25.23 24.69-18 52.69-15.25ZM741.37 1369.4c28 2.76 48.7 25.23 48.7 25.23s-24.69 18-52.69 15.25-48.7-25.23-48.7-25.23 24.69-18.01 52.69-15.25Z" transform="translate(-221.63 -247.2)" class="colorb7aea9 svgShape"></path><path fill="#b7aea9" d="m823.36 1620.92-5.73-.26c0-.66 2.82-67.35-12.17-152.09-8.79-49.72-21.9-95.83-38.95-137.06-21.28-51.45-48.79-95.39-81.78-130.6l4.18-3.92c33.48 35.73 61.38 80.28 82.92 132.4 17.21 41.63 30.43 88.17 39.29 138.31 15.1 85.3 12.27 152.55 12.24 153.22ZM586.83 1362.93c-2.38 21.8-20.07 37.75-20.07 37.75s-13.83-19.39-11.45-41.19 20.07-37.75 20.07-37.75 13.83 19.39 11.45 41.19ZM655.68 1433.92c-6 21.1-26 33.9-26 33.9s-10.42-21.41-4.46-42.52 26-33.9 26-33.9 10.42 21.42 4.46 42.52ZM485.85 1330.34c19.09 10.79 26.77 33.33 26.77 33.33s-23.27 5.06-42.36-5.73-26.77-33.33-26.77-33.33 23.27-5.06 42.36 5.73ZM525.38 1397.2c21.07-6.08 42.54 4.21 42.54 4.21s-12.68 20.16-33.74 26.25-42.54-4.21-42.54-4.21 12.68-20.16 33.74-26.25ZM586.77 1463.18c21.07-6.08 42.54 4.21 42.54 4.21s-12.68 20.16-33.74 26.25-42.54-4.21-42.54-4.21 12.67-20.16 33.74-26.25Z" transform="translate(-221.63 -247.2)" class="colorb7aea9 svgShape"></path><path fill="#b7aea9" d="m718.72 1621.6-4.22 1.47c-.17-.49-17.39-49.57-52.71-106.59-20.72-33.45-43.51-63.05-67.76-88-30.25-31.1-62.85-55-96.9-70.94l1.9-4c34.55 16.21 67.6 40.4 98.25 71.91 24.47 25.17 47.48 55 68.36 88.79 35.55 57.4 52.9 106.87 53.08 107.36Z" transform="translate(-221.63 -247.2)" class="colorb7aea9 svgShape"></path><path fill="#90b4c1" d="M1791.9 345.51a69.71 69.71 0 0 1 67 50.52h-134a69.71 69.71 0 0 1 67-50.52Z" transform="translate(-221.63 -247.2)" class="color90b4c1 svgShape"></path><path fill="#90b4c1" d="M1870.32 361.17a48.1 48.1 0 0 1 46.24 34.83h-92.48a48.1 48.1 0 0 1 46.24-34.83ZM1770.65 396c-9-31.14-44.67-54.41-87.3-54.41S1605 364.88 1596 396Z" transform="translate(-221.63 -247.2)" class="color90b4c1 svgShape"></path><path fill="#c0d4db" d="M2937.92 1468.51a136.82 136.82 0 0 1 31.86 31.92l.92-1.47a826.57 826.57 0 0 1 27.77-41.34 136.83 136.83 0 0 1-35.75-29.13 134.92 134.92 0 0 1-24.48-43.44 134.92 134.92 0 0 1 39.12 30.93 136.83 136.83 0 0 1 23 39.09 791.916 791.916 0 0 1 29.13-37.86 136.91 136.91 0 0 1-26.88-37.09 134.92 134.92 0 0 1-12.55-48.26 134.92 134.92 0 0 1 29.91 39.9 136.71 136.71 0 0 1 12.05 42.37c10.64-12.83 22.14-25.82 34.47-38.62a136.89 136.89 0 0 1-20.94-40.79 134.91 134.91 0 0 1-5-49.61 134.91 134.91 0 0 1 23.47 44 136.71 136.71 0 0 1 5.46 43.36c8.37-8.58 17.11-17.07 26.22-25.37a136.89 136.89 0 0 1-3.94-45.57 134.91 134.91 0 0 1 14.08-47.84 128.64 128.64 0 0 1-4.87 88.67q9.69-8.61 19.9-16.88a128.65 128.65 0 0 1 70.41-54.21 128.63 128.63 0 0 1-66 59.12q-10.58 8.53-20.57 17.47a136.69 136.69 0 0 1 43.39 3.93 134.91 134.91 0 0 1 44.8 21.9 134.92 134.92 0 0 1-49.76-3.29 136.84 136.84 0 0 1-41.7-19.62c-9.18 8.31-18 16.82-26.39 25.42a136.83 136.83 0 0 1 42.19 16.69 134.91 134.91 0 0 1 36.56 33.9 134.91 134.91 0 0 1-46.69-17.52 136.83 136.83 0 0 1-34.26-30.83c-12.71 13.11-24.53 26.42-35.45 39.58a136.81 136.81 0 0 1 43.26 12.87 134.92 134.92 0 0 1 39.42 30.54 134.91 134.91 0 0 1-48.05-13.33 136.87 136.87 0 0 1-36.72-27.54c-10.71 13-20.53 25.87-29.44 38.19a136.84 136.84 0 0 1 43.45 11.28 134.91 134.91 0 0 1 40.49 29.1 134.92 134.92 0 0 1-48.5-11.59 136.85 136.85 0 0 1-37.47-26 825.183 825.183 0 0 0-27.4 40.79l-1.16 1.86a136.28 136.28 0 0 1 45.32 17.29 134.91 134.91 0 0 1 36.56 33.9 134.91 134.91 0 0 1-46.69-17.52 136.27 136.27 0 0 1-35.75-32.78c-31.82 51.05-48.16 89.55-48.32 89.94l-6.1-2.57c.16-.39 16.32-38.47 47.73-89.14a136.82 136.82 0 0 1-41.09-19.05 134.92 134.92 0 0 1-34.56-35.94 134.91 134.91 0 0 1 45.54 20.19Z" transform="translate(-221.63 -247.2)" class="colorc0d4db svgShape"></path><path fill="#c0d4db" d="M2660.9 1427.17c29.32 8 52.48 22.58 62.91 29.89l.58-2.61c5-22.4 11.2-47.55 18.93-74.53-11.76-2-39.58-8-67.11-23.82a208.32 208.32 0 0 1-58.14-50.48 208.32 208.32 0 0 1 72.93 24.68c26.62 15.26 45.52 35.37 53.67 44.94 6.5-22.35 14-45.9 22.72-70.17-11.1-5.08-36.08-18-58.34-40a208.32 208.32 0 0 1-43.3-63.67 208.32 208.32 0 0 1 64.2 42.51c20.74 20.48 33.63 43.41 39.51 55.37 8.81-24.18 18.8-49 30.08-74.06-10.16-6.69-32.93-23.28-51.62-48.46a208.32 208.32 0 0 1-33.08-69.53 208.32 208.32 0 0 1 57 51.8c17.13 23.08 26.36 47.36 30.44 60.23 7.72-16.82 16-33.71 25-50.51-6.92-10.12-21.63-34-29.37-64.23a208.32 208.32 0 0 1-4.35-76.87 208.32 208.32 0 0 1 33.16 69.49c6.29 24.56 6.54 47.64 5.77 62q9.62-17.55 20.18-34.87c3.27-14 10-36.11 22.95-58a208.32 208.32 0 0 1 51.32-57.4 208.32 208.32 0 0 1-25.74 72.57c-12.82 21.62-28.81 38-39.51 47.64q-11 17.89-20.85 36.08c12.43-5.44 36.64-14.44 65.14-16.8a208.32 208.32 0 0 1 76.51 8.6 208.33 208.33 0 0 1-74.07 21c-31.58 2.61-59.31-3.7-70.83-6.89a961.5 961.5 0 0 0-25.19 50.67c12.42-1.69 40-4.05 70 2.37a208.32 208.32 0 0 1 70.77 30.33 208.32 208.32 0 0 1-77-1.25c-31-6.63-55.73-20.69-65.83-27.06-11.68 25.66-22 51.16-31 76 12.4-2.79 39.38-7.45 69.59-3.74a208.33 208.33 0 0 1 73.17 24 208.32 208.32 0 0 1-76.8 5.55c-31.19-3.83-56.9-15.48-67.69-21-8.82 24.5-16.44 48.28-23 70.82 12.45-3.25 39-8.74 69-6.15a208.32 208.32 0 0 1 74 21.31 208.33 208.33 0 0 1-76.55 8.32c-30.91-2.67-56.75-13.15-68-18.35a1262.78 1262.78 0 0 0-18.68 73.54l-.73 3.3c8.25-1.41 39.85-5.85 74.88 1.63a208.32 208.32 0 0 1 70.77 30.33 208.32 208.32 0 0 1-77-1.25c-35-7.49-62.07-24.47-69-29.12-19.79 90.76-23.57 155.22-23.61 155.87l-10.21-.57c0-.65 3.76-64.41 23.16-154.41-12.56 1-40.1 1.72-69.65-6.38a208.32 208.32 0 0 1-68.92-34.33 208.32 208.32 0 0 1 76.83 5.67Z" transform="translate(-221.63 -247.2)" class="colorc0d4db svgShape"></path><path fill="#5b6072" d="M1072.29 1379.61H912.37l133.81-597.27h159.93l-133.82 597.27z" class="color5b6072 svgShape"></path><path fill="#5b6072" d="M785.12 1349.77h617.5v41.53h-617.5z" class="color5b6072 svgShape"></path><path fill="#2d334a" d="M671.43 560.7v606.78h1039.16V560.7H671.43z" class="color2d334a svgShape"></path><path fill="none" stroke="#2d334a" stroke-linecap="round" stroke-linejoin="round" stroke-width="4" d="M1240.37 838.31s145.25-333.42 354.8-372.59 29.1 269.08-32 245 221.9-335.83 447.06-248.44c70.36 27.31 105.26 94.94 120 175M2167.83 1114.32s-168.25 447.56-16.53 449.4c92.13 1.12 172.61-158.5 226.39-302.41" transform="translate(-221.63 -247.2)" class="colorStroke2d334a svgStroke"></path><path fill="#2d334a" d="m2164.94 981.37-40.7 51.36 26.62-7.49 16.79 21.6-2.71-65.47zM1914.03 414.61l9.04-64.9-19.15 19.95-25.43-10.11 35.54 55.06z" class="color2d334a svgShape"></path><path fill="#b7aea9" d="M836.1 1578.12A115.79 115.79 0 0 1 947.41 1662H724.79a115.79 115.79 0 0 1 111.31-83.88Z" transform="translate(-221.63 -247.2)" class="colorb7aea9 svgShape"></path><path fill="#b7aea9" d="M966.36 1604.13a79.91 79.91 0 0 1 76.81 57.91H889.55a79.91 79.91 0 0 1 76.81-57.91ZM800.8 1662c-15-51.73-74.2-90.37-145-90.37s-130.07 38.64-145 90.37Z" transform="translate(-221.63 -247.2)" class="colorb7aea9 svgShape"></path><path fill="#4c5265" d="M2770.8 1627a37.75 37.75 0 0 1 36.29 27.36h-72.57a37.75 37.75 0 0 1 36.28-27.36ZM2593.93 1614.1a55.61 55.61 0 0 1 53.45 40.3h-106.9a55.61 55.61 0 0 1 53.45-40.3Z" transform="translate(-221.63 -247.2)" class="color4c5265 svgShape"></path><path fill="#4c5265" d="M2759.82 1654.39c-8.2-28.36-40.68-49.55-79.5-49.55s-71.31 21.18-79.5 49.55Z" transform="translate(-221.63 -247.2)" class="color4c5265 svgShape"></path><path fill="none" stroke="#88aebc" stroke-miterlimit="10" stroke-width="17.66" d="M2465.38 860.94A95.3 95.3 0 0 1 2562 955l1.28 95.29" transform="translate(-221.63 -247.2)" class="colorStroke88aebc svgStroke"></path><path fill="#fb979d" d="m2570.31 1203.57-201 2.69a26.54 26.54 0 0 1-26.9-26.19l-2.24-167.07a10.37 10.37 0 0 1 10.23-10.5l233.36-3.12a10.37 10.37 0 0 1 10.5 10.23l2.24 167.06a26.54 26.54 0 0 1-26.19 26.9Z" transform="translate(-221.63 -247.2)" class="colorfb979d svgShape"></path><path fill="#fa7a81" d="m2594.25 1009.62 2.24 167.06a26.54 26.54 0 0 1-26.18 26.89l-201 2.69a26.55 26.55 0 0 1-26.2-20.46c82 27.73 183.36-35.19 230.42-145.12a305.55 305.55 0 0 0 14.12-40.59 10.36 10.36 0 0 1 6.6 9.53Z" transform="translate(-221.63 -247.2)" class="colorfa7a81 svgShape"></path><path fill="none" stroke="#88aebc" stroke-miterlimit="10" stroke-width="17.66" d="M2371.37 957.51a95.3 95.3 0 0 1 94-96.57" transform="translate(-221.63 -247.2)" class="colorStroke88aebc svgStroke"></path><circle cx="2468.09" cy="1077.04" r="15.1" fill="#2d334a" transform="rotate(-.77 -16045.897 17440.096)" class="color2d334a svgShape"></circle><path fill="#2d334a" d="m2478.28 1147.46-18.48.25a4.89 4.89 0 0 1-4.93-5.41l6-55.15a4.89 4.89 0 0 1 4.79-4.36l5.05-.07a4.89 4.89 0 0 1 4.91 4.23l7.45 55a4.89 4.89 0 0 1-4.79 5.51Z" transform="translate(-221.63 -247.2)" class="color2d334a svgShape"></path><path fill="none" stroke="#88aebc" stroke-miterlimit="10" stroke-width="6.3" d="M1411.58 985.17a34 34 0 0 0-33.54 34.45V1051M1411.58 985.17a34 34 0 0 1 34.45 33.54l.46 34" transform="translate(-221.63 -247.2)" class="colorStroke88aebc svgStroke"></path><path fill="#fb979d" d="M1371 1035.11h83.25a3.7 3.7 0 0 1 3.7 3.7v59.6a9.47 9.47 0 0 1-9.47 9.47h-71.71a9.47 9.47 0 0 1-9.47-9.47v-59.6a3.7 3.7 0 0 1 3.7-3.7Z" transform="rotate(-.77 -17097.31 17435.264)" class="colorfb979d svgShape"></path><path fill="#fa7a81" d="m1457.56 1038.21.8 59.59a9.47 9.47 0 0 1-9.34 9.59l-71.7 1a9.47 9.47 0 0 1-9.35-7.3c29.25 9.89 65.41-12.55 82.2-51.77a109 109 0 0 0 5-14.48 3.7 3.7 0 0 1 2.39 3.37Z" transform="translate(-221.63 -247.2)" class="colorfa7a81 svgShape"></path><circle cx="1412.55" cy="1062.26" r="5.39" fill="#2d334a" transform="rotate(-.77 -17096.507 17426.34)" class="color2d334a svgShape"></circle><path fill="#2d334a" d="m1416.18 1087.38-6.59.09a1.74 1.74 0 0 1-1.76-1.93l2.13-19.67a1.74 1.74 0 0 1 1.71-1.56h1.8a1.74 1.74 0 0 1 1.75 1.51l2.66 19.61a1.74 1.74 0 0 1-1.7 1.95Z" transform="translate(-221.63 -247.2)" class="color2d334a svgShape"></path><path fill="#f5d1bc" d="M1107.92 810.83c-14.2-9.12-13.7-18.36-11.34-24a8.88 8.88 0 0 1 11.7-7.13l133.54 45.3a4.12 4.12 0 0 1 1.51 6.9 14.29 14.29 0 0 1-13.51 5.79c-27.51-3.76-103.43-14.99-121.9-26.86ZM1173.62 946.89s-10.41 3.31-9.89 5.18 23.13 38.7 26.39 40.22.64-7.87.64-7.87-6.78-20-12.31-30.37c0-.05-4.32-7.5-4.83-7.16Z" transform="translate(-221.63 -247.2)" class="colorf5d1bc svgShape"></path><path fill="#f5d1bc" d="M1228.25 824.13c4.4-3.32 8-4.29 12.13-2.24a8.94 8.94 0 0 1 3.9 12.25l-66.93 124.11a4.13 4.13 0 0 1-7.39-3.66l2.52-5.55c35.77-89.93 41.19-112.18 55.77-124.91Z" transform="translate(-221.63 -247.2)" class="colorf5d1bc svgShape"></path><path fill="#454a5f" d="M1186.31 969.33c-4.13-2.61-9.35-8-14-15a81.2 81.2 0 0 1-4-6.59c-3.47 1.66-7.29 3.94-6.43 5.59 1.51 2.91 26.58 42.61 28.53 41.63 3.83-1.96.19-14.71-4.1-25.63Z" transform="translate(-221.63 -247.2)" class="color454a5f svgShape"></path><path fill="#f5d1bc" d="M1266.83 940s-3 10.5-1.17 11.11 45 2.19 48.1.32-6.2-4.9-6.2-4.9-20.38-5.43-32.1-6.59c.01.01-8.63-.56-8.63.06Z" transform="translate(-221.63 -247.2)" class="colorf5d1bc svgShape"></path><path fill="#f5d1bc" d="M1255.47 797.9c2.27-5 5-7.6 9.57-7.78a8.94 8.94 0 0 1 9.29 8.89l.68 141a4.13 4.13 0 0 1-8.24.32l-.44-6.08c-11.66-96.06-17.56-118.19-10.86-136.35Z" transform="translate(-221.63 -247.2)" class="colorf5d1bc svgShape"></path><path fill="#f5d1bc" d="M1134.32 811.32c-16.07-5.16-18-14.22-17.13-20.27a8.88 8.88 0 0 1 9.47-9.9l140.69 9.4a4.12 4.12 0 0 1 3.24 6.28 14.29 14.29 0 0 1-11.57 9.07c-27.54 3.45-103.81 12.1-124.7 5.42Z" transform="translate(-221.63 -247.2)" class="colorf5d1bc svgShape"></path><path fill="#454a5f" d="M1292.55 941.87c-4.46 2-11.88 3.32-20.29 3.37-2.69 0-5.28-.1-7.7-.33-.54 3.81-.76 8.25 1.09 8.45 3.26.36 50.2 1.5 50.46-.68.52-4.3-12.11-8.33-23.56-10.81Z" transform="translate(-221.63 -247.2)" class="color454a5f svgShape"></path><path fill="#2d334a" d="M1055.28 712.9c-19.87-18.78-12.43-54.67 15.25-58.36a14.53 14.53 0 0 0 6.07-2.17c2.83-1.87 4.12-5.34 4.91-8.64 1.77-7.42 1.95-15.31 5.18-22.22 5.17-11.06 18.72-17.63 30.47-14.32 10.87 3.06 23.69 10.25 27.17 23.59 3.18 12.18 1.26 28.2-16.66 32.83-2.73.7-3.64 4.37-4.74 7-2 4.8 10.88 14.95 10 20.1-.81 4.81-1.06 15.64-13.31 18-6.19 1.21-10.36-5.57-22.55 4.51-5.69 4.7-9.62 7.42-17 8.11-12.86 1.18-17.96-1.97-24.79-8.43Z" transform="translate(-221.63 -247.2)" class="color2d334a svgShape"></path><path fill="#f5d1bc" d="M1279.62 632.72a10.66 10.66 0 0 1 5.63-7.62c7.6-3.91 22.19-10.8 27.06-8.81 6.71 2.73-15.65 18.8-33 18.3Z" transform="translate(-221.63 -247.2)" class="colorf5d1bc svgShape"></path><path fill="#fa7a81" d="M1280.42 627.3c-19.42 3.79-60.3 18.32-70.85 25.1-8.75 5.63-5.21 10.86-5.13 11.12.9 3.06 6.38 5.52 9.92 4.15l69.26-31.47ZM1093.18 794.2l.15-.06-.59-.2c.12.24.26.34.44.26ZM1126.85 790.8c6.51-1.54 11.58-1.57 17.87-3.85a24 24 0 0 0 6.91-3.87c-1-3.09-2.2-7.51-3.49-12.68-5.47-21.92-6.8-58.11-4.29-64.58 9.62-24.75 4.07-20.41.66-36.06s-9.54-30.13-15-32.28c-17.4-6.82-26.65 5-31.53 25.65-3.88 16.45-5 67.09-4.45 90.9-.18 23 .28 37.75 1.32 39.8 2.09-.13 10.44-1.13 16 1.42l.82-.16c5.16-1.09 10.07-3.09 15.18-4.29Z" transform="translate(-221.63 -247.2)" class="colorfa7a81 svgShape"></path><path fill="#fa7a81" d="M1124.38 657.11c-10.91-4-6.36-12.81-6.33-13.11.25-3.47 6.22-6.73 10.41-6.09l92.85 19.09c1.52.16 1.3 2.69 1.19 4.22a2.82 2.82 0 0 1-.47 1.38c-1.41 3.3-5.53 5.68-9.18 6-19.03 1.59-74.28-6.32-88.47-11.49Z" transform="translate(-221.63 -247.2)" class="colorfa7a81 svgShape"></path><path fill="#fa7a81" d="M1118.32 658.37c5.31-9.23-3.51-13.53-3.71-13.75-2.36-2.56-8.67-1.73-11.27 1.12l-54.43 67.05c-1 1 .76 2.82 1.8 3.95a3 3 0 0 0 1.2.8c3.09 1.77 7.52 1.3 10.33-.51 14.65-9.43 49.18-46.66 56.08-58.66Z" transform="translate(-221.63 -247.2)" class="colorfa7a81 svgShape"></path><path fill="#2d334a" d="M1115.62 631.61s-16.16-4.85-18.28-20.71c-2.84-21.3 18.22-33 30.34-26.57 11.16 5.9 9.81 15.25 8.66 17.6s-20.72 29.68-20.72 29.68Z" transform="translate(-221.63 -247.2)" class="color2d334a svgShape"></path><path fill="#2d334a" d="M1137 597.82s-15.48-4.4-18.09-9.5 5.2-5 5.2-5a20 20 0 0 1 12.89 14.5ZM1112 587.91s6.48-5.78 1.42-11.85-12.87-3.1-14.36 2c-1.65 5.65 1.35 8.88 3.76 10.31a9.32 9.32 0 0 0 9.18-.46Z" transform="translate(-221.63 -247.2)" class="color2d334a svgShape"></path><path fill="#5b6072" d="M1094 780.73s-6.58 25.71 14.75 33.44 68.78 20.6 106.84 23.44c0 0-23.18 42.41-41.83 103.44l14.31 3.61s58.76-105.15 58.44-112.64.41-12.07-21.91-17.85-97.44-30.11-97.44-30.11Z" transform="translate(-221.63 -247.2)" class="color5b6072 svgShape"></path><path fill="#5b6072" d="M1175.92 818.12s61.42-6.18 74.22-9.73a1110.32 1110.32 0 0 0 13.69 118.12l13.86-1.86-1.59-124s-.42-12.95-12.27-13.25-112.49-5.8-112.49-5.8l-43.64 7.2 24.76 20.86Z" transform="translate(-221.63 -247.2)" class="color5b6072 svgShape"></path><path fill="#f5d1bc" d="m1109.44 611.72 17.05-2.49c.34 2.33 3.2 24.59 2.73 33-.51 2.62-4.72 4-9.41 3.11-4.22-.81-7.36-3.21-7.59-5.59.26-5.02-1.59-19.87-2.78-28.03Z" transform="translate(-221.63 -247.2)" class="colorf5d1bc svgShape"></path><path fill="#f5d1bc" d="M1110.84 614.13c3.61 13.33 15.82 21.63 24 19.43s9.15-14.08 5.54-27.41-12.05-18.33-20.2-16.13-12.95 10.77-9.34 24.11Z" transform="translate(-221.63 -247.2)" class="colorf5d1bc svgShape"></path><path fill="#2d334a" d="M1130.06 587.86s-2.87 21.12-18.47 25.73c-8.87 2.62-12.23-9.67-12.23-9.67l7.63-13.57s6.59-6 11.95-5.82c.46.01 11.12 3.33 11.12 3.33Z" transform="translate(-221.63 -247.2)" class="color2d334a svgShape"></path><path fill="#f5d1bc" d="M1104.54 619.59c1.58 3 6.62 5.38 8.83 4.23s1.48-3.9-.1-6.94-4.84-5-7-3.83-3.27 3.49-1.73 6.54ZM1020.73 783.65a10.66 10.66 0 0 1 4.57 8.3c.38 8.54.54 24.67-3.3 28.27-5.28 5-10.55-22.07-2.83-37.65Z" transform="translate(-221.63 -247.2)" class="colorf5d1bc svgShape"></path><path fill="#fa7a81" d="M1025.24 788.8c12-15.74 32.84-53.79 36.2-65.87 2.79-10-3.34-11.57-3.57-11.71-2.71-1.69-8.44.12-10.17 3.5l-30.78 69.57Z" transform="translate(-221.63 -247.2)" class="colorfa7a81 svgShape"></path><path fill="#9ea1ac" d="M1049.58 910.43h282.86v44.36h-282.86zM1049.58 979.03h282.86v44.36h-282.86z" class="color9ea1ac svgShape"></path><circle cx="1068.52" cy="159.37" r="159.37" fill="#a8c4ce" class="colora8c4ce svgShape"></circle><path fill="#a8c4ce" d="M1220.75 527s-2.51 38.55-55.86 49.19c0 0 38.54-16 38.41-51.51Z" transform="translate(-221.63 -247.2)" class="colora8c4ce svgShape"></path><path fill="#ffffff" d="m1212.4 408.57 12.6 7.12-2.34 4.27-12.66-7.42V427h-4.68l.1-14.43-12.74 7.43-2.44-4.27 12.71-7.12-12.71-7.11 2.44-4.37 12.71 7.52-.1-14.43h4.71v14.43l12.71-7.52 2.34 4.37ZM1253.66 408.57l12.6 7.12-2.34 4.27-12.71-7.42V427h-4.68l.1-14.43-12.69 7.43-2.44-4.27 12.71-7.12-12.71-7.11 2.44-4.37 12.71 7.52-.1-14.43h4.68v14.43l12.71-7.52 2.34 4.37ZM1294.93 408.57l12.6 7.12-2.34 4.27-12.71-7.42V427h-4.68l.1-14.43-12.69 7.43-2.44-4.27 12.71-7.12-12.71-7.11 2.44-4.37 12.71 7.52-.1-14.43h4.68v14.43l12.71-7.52 2.34 4.37ZM1336.19 408.57l12.6 7.12-2.34 4.27-12.71-7.42V427h-4.68l.1-14.43-12.69 7.43-2.44-4.27 12.71-7.12-12.74-7.15 2.44-4.37 12.71 7.52-.1-14.43h4.68v14.43l12.71-7.52 2.34 4.37ZM1377.46 408.57l12.6 7.12-2.34 4.27-12.72-7.42V427h-4.68l.1-14.43-12.68 7.43-2.44-4.27 12.71-7.12-12.71-7.11 2.44-4.37 12.71 7.52-.1-14.43h4.65v14.43l12.71-7.52 2.34 4.37Z" transform="translate(-221.63 -247.2)" class="colorfff svgShape"></path><rect width="268.82" height="443.52" x="1784.97" y="443.44" fill="#88aebc" rx="23.33" ry="23.33" class="color88aebc svgShape"></rect><path fill="#2d334a" d="M2029.55 1124.16a13 13 0 0 1-13-13V713.6a13 13 0 0 1 13-13h222.88a13 13 0 0 1 13 13v397.6a13 13 0 0 1-13 13Z" transform="translate(-221.63 -247.2)" class="color2d334a svgShape"></path><path fill="#88aebc" d="m2207.77 697.64-2.39 8.66a11.88 11.88 0 0 1-11.46 8.72h-105.85a11.89 11.89 0 0 1-11.46-8.72l-2.39-8.66Z" transform="translate(-221.63 -247.2)" class="color88aebc svgShape"></path><path fill="#fa7a81" d="M1979.87 1222.12c7.41-10.35-2.18-15.52-2.38-15.78-2.37-3-9.79-2.24-13.19.93l-72.21 74.73c-1.28 1.09.49 3.24 1.53 4.55a3.09 3.09 0 0 0 1.28 1c3.32 2.11 8.51 1.72 12-.26 18.25-10.38 63.33-51.72 72.97-65.17Z" transform="translate(-221.63 -247.2)" class="colorfa7a81 svgShape"></path><path fill="#f5d1bc" d="M2017 1516.35c1.55-5.75 4-9 8.86-10a9.66 9.66 0 0 1 11.44 7.87l25.16 150.23a4.46 4.46 0 0 1-8.73 1.77l-1.53-6.4c-29.12-100.38-39.2-122.95-35.2-143.47Z" transform="translate(-221.63 -247.2)" class="colorf5d1bc svgShape"></path><path fill="#d9ad93" d="M1990.56 1380.26c2.37-18.07 11.63-21.84 18.22-22.13a9.6 9.6 0 0 1 12.35 8.15l17.28 151.34a4.45 4.45 0 0 1-6 4.66 15.44 15.44 0 0 1-11.88-10.54c-9.05-28.61-33.05-107.98-29.97-131.48Z" transform="translate(-221.63 -247.2)" class="colord9ad93 svgShape"></path><path fill="#f5d1bc" d="M1956 1514.29c4.16-4.26 7.85-5.88 12.59-4.37a9.66 9.66 0 0 1 6.15 12.45l-51.34 143.41a4.46 4.46 0 0 1-8.48-2.71l1.79-6.33c23.62-101.84 25.8-126.48 39.29-142.45Z" transform="translate(-221.63 -247.2)" class="colorf5d1bc svgShape"></path><path fill="#d9ad93" d="M1966 1375.91c7.19-16.75 17.12-17.87 23.54-16.36a9.6 9.6 0 0 1 9.68 11.19l-24.44 150.35a4.45 4.45 0 0 1-7.08 2.84 15.44 15.44 0 0 1-8.58-13.37c-.85-29.96-2.42-112.87 6.88-134.65Z" transform="translate(-221.63 -247.2)" class="colord9ad93 svgShape"></path><path fill="#3b3e54" d="M1920.64 1665.16a21.52 21.52 0 0 0 7.86-1.23c11.42 1.6 34.68 7 34 12.67-.27 2.1-45.65.73-48.8.36-2.22-.26-1.31-6.83-.58-10.69a2 2 0 0 1 2.35-1.57 27.79 27.79 0 0 0 5.17.46ZM2058.55 1665.16a21.52 21.52 0 0 0 7.86-1.23c11.42 1.6 34.68 7 34 12.67-.27 2.1-45.65.73-48.8.36-2.22-.26-1.31-6.83-.58-10.69a2 2 0 0 1 2.35-1.57 27.79 27.79 0 0 0 5.17.46Z" transform="translate(-221.63 -247.2)" class="color3b3e54 svgShape"></path><path fill="#2d334a" d="M1979.39 1352.3s9.92 74.84 37 156.89c0 0-13.52 31.56 29.75 134.35h16.23s-22.54-130.74-23.44-141.56-15.33-147.87-18-155.08Z" transform="translate(-221.63 -247.2)" class="color2d334a svgShape"></path><path fill="#2d334a" d="M1964.06 1350.5s-9.92 49.59-8.11 158.69c0 0-24.34 26.15-38.77 133.44l17.13.9s44.18-120.82 45.08-126.23 29.75-170.41 29.75-170.41Z" transform="translate(-221.63 -247.2)" class="color2d334a svgShape"></path><path fill="#f5d1bc" d="M2085.29 1083.34a11.68 11.68 0 0 0 9.19-4.83c5.49-7.59 15.37-22.25 14-27.86-1.84-7.72-23 13.84-25.3 32.74Z" transform="translate(-221.63 -247.2)" class="colorf5d1bc svgShape"></path><path fill="#fa7a81" d="M1999.47 1235.23c-11.1 6.22-15.19-3.88-15.42-4.11-2.71-2.69-1.15-10 2.38-13l82.22-63.51c1.22-1.15 7.89.22 9.08 1.4a3.09 3.09 0 0 1 .8 1.38c1.73 3.53-3.65 9.52-6.31 12.53-13.07 14.79-58.31 57.21-72.75 65.31Z" transform="translate(-221.63 -247.2)" class="colorfa7a81 svgShape"></path><path fill="#fa7a81" d="M2093.63 1079.06c-.31 21.68-8.06 68.6-13.33 81.29-4.37 10.53-10.7 7.72-11 7.69-3.48-.38-7.19-5.81-6.41-9.9l20.5-80.82ZM1958.75 1334.7c-.28-3.82-.53-7.7-.75-11.52-.14-2.52-.26-5.13-.39-7.6-.3-5.62-.58-11.32-.85-16.85-.12-2.62-.22-5.36-.3-7.81-.22-6.05-.4-12.66-.49-18.36 0-2.46-.19-5.12-.15-6.78.24-10.87 0-21.6.91-31.89.52-6-.1-8.77 1.92-14.86 6-18.18 21.33-24.85 38.33-13.91a18.32 18.32 0 0 1 3 2.41c6.56 7.37 11.79 11.58 10.86 23.11-1 12.67 2.12 30.46 4.19 44.33.13.85.44 4.12.67 6 .33 2.63.73 6 1.1 9.13.52 4.43 1.13 9.41 1.64 14.14.3 2.86.66 6.08 1 9.12.63 5.37 1.25 11 1.88 16.39.18 1.51.37 3.09.58 4.59.16 1.16.3 2.31.46 3.46.37 2.74.76 5.63 1.18 8.32.37 2.35.8 4.47 1.26 6.76.62 3.07 1.25 6.12 1.93 9.19a54.68 54.68 0 0 1-20.37.11c-11.35-2-22.2-5.4-33.76-4.91-3.87.16-7.43 1.28-11.19 2-.86-5.82-1.55-11.68-2.14-17.55-.17-2.32-.35-4.72-.52-7.02Z" transform="translate(-221.63 -247.2)" class="colorfa7a81 svgShape"></path><path fill="#2d334a" d="M2012.79 1189.62s.44-7.2-4.26-12-4.72 2.36-4.72 2.36ZM1968.37 1187.89c.51.52 8.66 10.78 10.7 10.36 2.81-.58-.88-9.35-.88-9.35ZM1999.8 1161.58s1-6.73-2.61-10.2c-3.39-3.3-8.51-6.32-22.89 1.5a4.85 4.85 0 0 0-2.29 5.76l2 6.29Z" transform="translate(-221.63 -247.2)" class="color2d334a svgShape"></path><path fill="#f5d1bc" d="M1974.48 1182.16c4.26 8.67 8.43 15.54 15.43 17.57a18.32 18.32 0 0 0 14.49-1.66c5.36-3 7.22-6.95 7-11.64-.24-5.38-3.22-11.79-6.79-19.06-6.69-13.62-16.84-17.23-25.16-13.15s-11.66 14.32-4.97 27.94Z" transform="translate(-221.63 -247.2)" class="colorf5d1bc svgShape"></path><path fill="#f5d1bc" d="m1972.06 1179.92 15.74-2.47c.34 2.15 3.21 22.7 2.86 30.52-.44 2.43-4.32 3.76-8.67 3-3.91-.71-6.84-2.89-7.08-5.09.19-4.73-1.66-18.43-2.85-25.96Z" transform="translate(-221.63 -247.2)" class="colorf5d1bc svgShape"></path><path fill="#2d334a" d="M1969.09 1188.74a7.6 7.6 0 0 0 6.22-4.48c2.7-5.72 3.43-16.45 3-21.09-.75-8.16-3.62-9.46-3.62-9.46s-14.14 5.92-15.65 11.78c-2.27 8.76 10.05 23.25 10.05 23.25Z" transform="translate(-221.63 -247.2)" class="color2d334a svgShape"></path><path fill="#2d334a" d="m1976.13 1173.17 9.74 19.87a5.82 5.82 0 0 0 5.54 3.25l2.68-.14a2.62 2.62 0 0 0 2.4-3.26l-1.12-4.37a2.27 2.27 0 0 1 1-2.52l8.65-5.1a2.27 2.27 0 0 1 2.83.42l3 3.3a7.24 7.24 0 0 1-1.27 10.86l-5.06 3.44a8 8 0 0 1-3.62 1.34h-.47l-2.07.11-6.76.36a10.3 10.3 0 0 1-9.8-5.76l-9.74-19.87Z" transform="translate(-221.63 -247.2)" class="color2d334a svgShape"></path><path fill="#f5d1bc" d="M1968.55 1185.51c1.43 3 6.2 5.31 8.35 4.28s1.51-3.7.08-6.65-4.51-4.88-6.65-3.84-3.22 3.25-1.78 6.21Z" transform="translate(-221.63 -247.2)" class="colorf5d1bc svgShape"></path><path fill="#2d334a" d="m1975.94 1160.51 8.81-4.23a13.63 13.63 0 0 1 9.48-.87l4.3 1.17-8.08-6.26-8.36.75-8.67 5Z" transform="translate(-221.63 -247.2)" class="color2d334a svgShape"></path><path fill="#97b9c5" d="M1985.57 1219.27c4.94 32.25-8.53 60.11 0 93.26 4.15 3.54 8.56 6.8 12.9 10.11a165.37 165.37 0 0 0 7.66-15.28c-13-31.58-5.76-58.45-14.37-88.82-2.04.21-4.11.46-6.19.73Z" transform="translate(-221.63 -247.2)" class="color97b9c5 svgShape"></path><path fill="#f5d1bc" d="M1942 1354.89a11.68 11.68 0 0 1 9.76 3.54c6.48 6.77 18.26 19.95 17.7 25.69-.77 7.9-24.64-10.58-29.52-29Z" transform="translate(-221.63 -247.2)" class="colorf5d1bc svgShape"></path><path fill="#fa7a81" d="M1948.59 1354.36c-7.73-20.26-31.08-61.68-40.38-71.8-7.72-8.39-12.7-3.59-13-3.45-3.14 1.55-4.77 7.93-2.63 11.49l47 68.89Z" transform="translate(-221.63 -247.2)" class="colorfa7a81 svgShape"></path><path fill="#ffffff" d="M2504.8 1041.79a16.7 16.7 0 0 0 16.7-16.7 16.7 16.7 0 0 0 16.7 16.7 16.7 16.7 0 0 0-16.7 16.7 16.7 16.7 0 0 0-16.7-16.7ZM1170 1215.56a16.7 16.7 0 0 0 16.7-16.7 16.7 16.7 0 0 0 16.7 16.7 16.7 16.7 0 0 0-16.7 16.7 16.7 16.7 0 0 0-16.7-16.7ZM1607.54 1288.87a16.7 16.7 0 0 0 16.7-16.7 16.7 16.7 0 0 0 16.7 16.7 16.7 16.7 0 0 0-16.7 16.7 16.7 16.7 0 0 0-16.7-16.7ZM2374.43 1133.1a29.93 29.93 0 0 0 29.93-29.93 29.93 29.93 0 0 0 29.93 29.93 29.93 29.93 0 0 0-29.93 29.93 29.93 29.93 0 0 0-29.93-29.93ZM1091.21 1114.32a29.93 29.93 0 0 0 29.93-29.93 29.93 29.93 0 0 0 29.93 29.93 29.93 29.93 0 0 0-29.93 29.93 29.93 29.93 0 0 0-29.93-29.93Z" transform="translate(-221.63 -247.2)" class="colorfff svgShape"></path><path fill="none" stroke="#fa7a81" stroke-miterlimit="10" stroke-width="17" d="m1887.01 721.64 31.14 31.14 73.25-73.25" class="colorStrokefa7a81 svgStroke"></path><path fill="#88aebc" d="M2186.3 803.76c-18-3.33-33.76-10.42-45.3-20V906.6s46.54-37.44 46.54-83.62a148.05 148.05 0 0 0-1.24-19.22Z" transform="translate(-221.63 -247.2)" class="color88aebc svgShape"></path><path fill="#acc6d0" d="M2095.7 803.76a148.05 148.05 0 0 0-1.25 19.21c0 46.18 46.54 83.62 46.54 83.62V783.81c-11.53 9.53-27.26 16.62-45.29 19.95Z" transform="translate(-221.63 -247.2)" class="coloracc6d0 svgShape"></path></svg>