<svg xmlns="http://www.w3.org/2000/svg" xmlns:xlink="http://www.w3.org/1999/xlink" data-name="Layer 1" viewBox="0 0 1000 1000" width="550" height="550"><defs><radialGradient id="a" cx="-19.616" cy="1040.4" r="1413.383" gradientUnits="userSpaceOnUse"><stop offset="0" stop-color="#6469d4" class="stopColor6469d4 svgShape"></stop><stop offset="1" stop-color="#d4f3fb" class="stopColord4f3fb svgShape"></stop></radialGradient><radialGradient id="d" cx="496.503" cy="609.827" r="810.669" xlink:href="#a"></radialGradient><radialGradient id="c" cx="330.927" cy="666.237" r="134.558" gradientUnits="userSpaceOnUse"><stop offset=".103" stop-color="#175689" class="stopColor175689 svgShape"></stop><stop offset="1" stop-color="#073d6c" class="stopColor073d6c svgShape"></stop></radialGradient><radialGradient id="h" cx="396.939" cy="666.256" r="134.558" xlink:href="#c"></radialGradient><radialGradient id="i" cx="770.056" cy="178.533" r="261.725" xlink:href="#c"></radialGradient><radialGradient id="j" cx="643.232" cy="234.122" r="75.389" xlink:href="#c"></radialGradient><radialGradient id="l" cx="339.625" cy="621.807" r="12.886" gradientTransform="matrix(1 0 -.2022 .7258 101.498 101.305)" xlink:href="#c"></radialGradient><radialGradient id="m" cx="351.792" cy="558.596" r="104.449" gradientTransform="matrix(1 0 -.2786 1 129.68 0)" xlink:href="#c"></radialGradient><radialGradient id="n" cx="-5585.26" cy="616.97" r="47.849" gradientTransform="matrix(-1 0 0 1 -4909.12 0)" xlink:href="#c"></radialGradient><radialGradient id="o" cx="-5536.223" cy="612.263" r="43.892" gradientTransform="matrix(-1 0 0 1 -4909.12 0)" xlink:href="#c"></radialGradient><linearGradient id="b" x1="424.118" x2="562.663" y1="797.382" y2="279.262" gradientUnits="userSpaceOnUse"><stop offset="0" stop-color="#b0b0ff" class="stopColorb0b0ff svgShape"></stop><stop offset="1" stop-color="#ffffff" class="stopColorfff svgShape"></stop></linearGradient><linearGradient id="e" x1="267.326" x2="666.448" y1="867.836" y2="579.205" xlink:href="#b"></linearGradient><linearGradient id="f" x1="365.805" x2="626.404" y1="194.162" y2="319.47" xlink:href="#b"></linearGradient><linearGradient id="g" x1="565.973" x2="336.434" y1="441.729" y2="175.3" gradientUnits="userSpaceOnUse"><stop offset="0" stop-color="#b0b0ff" class="stopColorb0b0ff svgShape"></stop><stop offset="1" stop-color="#1b75bc" class="stopColor1b75bc svgShape"></stop></linearGradient><linearGradient id="k" x1="221.921" x2="300.134" y1="600.599" y2="600.599" xlink:href="#b"></linearGradient></defs><path fill="#ebe9f4" d="M259.2415,144.6668c-150.0212,132.901-44.0862,301.19222-91.4361,487.422-28.5969,112.474,70.9471,262.83469,237.3245,285.56439,121.8568,16.6473,387.1387-35.9994,442.6697-308.04579,32.7989-160.6839-25.8304-285.21492-145.687-394.27462C582.2563,106.274,409.2624,11.7652,259.2415,144.6668Z" class="colorebe9f4 svgShape"></path><path fill="url(#a)" d="M756.1478,755.42322q-11.985,15.18-24.6399,28.83c-98.4001,106.31-223.98,143.72-318.63,131.74-27.38-3.43-52.1801-11.05-72.98-22.3a246.90787,246.90787,0,0,1-39.7401-26.69c-27.9199-22.95-50.98-52.2-67.9299-87.24-28.0301-57.91-39.36-131.64-28.3101-218.87,20.7001-163.32-65.2699-311.98,49.99-426.66,62.27-61.96,170.03-66.43,276.8001-31.75A542.87346,542.87346,0,0,1,639.138,151.7131c14.68,8.6801,29,18.0801,42.7998,28.1202,12.49,9.0699,24.5701,18.6599,36.1101,28.75a450.282,450.282,0,0,1,59.5901,62.6198q6.3897,8.17515,12.2698,16.6001c1.6502,2.34,3.25,4.7,4.8301,7.06.26.4.53.8099.8,1.2201a338.121,338.121,0,0,1,30.3501,56.7999C906.8978,548.42322,821.098,673.08322,756.1478,755.42322Z"></path><path fill="url(#d)" d="M731.5079,784.25321c-98.4001,106.31-223.98,143.72-318.63,131.74-27.38-3.43-52.1801-11.05-72.98-22.3a246.90787,246.90787,0,0,1-39.7401-26.69c-27.9199-22.95-50.98-52.2-67.9299-87.24C362.8479,774.14321,532.4879,773.12322,731.5079,784.25321Z"></path><path fill="#323232" d="M650.9735,801.09981a27.55372,27.55372,0,0,1-27.4462,27.6183l-244.5034.1727-12.3811.01879a27.61627,27.61627,0,0,1-27.561-27.52249h.0765l-.1532-133.454-.1727-135.6008-.0766-69.4204-.0192-3.2774-.0575-69.4583-.019-7.2448-.096-81.97382-.019-13.071-.0191.0571a27.43079,27.43079,0,0,1,27.4459-27.5608l256.8844-.2489a27.49556,27.49556,0,0,1,27.542,27.4839h-.0575l.0191,9.2.0767,64.6859-2.9132,2.9708.2106.2106a9.01858,9.01858,0,0,1,2.7218,6.45923l.0191,31.16417a9.12475,9.12475,0,0,1-2.6259,6.36342l2.6259,2.5487.038,37.8532a9.1549,9.1549,0,0,1-2.3189,4.2362l2.3386,2.2616.2682.2873.0383,80.0955.0958,265.14529Z" class="color323232 svgShape"></path><path fill="url(#b)" d="M634.4244,301.9868V765.22442a17.58877,17.58877,0,0,1-17.5723,17.55489H371.8343a17.56658,17.56658,0,0,1-17.5727-17.55489V301.9868a40.54693,40.54693,0,0,1,25.4297-8.8916H608.9949A40.61971,40.61971,0,0,1,634.4244,301.9868Z"></path><path fill="url(#e)" d="M634.4244,631.962V770.2166c0,6.92761-7.8919,12.56271-17.5723,12.56271H371.8343c-9.7155,0-17.5727-5.6351-17.5727-12.56271V631.962a51.4812,51.4812,0,0,1,25.4297-6.363H608.9949A51.57861,51.57861,0,0,1,634.4244,631.962Z"></path><path fill="#191d3f" d="M364.5901,789.28581s32.0426,7.5814,99.5707,11.55379c67.528,3.97221,142.5451,15.60571,163.313-5.00469,22.429-22.25939,9.7501-26.32189,9.7501-26.32189s7.4929,8.21519-16.7017,15.07649C596.3278,791.4506,364.5901,789.28581,364.5901,789.28581Z" opacity=".14" class="color191d3f svgShape"></path><path fill="url(#f)" d="M634.8129,221.3502v80.6326a40.65813,40.65813,0,0,0-25.4192-8.8805H380.0765a40.58894,40.58894,0,0,0-25.4185,8.8805V221.3502a17.54233,17.54233,0,0,1,17.5679-17.5359H617.2452A17.56283,17.56283,0,0,1,634.8129,221.3502Z"></path><path fill="#ffffff" d="M486.1879 227.8893v.6333h-2.3833v6.8076h-.7303v-6.8076h-2.3837v-.6333zM491.568 232.56a3.585 3.585 0 01-.1878 1.1915 2.65519 2.65519 0 01-.5265.9129 2.405 2.405 0 01-.7996.5857 2.5979 2.5979 0 01-2.0404 0 2.40355 2.40355 0 01-.8-.5857 2.66067 2.66067 0 01-.526-.9129 3.87916 3.87916 0 010-2.3835 2.72061 2.72061 0 01.526-.9181 2.36449 2.36449 0 01.8-.5905 2.58991 2.58991 0 012.0404 0 2.36591 2.36591 0 01.7996.5905 2.71491 2.71491 0 01.5265.9181A3.59181 3.59181 0 01491.568 232.56zm-.7413 0a2.62266 2.62266 0 00-.4826-1.6593 1.69855 1.69855 0 00-2.6199 0 3.08062 3.08062 0 000 3.3131 1.70829 1.70829 0 002.6199 0A2.59968 2.59968 0 00490.8267 232.56zM497.4944 235.1589a6.276 6.276 0 01-.7946.2033 6.4162 6.4162 0 01-1.224.0966 2.98246 2.98246 0 01-1.1112-.1983 2.39606 2.39606 0 01-.8587-.5742 2.61382 2.61382 0 01-.5585-.9129 3.47543 3.47543 0 01-.1987-1.2134 3.88545 3.88545 0 01.1663-1.1652 2.65835 2.65835 0 01.4886-.918 2.22683 2.22683 0 01.789-.6011 2.52422 2.52422 0 011.0684-.215 2.638 2.638 0 01.9504.1556 2.52806 2.52806 0 01.5854.2952v-2.985l.6976-.1284zm-.6976-4.3707a2.42368 2.42368 0 00-.2417-.1613 2.34767 2.34767 0 00-.3381-.1607 2.77 2.77 0 00-.419-.1234 2.26049 2.26049 0 00-.4723-.0483 1.85273 1.85273 0 00-.8645.1823 1.5544 1.5544 0 00-.5633.4887 2.0501 2.0501 0 00-.3121.7197 3.83758 3.83758 0 00-.0962.8748 2.36819 2.36819 0 00.5478 1.6804 1.89031 1.89031 0 001.4495.5852 5.77049 5.77049 0 00.8322-.0485 3.03125 3.03125 0 00.4777-.1022zM501.0271 229.65a2.46062 2.46062 0 01.929.1556 1.60225 1.60225 0 01.6177.4295 1.704 1.704 0 01.3437.6497 2.95583 2.95583 0 01.1075.8161v3.5003a2.91944 2.91944 0 01-.3122.0702c-.1355.0251-.2935.0521-.4719.0803q-.2688.0432-.5962.07-.3276.027-.6712.0266a3.19358 3.19358 0 01-.8102-.0966 1.787 1.787 0 01-.6442-.3061 1.44422 1.44422 0 01-.4298-.5368 1.85759 1.85759 0 01-.1559-.8 1.62658 1.62658 0 01.1719-.7734 1.46187 1.46187 0 01.4836-.5313 2.15857 2.15857 0 01.7402-.3061 4.26213 4.26213 0 01.9349-.0965c.1001 0 .2053.0053.3163.0164.1107.0102.2181.0248.3223.0428.1039.0178.193.0362.2682.0538a.84688.84688 0 01.156.0479v-.3432a3.6326 3.6326 0 00-.0433-.5633 1.23372 1.23372 0 00-.1879-.4947 1.04494 1.04494 0 00-.4078-.3544 1.52867 1.52867 0 00-.6925-.1339 3.5923 3.5923 0 00-.9132.0858q-.30075.08625-.4394.1395l-.0973-.6117a2.553 2.553 0 01.5642-.1612A4.79472 4.79472 0 01501.0271 229.65zm.0646 5.1756q.4086 0 .7138-.027a4.78337 4.78337 0 00.5213-.0698V232.775a2.15485 2.15485 0 00-.376-.1133 3.32689 3.32689 0 00-.7088-.0592 4.06978 4.06978 0 00-.5369.038 1.53794 1.53794 0 00-.5152.1611 1.06518 1.06518 0 00-.3865.3381.97063.97063 0 00-.1501.5691 1.21234 1.21234 0 00.1018.5261.84476.84476 0 00.2897.3436 1.28738 1.28738 0 00.451.1879A2.73754 2.73754 0 00501.0917 234.8256zM506.3207 235.4483q-.35115-.6567-.6785-1.365-.32835-.70785-.6145-1.4323-.285-.7251-.5227-1.449-.23715-.7245-.4067-1.4233h.7408q.1173.51555.2999 1.1119.18225.596.4131 1.2295.23.6336.5092 1.2996.27795.6654.6085 1.3091.23895-.6636.4236-1.2533.18435-.58965.3417-1.1752.15765-.58485.304-1.196.1467-.61155.2994-1.3256h.6982q-.3495 1.5585-.786 3.031a25.3915 25.3915 0 01-.9524 2.6923 6.17029 6.17029 0 01-.4197.8322 2.42568 2.42568 0 01-.4799.5742 1.703 1.703 0 01-.6147.3331 2.82711 2.82711 0 01-.8241.1071 1.74412 1.74412 0 01-.4911-.0642 1.5035 1.5035 0 01-.2744-.0968l.1393-.5796a1.01959 1.01959 0 00.2423.0913 1.45052 1.45052 0 00.4142.0588 2.13052 2.13052 0 00.5441-.0644 1.18037 1.18037 0 00.4356-.2196 1.64711 1.64711 0 00.35-.4029A3.6982 3.6982 0 00506.3207 235.4483zM468.0256 251.3662a11.46217 11.46217 0 011.2999-6.0281 4.312 4.312 0 017.3834 0 14.46791 14.46791 0 010 12.0338 4.303 4.303 0 01-7.3727 0A11.342 11.342 0 01468.0256 251.3662zm8.403 0a18.79273 18.79273 0 00-.168-2.5662 8.39256 8.39256 0 00-.5716-2.1621 4.04125 4.04125 0 00-1.0532-1.5011 2.38414 2.38414 0 00-1.6132-.56 2.41614 2.41614 0 00-1.6356.56 3.93649 3.93649 0 00-1.0421 1.5011 8.66761 8.66761 0 00-.56 2.1621 19.67022 19.67022 0 000 5.1322 8.477 8.477 0 00.56 2.1508 3.94667 3.94667 0 001.0421 1.4904 2.41652 2.41652 0 001.6356.5598 2.38451 2.38451 0 001.6132-.5598 4.05323 4.05323 0 001.0532-1.4904 8.21011 8.21011 0 00.5716-2.1508A18.78762 18.78762 0 00476.4286 251.3662zM490.3216 249.753q0 4.6836-2.2411 7.047-2.2407 2.3643-6.5433 2.3642l-.0447-1.2102a10.27089 10.27089 0 002.7117-.3362 6.03235 6.03235 0 002.1403-1.042 5.38709 5.38709 0 001.4784-1.8145 8.0917 8.0917 0 00.7732-2.6781 7.55566 7.55566 0 01-1.4566.5493 6.80863 6.80863 0 01-1.8149.2346 5.18117 5.18117 0 01-2.1288-.3917 3.81552 3.81552 0 01-1.4115-1.0417A4.12129 4.12129 0 01481 249.9322a6.32106 6.32106 0 01-.2469-1.7704 5.83574 5.83574 0 01.2691-1.7255 4.66416 4.66416 0 01.8405-1.5799 4.45778 4.45778 0 011.434-1.1538 4.39121 4.39121 0 012.0502-.4483 4.32035 4.32035 0 013.7082 1.7148A7.91553 7.91553 0 01490.3216 249.753zm-4.8624 1.8376a6.23362 6.23362 0 001.8035-.2351 10.90619 10.90619 0 001.4453-.5497c.0152-.179.0261-.3509.034-.5156.0067-.1639.0107-.3505.0107-.5594a12.97621 12.97621 0 00-.1457-1.9945 5.0184 5.0184 0 00-.5381-1.658 3.21613 3.21613 0 00-4.1116-1.2441 2.65568 2.65568 0 00-.9412.7954 3.3614 3.3614 0 00-.5265 1.1432 5.35324 5.35324 0 00-.1679 1.3442 3.72885 3.72885 0 00.7959 2.6219A3.04941 3.04941 0 00485.4592 251.5906zM502.7577 258.1114a4.29587 4.29587 0 003.0472-.8886 3.17506 3.17506 0 00.9186-2.3942 3.29048 3.29048 0 00-.3697-1.6414 2.88228 2.88228 0 00-1.0082-1.0455 4.45467 4.45467 0 00-1.4788-.5618 9.02391 9.02391 0 00-1.7817-.1685h-.2239v-1.2101h.5154a6.54076 6.54076 0 001.2431-.1229 3.30227 3.30227 0 001.1655-.4578 2.787 2.787 0 00.8744-.8924 2.6722 2.6722 0 00.3473-1.4291 2.94543 2.94543 0 00-.2469-1.2605 2.18731 2.18731 0 00-.6614-.8366 2.74125 2.74125 0 00-.9633-.4577 4.50442 4.50442 0 00-1.1542-.1453 4.27756 4.27756 0 00-1.8819.3362 9.39429 9.39429 0 00-1.0981.6275l-.6271-1.1429q.2235-.15675.571-.3588a5.66245 5.66245 0 01.818-.3808 7.214 7.214 0 011.0419-.3025 5.89908 5.89908 0 011.2437-.1234 6.14829 6.14829 0 012.0053.2913 3.85661 3.85661 0 011.4007.8165 3.245 3.245 0 01.8295 1.2529 4.52166 4.52166 0 01.2683 1.577 3.32809 3.32809 0 01-.7279 2.2262 4.06893 4.06893 0 01-1.8714 1.2417 5.18994 5.18994 0 011.2215.4824 4.25488 4.25488 0 011.0649.8305 3.97243 3.97243 0 01.7616 1.2232 4.469 4.469 0 01.2906 1.6822 4.66418 4.66418 0 01-.3469 1.8174 4.0234 4.0234 0 01-1.0306 1.4474 4.80253 4.80253 0 01-1.737.9648 7.89948 7.89948 0 01-2.4644.3475 8.37838 8.37838 0 01-1.3562-.1008 9.56013 9.56013 0 01-1.0864-.2352 7.53735 7.53735 0 01-.7957-.2687 4.647 4.647 0 01-.4817-.2242l.3812-1.2999a2.94608 2.94608 0 00.4481.2244 6.25422 6.25422 0 00.75.2576 9.05177 9.05177 0 00.9863.2132A7.47725 7.47725 0 00502.7577 258.1114zM511.4522 251.3662a11.46844 11.46844 0 011.2993-6.0281 4.31213 4.31213 0 017.3835 0 14.4669 14.4669 0 010 12.0338 4.30273 4.30273 0 01-7.3724 0A11.34217 11.34217 0 01511.4522 251.3662zm8.4026 0a18.841 18.841 0 00-.1679-2.5662 8.42106 8.42106 0 00-.5713-2.1621 4.05765 4.05765 0 00-1.0534-1.5011 2.38646 2.38646 0 00-1.6134-.56 2.41792 2.41792 0 00-1.6358.56 3.93722 3.93722 0 00-1.0419 1.5011 8.68461 8.68461 0 00-.5604 2.1621 19.71673 19.71673 0 000 5.1322 8.4934 8.4934 0 00.5604 2.1508 3.9474 3.9474 0 001.0419 1.4904 2.4183 2.4183 0 001.6358.5598 2.38682 2.38682 0 001.6134-.5598 4.06986 4.06986 0 001.0534-1.4904 8.23767 8.23767 0 00.5713-2.1508A18.83589 18.83589 0 00519.8548 251.3662z" class="colorfff svgShape"></path><g opacity=".6" fill="#000000" class="color000 svgShape"><path fill="#ffffff" d="M604.1342,224.4822h-1.1339v-1.6169a1.02968,1.02968,0,0,0-1.031-1.0311H578.9417a1.02992,1.02992,0,0,0-1.0309,1.0311v7.957a1.03339,1.03339,0,0,0,1.0309,1.0302h23.0276a1.03315,1.03315,0,0,0,1.031-1.0302v-2.5711h1.1339a.89784.89784,0,0,0,.8958-.8958v-1.9778A.89762.89762,0,0,0,604.1342,224.4822Zm-20.7728,5.805h-3.8462V223.181h3.8462Zm4.5169,0h-3.8464V223.181h3.8464Zm4.5166,0h-3.8463V223.181h3.8463Zm4.5169,0h-3.8463V223.181h3.8463Zm4.5165,0h-3.8467V223.181h3.8467Z" class="colorfff svgShape"></path><rect width="4.415" height="13.468" x="395.922" y="218.012" fill="#ffffff" class="colorfff svgShape"></rect><rect width="4.416" height="9.052" x="390.182" y="222.428" fill="#ffffff" class="colorfff svgShape"></rect><rect width="4.416" height="4.636" x="384.441" y="226.843" fill="#ffffff" class="colorfff svgShape"></rect><path fill="#ffffff" d="M408.2878 229.1988H406.936v1.7771h-.6953v-1.7771h-3.8148v-.5022l3.5827-4.4812h.773l-3.4572 4.3653h2.9355v-1.5648h.6761v1.5648h1.3518zM414.3813 227.5953h.686v2.5787a3.29978 3.29978 0 01-1.1204.6376 4.16655 4.16655 0 01-1.3612.2221 3.73706 3.73706 0 01-1.8254-.4444 3.27677 3.27677 0 01-1.2749-1.2309 3.58182 3.58182 0 010-3.5252 3.27991 3.27991 0 011.2749-1.2316 3.76018 3.76018 0 011.8344-.4441 3.96 3.96 0 011.42.2467 2.81481 2.81481 0 011.0909.7289l-.444.4536a2.78127 2.78127 0 00-2.0376-.7919 3.03715 3.03715 0 00-1.4825.3624 2.65981 2.65981 0 00-1.0382 1.0049 2.91058 2.91058 0 000 2.8628 2.71124 2.71124 0 001.0338 1.0042 3.2089 3.2089 0 003.2442-.1543z" class="colorfff svgShape"></path></g><path fill="#1b2142" d="M616.8513,194.2582H371.8324a25.12294,25.12294,0,0,0-25.1297,25.1292V765.21772A25.12308,25.12308,0,0,0,371.8324,790.347H616.8513a25.14286,25.14286,0,0,0,25.129-25.12929V219.3874A25.14271,25.14271,0,0,0,616.8513,194.2582Zm15.8943,567.71022a17.38,17.38,0,0,1-17.358,17.35829H373.2959a17.35981,17.35981,0,0,1-17.3578-17.35829V224.5993a17.3328,17.3328,0,0,1,17.3578-17.3263H615.3876a17.35294,17.35294,0,0,1,17.358,17.3263Z" class="color1b2142 svgShape"></path><path fill="#ffffff" d="M403.3932,532.69032h9.4182a0,0,0,0,1,0,0v46.3835a0,0,0,0,1,0,0h-9.4183a7.9117,7.9117,0,0,1-7.9117-7.9117v-30.56A7.9118,7.9118,0,0,1,403.3932,532.69032Z" class="colorfff svgShape"></path><rect width="17.33" height="46.383" x="417.909" y="532.69" fill="#ffffff" class="colorfff svgShape"></rect><rect width="17.33" height="46.383" x="440.336" y="532.69" fill="#ffffff" class="colorfff svgShape"></rect><rect width="17.33" height="46.383" x="462.763" y="532.69" fill="#ffffff" class="colorfff svgShape"></rect><rect width="17.33" height="46.383" x="485.19" y="532.69" fill="#ffffff" class="colorfff svgShape"></rect><rect width="17.33" height="46.383" x="507.617" y="532.69" fill="#ffffff" opacity=".2" class="colorfff svgShape"></rect><rect width="17.33" height="46.383" x="530.045" y="532.69" fill="#ffffff" opacity=".2" class="colorfff svgShape"></rect><rect width="17.33" height="46.383" x="552.472" y="532.69" fill="#ffffff" opacity=".2" class="colorfff svgShape"></rect><path fill="#ffffff" d="M574.8988,532.69032h9.4185a7.9118,7.9118,0,0,1,7.9118,7.9118V571.162a7.9118,7.9118,0,0,1-7.9118,7.9118h-9.4185a0,0,0,0,1,0,0v-46.3835A0,0,0,0,1,574.8988,532.69032Z" opacity=".2" class="colorfff svgShape"></path><g opacity=".55" fill="#000000" class="color000 svgShape"><path fill="#fafafa" d="M376.28558 651.38542H393.1697a1.8532 1.8532 0 011.8532 1.8532v16.8838a1.85318 1.85318 0 01-1.85318 1.85318H376.2859a1.8532 1.8532 0 01-1.8532-1.8532V653.2383A1.85288 1.85288 0 01376.28558 651.38542zM400.83358 651.38542H417.718a1.8532 1.8532 0 011.8532 1.8532v16.8838a1.85318 1.85318 0 01-1.85318 1.85318H400.8341a1.8534 1.8534 0 01-1.8534-1.8534V653.2383a1.85288 1.85288 0 011.85288-1.85288zM389.09752 678.5646H405.9817a1.8529 1.8529 0 011.8529 1.8529v16.88432a1.853 1.853 0 01-1.853 1.853H389.09752a1.85322 1.85322 0 01-1.85322-1.85322V680.41782A1.85322 1.85322 0 01389.09752 678.5646zM412.9824 678.5646h16.88388a1.85322 1.85322 0 011.85322 1.85322V697.3016a1.85322 1.85322 0 01-1.85322 1.85322H412.9821a1.8529 1.8529 0 01-1.8529-1.8529V680.4178A1.8532 1.8532 0 01412.9824 678.5646zM436.8668 678.5646h16.884a1.85322 1.85322 0 011.85322 1.85322v16.8839a1.8531 1.8531 0 01-1.8531 1.8531h-16.884a1.8531 1.8531 0 01-1.8531-1.8531V680.4176A1.853 1.853 0 01436.8668 678.5646zM460.7517 678.5646h16.88378a1.85322 1.85322 0 011.85322 1.85322v16.8838a1.8532 1.8532 0 01-1.8532 1.8532H460.7514a1.8529 1.8529 0 01-1.8529-1.8529V680.4178A1.8532 1.8532 0 01460.7517 678.5646zM484.6361 678.5646h16.88408a1.85322 1.85322 0 011.85322 1.85322v16.8838a1.8532 1.8532 0 01-1.8532 1.8532H484.6359a1.8529 1.8529 0 01-1.8529-1.8529V680.4177A1.8531 1.8531 0 01484.6361 678.5646zM508.5209 678.5646H525.405a1.85322 1.85322 0 011.85322 1.85322v16.8836a1.8534 1.8534 0 01-1.8534 1.8534H508.5206a1.8529 1.8529 0 01-1.8529-1.8529V680.4178A1.8532 1.8532 0 01508.5209 678.5646zM532.4056 678.5646h16.88388a1.85322 1.85322 0 011.85322 1.85322v16.884a1.853 1.853 0 01-1.853 1.853H532.4055a1.8529 1.8529 0 01-1.8529-1.8529V680.4176A1.853 1.853 0 01532.4056 678.5646zM556.2903 678.5646h16.8844a1.8529 1.8529 0 011.8529 1.8529v16.884a1.8533 1.8533 0 01-1.8533 1.8533H556.29042a1.85322 1.85322 0 01-1.85322-1.85322V680.4177A1.8531 1.8531 0 01556.2903 678.5646zM580.1751 678.5646h16.8843a1.8529 1.8529 0 011.8529 1.8529v16.88422a1.8531 1.8531 0 01-1.8531 1.8531H580.17512a1.85322 1.85322 0 01-1.85322-1.85322V680.4178A1.8532 1.8532 0 01580.1751 678.5646zM425.38208 651.38542H442.2662a1.853 1.853 0 011.853 1.853v16.884a1.85318 1.85318 0 01-1.85318 1.85318H425.382a1.8528 1.8528 0 01-1.8528-1.8528V653.2383a1.85288 1.85288 0 011.85288-1.85288zM449.93008 651.38542H466.8143a1.8532 1.8532 0 011.8532 1.8532v16.8838a1.85318 1.85318 0 01-1.85318 1.85318H449.9302a1.853 1.853 0 01-1.853-1.853V653.2383A1.85288 1.85288 0 01449.93008 651.38542zM474.47818 651.38542H491.3624a1.8533 1.8533 0 011.8533 1.8533v16.8837a1.85318 1.85318 0 01-1.85318 1.85318h-16.884a1.8532 1.8532 0 01-1.8532-1.8532V653.2383A1.85288 1.85288 0 01474.47818 651.38542zM499.02648 651.38542h16.88444a1.85288 1.85288 0 011.85288 1.85288v16.8839a1.8534 1.8534 0 01-1.8534 1.8534H499.0265a1.8529 1.8529 0 01-1.8529-1.8529V653.2383A1.85288 1.85288 0 01499.02648 651.38542zM523.57448 651.38542H540.4587a1.8532 1.8532 0 011.8532 1.8532v16.8838a1.85318 1.85318 0 01-1.85318 1.85318H523.5748a1.8532 1.8532 0 01-1.8532-1.8532V653.2383A1.85288 1.85288 0 01523.57448 651.38542zM548.12258 651.38542H565.0069a1.8532 1.8532 0 011.8532 1.8532v16.8838a1.85318 1.85318 0 01-1.85318 1.85318H548.1231a1.8534 1.8534 0 01-1.8534-1.8534V653.2383A1.85288 1.85288 0 01548.12258 651.38542zM572.67078 651.38542H589.5552a1.853 1.853 0 011.853 1.853v16.884a1.85318 1.85318 0 01-1.85318 1.85318H572.6713a1.8534 1.8534 0 01-1.8534-1.8534V653.2383A1.85288 1.85288 0 01572.67078 651.38542zM597.21958 651.38542H614.1034a1.8528 1.8528 0 011.8528 1.8528v16.8845a1.85288 1.85288 0 01-1.85288 1.85288h-16.884a1.8529 1.8529 0 01-1.8529-1.8529V653.2386A1.85318 1.85318 0 01597.21958 651.38542zM376.2859 734.982h16.884a1.853 1.853 0 011.853 1.853v16.8839a1.8532 1.8532 0 01-1.8532 1.8532H376.2859a1.8532 1.8532 0 01-1.8532-1.8532v-16.8837A1.8532 1.8532 0 01376.2859 734.982zM400.8337 734.982h16.8841a1.8534 1.8534 0 011.8534 1.8534v16.8837a1.853 1.853 0 01-1.853 1.853H400.8339a1.8532 1.8532 0 01-1.8532-1.8532V736.835A1.853 1.853 0 01400.8337 734.982zM565.0069 734.982H548.1231a1.61014 1.61014 0 01-.6408 0H516.1625c-.0432 0-.0836.00958-.1261.0127-.0424-.00312-.0828-.0127-.126-.0127H425.382a1.85281 1.85281 0 00-1.8528 1.853v16.8841a1.85282 1.85282 0 001.8528 1.853h90.5284c.0432 0 .0836-.0096.126-.0127.0425.0031.0829.0127.1261.0127h31.3198a1.62 1.62 0 01.6408 0h16.8838a1.853 1.853 0 001.8532-1.853V736.835A1.853 1.853 0 00565.0069 734.982zM572.6709 734.982h16.8839a1.8534 1.8534 0 011.8534 1.8534v16.8837a1.853 1.853 0 01-1.853 1.853H572.6709a1.853 1.853 0 01-1.853-1.853V736.835A1.853 1.853 0 01572.6709 734.982zM597.2194 734.982h16.884a1.8528 1.8528 0 011.8528 1.8528v16.8843a1.853 1.853 0 01-1.853 1.853H597.2193a1.8529 1.8529 0 01-1.8529-1.8529V736.835A1.853 1.853 0 01597.2194 734.982zM376.2857 704.92022h16.884a1.8532 1.8532 0 011.8532 1.8532v16.8839a1.8532 1.8532 0 01-1.8532 1.8532H376.2859a1.8532 1.8532 0 01-1.8532-1.8532v-16.8841A1.853 1.853 0 01376.2857 704.92022zM400.8337 704.92022h16.8841a1.8534 1.8534 0 011.8534 1.8534v16.8837a1.8532 1.8532 0 01-1.8532 1.8532H400.8339a1.8532 1.8532 0 01-1.8532-1.8532v-16.8841A1.853 1.853 0 01400.8337 704.92022zM425.3824 704.92022h16.8838a1.853 1.853 0 011.853 1.853v16.8843a1.853 1.853 0 01-1.853 1.853H425.382a1.8528 1.8528 0 01-1.8528-1.8528v-16.8843a1.8532 1.8532 0 011.8532-1.8532zM449.9302 704.92022h16.8841a1.8532 1.8532 0 011.8532 1.8532v16.8839a1.8532 1.8532 0 01-1.8532 1.8532H449.9302a1.853 1.853 0 01-1.853-1.853v-16.8843a1.853 1.853 0 011.853-1.853zM474.4785 704.92022h16.8839a1.8533 1.8533 0 011.8533 1.8533v16.884a1.853 1.853 0 01-1.853 1.853H474.4785a1.8532 1.8532 0 01-1.8532-1.8532v-16.8839A1.8532 1.8532 0 01474.4785 704.92022zM499.0268 704.92022h16.8836a1.8534 1.8534 0 011.8534 1.8534v16.8839a1.853 1.853 0 01-1.853 1.853H499.0265a1.8529 1.8529 0 01-1.8529-1.8529v-16.8842A1.8532 1.8532 0 01499.0268 704.92022z" class="colorfafafa svgShape"></path><rect width="20.59" height="20.59" x="521.722" y="704.92" fill="#fafafa" rx="1.853" class="colorfafafa svgShape"></rect><path fill="#fafafa" d="M548.1227 704.92022h16.884a1.8534 1.8534 0 011.8534 1.8534v16.8837a1.8532 1.8532 0 01-1.8532 1.8532h-16.884a1.8532 1.8532 0 01-1.8532-1.8532v-16.8841A1.853 1.853 0 01548.1227 704.92022zM614.1033 704.92022H582.1427a1.85315 1.85315 0 00-1.8532 1.853v16.8841a1.85333 1.85333 0 001.8532 1.8532h31.9606a1.85314 1.85314 0 001.8529-1.8532v-16.8841A1.853 1.853 0 00614.1033 704.92022z" class="colorfafafa svgShape"></path></g><path fill="#323232" d="M650.8391,483.80732H351.0032a22.10749,22.10749,0,0,1-12.1708-3.6222l-.0766-69.4204-.0192-3.2774-.0575-69.45832-.019-7.2448-.096-81.9738a22.14833,22.14833,0,0,1,12.9372-4.1397H650.3599l.0767,64.6859-2.9132,2.9708.2106.2106a9.01851,9.01851,0,0,1,2.7218,6.4592l.0191,31.1642a9.12474,9.12474,0,0,1-2.6259,6.3634l2.6259,2.5487.038,37.85332a9.15516,9.15516,0,0,1-2.3189,4.2361l2.3386,2.2614.2682.28728Z" opacity=".2" class="color323232 svgShape"></path><path fill="url(#g)" d="M669.4251,258.0288a22.26954,22.26954,0,0,0-22.2757-22.2351h-310.68a22.24345,22.24345,0,0,0-22.2761,22.2351l-.505,194.62a21.86071,21.86071,0,0,0,1.2895,7.4497,22.27258,22.27258,0,0,0,20.992,14.8322H646.6484a22.3498,22.3498,0,0,0,22.2819-22.2819Z" opacity=".9"></path><path fill="#d8f0fa" d="M480.4005 274.1755a6.2714 6.2714 0 11-6.2714-6.2715A6.27136 6.27136 0 01480.4005 274.1755zM495.8379 274.1755a6.2714 6.2714 0 11-6.2712-6.2715A6.27131 6.27131 0 01495.8379 274.1755z" class="colord8f0fa svgShape"></path><path fill="#feaa32" d="M511.2755,274.1755a6.2715,6.2715,0,1,1-6.2714-6.2715A6.27148,6.27148,0,0,1,511.2755,274.1755Z" class="colorfeaa32 svgShape"></path><path fill="#ffffff" d="M537.3906 324.3103H507.0472a6.6316 6.6316 0 000 13.2632h30.3434a6.6316 6.6316 0 100-13.2632zM609.8917 324.3103H558.8546a6.6316 6.6316 0 000 13.2632h51.0371a6.6316 6.6316 0 100-13.2632zM609.8917 362.4376H507.0476a6.63162 6.63162 0 100 13.26323H609.8917a6.63162 6.63162 0 100-13.26323zM537.3906 395.03222H507.0472a6.63185 6.63185 0 000 13.2637h30.3434a6.63185 6.63185 0 100-13.2637z" class="colorfff svgShape"></path><path fill="#d8f0fa" d="M477.0077 382.72792L466.0588 369.761 453.09 380.7106l-.8554 10.15372 8.0642-6.8136a47.48 47.48 0 01-91.7455-4.5209 3.54007 3.54007 0 00-6.9304 1.4484 54.57618 54.57618 0 00106.3134 2.1707l8.2141 9.7326zM376.9751 358.8111l.8569-10.154-8.0642 6.8128a47.4814 47.4814 0 0191.4477 3.1906 3.53932 3.53932 0 006.8841-1.6481 54.57794 54.57794 0 00-105.9712-.64l-8.2141-9.7326-.8554 10.1543L364.0078 369.761z" class="colord8f0fa svgShape"></path><path fill="#d8f0fa" d="M384.3556 373.30813V386.6696a4.09875 4.09875 0 004.1246 4.10922 4.03091 4.03091 0 002.9232-1.1858 3.92609 3.92609 0 001.2128-2.92342V373.30813h-2.7158v13.33409a1.48348 1.48348 0 01-1.4894 1.48938 1.46081 1.46081 0 01-1.0628-.43468 1.42426 1.42426 0 01-.4401-1.0547V373.30813zM395.4183 373.30813V390.586h2.606v-6.5086h1.5027a3.90152 3.90152 0 002.8887-1.2135 4.01706 4.01706 0 001.1939-2.9234v-2.50959a4.158 4.158 0 00-1.0498-2.9236 3.9692 3.9692 0 00-3.0328-1.1992zm5.26 3.0748a1.4876 1.4876 0 01.4075 1.0894v2.52339a1.46456 1.46456 0 01-.4341 1.0616 1.42817 1.42817 0 01-1.0553.4412h-1.5721v-5.52939h1.5721A1.44793 1.44793 0 01400.6783 376.38293zM410.2706 373.29433H406.175V390.586h4.0956a3.92361 3.92361 0 002.8964-1.21342 4.0086 4.0086 0 001.1994-2.92338v-9.03189a4.00089 4.00089 0 00-1.1919-2.91A3.92189 3.92189 0 00410.2706 373.29433zm1.5586 13.21009a1.47859 1.47859 0 01-.4267 1.0549 1.39524 1.39524 0 01-1.0493.44828h-1.572V375.95533h1.572a1.41068 1.41068 0 011.0419.4414 1.45811 1.45811 0 01.4341 1.0618zM416.6456 390.586h2.7117l.6344-3.97142h2.7214l.6093 3.97142h2.7404l-2.8962-17.27789h-3.5841zm4.7144-13.32069l.9665 6.81209h-1.9314z" class="colord8f0fa svgShape"></path><polygon fill="#d8f0fa" points="431.679 390.586 431.679 375.928 434.435 375.928 434.435 373.308 426.299 373.308 426.299 375.928 429.073 375.928 429.073 390.586 431.679 390.586" class="colord8f0fa svgShape"></polygon><path fill="#d8f0fa" d="M392.3082 369.82423h-7.6099V351.3104h2.7935v15.7364h4.8164zM397.8156 365.5689l-.6788 4.25533h-2.9087l3.1473-18.51383h3.8415l3.1032 18.51383h-2.9357l-.6534-4.25533zm1.466-10.0174l-1.0344 7.2985h2.0688zM407.0238 354.1183h-2.9696v-2.8079h8.7174v2.8079h-2.9543v15.70593h-2.7935zM415.0163 369.82423V351.2961h7.9504v2.807h-5.1569v5.0536h3.7669v2.8071h-3.7669v5.0535h5.1569v2.80693zM434.122 365.2142a5.206 5.206 0 01-1.0057 3.30983 3.607 3.607 0 01-1.9199 1.31457 5.2346 5.2346 0 01-1.5524.20763 4.388 4.388 0 01-2.7174-.8127 4.55466 4.55466 0 01-1.4271-1.80983 7.32662 7.32662 0 01-.613-2.6233l2.6597-.1913a4.05073 4.05073 0 00.8568 2.3463 1.43272 1.43272 0 001.1528.51983 1.73092 1.73092 0 001.4628-.90233 2.23364 2.23364 0 00.2811-1.2274 3.41115 3.41115 0 00-1.0497-2.2923q-.828-.78345-2.482-2.3517a10.602 10.602 0 01-1.9655-2.41 5.585 5.585 0 01-.6197-2.6029 4.52593 4.52593 0 011.6982-3.8304 4.22658 4.22658 0 012.6005-.7839 4.72234 4.72234 0 012.5563.6655 3.83808 3.83808 0 011.3374 1.4474 5.35694 5.35694 0 01.613 2.1426l-2.6733.4876a3.23323 3.23323 0 00-.6501-1.7727 1.36858 1.36858 0 00-1.109-.4588 1.27493 1.27493 0 00-1.1665.6798 2.62326 2.62326 0 00-.325 1.3594 4.0826 4.0826 0 001.0921 2.5861 9.28968 9.28968 0 001.2425 1.1816q.97515.81285 1.2851 1.1377a9.497 9.497 0 011.5948 2.0393 7.6537 7.6537 0 01.4282.8719A5.05106 5.05106 0 01434.122 365.2142zM439.0113 354.1183h-2.9697v-2.8079h8.7174v2.8079h-2.9543v15.70593h-2.7934z" class="colord8f0fa svgShape"></path><polygon fill="#d8f0fa" points="444.436 375.914 444.436 373.294 437.017 373.294 437.017 390.586 444.436 390.586 444.436 387.966 439.624 387.966 439.624 383.25 443.139 383.25 443.139 380.63 439.624 380.63 439.624 375.914 444.436 375.914" class="colord8f0fa svgShape"></polygon><g opacity=".95" fill="#000000" class="color000 svgShape"><path fill="#0682c0" d="M890.0231,415.66692v6.08768H705.4099v-6.08768a10.57681,10.57681,0,0,1,10.578-10.578H879.4514A10.57546,10.57546,0,0,1,890.0231,415.66692Z" class="color0682c0 svgShape"></path><path fill="#d8f0fa" d="M890.0231 421.7546v94.23582a10.57546 10.57546 0 01-10.5717 10.578H715.9879a10.57681 10.57681 0 01-10.578-10.578V421.7546zM726.7775 414.27542a2.77775 2.77775 0 11-2.7778-2.7777A2.77789 2.77789 0 01726.7775 414.27542zM733.615 414.27542a2.77775 2.77775 0 11-2.7777-2.7777A2.77774 2.77774 0 01733.615 414.27542z" class="colord8f0fa svgShape"></path><path fill="#feaa32" d="M740.4528,414.27542a2.7778,2.7778,0,1,1-2.7778-2.7777A2.77789,2.77789,0,0,1,740.4528,414.27542Z" class="colorfeaa32 svgShape"></path></g><path fill="#ffffff" d="M805.1555 451.24552H787.7223a3.81 3.81 0 000 7.62008h17.4332a3.81 3.81 0 100-7.62008zM869.9338 451.24552H817.4873a3.81 3.81 0 000 7.62008h52.4465a3.81 3.81 0 100-7.62008zM869.9338 473.15072H787.7226a3.81005 3.81005 0 100 7.6201h82.2112a3.81005 3.81005 0 100-7.6201zM805.1555 491.87742H787.7223a3.81015 3.81015 0 000 7.6203h17.4332a3.81015 3.81015 0 100-7.6203z" class="colorfff svgShape"></path><path fill="#175689" d="M774.8938,477.52652v-7.7613l-6.0818-.5583a21.5191,21.5191,0,0,0-3.089-7.4365l3.9128-4.7045-5.4871-5.4871-4.7045,3.9174a21.54039,21.54039,0,0,0-7.4319-3.0937l-.5583-6.082h-7.7616l-.5583,6.082a21.5633,21.5633,0,0,0-7.4365,3.0937l-4.7045-3.9174-5.4869,5.4871,3.9172,4.7045a21.56376,21.56376,0,0,0-3.0936,7.4365l-6.0818.5583v7.7613l6.0818.5584a21.528,21.528,0,0,0,3.0936,7.4366l-3.9172,4.7044,5.4869,5.4871,4.7045-3.9128c.0594.0366.1144.0732.1739.1098a21.56535,21.56535,0,0,0,7.2626,2.9792l.0961,6.1232h8.6859l.0962-6.1232a21.63571,21.63571,0,0,0,3.5145-1.0524,21.09016,21.09016,0,0,0,2.16-1.00222c.6042-.31588,1.1898-.66368,1.7574-1.03438l4.7045,3.9128,5.4871-5.4871-3.9128-4.7044a21.5196,21.5196,0,0,0,3.089-7.4366Zm-27.3252,9.8164a13.6764,13.6764,0,1,1,13.6741-13.6787A13.67649,13.67649,0,0,1,747.5686,487.34292Z" class="color175689 svgShape"></path><g opacity=".2" fill="#000000" class="color000 svgShape"><path fill="#2b3990" d="M768.8209 469.21922a14.20848 14.20848 0 00-7.5636-8.4052l5.6461-6.4303 2.7397 2.6963-3.9124 4.7053A21.5487 21.5487 0 01768.8209 469.21922zM726.3186 478.09372a14.20849 14.20849 0 007.5636 8.4051l-5.6464 6.4303-2.7396-2.6963 3.9126-4.7053A21.54708 21.54708 0 01726.3186 478.09372z" class="color2b3990 svgShape"></path></g><g opacity=".2" fill="#000000" class="color000 svgShape"><path fill="#2b3990" d="M743.1328 452.40332a14.20834 14.20834 0 00-8.4042 7.56428l-6.4297-5.64688 2.6961-2.7398 4.7049 3.9128A21.53636 21.53636 0 01743.1328 452.40332zM766.8404 492.99232l-2.6959 2.7398-4.7049-3.9126q-.84525.55662-1.7478 1.0354-.92085.488-1.8942.8889a21.33187 21.33187 0 01-3.7911 1.1659 16.09811 16.09811 0 003.4016-1.7249 14.75026 14.75026 0 002.0959-1.6999 12.42772 12.42772 0 002.9069-4.13932z" class="color2b3990 svgShape"></path></g><g opacity=".2" fill="#000000" class="color000 svgShape"><path fill="#2b3990" d="M765.7339 485.547a14.20967 14.20967 0 00.5944-11.2919l8.5389-.5541.0308 3.8439-6.0933.5605A21.54667 21.54667 0 01765.7339 485.547zM729.4056 461.76582a14.21021 14.21021 0 00-.5944 11.2921l-8.5391.554-.0307-3.844 6.0933-.5604A21.54658 21.54658 0 01729.4056 461.76582z" class="color2b3990 svgShape"></path></g><g opacity=".2" fill="#000000" class="color000 svgShape"><path fill="#2b3990" d="M747.1996 501.01072h-3.9837l-.0946-6.1165a21.57009 21.57009 0 01-7.4415-3.0722c.0631.0297.128.0577.1911.0859a14.17281 14.17281 0 0011.1009.5085zM759.4591 455.49042a14.20562 14.20562 0 00-11.2908-.5943l-.5541-8.5399 3.8436-.0309.5604 6.0939A21.53794 21.53794 0 01759.4591 455.49042z" class="color2b3990 svgShape"></path></g><path fill="#14527c" d="M747.5686,458.42492a15.24155,15.24155,0,1,0,15.2438,15.2393A15.2399,15.2399,0,0,0,747.5686,458.42492Zm0,28.918a13.6764,13.6764,0,1,1,13.6741-13.6787A13.67649,13.67649,0,0,1,747.5686,487.34292Z" class="color14527c svgShape"></path><path fill="#0682c0" d="M747.7367 479.17852a2.579 2.579 0 01-5.158 0v-5.8894a2.579 2.579 0 115.158 0zm-1.6882-5.92392a.9399.9399 0 00-.9381-.93838.89176.89176 0 00-.6592.27538.91242.91242 0 00-.2702.663V479.153a.912.912 0 00.2702.6629.892.892 0 00.6592.2753.93977.93977 0 00.9381-.9382zM750.4399 481.64112V473.332h-1.3861v-1.1365a2.39 2.39 0 001.1147-.4435 2.16686 2.16686 0 00.7626-.9081h1.1366v10.7972zM741.891 468.99242l-.5595-3.1289h.4943l.3927 2.4389.3956-2.4389h.4953l-.5692 3.1289zM743.504 468.99242V465.861h1.3428v.47458h-.8711v.85382h.6364v.4746h-.6364v.8539h.8711v.4745zM745.9163 465.86352a.72144.72144 0 01.5792.217.78976.78976 0 01.1627.5297v.4545a.73208.73208 0 01-.2526.5617l.3494 1.366h-.5102l-.286-1.1785h-.3147v1.1785h-.4717v-3.1289zm.2821.7542a.23963.23963 0 00-.2702-.2723h-.2841v1.0014h.2841a.25854.25854 0 00.1914-.0799.26539.26539 0 00.0788-.1924zM748.5604 468.21352a.87683.87683 0 01-.1698.5595.609.609 0 01-.3245.2219.88352.88352 0 01-.2614.0351.74161.74161 0 01-.4598-.1373.76.76 0 01-.2407-.3062 1.23129 1.23129 0 01-.1037-.443l.4491-.0325a.6783.6783 0 00.1449.3965.241.241 0 00.1943.0878.29265.29265 0 00.2476-.1524.37855.37855 0 00.0474-.2077.5754.5754 0 00-.1775-.3872c-.0928-.08842-.2329-.22042-.4193-.3975a1.79308 1.79308 0 01-.3326-.4071.95333.95333 0 01-.1044-.4401.76574.76574 0 01.2871-.6476.7151.7151 0 01.44-.1322.80018.80018 0 01.432.1125.65655.65655 0 01.226.2447.90924.90924 0 01.1037.3621l-.4519.0824a.55034.55034 0 00-.1106-.3.2314.2314 0 00-.1875-.077.21673.21673 0 00-.1972.11438.44536.44536 0 00-.0543.23.68874.68874 0 00.1844.437 1.51745 1.51745 0 00.2103.19992q.1641.1374.2169.1922a1.60356 1.60356 0 01.2696.3445 1.30928 1.30928 0 01.0728.1473A.85236.85236 0 01748.5604 468.21352zM749.4247 468.99242h-.4717v-3.1289h.4717zM750.5878 465.82352a.74874.74874 0 01.7498.7494v1.70768a.74857.74857 0 01-.7498.74942.7156.7156 0 01-.5287-.22.72346.72346 0 01-.2172-.52942v-1.70768a.747.747 0 01.7459-.7494zm.2576.739a.26884.26884 0 00-.2694-.2695.2652.2652 0 00-.1925.07858.25812.25812 0 00-.0797.19092v1.7133a.25726.25726 0 00.0797.1909.26373.26373 0 00.1925.0788.26921.26921 0 00.2694-.2697zM752.2817 465.861l.6256 2.1045V465.861h.4727v3.1314h-.5072l-.6491-2.0052v2.0052h-.4717V465.861z" class="color0682c0 svgShape"></path><g opacity=".95" fill="#000000" class="color000 svgShape"><path fill="#2b3990" d="M294.5901,464.67772v6.0878H109.9769v-6.0878a10.57691,10.57691,0,0,1,10.5782-10.578H284.0186A10.57542,10.57542,0,0,1,294.5901,464.67772Z" class="color2b3990 svgShape"></path><path fill="#d8f0fa" d="M294.5901 470.76552v94.2358a10.57542 10.57542 0 01-10.5715 10.578H120.5551a10.57691 10.57691 0 01-10.5782-10.578v-94.2358zM131.3446 463.28632a2.77775 2.77775 0 11-2.7776-2.7778A2.7777 2.7777 0 01131.3446 463.28632zM138.1823 463.28632a2.77775 2.77775 0 11-2.7778-2.7778A2.77787 2.77787 0 01138.1823 463.28632z" class="colord8f0fa svgShape"></path><path fill="#feaa32" d="M145.02,463.28632a2.7778,2.7778,0,1,1-2.7779-2.7778A2.77789,2.77789,0,0,1,145.02,463.28632Z" class="colorfeaa32 svgShape"></path></g><path fill="#ffffff" d="M209.7228 500.25632H192.2896a3.81005 3.81005 0 000 7.6201h17.4332a3.81005 3.81005 0 100-7.6201zM274.5011 500.25632H222.0545a3.81005 3.81005 0 000 7.6201h52.4466a3.81005 3.81005 0 000-7.6201zM274.5011 522.16152H192.2898a3.81 3.81 0 100 7.62008h82.2113a3.81 3.81 0 000-7.62008zM209.7228 540.88812H192.2896a3.81024 3.81024 0 000 7.62048h17.4332a3.81024 3.81024 0 000-7.62048z" class="colorfff svgShape"></path><path fill="#175689" d="M179.4611,526.53742V518.776l-6.082-.5583a21.5159,21.5159,0,0,0-3.089-7.4365l3.9128-4.7045-5.4871-5.48712-4.7044,3.91742a21.53828,21.53828,0,0,0-7.432-3.0936l-.5584-6.082h-7.7613l-.5583,6.082a21.5617,21.5617,0,0,0-7.4367,3.0936l-4.7043-3.91742-5.4871,5.48712,3.9174,4.7045a21.55958,21.55958,0,0,0-3.0936,7.4365l-6.0821.5583v7.7614l6.0821.5583a21.52352,21.52352,0,0,0,3.0936,7.4367l-3.9174,4.7043,5.4871,5.4871,4.7043-3.9128c.0596.03658.1144.0732.174.1098a21.56911,21.56911,0,0,0,7.2627,2.9792l.096,6.1233h8.6859l.0961-6.1233a21.60876,21.60876,0,0,0,3.5147-1.0526,21.04331,21.04331,0,0,0,2.16-1.002c.6041-.31582,1.1898-.6637,1.7573-1.0344l4.7044,3.9128,5.4871-5.4871-3.9128-4.7043a21.51705,21.51705,0,0,0,3.089-7.4367Zm-27.3252,9.8163a13.6764,13.6764,0,1,1,13.6739-13.6787A13.67644,13.67644,0,0,1,152.1359,536.35372Z" class="color175689 svgShape"></path><g opacity=".2" fill="#000000" class="color000 svgShape"><path fill="#2b3990" d="M173.3881 518.23a14.20879 14.20879 0 00-7.5637-8.4052l5.6463-6.43022 2.7396 2.69632-3.9124 4.7053A21.5482 21.5482 0 01173.3881 518.23zM130.8859 527.10452a14.20848 14.20848 0 007.5636 8.4052l-5.6464 6.4302-2.7396-2.69632 3.9124-4.70528A21.5459 21.5459 0 01130.8859 527.10452z" class="color2b3990 svgShape"></path></g><g opacity=".2" fill="#000000" class="color000 svgShape"><path fill="#2b3990" d="M147.7001 501.41412a14.208 14.208 0 00-8.4042 7.5642l-6.4297-5.6468 2.6959-2.7398 4.7049 3.9126A21.542 21.542 0 01147.7001 501.41412zM171.4077 542.00322l-2.696 2.7398-4.7049-3.9126q-.84525.5565-1.7477 1.0353-.92085.48795-1.8944.889a21.33269 21.33269 0 01-3.7909 1.1658 16.086 16.086 0 003.4014-1.72492 14.7613 14.7613 0 002.096-1.69988 12.42406 12.42406 0 002.9068-4.1395z" class="color2b3990 svgShape"></path></g><g opacity=".2" fill="#000000" class="color000 svgShape"><path fill="#2b3990" d="M170.301 534.55792a14.21016 14.21016 0 00.5945-11.292l8.539-.5541.0308 3.844-6.0933.5604A21.54373 21.54373 0 01170.301 534.55792zM133.9728 510.7766a14.20959 14.20959 0 00-.5943 11.292l-8.5391.55412-.0309-3.844 6.0933-.5604A21.54963 21.54963 0 01133.9728 510.7766z" class="color2b3990 svgShape"></path></g><g opacity=".2" fill="#000000" class="color000 svgShape"><path fill="#2b3990" d="M151.7669 550.02132h-3.9837l-.0946-6.1163a21.56781 21.56781 0 01-7.4417-3.0723c.0632.02988.128.05788.1913.086a14.17294 14.17294 0 0011.1009.5085zM164.0264 504.50122a14.20672 14.20672 0 00-11.291-.5943l-.5539-8.5399 3.8436-.0308.5604 6.0938A21.54266 21.54266 0 01164.0264 504.50122z" class="color2b3990 svgShape"></path></g><path fill="#14527c" d="M152.1359,507.43582a15.2415,15.2415,0,1,0,15.2436,15.2392A15.23977,15.23977,0,0,0,152.1359,507.43582Zm0,28.9179a13.6764,13.6764,0,1,1,13.6739-13.6787A13.67644,13.67644,0,0,1,152.1359,536.35372Z" class="color14527c svgShape"></path><path fill="#175689" d="M150.8222 528.06682a2.6206 2.6206 0 01-5.2412 0v-5.9846a2.62061 2.62061 0 115.2412 0zm-1.7153-6.0197a.95479.95479 0 00-.9534-.9533.90571.90571 0 00-.6697.2796.92739.92739 0 00-.2746.6737v5.9937a.92709.92709 0 00.2746.6737.90571.90571 0 00.6697.2796.95479.95479 0 00.9534-.9533zM152.1596 522.69482a3.18487 3.18487 0 01.8401-2.3799 2.58077 2.58077 0 011.9078-.726 2.45107 2.45107 0 011.8507.8136 2.68269 2.68269 0 01.7649 1.8984 4.955 4.955 0 01-.4983 2.1614 15.96491 15.96491 0 01-1.2692 1.986q-.2706.3849-.805 1.1984l-.2967.4462q-.2886.43752-.4381.6913a.59148.59148 0 00-.0692.15738h3.2452v1.619h-5.2582v-1.51688a3.73 3.73 0 01.3609-.6048c.1111-.1691.2376-.355.3779-.5589l.4311-.6202q.376-.51585 1.1819-1.6531a10.85235 10.85235 0 001.1389-1.9329 3.34073 3.34073 0 00.3069-1.3208 1.31594 1.31594 0 00-.2799-.8483.97943.97943 0 00-.7879-.3674 1.01875 1.01875 0 00-.9794.7962 1.832 1.832 0 00-.0964.63v.42008h-1.628zM145.999 517.96012l-.5684-3.17952h.5023l.3991 2.47822.4019-2.47822h.5033l-.5785 3.17952zM147.6381 517.96012v-3.1819h1.3645v.4822h-.8851v.8676h.6465v.4823h-.6465v.8676h.8851v.4822zM150.0893 514.7806a.73248.73248 0 01.5886.22062.80231.80231 0 01.1654.5382v.4617a.745.745 0 01-.2566.571l.3547 1.388h-.5182l-.2908-1.19752h-.3197v1.19752h-.4793V514.7806zm.2867.76652a.24353.24353 0 00-.2746-.2768h-.2887v1.0176h.2887a.26189.26189 0 00.1945-.08132.26911.26911 0 00.0801-.19548zM152.7762 517.1686a.89146.89146 0 01-.1725.56842.6189.6189 0 01-.3298.22558.89723.89723 0 01-.2657.03572.75505.75505 0 01-.4672-.1394.77382.77382 0 01-.2446-.3112 1.24559 1.24559 0 01-.1052-.4502l.4561-.0332a.69055.69055 0 00.1474.4031.24517.24517 0 00.1974.0893.29807.29807 0 00.2517-.15512.384.384 0 00.0481-.211.58562.58562 0 00-.1804-.39348q-.14145-.13455-.426-.404a1.81409 1.81409 0 01-.3379-.4134.9693.9693 0 01-.1064-.4472.7782.7782 0 01.2919-.6581.72726.72726 0 01.4469-.1344.816.816 0 01.4393.1142.66984.66984 0 01.2295.2486.92674.92674 0 01.1054.368l-.4593.08378a.55632.55632 0 00-.1123-.30478.23532.23532 0 00-.1905-.07822.22037.22037 0 00-.2005.11642.45257.45257 0 00-.0551.2334.69861.69861 0 00.1876.4441 1.52519 1.52519 0 00.2135.2032c.1112.0931.1844.1583.2204.1955a1.615 1.615 0 01.2737.3497 1.35326 1.35326 0 01.0744.1499A.87136.87136 0 01152.7762 517.1686zM153.6544 517.96012h-.4792V514.7806h.4792zM154.8364 514.74a.76069.76069 0 01.7618.7615v1.7353a.7599.7599 0 11-1.5198 0v-1.7353a.7595.7595 0 01.758-.7615zm.2616.7509a.2728.2728 0 00-.2737-.2736.2688.2688 0 00-.1955.0797.2627.2627 0 00-.0813.1939v1.7409a.26229.26229 0 00.0813.194.268.268 0 00.1955.0801.26182.26182 0 00.1936-.0801.26464.26464 0 00.0801-.194zM156.5577 514.77822l.6355 2.1383v-2.1383h.4804v3.1819h-.5154l-.6597-2.03752v2.03752h-.4792v-3.1819z" class="color175689 svgShape"></path><path fill="#1b2142" d="M411.9879,477.37492c-3.3528-.0015-5.9801,1.9-6.0027,4.3444l-.1895,20.4887-53.2713-.0161.1842-19.8928c.0247-2.6767-3.0624-4.9426-6.7342-4.9441-3.3528-.0008-5.9801,1.9007-6.0027,4.3444l-3.214,347.59369q6.3633-.2553,12.7438-.2261l.095-10.2649,53.2719.0161-.101,10.873c4.2472.0153,8.4939.04139,12.7423.0437l3.2124-347.41579C418.7465,479.64232,415.6597,477.37572,411.9879,477.37492Zm-6.2196,27.8129-.1955,21.1462-53.2713-.0161.1955-21.1455Zm-55.6978,262.3835.1953-21.1453,53.2713.0161-.1953,21.1447Zm53.2437,2.996-.1955,21.14528-53.2717-.01609.1954-21.14529Zm-53.0208-27.1211.1953-21.1453,53.2713.0161-.1953,21.1445Zm.2229-24.1258.1955-21.1453,53.2717.0161-.1953,21.1453Zm.2235-24.1251.1955-21.1455,53.2713.0161-.1961,21.1455Zm.2229-24.126.1955-21.1446,53.2713.0154-.1955,21.1453Zm.2229-24.1251.1955-21.1445,53.2719.0153-.1955,21.1453Zm.2235-24.1251.1955-21.1452,53.2713.0161-.1959,21.1452Zm.2231-24.1252.1953-21.14532,53.2713.01612-.1953,21.1445Zm.2229-24.1258.1953-21.1453,53.2719.0161-.1959,21.1453Zm.2235-24.1251.1953-21.1453,53.2709.0161-.1955,21.1453ZM349.624,815.8216l.1954-21.14449,53.2713.0153-.1955,21.1453Z" opacity=".2" class="color1b2142 svgShape"></path><polygon fill="#1b2142" points="413.329 504.426 345.303 504.407 345.567 501.508 413.593 501.528 413.329 504.426" class="color1b2142 svgShape"></polygon><polygon fill="#1b2142" points="411.194 527.889 343.168 527.869 343.431 524.971 411.458 524.991 411.194 527.889" class="color1b2142 svgShape"></polygon><polygon fill="#1b2142" points="409.059 551.352 341.032 551.332 341.296 548.434 409.323 548.453 409.059 551.352" class="color1b2142 svgShape"></polygon><polygon fill="#1b2142" points="406.924 574.814 338.897 574.795 339.161 571.897 407.188 571.916 406.924 574.814" class="color1b2142 svgShape"></polygon><polygon fill="#1b2142" points="404.789 598.277 336.762 598.258 337.026 595.359 405.052 595.379 404.789 598.277" class="color1b2142 svgShape"></polygon><polygon fill="#1b2142" points="402.654 621.74 334.627 621.72 334.891 618.822 402.917 618.842 402.654 621.74" class="color1b2142 svgShape"></polygon><polygon fill="#1b2142" points="400.518 645.203 332.492 645.183 332.756 642.285 400.782 642.304 400.518 645.203" class="color1b2142 svgShape"></polygon><polygon fill="#1b2142" points="398.383 668.666 330.357 668.646 330.621 665.748 398.647 665.767 398.383 668.666" class="color1b2142 svgShape"></polygon><polygon fill="#1b2142" points="396.248 692.128 328.222 692.109 328.485 689.21 396.512 689.23 396.248 692.128" class="color1b2142 svgShape"></polygon><polygon fill="#1b2142" points="394.113 715.591 326.087 715.572 326.35 712.673 394.377 712.693 394.113 715.591" class="color1b2142 svgShape"></polygon><polygon fill="#1b2142" points="391.978 739.054 323.951 739.034 324.215 736.136 392.242 736.155 391.978 739.054" class="color1b2142 svgShape"></polygon><polygon fill="#1b2142" points="389.843 762.517 321.816 762.497 322.08 759.599 390.107 759.618 389.843 762.517" class="color1b2142 svgShape"></polygon><polygon fill="#1b2142" points="387.708 785.979 319.681 785.96 319.945 783.061 387.971 783.081 387.708 785.979" class="color1b2142 svgShape"></polygon><polygon fill="#1b2142" points="385.573 809.442 317.546 809.422 317.81 806.524 385.836 806.544 385.573 809.442" class="color1b2142 svgShape"></polygon><polygon fill="#1b2142" points="383.437 832.905 315.411 832.885 315.675 829.987 383.701 830.007 383.437 832.905" class="color1b2142 svgShape"></polygon><path fill="url(#c)" d="M347.7071,477.355c-3.3527-.0008-6.1306,1.84858-6.347,4.2254l-33.5547,368.73c-.2365,2.6031,2.6704,4.8074,6.3423,4.80819,3.3528.00081,6.1305-1.84759,6.3471-4.22539l33.5546-368.72979C354.2863,479.56032,351.379,477.35652,347.7071,477.355Z"></path><path fill="url(#h)" d="M413.7192,477.37422c-3.3528-.0008-6.1307,1.8478-6.3471,4.22538l-33.5549,368.73c-.2368,2.60311,2.6705,4.80661,6.3423,4.80821,3.3528.0007,6.1307-1.8484,6.3471-4.2254L420.0613,482.1826C420.2978,479.57942,417.3908,477.37492,413.7192,477.37422Z"></path><path fill="#1b2142" d="M402.9658 829.74431l-6.2952 5.3255-53.7922.0435 6.851-5.796q-6.4269-.01307-13.0896.1987l-25.1451 21.2728c-2.371 2.0063-1.2404 3.7019 2.4675 3.6987 3.3859-.00291 7.7057-1.4302 9.8719-3.2627l16.4032-13.8777 53.7932-.04351-15.8761 13.43131c-2.3717 2.0063-1.2399 3.7014 2.4674 3.69869 3.3857-.00289 7.7064-1.43069 9.872-3.26269l25.3428-21.4398zM677.5304 655.25172l1.7478.2291a1.35318 1.35318 0 001.4304-1.2585l.144-1.0994a1.47032 1.47032 0 00-.4714-1.314l9.7563-36.7052s-9.6142-51.2305-26.6696-58.3727a6.99073 6.99073 0 00-4.8765-.271 31.61914 31.61914 0 00-9.3455-2.3389l-.0151.0839c-.8757-.1792-1.7915-.33742-2.7402-.4681a5.2329 5.2329 0 00-.5887-.3864l.3541-7.7481a14.99651 14.99651 0 002.5739-2.2429c-.0547.2343-.0898.3695-.0898.3695a19.83793 19.83793 0 005.063-7.9815c.1274.0325.248.0792.3808.1002a4.20217 4.20217 0 004.2764-6.31612 6.36979 6.36979 0 00-.917-11.18128 5.42439 5.42439 0 00.1748-.6658 5.33608 5.33608 0 00-3.6765-5.9161 5.0519 5.0519 0 00-4.2429-5.3132 4.971 4.971 0 00-.5188-.029 6.37474 6.37474 0 00-11.1214-3.1225 5.01921 5.01921 0 00-7.8637 1.6954 3.27239 3.27239 0 00-5.7888 1.5477l-.0008.0129c-8.3159 2.9814-13.2734 15.2064-1.6955 16.8938a15.82563 15.82563 0 003.395.03908c-.1712.83292-.3486 1.76752-.5186 2.77412-.0898.51988-.1775 1.0603-.2612 1.6146l-1.4519-.1459c-.1821-.4742-.4336-.78282-.7505-.833-.9043-.1429-1.9612 1.7894-2.3603 4.3155s.0107 4.6898.9155 4.8328 1.9614-1.7892 2.3603-4.3152a10.967 10.967 0 00.1104-2.707l.9922.1567q-.07845.59355-.1472 1.20238c-.7317 1.68492-2.3155 5.87442-.3294 6.49872.137 5.2715 1.4793 10.003 5.5574 11.1862a19.29439 19.29439 0 002.8642.5759l-1.0417 4.0126a2.75025 2.75025 0 00-1.8587 2.2898 2.57911 2.57911 0 00.0105.32078c-.4731.258-.9497.53722-1.4311.85622-.1172.0579-.2334.1215-.3503.1817a20.10349 20.10349 0 012.122-2.9504c-9.1833 5.3078-14.4802 12.0869-17.4577 18.8454a23.59938 23.59938 0 00-1.1646 2.2539c-2.3574 5.4121-9.7546 47.2598-9.7546 47.2598l-18.313 24.2128a1.46824 1.46824 0 00-1.1746.4897l-.7422.8236a1.35286 1.35286 0 00-.0285 1.9045l.7361.6635c-.1294.2172-.221.3724-.2872.485l-.0749-.079s-2.8125 2.2731-4.1243 1.911c-1.312-.3616-6.5593-1.81-6.5473.108.0127 1.9179 3.1264 2.7582 3.1264 2.7582a10.064 10.064 0 00-5.2007 7.9829c-.7421 5.9841 7.5257 1.8835 10.4566-1.0984 2.1921-2.2306 4.8201-5.081 6.0054-6.3762.2768-.2221.8095-.6498 1.5634-1.2585l1.4888 1.3419a1.35248 1.35248 0 001.8911-.2245l.7422-.8237a1.4548 1.4548 0 00.3442-1.3382l10.5105-8.9924a45.56885 45.56885 0 00-.6147 11.213c-.1133 1.56518-.1995 3.0839-.2524 4.5396-.6482 3.9512-1.1658 7.3437-1.5242 9.9753a13.16154 13.16154 0 002.0686 1.2411 15.20038 15.20038 0 00.6257 2.31 11.16441 11.16441 0 003.5528.5874l-.3526 74.3605-2.5002 67.55849s-.6526.7411 1.5691 1.6705c.0029.7526.007 1.3996.0112 1.9212l-.1289.0072s-2.2632.5366-1.5955 4.3698c0 0-14.3249.7223-16.2346 4.73909-2.3357 4.91441 4.521 4.72851 4.521 4.72851s15.0454 2.221 21.8284-1.1753c0 0 2.2951-2.9899 1.5949-6.2666a20.52549 20.52549 0 00-3.0681-6.4693c.0552-.2534.1138-.5235.1751-.80731a4.17363 4.17363 0 002.3081-1.17549L625.2984 748.116a298.45329 298.45329 0 018.0913-32.0648l5.5018 33.8491 8.6845 67.03928s-.5212.84071 1.8257 1.39171c.127.7418.238 1.37929.3281 1.8931l-.1259.0284s-2.1436.903-.8521 4.5734c0 0-14.0098 3.0771-15.2295 7.3537-1.4927 5.2325 5.2393 3.9173 5.2393 3.9173s15.2055-.293 21.3344-4.762c0 0 1.7701-3.328.5386-6.4444a20.522 20.522 0 00-4.0935-5.8735c.0127-.2603.0259-.5376.0396-.8291a4.19 4.19 0 002.0827-1.5383l-.924-70.225s.3693-22.0085 4.0649-41.3142c2.4485-12.7907 5.8686-18.1248 7.6843-24.0857 9.2068-1.4398 18.709-3.8969 16.4351-7.7732A107.89787 107.89787 0 01677.5304 655.25172z" opacity=".2" class="color1b2142 svgShape"></path><path fill="url(#i)" d="M731.3367,295.2823l.0305.17H595.1538a39.13975,39.13975,0,0,1,0-78.2795c.1235,0,.2471.0149.3705.0149a63.93752,63.93752,0,0,1,126.4423,13.4612c0,.8646-.0309,1.7133-.0619,2.547a32.19607,32.19607,0,0,1,6.2675-.6174,31.4319,31.4319,0,0,1,3.1645,62.7038Z"></path><path fill="url(#j)" d="M730.4413,270.0586a31.38056,31.38056,0,0,1-12.9203,25.3937H595.1538a39.13975,39.13975,0,0,1,0-78.2795c.1235,0,.2471.0149.3705.0149a64.02755,64.02755,0,0,1,35.2729-44.3956A63.95209,63.95209,0,0,1,692.8064,236.7c0,.8646-.0309,1.7133-.0614,2.5624a31.06341,31.06341,0,0,1,6.267-.6329A31.43819,31.43819,0,0,1,730.4413,270.0586Z"></path><rect width="26.882" height="41.129" x="643.907" y="215.041" fill="#ffffff" class="colorfff svgShape"></rect><polygon fill="#ffffff" points="657.348 278.482 681.603 247.543 633.093 247.543 657.348 278.482" class="colorfff svgShape"></polygon><path fill="#e9aa8e" d="M292.0383,575.07822s-1.1919,9.9986-2.0964,22.1299c-.9581,12.9739-1.596,28.3694-.0943,36.5434,2.8483,15.5246,12.7829,37.628,13.1777,38.4886a.04.04,0,0,1,.0086.0272l2.7304-.2333s-3.7383-51.8725-5.9472-59.8085c-1.4415-5.161.6647-17.8922,2.3133-26.1825l.0039-.0251.041-.26432c.8738-4.29878,1.59-7.33278,1.59-7.33278Z" class="colore9aa8e svgShape"></path><path fill="#d0876a" d="M289.9419,597.20812c-.9581,12.9739-1.596,28.3694-.0943,36.5434,2.8483,15.5246,12.7829,37.628,13.1777,38.4886a116.60661,116.60661,0,0,0-5.3778-19.488c-3.4365-8.5-4.7134-33.8096-2.7264-41.6221,1.9743-7.8143.4186-20.4569,3.5195-21.6639a6.40387,6.40387,0,0,0,3.6898-3.4231l.0039-.0251c.063-.1576.0893-.2438.0893-.2438l-.0483-.02052-8.1464-3.40508S291.9971,589.12282,289.9419,597.20812Z" opacity=".55" class="colord0876a svgShape"></path><path fill="#6f6eb2" d="M280.4623,536.09682s18.8419,3.8593,26.1007,49.3909c0,0-16.6374,3.4526-18.3823-2.1723C286.4356,577.69052,280.4623,536.09682,280.4623,536.09682Z" class="color6f6eb2 svgShape"></path><path fill="#e9aa8e" d="M303.0372,672.26632s-2.7046,2.61428-2.4749,4.8326c.2299,2.2181,2.0333,8.3564,5.0585,5.1505,3.025-3.2059,5.585-7.8859.1478-10.2119Z" class="colore9aa8e svgShape"></path><path fill="#d0876a" d="M307.2953,675.9046s-2.161-.50788-2.4954-2.053C304.7999,673.8516,304.0453,676.49112,307.2953,675.9046Z" class="colord0876a svgShape"></path><path fill="#d0876a" d="M307.9349,677.21012s-3.9409-1.99052-4.5947-1.4793c-.6538.511-2.4558,3.48578-1.181,5.1387,0,0,.0423-3.4778,1.4304-4.5258Z" class="colord0876a svgShape"></path><polygon fill="#e9aa8e" points="280.681 819.361 281.66 830.837 273.804 831.395 271.747 819.348 280.681 819.361" class="colore9aa8e svgShape"></polygon><path fill="#fad1de" d="M281.2184,825.70281c.6398,1.3419.1359,5.3164.1359,5.3164l-7.3075.3678s-2.0161-4.97541-1.1021-5.2102C276.6091,825.23521,279.802,824.52911,281.2184,825.70281Z" class="colorfad1de svgShape"></path><path fill="#312c58" d="M275.9172,838.56221c2.1211,1.1343,24.8427-2.7772,26.1573-5.6642,1.3025-2.8835-1.5765-3.3269-1.5765-3.3269s-.1853-.0003-.5247.0161c-2.175.0328-10.5788.0401-13.7884-1.7128-3.718-2.0064-5.4102-3.2617-5.1595-1.5326.2668,1.7382-3.0105,5.7363-6.0508,4.1604-1.7717-.9284-1.8834,1.5786-1.2389,4.0439l.0033.0123C274.1892,836.33741,275.0313,838.09781,275.9172,838.56221Z" class="color312c58 svgShape"></path><path fill="#203a6f" d="M287.9083,628.4016s17.2717,26.48622-6.568,191.66891c-.3569,2.473-9.2966,4.1376-9.8486,1.7008-27.6461-122.06209-31.3842-155.434-25.4421-182.80739S287.9083,628.4016,287.9083,628.4016Z" class="color203a6f svgShape"></path><path fill="#0f4c86" d="M237.818,789.94321c-11.6118-17.81969-19.9002-46.72-21.8401-51.64.66-59.42,4.5801-82.24,12.88-100.88,11.39-25.59,43.13-1.81,43.13-1.81S281.9078,660.97322,237.818,789.94321Z" class="color0f4c86 svgShape"></path><path fill="#6f6eb2" d="M281.3796,662.69452a95.16318,95.16318,0,0,1-34.0612,5.0699c-15.1074-.5733-18.7281-5.2546-21.3393-9.5346-2.7132-4.4583-1.8097-43.3639,1.362-76.0494,1.9235-19.7822-3.2696-37.75782.6282-42.4451,10.3178-12.4578,33.8194-7.9741,33.8194-7.9741,11.0947,1.4139,21.3912,4.2517,24.5758,12.7352S311.6196,652.36412,281.3796,662.69452Z" class="color6f6eb2 svgShape"></path><path fill="url(#k)" d="M295.2463,650.952c-4.3923,16.9287-14.8114,18.1134-19.7486,17.8968l-15.1864.9173c-2.463.75148-6.2424.8659-10.4873.4456-8.2172-.8023-18.137-3.6556-23.3468-7.9103-8.8981-7.2605-2.0201-61.97-2.0201-61.97,1.4754,3.5285,4.2563,4.07618,7.3775,2.7896,6.2876-2.5859,13.9261-12.61042,14.8682-20.4952.9874-8.2416,4.0521-36.0995,3.2348-42.6848-.8059-6.5857-4.3471-8.39442-4.3471-8.39442l5.5615-.80228s2.8375,1.1335,3.2688,10.5976c.261,5.5284-.681,10.5854.4312,16.4704a28.16522,28.16522,0,0,0,1.4413,5.0697,10.22988,10.22988,0,0,0,8.9211,6.8274c4.211.1786,8.07-2.586,9.7497-6.9166a32.68822,32.68822,0,0,0,2.4856-10.3687c.1022-10.4323-2.4174-14.8143-.3972-17.3619a.74856.74856,0,0,1,.3972-.2802c.8512-.3695,2.497.0384,3.3371,2.2038.7944,2.0505-.1024,32.0867,2.3265,48.1366,2.429,16.037,15.3792,17.7056,16.4573,20.7248C300.6489,608.87852,300.6489,630.21472,295.2463,650.952Z"></path><path fill="#e68d00" d="M278.5278,559.69772c-.6694,9.52788-7.4113,16.0365-15.0953,16.0365-7.6952,0-8.9096-17.5527-8.9096-17.5527l.3291-.3692a28.16522,28.16522,0,0,0,1.4413,5.0697,10.22988,10.22988,0,0,0,8.9211,6.8274c4.211.1786,8.07-2.586,9.7497-6.9166a32.68822,32.68822,0,0,0,2.4856-10.3687c.1022-10.4323-2.4174-14.8143-.3972-17.3619a.74856.74856,0,0,1,.3972-.2802,2.46293,2.46293,0,0,1-.1362,1.1462C276.644,538.0556,279.2088,550.1566,278.5278,559.69772Z" opacity=".25" class="colore68d00 svgShape"></path><path fill="#e68d00" d="M249.824,670.21172c-8.2172-.8023-18.137-3.6556-23.3468-7.9103-8.8981-7.2605-2.0201-61.97-2.0201-61.97,1.4754,3.5285,4.2563,4.07618,7.3775,2.7896q.05085.0765.1021.153s-8.6941,5.4518-3.6433,21.7944C232.3906,638.27782,254.852,659.80482,249.824,670.21172Z" opacity=".15" class="colore68d00 svgShape"></path><path fill="#574a9d" d="M293.7602,586.83112s-1.0641-18.79-4.0909-25.9031c0,0,5.4956,16.1983,5.2119,25.9598Z" class="color574a9d svgShape"></path><path fill="#d0876a" d="M255.2605,508.47912s-1.6269,1.0973-1.2108,1.9297c.4163.8323.9081,1.816.9081,1.816a4.67182,4.67182,0,0,1-.416-2.00522C254.6929,509.53842,255.6767,508.85742,255.2605,508.47912Z" class="colord0876a svgShape"></path><path fill="#e9aa8e" d="M270.6252,533.91552l-1.3589-8.5113-8.4653-.6143-2.6769,8.4063s3.1373,10.2189,6.3116,10.3185C267.4536,543.60982,270.6047,534.70312,270.6252,533.91552Z" class="colore9aa8e svgShape"></path><polygon fill="#433a87" points="267.273 536.307 264.74 544.16 271.643 537.726 267.273 536.307" class="color433a87 svgShape"></polygon><path fill="#574a9d" d="M276.2839,542.86132l-9.215-6.5983,3.0988-5.0635,5.1076,2.9512S273.5508,537.33992,276.2839,542.86132Z" class="color574a9d svgShape"></path><polygon fill="#433a87" points="261.144 536.08 264.06 544.142 257.625 537.613 261.144 536.08" class="color433a87 svgShape"></polygon><path fill="#574a9d" d="M256.2023,542.75522l5.3445-6.63562-2.6162-5.82838-5.3349,1.7027S259.2183,537.3836,256.2023,542.75522Z" class="color574a9d svgShape"></path><path fill="#d0876a" d="M269.6571,528.19132s-3.4621,5.335-5.4485,3.3486a9.66717,9.66717,0,0,0-4.7105-2.4405l1.0783-3.5185Z" opacity=".55" class="colord0876a svgShape"></path><path fill="#121e3c" d="M278.9792,502.9146c-.584-3.84738-29.0912-11.46138-27.1654,5.25692,1.0499,9.112,4.4015,9.7657,4.4015,9.7657l19.7966-1.5288S280.5276,513.1116,278.9792,502.9146Z" class="color121e3c svgShape"></path><path fill="#e9aa8e" d="M255.3741,514.07872c.828,3.0953.7283,12.4835,9.5174,14.9803,8.802,2.5094,11.1583-14.3557,11.0821-15.4893a5.391,5.391,0,0,0-.14-.9553c-1.134-5.0317-8.4837-3.5921-13.7189-3.605-.1909,0-.3822-.0126-.5604-.0126-5.554-.153-5.4992-1.1987-5.4992-1.1987s-1.6905-1.6546-2.8661.95548C251.4529,512.60812,255.3741,514.07872,255.3741,514.07872Z" class="colore9aa8e svgShape"></path><path fill="#d0876a" d="M257.9658,513.77612s5.843-1.7606,9.588-2.8941c3.745-1.1337,7.719,1.5921,7.719,1.5921a3.22666,3.22666,0,0,0,.5608.1403c-.5299-5.819-11.4692-3.9333-16.7044-3.9461A34.83576,34.83576,0,0,0,257.9658,513.77612Z" opacity=".55" class="colord0876a svgShape"></path><path fill="#121e3c" d="M259.4981,507.13612s-1.4766,10.94048-1.9613,7.74848c-.4847-3.19168-3.0919-6.70408-1.6709-8.25938C256.4844,505.94822,259.4981,507.13612,259.4981,507.13612Z" class="color121e3c svgShape"></path><path fill="#312c58" d="M278.5671,511.80872s-2.4214-7.34012-15.8909-4.6917C262.6762,507.117,277.5834,498.188,278.5671,511.80872Z" opacity=".5" class="color312c58 svgShape"></path><path fill="#feaa32" d="M252.0403,504.50372a14.15779,14.15779,0,0,1,8.9292-2.4215c6.8255.4535,15.8734,4.0387,17.4044,3.78338,2.7239-.45378.6051-11.52408-6.5834-13.62058C255.4454,487.47782,249.5432,499.28242,252.0403,504.50372Z" class="colorfeaa32 svgShape"></path><path fill="#ea9024" d="M260.3642,502.00652s15.2097-1.7595,19.069-.1702c3.8592,1.5891,9.0049,4.02928-1.0593,4.02928A45.56,45.56,0,0,1,260.3642,502.00652Z" class="colorea9024 svgShape"></path><path fill="#d88225" d="M265.6234,502.574s12.183,2.6108,14.3774,1.9674c2.1943-.6432-1.8162-2.3457-1.8162-2.3457Z" class="colord88225 svgShape"></path><path fill="#d88225" d="M260.2128,491.79092s8.248,3.481,7.1889,9.3834l7.7939-.3028s-1.7165-6.8826-6.1765-8.6833A13.77123,13.77123,0,0,0,260.2128,491.79092Z" opacity=".5" class="colord88225 svgShape"></path><polygon fill="url(#l)" points="313.853 556.799 306.802 556.163 307.833 552.19 314.823 552.941 313.853 556.799"></polygon><path fill="url(#m)" d="M321.9025,556.10922l-23.1856-2.2403a2.31193,2.31193,0,0,0-2.3174,1.7023l-12.9981,47.965c-.3124,1.152.3423,1.99038,1.4536,1.871l25.7434-2.7667a2.69756,2.69756,0,0,0,2.06-2.02092L322.9591,557.931A1.36267,1.36267,0,0,0,321.9025,556.10922Z"></path><path fill="#182e69" d="M320.1392,558.51742l-19.9273-1.696a1.98628,1.98628,0,0,0-1.9611,1.4733l-10.9004,40.6475c-.2597.9687.285,1.6872,1.2107,1.6038l21.7928-1.961a2.26912,2.26912,0,0,0,1.7732-1.7072l8.9336-36.7941A1.166,1.166,0,0,0,320.1392,558.51742Z" opacity=".25" class="color182e69 svgShape"></path><path fill="#e9aa8e" d="M217.3227,550.433s.4311,6.4793,1.6439,14.6034c1.6906,11.3089,4.9215,25.8135,10.6792,30.4657a7.183,7.183,0,0,0,.818.5949c2.161,1.3355,5.8539,1.65558,10.3768,1.2995,17.5673-1.3796,47.5203-12.8207,47.5203-12.8207s-.4501-5.5546-1.3125-5.301c-.865.2714-42.5821,2.03778-44.0514-.6844-.6317-1.1513-.061-6.2643.128-11.9666.1493-4.8259.0142-10.09122-1.3777-13.7025C240.9328,550.79,217.3227,550.433,217.3227,550.433Z" class="colore9aa8e svgShape"></path><path fill="#d0876a" d="M218.9666,565.03642c1.6906,11.3089,4.9215,25.8135,10.6792,30.4657,1.0936-6.1957,4.1731-17.8723,7.8512-17.9726,3.9153-.1038,5.5,1.0609,5.5,1.0609-.6317-1.1513-.061-6.2643.128-11.9666-1.2558-2.8197-4.9698-2.7245-13.6241-3.9218C223.5588,561.88,220.6385,562.87622,218.9666,565.03642Z" opacity=".55" class="colord0876a svgShape"></path><path fill="#e9aa8e" d="M291.2153,572.74992a60.75781,60.75781,0,0,1-4.1669,6.5249l1.3125,5.301a.0392.0392,0,0,1,.0279-.0054c.5756-.0201,9.9011-.385,15.4539-4.5724,5.7181-4.3282-11.3615-3.845-11.3615-3.845a.4394.4394,0,0,0,.0023-.0818C292.5619,575.30932,293.0173,569.45292,291.2153,572.74992Z" class="colore9aa8e svgShape"></path><path fill="#6f6eb2" d="M241.9647,532.77532s6.9033,14.1351,3.0313,42.1206c0,0-25.8126,4.344-27.9135-1.2692C204.4631,539.90272,241.9647,532.77532,241.9647,532.77532Z" class="color6f6eb2 svgShape"></path><path fill="#d0876a" d="M301.2814 577.19282s-6.3389.1255-6.3651.571S301.2814 577.19282 301.2814 577.19282zM304.3119 578.328s-8.615.0403-9.0487.7703S304.3119 578.328 304.3119 578.328zM295.4823 581.01492c.1556.4498 7.5204-1.11532 7.5204-1.11532S295.327 580.56492 295.4823 581.01492zM295.2393 582.36752c.4553.3386 4.2092-.3786 4.8653-.837C300.1046 581.53052 294.7835 582.02882 295.2393 582.36752z" class="colord0876a svgShape"></path><path fill="#203a6f" d="M243.8374,574.84032s-3.1781-9.3832-2.8755-16.4963C240.9619,558.344,238.6919,570.14882,243.8374,574.84032Z" class="color203a6f svgShape"></path><path fill="#6f6eb2" d="M241.7186 627.81012s4.0862 19.9772 0 25.8794C241.7186 653.68952 251.2532 652.32752 241.7186 627.81012zM295.0318 624.39432s-4.0862 19.9772 0 25.8794C295.0318 650.27372 285.4972 648.91172 295.0318 624.39432z" class="color6f6eb2 svgShape"></path><path fill="#28264a" d="M624.5393,830.79591s2.2951-2.9899,1.5948-6.2666a21.3493,21.3493,0,0,0-3.2851-6.7762l-6.8291.3806s-2.2631.5367-1.5953,4.36989c0,0-14.3251.72221-16.2346,4.73911-2.3358,4.9144,4.5209,4.7284,4.5209,4.7284S617.7564,834.19211,624.5393,830.79591Z" class="color28264a svgShape"></path><path fill="#f5b297" d="M629.6143,771.19022s-4.8893-6.7749-9.4916-1.357c-4.6024,5.41849-3.9583,49.80259-3.9583,49.80259a6.45365,6.45365,0,0,0,6.2971,1.1549S631.4428,781.317,629.6143,771.19022Z" class="colorf5b297 svgShape"></path><path fill="#28264a" d="M619.1061,817.10141c4.7359,1.0904,6.4432-1.0242,6.4432-1.0242L636.2326,746.657a288.7134,288.7134,0,0,1,9.7581-37.0616c.3417-1.0133.7051-2.0155,1.0689-3.007,6.8283-18.4369,13.0508-19.7477,14.4829-32.8102,0,0-28.9225-22.6995-44.0443-17.3905l-.4295,90.5887-2.5002,67.55849S613.434,815.802,619.1061,817.10141Z" class="color28264a svgShape"></path><path fill="#231f20" d="M636.2326,746.657a288.7134,288.7134,0,0,1,9.7581-37.0616l-4.6695-35.1562Z" opacity=".65" class="color231f20 svgShape"></path><path fill="#28264a" d="M671.0303,829.87631s1.77-3.328.5384-6.4445a21.35139,21.35139,0,0,0-4.3584-6.1406l-6.6723,1.5026s-2.1435.9031-.8521,4.5735c0,0-14.0096,3.0771-15.2295,7.3536-1.4926,5.2326,5.2395,3.9174,5.2395,3.9174S664.9014,834.34531,671.0303,829.87631Z" class="color28264a svgShape"></path><path fill="#f5b297" d="M666.1968,770.25032s-5.9403-5.8751-9.5854.2288c-3.6448,6.10329,4.3172,49.77248,4.3172,49.77248a6.45391,6.45391,0,0,0,6.4011.09991S669.6717,779.93651,666.1968,770.25032Z" class="colorf5b297 svgShape"></path><path fill="#28264a" d="M681.6082,668.90152s-32.2734-17.6055-46.3171-9.8834l14.5345,89.4233,8.6846,67.03929s-.9094,1.4392,4.897,1.7858c4.8504.2896,6.1903-2.0755,6.1903-2.0755l-.924-70.225s.3695-22.0085,4.0649-41.3143C676.4341,684.346,682.3474,682.02922,681.6082,668.90152Z" class="color28264a svgShape"></path><path fill="#f5b297" d="M617.599,620.69342c7.6456.3563,13.2757,4.9253,7.2673,10.1423-13.8526,12.028-28.0657,23.3893-28.0657,23.3893l-3.5254-5.2007S609.9529,620.3376,617.599,620.69342Z" class="colorf5b297 svgShape"></path><path fill="#f5b297" d="M593.3093,648.75942s-2.8126,2.2731-4.1242,1.911c-1.3121-.3616-6.5594-1.81-6.5473.1079.0124,1.918,3.1262,2.75828,3.1262,2.75828a10.06379,10.06379,0,0,0-5.2006,7.98292c-.7423,5.984,7.5256,1.8834,10.4565-1.0984,2.9305-2.9819,6.6413-7.0731,6.6413-7.0731Z" class="colorf5b297 svgShape"></path><path fill="#ffffff" d="M637.0222,560.46572a7.2543,7.2543,0,0,1,6.0621,3.3746c9.9925,15.5582-11.157,63.1998-11.157,63.1998L600.9597,653.5346l-7.3589-7.37048,19.5927-25.9049s7.3972-41.84762,9.7546-47.2598C624.638,569.13552,630.5548,560.1776,637.0222,560.46572Z" class="colorfff svgShape"></path><path fill="#231f20" d="M602.7604,651.94022a8.49723,8.49723,0,0,0,.7258-.5673l-6.787-9.3052-2.1945,2.9483Z" opacity=".2" class="color231f20 svgShape"></path><path fill="#ffffff" d="M595.5974,644.737l7.1421,6.4385a1.35277,1.35277,0,0,1-.0286,1.9045l-.7423.8238a1.35247,1.35247,0,0,1-1.8911.2244l-7.1423-6.4383a1.35305,1.35305,0,0,1,.0286-1.9045l.7421-.8236A1.35273,1.35273,0,0,1,595.5974,644.737Z" class="colorfff svgShape"></path><path fill="#efe9dc" d="M657.4275,554.49332s21.2707,4.5666,24.9933,11.2952c7.7533,14.0153.6933,102.5957-3.5614,104.2703-4.2551,1.6745-55.2527,7.69878-67.6851-1.5814,3.2015-23.51982,19.047-107.46582,28.6226-113.8076A15.40281,15.40281,0,0,1,657.4275,554.49332Z" class="colorefe9dc svgShape"></path><path fill="#ffffff" d="M675.7406,562.22732l-5.8725-6.3301s-19.8491-9.8832-34.3726,1.478c-14.5351,11.3672-11.1147,26.0696-11.1147,26.0696s4.3524,27.7184-1.0139,34.7269c-8.2964,10.8356-15.4796,37.0664-6.1368,47.2285,9.0403,9.83338,47.2973,16.004,57.683-2.1671,10.3968-18.1642-2.3215-49.788-2.3215-49.788Z" class="colorfff svgShape"></path><path fill="#231f20" d="M658.6603,562.64512s-6.1895,43.8162-10.2394,57.5762c-4.0502,13.7602,8.2911,43.4176,6.5993,48.9094-1.6916,5.4923-8.1076,5.8777-8.1076,5.8777s22.149,11.5918,28.723,1.2345C682.2098,665.88532,658.6603,562.64512,658.6603,562.64512Z" opacity=".2" class="color231f20 svgShape"></path><path fill="url(#n)" d="M660.18,552.66222s-14.2146,78.5831,4.8199,128.6159c0,0,36.0625-2.3174,31.858-9.4852-24.0641-41.0218-14.0653-89.7526-14.0653-89.7526S687.3216,555.50282,660.18,552.66222Z"></path><path fill="url(#o)" d="M613.8685,672.02852c5.4591,1.911,11.7176-1.3677,11.7176-1.3677-12.4436-33.1673,8.6331-60.7317,10.8353-106.2181a20.17869,20.17869,0,0,1,1.4901-6.5512,21.65864,21.65864,0,0,1,3.6591-5.9914c-28.5987,16.52948-19.6331,47.3288-19.6331,47.3288S608.5921,657.7226,613.8685,672.02852Z"></path><path fill="#231f20" d="M629.0079,614.24242s-.8995,17.4054-3.9114,23.4466c-3.0118,6.041-1.7572,21.3751,2.5839,22.7874,4.3414,1.4126,8.8155-4.781,6.1233-12.7206-2.6921-7.9399-2.67-14.766-2.8675-24.41022S629.0079,614.24242,629.0079,614.24242Z" opacity=".1" class="color231f20 svgShape"></path><path fill="#231f20" d="M676.2802,625.24942l-.2561,26.7165s-8.5403,7.2046-6.0793,9.6762c2.4607,2.4717,8.9146,8.4167,8.9146,8.4167l10.4135-42.608L665.5885,581.55Z" opacity=".2" class="color231f20 svgShape"></path><path fill="#f5b297" d="M685.6718,616.54812c6.4979-4.04452,13.7266-3.4764,11.7387,4.2286-4.583,17.7642-9.8413,35.1838-9.8413,35.1838l-5.8539-2.2825S679.1733,620.59292,685.6718,616.54812Z" class="colorf5b297 svgShape"></path><path fill="#f5b297" d="M681.5932,653.44012s-1.0261,3.468-2.3118,3.9142-6.4282,2.2307-5.3301,3.80328c1.0982,1.57282,4.1389.49742,4.1389.49742s-5.1795,4.4061-.6595,6.3773c5.527,2.4104,8.1719.4284,8.8939-3.6898.7214-4.1183,1.4559-9.5927,1.4559-9.5927Z" class="colorf5b297 svgShape"></path><path fill="#ffffff" d="M667.4955,555.93232a7.25378,7.25378,0,0,1,6.9066-.6603c17.0554,7.1423,26.6695,58.3728,26.6695,58.3728l-10.4691,39.3875-10.2413-1.8946,1.4361-32.4478s-17.6511-38.657-18.7805-44.4514C662.2164,570.09772,662.0063,559.3646,667.4955,555.93232Z" class="colorfff svgShape"></path><path fill="#231f20" d="M691.1807,650.69772a8.512,8.512,0,0,0,.2756-.879l-10.868-3.812-.1347,3.6728Z" opacity=".2" class="color231f20 svgShape"></path><path fill="#ffffff" d="M681.1951,648.82972l9.5345,1.2498a1.35306,1.35306,0,0,1,1.0572,1.5845l-.144,1.0994a1.35323,1.35323,0,0,1-1.4304,1.2584l-9.5338-1.2498a1.35289,1.35289,0,0,1-1.057-1.5846l.1441-1.099A1.35245,1.35245,0,0,1,681.1951,648.82972Z" class="colorfff svgShape"></path><path fill="#232750" d="M672.219,523.72642a6.38,6.38,0,0,0-3.7416-6.835,5.39491,5.39491,0,0,0,.1748-.6659,5.336,5.336,0,0,0-3.6765-5.916,5.052,5.052,0,0,0-4.243-5.3133,4.97244,4.97244,0,0,0-.5186-.0289,6.3748,6.3748,0,0,0-11.1214-3.1226,5.01953,5.01953,0,0,0-7.8639,1.6955,3.28222,3.28222,0,1,0-.0554,4.1897,5.05766,5.05766,0,0,0,7.5991,2.0535,6.37722,6.37722,0,0,0,6.6192,2.4375,5.06357,5.06357,0,0,0,2.6821,2.4865,5.32509,5.32509,0,0,0,2.2083,5.0296,6.35628,6.35628,0,0,0,1.9458,8.1973,4.22854,4.22854,0,1,0,7.1664.1384A6.3593,6.3593,0,0,0,672.219,523.72642Z" class="color232750 svgShape"></path><path fill="#241352" d="M641.2194,553.49192c-.1587,2.5872,3.6085,4.9242,8.4138,5.2189s8.8301-1.5635,8.9888-4.15122c.1589-2.58778-3.5947-3.87608-8.4-4.17048C645.4165,550.09392,641.3783,550.90432,641.2194,553.49192Z" opacity=".2" class="color241352 svgShape"></path><path fill="#ffafa9" d="M657.528,536.75042l-.7615,16.6621a7.32591,7.32591,0,0,1-8.5621,3.3909c-5.9025-1.6674-5.1429-5.5375-5.1429-5.5375l2.7352-10.5358Z" class="colorffafa9 svgShape"></path><path fill="#e8908e" d="M655.8149,544.94412s-7.8306,6.5739-12.4659,5.4687l.8008-3.3103Z" class="colore8908e svgShape"></path><path fill="#ffafa9" d="M662.5104,536.43192c-.9474,6.983-10.9863,13.1524-21.2549,10.1816-6.8698-1.9931-5.976-14.0551-4.6352-21.8057.2026-1.1998.4163-2.3071.6168-3.2481.4399-2.0447.8015-3.34912.8015-3.34912s12.4973-3.66748,16.6125-2.62848C658.7663,516.62152,663.4601,529.43622,662.5104,536.43192Z" class="colorffafa9 svgShape"></path><path fill="#e8908e" d="M654.1148,529.56852c-1.8012-1.0758-4.4734-8.708-4.4734-8.708-1.3893,2.0628-8.1343,3.3056-13.0211,3.9473.2026-1.1998.4163-2.3071.6168-3.2481l15.2248-4.1052S655.9142,530.65632,654.1148,529.56852Z" opacity=".5" class="colore8908e svgShape"></path><path fill="#232750" d="M651.0452,519.01292s-11.8192,3.78068-17.3013,2.9816c-13.2218-1.92692-4.8795-17.5974,5.4029-17.5487a29.39579,29.39579,0,0,1,21.3768,9.0135s4.4949-1.78272,5.5751,6.9995c1.8363,14.9274-6.4243,21.8113-6.4243,21.8113s2.3394-8.9267-.5434-13.1204c-1.5411-2.2425-4.5548-2.3266-4.3999.3902.0017.0364.0043.0734.007.1098C655.0348,533.32292,651.326,522.94612,651.0452,519.01292Z" class="color232750 svgShape"></path><path fill="#28264a" d="M654.6116,527.50232l-13.424.8535c-.1318-1.1103-.482-1.8779-1.0041-1.9603a.93982.93982,0,0,0-.7634.3344l-4.513-.4534c-.1819-.4742-.4336-.7828-.7504-.833-.9045-.143-1.9612,1.7894-2.3605,4.3155-.3991,2.5261.0109,4.6897.9156,4.8327s1.9616-1.78912,2.3605-4.31512a10.98172,10.98172,0,0,0,.1104-2.707l3.3698.53232a10.97507,10.97507,0,0,0-.7295,2.609c-.399,2.5263.0109,4.69.9154,4.8328.9048.1428,1.9616-1.789,2.3605-4.3155.0521-.329.0889-.6512.1143-.9644l12.6228-1.4584Z" class="color28264a svgShape"></path><path fill="#ffafa9" d="M636.3461,528.22842s-3.5044,7.14418-.2003,7.2858C639.4492,535.656,636.3461,528.22842,636.3461,528.22842Z" class="colorffafa9 svgShape"></path></svg>
