<svg xmlns="http://www.w3.org/2000/svg" enable-background="new 0 0 5500 4000" viewBox="0 0 5500 4000"><path fill="#a7daf8" d="M4545.402 3029.425s543.192-26.721 543.192 293.143-1331.73 255.891-2102.852 255.891h-123.999c-771.121 0-2433.487 63.973-2433.487-255.891s543.192-293.143 543.192-293.143h3573.954z" class="colora7daf8 svgShape"/><path fill="#b3e0ff" d="M4725.191 3029.425H791.659s-319.799-147.594-370.967-559.978c-41.037-330.738 31.98-761.324 672.237-935.456 461.86-152.942 575.825-45.316 1241.624-759.046 479.237-513.738 2618.96-704.74 2638.34 1258.161 5.421 549.065-247.702 996.319-247.702 996.319z" class="colorb3e0ff svgShape"/><path fill="#b3e0ff" d="M1942.63 497.117s138.936 148.713 7.044 397.927-520.68 592.547-921.964 496.627c-401.284-95.92-431.766-611.208-119.148-730.859 231.906-88.759 450.39 63.306 593.418-110.106s382.735-165.264 440.65-53.589z" class="colorb3e0ff svgShape"/><path fill="#a2d6f5" d="M4203.729 661.256h-68.266c-8.603 0-15.577 6.493-15.577 14.503v2405.972c0 4.211 3.667 7.625 8.189 7.625h83.041c4.523 0 8.189-3.414 8.189-7.625V675.76c.001-8.01-6.973-14.504-15.576-14.504z" class="colora2d6f5 svgShape"/><path fill="#a2d6f5" d="M4779.76 1174.45h-621.21v56.569h649.42a1428.606 1428.606 0 0 0-28.21-56.569z" class="colora2d6f5 svgShape"/><path fill="#a2d6f5" d="M4800.03 1214.467c-18.939-38.877-39.221-76.082-60.757-111.647v595.733h60.757v-484.086z" class="colora2d6f5 svgShape"/><path fill="#a2d6f5" d="M4940.803 1662.624H4158.55v56.568h791.193a2037.187 2037.187 0 0 0-8.94-56.568zM4971.896 2112.593H4158.55v56.569h810.529a1863.751 1863.751 0 0 0 2.817-56.569zM4923.457 2482.972H4158.55v56.569h751.508a2247.721 2247.721 0 0 0 13.399-56.569z" class="colora2d6f5 svgShape"/><path fill="#a5d5f5" d="M4310.472 3049.32h406.539s88.075-161.068 157.13-382.15h-563.669v382.15z" class="colora5d5f5 svgShape"/><path fill="#a2d6f5" d="M4888 2621.143h-585.354c-9.917 0-17.955 7.484-17.955 16.717v29.147c0 5.919 5.153 10.716 11.509 10.716h574.615a2337.295 2337.295 0 0 0 17.185-56.58z" class="colora2d6f5 svgShape"/><path fill="#a5d5f5" d="M4686.399 1583.408v72.742a6.47 6.47 0 0 1-6.47 6.471h-408.666a6.47 6.47 0 0 1-6.47-6.471v-72.741a6.47 6.47 0 0 1 6.47-6.471h408.665a6.47 6.47 0 0 1 6.471 6.47z" class="colora5d5f5 svgShape"/><path fill="#a2d6f5" d="M4686.399 1492.479v72.742a6.47 6.47 0 0 1-6.471 6.471h-408.665a6.47 6.47 0 0 1-6.47-6.471v-72.742a6.47 6.47 0 0 1 6.47-6.471h408.665a6.47 6.47 0 0 1 6.471 6.471z" class="colora2d6f5 svgShape"/><path fill="#a5d5f5" d="M4686.399 1401.549v72.742a6.47 6.47 0 0 1-6.47 6.471h-408.666a6.47 6.47 0 0 1-6.47-6.471v-72.742a6.47 6.47 0 0 1 6.47-6.471h408.665a6.47 6.47 0 0 1 6.471 6.471zM4683.835 2403.481v72.742a6.47 6.47 0 0 1-6.47 6.47H4268.7a6.47 6.47 0 0 1-6.471-6.471v-72.741a6.47 6.47 0 0 1 6.471-6.47h408.665a6.47 6.47 0 0 1 6.47 6.47z" class="colora5d5f5 svgShape"/><path fill="#a2d6f5" d="M4683.835 2312.552v72.741a6.47 6.47 0 0 1-6.471 6.471H4268.7a6.47 6.47 0 0 1-6.471-6.471v-72.741a6.47 6.47 0 0 1 6.471-6.471h408.665a6.47 6.47 0 0 1 6.47 6.471z" class="colora2d6f5 svgShape"/><path fill="#a5d5f5" d="M4683.835 2221.623v72.741a6.47 6.47 0 0 1-6.47 6.471H4268.7a6.47 6.47 0 0 1-6.471-6.471v-72.742a6.47 6.47 0 0 1 6.47-6.47h408.666a6.47 6.47 0 0 1 6.47 6.471z" class="colora5d5f5 svgShape"/><path fill="#a2d6f5" d="M4725.386 2306.081c-3.703 0-6.706 2.795-6.706 6.244v73.196c0 3.448 3.002 6.243 6.706 6.243h216.405c5-27.979 9.534-56.558 13.494-85.683h-229.899z" class="colora2d6f5 svgShape"/><path fill="#a5d5f5" d="M4725.386 2397.011c-3.703 0-6.706 2.795-6.706 6.243v73.196c0 3.448 3.002 6.244 6.706 6.244h198.133a2174.73 2174.73 0 0 0 17.333-85.683h-215.466z" class="colora5d5f5 svgShape"/><path fill="#a2d6f5" d="M4307.235 2112.612h-66.532a5.443 5.443 0 0 1-5.443-5.443v-319.353a5.443 5.443 0 0 1 5.443-5.443h66.532a5.444 5.444 0 0 1 5.444 5.443v319.353a5.444 5.444 0 0 1-5.444 5.443z" class="colora2d6f5 svgShape"/><path fill="#a5d5f5" d="M4395.461 2112.612h-66.532a5.444 5.444 0 0 1-5.444-5.443v-319.353a5.444 5.444 0 0 1 5.444-5.443h66.532a5.443 5.443 0 0 1 5.443 5.443v319.353a5.442 5.442 0 0 1-5.443 5.443z" class="colora5d5f5 svgShape"/><path fill="#a2d6f5" d="m4582.651 2092.285-62.536 20.04c-2.946.944-6.156-.514-7.17-3.257l-111.756-302.33c-1.014-2.743.552-5.732 3.499-6.676l62.536-20.04c2.946-.944 6.156.514 7.17 3.257l111.756 302.33c1.014 2.743-.553 5.732-3.499 6.676zM4379.975 1174.518h-66.532a5.443 5.443 0 0 1-5.443-5.443V849.721a5.444 5.444 0 0 1 5.443-5.444h66.532a5.443 5.443 0 0 1 5.443 5.443v319.353a5.444 5.444 0 0 1-5.443 5.445z" class="colora2d6f5 svgShape"/><path fill="#a5d5f5" d="M4468.201 1174.518h-66.532a5.443 5.443 0 0 1-5.443-5.443V849.721a5.444 5.444 0 0 1 5.443-5.444h66.532a5.443 5.443 0 0 1 5.443 5.444v319.353a5.442 5.442 0 0 1-5.443 5.444z" class="colora5d5f5 svgShape"/><path fill="#a2d6f5" d="m4533.939 843.858-56.512 18.109c-2.946.944-4.513 3.933-3.499 6.676l111.756 302.33c1.014 2.743 4.225 4.201 7.171 3.257l62.536-20.04c2.946-.944 4.512-3.933 3.499-6.676l-104.845-283.632a1290.574 1290.574 0 0 0-20.106-20.024z" class="colora2d6f5 svgShape"/><path fill="#a5d5f5" d="M4653.862 2102.651c0 5.436 4.733 9.842 10.571 9.842h307.466a1795.35 1795.35 0 0 0 .994-79.388c-.447-45.275-2.03-89.396-4.687-132.402h-314.344v201.948z" class="colora5d5f5 svgShape"/><path fill="#a2d6f5" d="M4965.879 1867.124H4637.32c-3.581 0-6.484 2.703-6.484 6.037v31.344c0 3.334 2.903 6.037 6.484 6.037h331.458c-.843-14.6-1.809-29.073-2.899-43.418z" class="colora2d6f5 svgShape"/><path fill="#a5d5f5" d="M4872.626 1662.62h68.176c-17.915-103.783-42.942-199.818-74.206-288.523v282.909c.001 3.101 2.7 5.614 6.03 5.614z" class="colora5d5f5 svgShape"/><path fill="#bfe5ff" d="M2410.671 812.499h760.076v541.683h-760.076z" class="colorbfe5ff svgShape"/><path fill="#a3daff" d="M2439.905 846.892h701.609v472.898h-701.609z" class="colora3daff svgShape"/><path fill="#b0dfff" d="M2464.839 876.125h651.74v72.224h-651.74zM2464.839 972.425h651.74v321.571h-651.74z" class="colorb0dfff svgShape"/><path fill="#a1d8fc" d="M2932.811 972.425h183.768v321.57h-183.768z" class="colora1d8fc svgShape"/><path fill="#92d7fc" d="M2557.119 972.424h6.212v320.712h-6.212zM2649.398 972.424h6.212v320.712h-6.212zM2741.678 972.424h6.212v320.712h-6.212zM2833.958 972.424h6.212v320.712h-6.212zM2926.237 972.424h6.212v320.712h-6.212zM3018.517 972.424h6.212v320.712h-6.212z" class="color92d7fc svgShape"/><path fill="#92d7fc" d="M2464.839 1045.556h652.169v6.213h-652.169zM2464.839 1127.381h652.169v6.212h-652.169zM2464.839 1209.207h652.169v6.212h-652.169zM2804.86 1138.815c-16.346-6.213-36.203-1.684-44.997 14.323-8.188 14.905-3.609 33.507 10.866 42.577 7.431 4.657 16.082 5.192 24.527 3.71 9.203-1.615 19.422-4.848 26.031-11.8 12.21-12.843 6.192-35.219-11.148-39.896-6.441-1.737-9.189 8.249-2.752 9.985 5.622 1.516 9.824 7.206 10.308 12.972.545 6.495-4.619 11.382-9.975 14.11-10.251 5.221-25.132 8.247-34.493-.078-8.289-7.372-9.326-19.438-3.114-28.486 7.25-10.56 20.85-11.668 31.994-7.432 6.235 2.369 8.931-7.637 2.753-9.985z" class="color92d7fc svgShape"/><path fill="#88cbf2" d="M2342.562 3144.051s-162.064-4.265-162.064 38.384 46.039 116.066 165.454 154.449 652.463-34.081 720.7-29.815c68.238 4.265 571.549 141.344 656.846 102.96 85.297-38.384 241.323 91.129 339.415 82.599 98.091-8.53 241.125-12.184 339.216-37.773s9.654-116.423 184.513-116.423 339.368-82.756 313.778-150.993c-25.589-68.238-510.475-118.348-638.42-131.142-127.945-12.795-228.927-4.076-322.754-4.076-93.827 0-436.646 32.123-500.619 32.123s-686.64 55.442-1096.065 59.707z" class="color88cbf2 svgShape"/><path fill="#88cbf2" d="m782.808 3113.026 538.025 264.281h92.476l1548.304-248.363-951.176-161.172h-92.476L891.615 3100.494z" class="color88cbf2 svgShape"/><path fill="#1f1f28" d="M1410.908 2908.535s-132.752-12.501-213.117 67.864h36.908s52.386-34.527 135.728-28.574l40.481-39.29z" class="color1f1f28 svgShape"/><path fill="#2b2e3a" d="M1395.43 2916.869s-142.872 9.525-171.446 163.112h27.384s26.842-106.062 205.703-153.636l-61.641-9.476z" class="color2b2e3a svgShape"/><circle cx="1209.697" cy="2994.258" r="28.574" fill="#1f1f28" class="color1f1f28 svgShape" transform="rotate(-70.67 1209.74 2994.35)"/><circle cx="1233.509" cy="3096.649" r="28.574" fill="#1f1f28" class="color1f1f28 svgShape" transform="rotate(-80.781 1233.564 3096.634)"/><circle cx="1424.652" cy="3082.8" r="28.574" fill="#1f1f28" class="color1f1f28 svgShape" transform="rotate(-45.001 1424.623 3082.831)"/><path fill="#2b2e3a" d="M1395.43 2916.869s3.572 119.06 10.715 144.062h36.909s14.306-116.777 13.106-134.587l-60.73-9.475z" class="color2b2e3a svgShape"/><path fill="#1f1f28" d="M1440.402 2908.535s132.752-12.501 213.117 67.864h-36.908s-52.386-34.527-135.728-28.574l-40.481-39.29z" class="color1f1f28 svgShape"/><path fill="#2b2e3a" d="M1454.88 2918.206s143.871 8.188 172.446 161.775h-27.384s-26.842-106.062-205.703-153.636l60.641-8.139z" class="color2b2e3a svgShape"/><circle cx="1641.613" cy="2994.258" r="28.574" fill="#1f1f28" class="color1f1f28 svgShape" transform="rotate(-19.33 1641.64 2994.32)"/><circle cx="1617.801" cy="3096.649" r="28.574" fill="#1f1f28" class="color1f1f28 svgShape" transform="rotate(-13.286 1617.37 3096.042)"/><path fill="#1f1f28" d="M1395.15 2454.797V2917.8c0 8.6 6.972 15.572 15.572 15.572h30.776c8.6 0 15.573-6.972 15.573-15.572v-460.622l-61.921-2.381z" class="color1f1f28 svgShape"/><path fill="#343541" d="M1133.392 2097.68s-9.525 74.615-12.7 101.603c-3.175 26.988-53.977 174.63 255.594 280.995 109.541 34.926 168.28 23.813 203.206 14.288 34.926-9.525 280.995-39.688 314.333-74.615 33.338-34.926 46.039-133.354-176.217-223.844-222.256-90.49-196.855-119.065-196.855-119.065l-387.361 20.638z" class="color343541 svgShape"/><path fill="#2b2e3a" d="M1911.163 2385.54c-63.887 22.22-292.539 68.393-334.846 75.687-46.039 7.938-69.852 28.576-215.906-31.751-122.27-50.503-216.723-145.508-244.243-175.111 4.497 59.501 46.54 152.528 260.118 225.912 109.541 34.926 168.28 23.813 203.206 14.288 34.926-9.525 280.995-39.688 314.333-74.615 7.87-8.243 14.587-20.028 17.338-34.41z" class="color2b2e3a svgShape"/><path fill="#212851" d="M1319.135 1561.091s-166.692-7.938-227.019 58.739c-60.327 66.677-18.093 256.434 11.113 385.773 22.225 98.428 26.988 112.716 26.988 112.716s315.921-26.988 390.535-41.276c0-.001 49.214-514.365-201.617-515.952z" class="color212851 svgShape"/><path fill="#8c4949" d="M1436.932 1295.195s-7.561 75.606 30.242 93.248v105.849h-157.513l-35.283-115.929s57.965-8.821 39.063-103.328l123.491 20.16z" class="color8c4949 svgShape"/><path fill="#723333" d="m1436.932 1295.195-123.49-20.162c4.13 20.652 4.59 37.211 2.786 50.481 38.336 29.349 78.449 38.643 94.242 35.21 8.852-1.925 19.231-6.914 28.878-16.676-4.861-24.358-2.416-48.853-2.416-48.853z" class="color723333 svgShape"/><path fill="#212851" d="M1212.175 1139.289s-49.439-5.956-54.953 31.309c-5.514 37.264 6.81 45.888 19.283 62.694 11.787 15.881 40.795 87.748 97.808 49.635 6.012-4.019 8.061-11.903 4.66-18.285l-66.798-125.353z" class="color212851 svgShape"/><path fill="#121d3f" d="M1157.329 1170.04c11.532-4.531 25.386-6.585 34.902 3.174 19.145 19.633 16.95 50.386 32.814 62.08 30.295 22.332 41.354 38.845 27.735 57.438 6.992-1.619 14.508-4.966 22.581-10.517 5.403-3.715 7.173-10.891 4.089-16.678l-67.275-126.247c0-.001-48.911-5.878-54.846 30.75z" class="color121d3f svgShape"/><path fill="#212851" d="M1381.488 951.748s-119.822-12.507-162.343 81.841c-42.521 94.349-6.834 231.566 96.186 252.25 0 0 163.365-37.111 193.12-127.909 29.755-90.798 10.755-199.404-126.963-206.182z" class="color212851 svgShape"/><path fill="#8c4949" d="M1359.857 967.301s-119.521 44.875-105.745 181.554c13.776 136.679 125.181 192.604 156.776 190.479 31.595-2.125 85.611-36.292 87.656-178.791 2.045-142.498-43.855-209.13-138.687-193.242z" class="color8c4949 svgShape"/><path fill="#602929" d="M1432.135 1225.872a3.342 3.342 0 0 1-.006-6.669c7.775-.562 12.717-3.933 13.916-9.493 1.349-6.257-2.19-13.65-8.058-16.832-14.172-7.685-11.806-25.551-11.699-26.307a3.341 3.341 0 0 1 6.618.933c-.082.603-1.779 14.051 8.266 19.498 8.476 4.596 13.379 14.964 11.406 24.117-1.852 8.591-9.131 13.968-19.968 14.752a3.275 3.275 0 0 1-.475.001z" class="color602929 svgShape"/><path fill="#121d3f" d="M1412.14 1134.076c-3.77-.601-27.184-4.846-42.793-19.622a3.505 3.505 0 0 1-.136-4.955 3.503 3.503 0 0 1 4.955-.136c15.05 14.245 39.2 17.809 39.444 17.846 1.882.25 3.25 2.046 2.978 3.963a3.505 3.505 0 0 1-3.963 2.978c-.067-.01-.232-.034-.485-.074zM1455.907 1134.689a3.506 3.506 0 0 1-.256-6.966c.231-.035 16.853-2.623 26.469-14.892a3.504 3.504 0 1 1 5.517 4.324c-11.406 14.551-30.193 17.393-30.988 17.506-.25.036-.499.045-.742.028z" class="color121d3f svgShape"/><path fill="#873c3c" d="M1416.575 1215.787c.801-3.297-.303-6.752-2.701-9.153-3.465-3.47-10.196-8.237-21.162-8.47-17.329-.369-44.777-2.042-51.833 4.111-7.056 6.153-7.11 21.87 13.061 23.964 18.448 1.916 58.353 7.177 62.635-10.452zM1463.523 1211.88c-.331 3.376.715 7.949 3.424 9.991 3.246 2.445 15.376 9.391 24.927 10.698 2.164-11.359 3.871-23.857 5.025-37.595-14.074 2.69-32.503 8.024-33.376 16.906z" class="color873c3c svgShape"/><path fill="#000" d="M1381.052 1157.976c-1.328 9.769 2.693 18.381 8.981 19.235s12.461-6.372 13.789-16.142c1.328-9.769-2.694-18.381-8.982-19.235s-12.46 6.373-13.788 16.142zM1458.306 1159.378c-1 9.267 2.697 17.266 8.257 17.866 5.56.6 10.879-6.426 11.879-15.694 1-9.267-2.697-17.266-8.258-17.866-5.56-.6-10.878 6.427-11.878 15.694z" class="color000 svgShape"/><path fill="#702727" d="M1397.732 1274.726a3.85 3.85 0 0 1-2.432-6.836c6.204-5.047 23.078-16.584 45.702-14.675 9.667.815 19.25 4.057 27.711 9.373a3.85 3.85 0 0 1-4.096 6.52c-7.425-4.666-15.814-7.508-24.262-8.221-19.83-1.674-34.716 8.517-40.196 12.975a3.83 3.83 0 0 1-2.427.864z" class="color702727 svgShape"/><path fill="#212851" d="M1427.881 1021.11s-22.803 72.563-71.746 81.641c-26.386 4.894-50.392 15.817-66.991 33.998-14.19 15.543 14.807 58.432-23.189 63.31 0 0-89.334-230.04 122.686-243.459 59.346 3.341 124.065 40.865 108.657 154.186 0 0-15.388-50.401-69.417-89.676z" class="color212851 svgShape"/><path fill="#8c4949" d="M1284.352 1163.763c-5.373-8.98-13.508-16.105-23.388-19.553-7.181-2.506-15.304-3.15-21.492 2.479-14.144 12.867 9.872 80.341 43.735 81.272 30.004.824 17.628-36.654 1.145-64.198z" class="color8c4949 svgShape"/><path fill="#723333" d="M1284.427 1199.882c-10.027-38.731-32.585-35.213-33.54-35.044a2.692 2.692 0 0 0-2.182 3.118 2.69 2.69 0 0 0 3.118 2.182c.144-.026 11.192-1.726 20.26 13.221-8.279-1.424-16.771 1.296-17.218 1.443a2.691 2.691 0 0 0 1.676 5.113c.114-.037 11.329-3.635 18.917.08 1.369 3.207 2.641 6.923 3.758 11.234a2.69 2.69 0 0 0 3.279 1.93 2.687 2.687 0 0 0 1.932-3.277zM1642.338 1521.03s167.488 252.483 79.965 322.364c0 0-55.474-13.615-74.81-28.511-19.336-14.897-71.499-136.702-71.499-136.702l66.344-157.151z" class="color723333 svgShape"/><path fill="#e6e6e6" d="M1548.095 1407.334c12.982 2.583 95.509 61.068 134.022 135.943 40.97 79.651 59.064 146.206 58.008 153.115-22.259 49.202-87.687 64.079-140.974 67.493-63.348-26.272-97.904-193.695-51.263-261.079 1.931-2.788-35.373-102.552.207-95.472z" class="colore6e6e6 svgShape"/><path fill="#f2f2f2" d="M1307.337 1353.159s-27.918 22.682-58.16 30.243c-30.242 7.561-86.947 23.942-85.687 94.508 1.26 70.566 108.369 481.359 108.369 481.359h326.367s2.343-87.872 4.461-184.607c27.298-30.583 44.611-85.669 27.073-141.654-17.537-55.985-41.43-78.753-53.766-111.979-12.336-33.226-11.212-77.335-27.899-113.695-28.798-14.294-44.425-27.823-98.562-31.493 0 0-.049 42.576-41.583 88.207 0 .001-65.788-40.085-100.613-110.889z" class="colorf2f2f2 svgShape"/><path fill="#e6e6e6" d="M1544.097 1779.678c-29.905-5.727-46.035-18.869-47.891-16.188-2.096 3.028 15.415 24.229 41.82 36.424 18.574 8.578 43.763 13.721 63.852 10.851.27-11.786.541-23.873.809-36.102.467-.523.93-1.054 1.391-1.591a53.3 53.3 0 0 1-9.392 5.258c-17.658 7.654-35.46 4.245-50.589 1.348zM1287.331 1780.953c21.69 17.964 56.478 10.427 75.546 6.295 45.301-9.815 68.84-36.926 71.948-33.276 2.929 3.44-15.279 30.678-44.968 46.767-31.405 17.018-61.593 13.94-83.64 11.692-18.509-1.887-39.949-4.074-44.968-17.088-3.643-9.446 1.814-23.432 8.994-25.182 5.844-1.425 10.958 5.714 17.088 10.792z" class="colore6e6e6 svgShape"/><path fill="#293668" d="M1381.488 1493.031s45.364 44.104 65.525-3.78c0 0-12.601-25.202-39.063-25.202-26.462 0-26.462 28.982-26.462 28.982z" class="color293668 svgShape"/><path fill="#293668" d="M1405.43 1491.771s19.753 95.024 22.65 150.681c2.145 41.211 2.223 108.668 2.119 140.91a51.43 51.43 0 0 0 11.479 32.554l23.285 28.725c6.679 8.239 19.676 6.651 24.175-2.954l15.134-32.314a51.408 51.408 0 0 0 4.519-27.688c-3.821-33.201-13.793-114.588-23.806-152.723-12.751-48.565-60.653-142.231-60.653-142.231l-18.902 5.04z" class="color293668 svgShape"/><path fill="#e6e6e6" d="M1516.585 1389.244c-19.506-6.899-44.305-20.147-69.615-21.863 0 0 4.688 28.29-39.02 96.668l51.664 40.323 56.971-115.128zM1372.667 1522.013l35.283-57.965s-60.289-42.843-100.613-110.889c0 0-36.674 13.725-45.893 17.442s-21.619 15.187-26.873 16.797l138.096 134.615z" class="colore6e6e6 svgShape"/><path fill="#155ea3" d="M1235.586 2116.617s-42.868 121.459 66.683 197.669c109.552 76.21 233.392 97.644 271.497 128.604 0 0 219.103-211.958 385.812-126.222 0 0-7.145-121.459-216.721-192.906-73.828-30.96-151.917-68.675-154.55-168.895h-308.365c0-.001-37.211 64.106-44.356 161.75z" class="color155ea3 svgShape"/><path fill="#8c4949" d="M1838.525 2102.091s41.02 65.3 33.276 226.447c-6.816 141.813-64.809 668.756-64.809 668.756s-37.732-14.482-64.587-33.808l-88.074-801.213c-.001 0 80.667-105.327 184.194-60.182z" class="color8c4949 svgShape"/><path fill="#723333" d="M1838.525 2102.091c-103.526-45.146-184.195 60.182-184.195 60.182l88.074 801.213c14.509 10.441 32.184 19.463 45.378 25.557l.785-2.471s-1.854-381.53 11.401-512.201c13.254-130.671-43.402-271.466-58.168-300.107-14.766-28.642-2.527-41.609 54.47-49.409 40.781-5.582 55.498 19.56 66.925 53.121-10.132-52.735-24.67-75.885-24.67-75.885z" class="color723333 svgShape"/><path fill="#8c4949" d="M1711.787 2208.986s56.86 37.83 54.023 175.622c-2.836 137.793-60.244 693.036-60.244 693.036s-29.722-15.842-61.33-46.046c0 0-13.518-175.134-32.951-238.923-19.432-63.789-83.695-295.634-64.981-368.583 42.022-163.803 165.483-215.106 165.483-215.106zM1761.595 2967.431c11.729-20.446 39.857-23.792 55.696-6.337 5.297 5.837 10.071 13.76 12.971 24.491 9.882 36.562 47.431 34.585 97.827 49.408 50.396 14.822 84.981 28.656 81.028 52.372-3.953 23.716-100.792 15.811-135.377 11.858-34.585-3.952-136.365 1.976-140.318-7.905-2.962-7.407 5.735-84.773 28.173-123.887z" class="color8c4949 svgShape"/><path fill="#212851" d="M2019.973 3089.998s-.841 19.105-2.817 22.399-23.058 14.494-88.938 12.517c-65.88-1.976-124.016-1.596-154.379-2.196-33.379-.659-41.504-.878-46.116-2.855-4.612-1.977-1.537-30.964-1.537-30.964l293.787 1.099z" class="color212851 svgShape"/><path fill="#cfcfcf" d="M1794.323 3004.905c7.2-.401 13.397-5.202 16.006-11.925 4.017-10.353 11.924-24.861 20.387-24.861 16.47 0 9.882 31.622 65.221 48.092 51.348 15.282 116.608 32.281 123.854 63.904 3.294 12.517.659 25.693-58.633 29.646-59.292 3.953-126.49-4.612-179.194-3.953-23.91.299-37.786-1.572-45.812-3.705-6.449-1.714-10.645-7.924-9.941-14.56 2.915-27.48 12.778-108.113 28.083-107.566 20.712.741 22.486 25.906 40.029 24.928z" class="colorcfcfcf svgShape"/><path fill="#bcbcbc" d="M1934.585 3062.035c.951 0 1.878-.488 2.398-1.367 10.025-16.983 25.05-20.403 25.202-20.436a2.781 2.781 0 0 0 2.13-3.307 2.786 2.786 0 0 0-3.307-2.132c-.712.154-17.567 3.989-28.817 23.045a2.782 2.782 0 0 0 2.394 4.197zM1911.307 3052.374c.992 0 1.952-.533 2.454-1.469 9.134-17.05 20.642-20.797 20.758-20.832a2.791 2.791 0 0 0 1.842-3.47 2.773 2.773 0 0 0-3.448-1.857c-.556.166-13.745 4.285-24.056 23.531a2.782 2.782 0 0 0 2.45 4.097zM1883.858 3042.491a2.783 2.783 0 0 0 2.483-1.524c6.841-13.484 20.914-18.567 21.055-18.616a2.785 2.785 0 0 0 1.704-3.544 2.779 2.779 0 0 0-3.537-1.708c-.661.23-16.301 5.817-24.184 21.352a2.78 2.78 0 0 0 2.479 4.04zM1855.747 3034.147a2.783 2.783 0 0 0 2.499-1.556c5.386-10.97 23.835-18.557 24.021-18.632a2.78 2.78 0 0 0 1.532-3.622 2.78 2.78 0 0 0-3.62-1.535c-.839.339-20.6 8.452-26.928 21.336a2.783 2.783 0 0 0 2.496 4.009zM1824.126 3022.068c.923 0 1.825-.459 2.354-1.298 11.927-18.919 31.272-22.202 31.466-22.233a2.783 2.783 0 0 0 2.309-3.185 2.787 2.787 0 0 0-3.185-2.309c-.895.143-22.04 3.734-35.294 24.761a2.78 2.78 0 0 0 2.35 4.264z" class="colorbcbcbc svgShape"/><path fill="#bcbcbc" d="M1850.072 3027.414c-36.761-10.592-43.03-26.475-43.09-26.634a2.77 2.77 0 0 0-.915-1.232 18.556 18.556 0 0 1-4.281 3.22c.7 1.829 8.163 18.875 46.605 29.952 36.498 10.517 133.079 38.346 133.702 74.455.003.175.026.345.06.51 1.919-.267 3.749-.549 5.49-.844-1.067-40.091-96.69-67.647-137.571-79.427z" class="colorbcbcbc svgShape"/><path fill="#8c4949" d="M1675.857 2977.897c8.557-1.287 17.21 1.411 23.726 7.105 7.838 6.848 18.525 19.409 23.605 39.732 8.552 34.207 57.418 84.295 75.743 100.176 18.325 15.882 86.738 26.876 87.96 58.64 1.222 31.763-91.625 19.546-124.609 15.882-32.985-3.665-67.191-39.093-91.625-53.753-24.433-14.66-62.305-29.32-73.3-42.758-10.995-13.438 0-51.31 17.103-65.97s29.32-26.876 35.428-40.315c4.437-9.76 14.029-16.943 25.969-18.739z" class="color8c4949 svgShape"/><path fill="#212851" d="M1893.401 3190.899s-.407 15.271-8.959 20.768c-8.552 5.498-64.748 19.547-136.826 3.665-12.828-2.443-31.152-12.217-43.369-18.936-12.217-6.719-47.645-37.26-68.413-45.812-20.768-8.552-43.334-21.455-51.31-25.044-12.217-5.498-4.895-31.438-.008-45.487l308.885 110.846z" class="color212851 svgShape"/><path fill="#dbdbdb" d="M1716.668 3052.444s8.144-17.103 17.918-15.474c9.773 1.629 32.578 47.238 53.753 65.97 21.176 18.732 35.835 25.248 61.083 35.835 25.248 10.588 46.423 30.949 43.98 52.124-2.443 21.175-102.62 22.804-153.115 8.959-13.031-3.258-43.165-28.505-58.64-38.279-15.474-9.773-57.122-34.519-74.114-43.165-23.067-11.738-23.619-22.804-23.619-27.691 0-4.887-1.222-29.32 20.768-52.125 15.839-16.426 28.913-26.876 32.17-24.433s29.591 39.482 45.609 56.197c18.732 19.546 34.207-17.918 34.207-17.918z" class="colordbdbdb svgShape"/><path fill="#bcbcbc" d="M1807.478 3148.752c.895 0 1.736-.493 2.164-1.31.252-.471 6.429-11.761 22.004-13.986a2.443 2.443 0 0 0 2.072-2.764 2.436 2.436 0 0 0-2.764-2.073c-14.573 2.082-22.091 11.144-24.636 14.917-27.146-6.417-45.309-20.076-59.526-32.653-15.729-13.913-44.362-37.683-44.649-37.922a2.446 2.446 0 0 0-3.441.32 2.445 2.445 0 0 0 .32 3.441c.288.239 28.862 23.958 44.532 37.822 14.977 13.25 34.222 27.669 63.394 34.15.176.039.354.058.53.058z" class="colorbcbcbc svgShape"/><path fill="#bcbcbc" d="M1785.893 3140.811c.915 0 1.793-.517 2.211-1.399 6.374-13.498 21.111-17.791 21.259-17.832a2.443 2.443 0 1 0-1.327-4.703c-.692.196-17.036 4.959-24.351 20.447a2.444 2.444 0 0 0 2.208 3.487zM1759.017 3125.744c.721 0 1.434-.317 1.917-.927 14.625-18.474 27.419-19.431 27.547-19.439a2.442 2.442 0 0 0 2.295-2.582c-.079-1.348-1.236-2.397-2.582-2.295-.611.036-15.122 1.111-31.093 21.283a2.442 2.442 0 0 0 1.916 3.96zM1732.954 3102.939c.897 0 1.76-.494 2.188-1.35 8.759-17.519 30.754-23.1 30.976-23.153a2.444 2.444 0 0 0-1.166-4.746c-.993.243-24.42 6.196-34.18 25.713a2.443 2.443 0 0 0 2.182 3.536z" class="colorbcbcbc svgShape"/><path fill="#2b2e3a" d="M1133.392 2097.68s-9.525 74.615-12.7 101.603c-3.175 26.988-53.977 174.63 255.594 280.995 49.361 15.738 88.402 22.125 119.602 23.525l4.227-47.338c4.763-119.066-168.28-169.867-242.894-223.844-52.867-38.244-44.366-104.373-34.92-139.678l-88.909 4.737z" class="color2b2e3a svgShape"/><path fill="#5b3937" d="m1372.83 3336.913-538.989-230.72v-981.835l538.989 96.776z" class="color5b3937 svgShape"/><path fill="#684541" d="m1456.184 3322.831-83.354 14.082V2208.057h83.354z" class="color684541 svgShape"/><path fill="#684541" d="M2768.419 3125.132 1372.83 3335.389V2208.057l1395.589-170.571zM2768.419 1984.191h83.354v1128.856h-83.354z" class="color684541 svgShape"/><path fill="#5b3937" d="M2768.419 2044.139 1372.83 2208.057v77.408l1478.944-181.891v-58.965z" class="color5b3937 svgShape"/><path fill="#4d302e" d="m833.841 2168.779 538.989 116.686v-77.408l-538.989-119.858z" class="color4d302e svgShape"/><path fill="#684541" d="m2642.659 1989.66-682.499-70.249-1059.132 96.028-317.647 3.52v47.63l729.91 172.428 1626.6-200.05v-47.631z" class="color684541 svgShape"/><path fill="#603c3a" d="m1081.799 2015.439-217.194 22.047-281.224-18.527v47.63l729.91 172.428v-47.631z" class="color603c3a svgShape"/><path fill="#8f695c" d="m583.381 2018.959 729.91 172.427 1626.6-200.05-841.843-124.124z" class="color8f695c svgShape"/><path fill="#865f54" d="m1881.466 1943.949-92.061 31.832-175.877-27.19 100.305-29.18z" class="color865f54 svgShape"/><path fill="#865f54" d="m1797.65 1888.906 41.221 85.549h463.05l-75.572-85.549z" class="color865f54 svgShape"/><path fill="#865f54" d="m1906.198 1908.138 48.43 80.907h544.489l-122.997-80.907z" class="color865f54 svgShape"/><path fill="#865f54" d="m1863.603 1959.865 24.733 49.075h239.083l-34.351-49.075z" class="color865f54 svgShape"/><path fill="#fff" d="m1883.527 1940.965-92.061 31.832-175.877-27.19 100.305-29.18z" class="colorfff svgShape"/><path fill="#f1e6ce" d="m1799.711 1885.921 41.221 85.549h463.051l-75.572-85.549z" class="colorf1e6ce svgShape"/><path fill="#f1e8df" d="m1908.26 1905.153 48.429 80.907h544.489l-122.997-80.907z" class="colorf1e8df svgShape"/><path fill="#fff" d="m1865.665 1956.881 24.732 49.074h239.083l-34.351-49.074z" class="colorfff svgShape"/><path fill="#212851" d="m1871.149 1973.003-162.299-47.631-331.653 47.631h-116.078v16.671l223.865 57.158 442.969-57.158v-16.671z" class="color212851 svgShape"/><path fill="#141d40" d="m1484.984 2030.161-223.865-57.158 447.731-64.301 219.103 64.301z" class="color141d40 svgShape"/><path fill="#e8dde0" d="m1428.418 2000.046-2.208 56.647-87.174 65.106-22.167-.282 2.324-59.638 22.029.859z" class="colore8dde0 svgShape"/><path fill="#f4e4e8" d="m1330.973 2113.424 1.574-40.387 8.261.322.338-8.669-281.922-10.987c-16.077-.627-27.299 10.034-27.926 26.111l-.143 3.671c-.627 16.077 9.723 27.815 25.8 28.442l281.922 10.987.357-9.168-8.261-.322z" class="colorf4e4e8 svgShape"/><path fill="#3c996a" d="m1042.34 2056.392 101.987-63.401a44.03 44.03 0 0 1 24.483-6.312l262.178 10.218-89.766 65.842-273.792-10.67c0-.001-15.685.877-25.09 4.323z" class="color3c996a svgShape"/><path fill="#358f62" d="m1043.546 2090.512-.107-.282a20.468 20.468 0 0 1 19.944-27.682l269.163 10.49 8.261.322.414-10.621-281.922-10.987c-16.077-.626-29.618 11.899-30.245 27.976l-.143 3.671c-.627 16.077 11.899 29.618 27.976 30.245l281.922 10.987.424-10.884-8.261-.322-269.016-9.688a20.47 20.47 0 0 1-18.41-13.225zM1340.808 2073.359l88.797-67.229a2.797 2.797 0 0 0 1.106-2.119l.277-7.115-89.766 65.842-.414 10.621zM1338.81 2124.63l88.83-67.254a2.705 2.705 0 0 0 1.071-2.053l.182-4.675c.039-1.002-1.096-1.605-1.905-1.012l-87.765 64.374-.413 10.62z" class="color358f62 svgShape"/><path fill="#889eeb" d="M2657.148 1991.889h-51.568v-381.33h59.984v372.914a8.416 8.416 0 0 1-8.416 8.416z" class="color889eeb svgShape"/><path fill="#738ad9" d="m2605.58 1991.889-113.006-66.224v-362.763l113.006 47.658z" class="color738ad9 svgShape"/><path fill="#677fbf" d="M2665.564 1610.56h-59.984l-113.006-46.922h59.984z" class="color677fbf svgShape"/><path fill="#e6e6e6" d="M2656.269 1608.891h-46.109a18.38 18.38 0 0 1-7.009-1.389l-106.292-43.864h52.486l107.131 44.21c.548.227.387 1.043-.207 1.043z" class="colore6e6e6 svgShape"/><path fill="#84b2eb" d="M2592.248 1997.44h-49.657v-381.33h59.984v371.002c0 5.704-4.624 10.328-10.327 10.328z" class="color84b2eb svgShape"/><path fill="#6ca0e0" d="m2542.591 1997.44-113.006-66.225v-362.763l113.006 47.658z" class="color6ca0e0 svgShape"/><path fill="#6395c6" d="M2602.575 1616.11h-59.984l-113.006-46.922h59.984z" class="color6395c6 svgShape"/><path fill="#e6e6e6" d="M2593.413 1614.442h-46.983c-1.916 0-3.813-.376-5.584-1.107l-106.977-44.146h52.486l107.254 44.261c.523.215.369.992-.196.992z" class="colore6e6e6 svgShape"/><path fill="#99beeb" d="M2529.166 2003.581h-49.449v-381.33h59.984v370.795c0 5.818-4.717 10.535-10.535 10.535z" class="color99beeb svgShape"/><path fill="#a5c6f5" d="m2479.717 2003.581-113.006-66.225v-362.762l113.006 47.657z" class="colora5c6f5 svgShape"/><path fill="#84b2eb" d="M2539.701 1622.251h-59.984l-113.006-46.921h59.984z" class="color84b2eb svgShape"/><path fill="#e6e6e6" d="M2530.015 1620.583h-45.934c-2.263 0-4.503-.444-6.595-1.307l-106.491-43.946h52.486l106.77 44.061c.627.259.442 1.192-.236 1.192z" class="colore6e6e6 svgShape"/><path fill="#cfc9b5" d="M2481.899 1616.55a.436.436 0 0 1-.169-.034l-90.385-37.512a.44.44 0 1 1 .338-.814l90.385 37.512a.44.44 0 0 1-.169.848zM2513.599 1616.55a.436.436 0 0 1-.169-.034l-90.385-37.512a.44.44 0 1 1 .338-.814l90.385 37.512a.44.44 0 0 1-.169.848zM2477.229 1608.367a.436.436 0 0 1-.169-.034l-56.931-23.627a.44.44 0 1 1 .338-.814l56.931 23.627a.44.44 0 0 1-.169.848zM2543.242 1611.011a.436.436 0 0 1-.169-.034l-90.385-37.512a.44.44 0 1 1 .338-.814l90.385 37.512a.44.44 0 0 1-.169.848zM2574.942 1611.011a.436.436 0 0 1-.169-.034l-90.385-37.512a.44.44 0 1 1 .338-.814l90.385 37.512a.44.44 0 0 1-.169.848zM2538.572 1602.828a.436.436 0 0 1-.169-.034l-56.931-23.628a.44.44 0 1 1 .338-.814l56.931 23.628a.44.44 0 0 1-.169.848zM2609.804 1605.461a.436.436 0 0 1-.169-.034l-90.385-37.512a.44.44 0 1 1 .338-.814l90.385 37.512a.44.44 0 0 1-.169.848zM2641.504 1605.461a.436.436 0 0 1-.169-.034l-90.385-37.512a.44.44 0 1 1 .338-.814l90.385 37.512a.44.44 0 0 1-.169.848zM2605.134 1597.278a.436.436 0 0 1-.169-.034l-56.931-23.628a.44.44 0 1 1 .338-.814l56.931 23.628a.44.44 0 0 1-.169.848z" class="colorcfc9b5 svgShape"/><path fill="#e8dde0" d="M2098.323 1918.107v46.098l84.573 55.662 22.161.473v-48.532h-22.045z" class="colore8dde0 svgShape"/><path fill="#f4e4e8" d="M2191.279 2013.318v-32.866h-8.267v-7.055h282.136c16.089 0 26.888 9.017 26.888 22.101v2.988c0 13.083-10.799 22.293-26.888 22.293h-282.136v-7.461h8.267z" class="colorf4e4e8 svgShape"/><path fill="#d98456" d="m2481.914 1976.116-99.441-54.746c-7.189-3.851-15.609-5.904-24.219-5.904h-262.377l87.134 56.342h274s15.639 1.21 24.903 4.308z" class="colord98456 svgShape"/><path fill="#cf7b4e" d="m2479.38 2003.802.118-.226c2.179-4.192 2.153-8.927-.074-13.102-3.245-6.085-10.622-10.022-18.778-10.022h-277.634v-8.643h282.136c16.089 0 29.132 10.606 29.132 23.689v2.988c0 13.083-13.043 23.689-29.132 23.689h-282.136v-8.857h8.267l269.189.647c8.246.019 15.701-3.987 18.912-10.163zM2183.011 1980.452l-86.112-57.438c-.647-.432-1.022-1.076-1.022-1.757v-5.79l87.134 56.342v8.643zM2183.011 2022.175l-86.144-57.46c-.627-.418-.99-1.043-.99-1.702v-3.805c0-.815 1.158-1.269 1.943-.762l85.191 55.086v8.643z" class="colorcf7b4e svgShape"/><path fill="#e6e6e6" d="M1197.815 1437.586s-98.404 15.345-72.158 298.266c0 0 23.911 14.908 57.493 26.864-9.102 71.314 3.507 115.635 3.507 115.635l321.435 26.802 93.999-68.686V1790.6s-87.254 57.109-109.288 76.612c-99.379-37.04-228.41-43.335-228.41-43.335 1.725-5.667 4.134-16.526 7.609-46.998 1.204-.1 2.407-.214 3.608-.345 0-.001 24.274-318.786-77.795-338.948z" class="colore6e6e6 svgShape"/><path fill="#8c4949" d="M1193.319 1410.923s-43.383 27.293-54.724 58.796c-11.341 31.503-74.42 503.609 59.151 494.788 41.583-3.78 60.252-279.94 60.252-334.124 0-54.185-1.674-198.039-64.679-219.46z" class="color8c4949 svgShape"/><path fill="#723333" d="M1257.998 1630.382c0-23.405-.945-63.973-7.091-104.237-123.694 189.358-81.861 336.355-81.861 336.355l65.655 24.047c23.464-66.966 23.297-215.01 23.297-256.165z" class="color723333 svgShape"/><path fill="#f2f2f2" d="M1104.022 1766.767s81.886 15.078 153.976 7.195c0 0 36.63-345.197-65.438-365.358 0 0-131.141 35.295-88.538 358.163z" class="colorf2f2f2 svgShape"/><path fill="#8c4949" d="M1755.62 1800.625c1.916-33.144-72.901-54.739-118.515-16.153-45.614 38.586-207.694 145.878-202.893 161.876s43.915 23.549 103.559 10.059c59.645-13.49 215.933-122.637 217.849-155.782z" class="color8c4949 svgShape"/><path fill="#8c4949" d="M1812.272 1856.101s-25.094-8.77-60.381-5.03c-35.287 3.74-50.069 6.926-75.553 38.201-25.484 31.275-37.271 36.394-85.164 23.515s-283.759-84.492-349.31-71.65c-65.551 12.842-117.022 25.227-99.975 74.403 17.046 49.176 51.463 53.358 131.553 54.14 80.09.781 330.744 3.465 370.162-5.032 39.418-8.497 57.725-7.288 76.18-29.313 18.455-22.025 73.038-8.011 76.807-20.425 3.769-12.414 22.608-8.741 16.426-25.455-6.181-16.714 8.357-3.091 5.702-15.409-2.655-12.318 8.431-14.707-6.447-17.945z" class="color8c4949 svgShape"/><path fill="#1a2347" d="m2076.21 1734.548 18.452-9.226-4.763-11.113-421.534 45.25-195.117 266.856 11.736 3.846 31.613-15.807 406.593-52.463z" class="color1a2347 svgShape"/><path fill="#212851" d="m1484.984 2030.161 188.143-259.589 421.535-45.25-166.709 247.681z" class="color212851 svgShape"/><path fill="#5571a3" d="m3405.264 2655.743 47.822 542.672c1.069 13.334-9.464 24.745-22.842 24.745h-15.091c-11.392 0-21.054-8.368-22.68-19.644l-86.815-547.774h99.606zM3571.604 2560.123l97.248 540.806c2.28 13.946-8.484 26.611-22.615 26.611h-14.512c-10.696 0-19.97-7.4-22.343-17.83l-137.384-549.587h99.606zM3123.884 2560.123l-97.248 540.806c-2.28 13.946 8.484 26.611 22.615 26.611h14.512c10.697 0 19.97-7.4 22.344-17.83l137.384-549.587h-99.607zM2843 2628.85l-95.554 567.916c-2.132 13.879 8.607 26.394 22.649 26.394h14.548c10.799 0 20.132-7.54 22.403-18.097l135.561-576.213H2843z" class="color5571a3 svgShape"/><path fill="#46699b" d="M3591.523 2585.522s-8.964 70.221-109.066 80.679c-100.102 10.458-493.04 7.47-594.636-16.435-101.596-23.905-83.667-91.138-83.667-91.138l787.369 26.894z" class="color46699b svgShape"/><path fill="#fff" d="M3147.787 1807.117s-89.644-7.47-89.644 68.727v424.313s13.447 52.292-126.995 79.185c-130.673 25.022-137.454 79.185-128.489 171.817l279.395-107.572-.006-570.731c.001 0-1.494-56.775 65.739-65.739z" class="colorfff svgShape"/><path fill="#e8e8e8" d="M3607.958 1872.856v631.987h-525.909v-631.987c0-36.307 29.432-65.739 65.739-65.739h394.432c36.305 0 65.738 29.432 65.738 65.739z" class="colore8e8e8 svgShape"/><path fill="#e8e8e8" d="M3607.958 2504.843s2.988-61.256-135.959-61.256h-389.944l-279.395 107.572s-17.929 38.845 103.09 59.762 346.534 30.598 395.926 25.399c56.774-5.976 306.282-131.477 306.282-131.477z" class="colore8e8e8 svgShape"/><path fill="#f6af9a" d="M3469.095 2351.302s-18.501-124.408-230.374-92.97c-161.479 23.961-522.39 74.196-580.595 137.073-16.696 30.168-33.683 99.474 57.043 119.4 90.727 19.927 230.143 17.696 312.458 18.443 82.317.748 476.694-4.86 441.468-181.946z" class="colorf6af9a svgShape"/><path fill="#212851" d="m2909.219 3145.405.593 66.206s-19.242 8.27-49.526 7.07l-5.732-52.366 54.665-20.91z" class="color212851 svgShape"/><path fill="#192244" d="m2860.286 3218.681-15.732-8.603-5.75-39.658 15.75-4.106z" class="color192244 svgShape"/><path fill="#212851" d="M2660.524 3220.333s.806 12.409 2.141 17.284c1.335 4.875 81.273 2.396 126.319-11.77 13.38-5.259 45.08-44.801 69.88-56.962 24.8-12.161 45.504-16.702 49.201-21.111s2.463-28.807-7.867-30.169l-239.674 102.728z" class="color212851 svgShape"/><path fill="#f6af9a" d="M2812.102 2977.395s-37.516 6.71-30.771 50.125c6.782 43.652 3.829 72.048-18.276 99.402s-75.584 48.841-89.403 56.861c-13.818 8.02-23.362 23.38-13.129 36.55 10.232 13.17 103.936-5.04 124.509-13.653 14.566-6.098 40.971-39.902 61.466-49.416s48.961-16.097 53.392-32.824c4.431-16.726-10.961-42.15-23.628-62.368-12.666-20.218-12.391-42.932-15.339-55.834-2.947-12.902-21.275-35.572-48.821-28.843z" class="colorf6af9a svgShape"/><path fill="#212851" d="M2831.172 3170.068s1.431-32.995 9.335-50.683c9.104-20.37 28.417-53.119 31.433-65.297 0 0 9.95 12.311 12.701 21.697 0 0-18.613 29.958-24.798 44.796-6.185 14.838-7.968 25.546-6.871 38.043-.001.001-15.194 9.163-21.8 11.444zM2710.122 3163.677s-2.095 42.049.022 62.284c0 0 17.712.147 25.303-2.562 0 0-1.161-63.757-.889-72.29-.001.001-14.717 6.482-24.436 12.568z" class="color212851 svgShape"/><path fill="#192244" d="M2734.948 3193.604c-.275-17.86-.535-37.963-.39-42.494 0 0-14.717 6.48-24.436 12.567 0 0-.296 5.947-.553 14.443 6.179 3.14 17.722 9.341 25.379 15.484z" class="color192244 svgShape"/><path fill="#212851" d="M2701.956 3169.596s41.979 18.682 62.152 46.863c0 0 20.058-4.143 27.293-10.905 0 0-35.701-34.73-66.966-49.685 0 0-14.688 5.555-22.479 13.727z" class="color212851 svgShape"/><path fill="#f6af9a" d="M2689.623 2378.13c-39.221 9.631-63.886 48.507-56.782 88.264 10.601 59.333 39.663 170.658 91.639 355.934 71.87 256.191 70.378 281.022 107.22 274.415 23.292-4.177 37.397-28.317 30.152-84.462-2.471-19.152-4.624-37.288-6.74-61.382-5.48-62.421-8.191-255.933-26.737-345.467-18.545-89.534-56.899-234.694-119.268-230.311-7.016.494-13.501 1.54-19.484 3.009z" class="colorf6af9a svgShape"/><path fill="#efa18f" d="M2751.645 2479.353c44.604-18.121 142.497-57.708 142.497-57.708l127.917 85.586s-6.685 9.861-17.534 25.872c-55.288-.252-127.969-.23-194.785-5.461 7.609 27.287 13.797 54.432 18.635 77.79 8.253 39.842 14.008 100.234 18.054 160.515-33.5 44.495-78.118 86.982-106.413 112.221-4.768-17.269-9.929-35.85-15.537-55.841-23.67-84.376-42.586-153.409-57.172-209.184 21.881-51.444 56.392-122.437 84.338-133.79z" class="colorefa18f svgShape"/><path fill="#f6af9a" d="M3157.227 2057.221c-22.444 22.899-19.122 52.883-21.573 84.852-2.445 31.89-38.126 111.567-38.884 143.388-1.038 43.592 15.053 71.969 62.797 148.774s89.271 153.616 224.199 124.555c134.928-29.061 107.597-174.796 98.487-219.207-8.629-42.064-11.216-71.939-58.96-131.1-8.719-9.445-12.87-46.605-12.943-67.95-.121-35.695-6.062-65.97-33.938-88.265-23.539-18.825-58.963-34.165-111.908-34.165-59.951-.001-83.838 15.204-107.277 39.118z" class="colorf6af9a svgShape"/><path fill="#f6af9a" d="M3453.806 2497.123c49.055-49.299 48.353-119.111-6.97-161.255-30.215-23.017-68.83-35.703-134.043-18.853-131.074 33.868-236.451 82.241-339.88 122.457-104.344 40.572-156.207 52.296-203.99 84.808-47.783 32.512-48.028 70.303-33.995 96.349s65.228 54.864 146.839 42.144c81.612-12.72 248.446-45.108 329.293-64.844 54.748-13.364 179.914-37.661 242.746-100.806z" class="colorf6af9a svgShape"/><path fill="#f6af9a" d="M2744.584 2543.345s-89.473 147.47-130.883 221.693c-41.41 74.224-163.405 262.134-190.992 302.341s.156 48.91 11.082 52.6c10.926 3.69 30.714-1.328 64.107-31.571 33.392-30.242 110.364-103.022 162.724-154.372 52.36-51.35 183.038-201.584 206.79-287.742 26.662-96.712-72.006-169.492-122.828-102.949z" class="colorf6af9a svgShape"/><path fill="#212851" d="m2431.366 3219.044-73.591 47.293s-5.236-3.453-14.861-15.494c-9.624-12.04-13.978-20.584-13.978-20.584l46.607-37.256 55.823 26.041z" class="color212851 svgShape"/><path fill="#192244" d="m2328.937 3230.26-3.444-21.295 26.929-21.526 23.122 5.566z" class="color192244 svgShape"/><path fill="#212851" d="m2219.318 3068.352-10.97 8.769a6.823 6.823 0 0 0-1.848 8.367c7.368 14.846 31.907 59.639 73.691 91.223 14.319 9.773 67.675 13.521 90.173 23.262 17.148 7.425 41.031 16.696 51.421 20.687 3.251 1.248 6.694.331 9.581-1.616 5.356-3.613 13.545-10.363 18.104-18.524l-230.152-132.168z" class="color212851 svgShape"/><path fill="#f6af9a" d="M2501.856 3027.53s-27.808-24.17-64.545 14.815-57.587 51.126-93.964 50.214c-36.376-.911-69.018-21.218-89.998-30.475-14.478-6.389-29.197-3.256-34.032 6.268-4.836 9.524 24.275 55.851 55.189 80.368 30.914 24.516 66.461 27.222 88.617 31.579 22.156 4.357 68.531 28.396 84.41 21.362 15.879-7.034 24.865-39.68 25.39-59.197.449-16.672 5.364-36.116 24.974-54.055 19.612-17.939 26.316-41.405 3.959-60.879z" class="colorf6af9a svgShape"/><path fill="#212851" d="M2344.522 3179.325s16.52-14.903 37.854-28.562c18.713-11.981 58.985-32.341 93.358-27.565 0 0 .801 8.032-2.81 19.265 0 0-27.644-1.667-56.951 11.574s-46.916 33.684-46.916 33.684-14.859 4.24-24.535-8.396zM2312.259 3087.484c-1.133.788-27.663 19.312-56.038 46.146 0 0-16.51-12.69-20.387-26.566 0 0 29.26-27.633 41.739-33.789 0 0 25.449 7.669 34.685 14.156.019.014.019.04.001.053z" class="color212851 svgShape"/><path fill="#192244" d="M2277.573 3073.276c-1.72.849-3.762 2.108-6 3.644 2.247 5.271 9.287 22.791 9.136 34.988 17.689-14.765 30.949-24.007 31.564-24.434-9.228-6.522-34.7-14.198-34.7-14.198z" class="color192244 svgShape"/><path fill="#212851" d="M2272.933 3071.493s20.573 32.333 7.663 82.544c0 0 14.231 14.087 26.811 13.367 0 0 13.172-36.098-.684-83.161 0 0-15.05-11.604-33.79-12.75z" class="color212851 svgShape"/><path fill="#192244" d="M3116.317 1388.319s5.128 98.21 12.711 166.389c7.583 68.179 13.704 103.605 12.093 135.072 0 0 141.862-11.057 188.311-53.014l-7.466-243.646c0 .001-149.111-74.316-205.649-4.801z" class="color192244 svgShape"/><path fill="#f6af9a" d="M3173.442 1667.05c-11.595-5.405-40.767 13.719-50.048 22.525-11.889 11.28-31.842 35.001-49.138 78.671-26.668 67.334-46.624 151.659-57.713 187.775-11.088 36.116-34.708 119.354-6.527 136.179 28.181 16.825 66.23-16.306 88.36-58.369 22.131-42.062 49.579-129.078 65.833-181.147 14.097-45.152 51.356-165.997 9.233-185.634z" class="colorf6af9a svgShape"/><path fill="#efa18f" d="M3035.153 2023.794c21.625-8.282 53.835-4.263 68.985-1.646-1.952 4.186-3.876 8.101-5.761 11.684-4.812 9.146-10.377 17.868-16.429 25.748-27.132-10.482-66.659-28.179-46.795-35.786z" class="colorefa18f svgShape"/><path fill="#d3f3f5" d="M3177.647 1662.603s31.596 24.781 16.728 104.082c-14.869 79.301-39.031 154.885-39.031 154.885s-81.159-19.825-117.093-58.237c0 0 56.997-223.033 139.396-200.73z" class="colord3f3f5 svgShape"/><path fill="#f6af9a" d="M3316.337 1628.774c-50.353-6.019-104.367 7.58-148.711 32.182-40.967 22.729-70.834 105.686-84.47 158.119-26.613 102.329 12.041 116.59 18.681 132.787 6.64 16.197 30.833 72.512 33.021 121.01 2.043 45.267 3.125 94.575 7.339 109.155 9.4 32.519 19.197 69.884 112.401 63.601 123.582-8.332 148.825-82.737 153.728-115.007 8.708-57.313.689-142.353 12.48-193.776s30.58-140.898 29.999-180.391c-.582-39.493 2.586-92.701-86.446-117.238-18.223-5.023-32.37-8.571-48.022-10.442z" class="colorf6af9a svgShape"/><path fill="#fff" d="M3329.434 1627.289s59.166 1.859 98.816 43.368c39.65 41.509 18.276 158.602 12.7 187.72-5.576 29.118-23.542 113.995-24.162 166.036-.62 52.041-3.098 128.244-3.098 136.298 0 0-191.437 19.825-280.651-14.249 0 0-1.239-58.237-3.098-76.823-1.858-18.586-9.293-29.738-9.293-44.607s-13.01-57.617-22.303-70.008c-9.293-12.391-31.596-36.553-28.499-79.92 3.098-43.368 24.781-117.712 60.715-177.807 35.934-60.095 123.289-78.681 198.873-70.008z" class="colorfff svgShape"/><path fill="#d3f3f5" d="M3104.226 1749.219a470.831 470.831 0 0 1 13.401-28.535l39.73-11.305 52.506 126.386s79.92-155.194 137.073-149.618 89.678 21.839 89.678 21.839 10.687 21.839.929 83.173-56.223 190.043-56.223 190.043-19.051-.465-30.203-4.646c0 0-41.354 135.214-106.406 134.749-42.174-.301-88.245-27.55-115.44-46.682-2.475-15.343-8.35-25.682-8.597-38.753l39.005 14.808s-29.273-102.688-32.99-143.113c-2.731-29.711-15.752-108.605-22.463-148.346z" class="colord3f3f5 svgShape"/><path fill="#f6af9a" d="M3189.394 1615.849s11.184 27.979 11.404 51.652c.22 23.673 5.303 48.497 40.154 50.236 34.85 1.739 74.593-37.473 81.54-56.713 6.947-19.24 10.314-27.686 5.022-37.154-5.292-9.468-26.369-27.462-40.852-105.176-4.187-24.27-37.078-37.185-62.836-16.575-17.956 14.369-60.517 38.75-34.432 113.73z" class="colorf6af9a svgShape"/><path fill="#e57e73" d="M3277.634 1551.926a157.67 157.67 0 0 0 1.286-6.891c-.063-.335 1.43-14.948 1.367-15.286-4.187-24.27-38.635-22.898-64.393-2.288-9.106 7.286-24.536 17.153-34.135 34.883-1.719 14.233.06 31.733 7.634 53.505 0 0 11.184 27.979 11.404 51.652.03 3.189.153 6.397.42 9.569 35.009-28.107 65.45-73.173 76.417-125.144z" class="colore57e73 svgShape"/><path fill="#f6af9a" d="M3114.662 1312.226s-120.739 38.099-72.494 169.039 90.222 189.832 142.616 170.201c52.393-19.631 103.627-94.031 105.898-176.312 2.271-82.281-61.041-199.325-176.02-162.928z" class="colorf6af9a svgShape"/><path fill="#efa18f" d="M3139.608 1589.948c-6.357-10.31-16.401.109-16.401.109-9.207-4.963-14.181 6.591-14.181 6.591-4.294-1.133-7.921 3.496-10.197 7.542.173.378.348.743.522 1.117 17.948 27.73 35.981 44.043 55.096 48.554.131-11.063 2.795-31.361 1.111-49.875-2.016-22.153-15.95-14.038-15.95-14.038zM3163.711 1640.432c-6.041 2.424-6.04 6.928-5.417 13.871.01.106.011.204.019.309 7.097 1.077 14.351.55 21.81-1.604-5.222-13.587-11.597-14.508-16.412-12.576z" class="colorefa18f svgShape"/><path fill="#e57e73" d="M3118.239 1571.748a17.959 17.959 0 0 0 3.822-1.894 2.955 2.955 0 0 0 .841-4.094 2.95 2.95 0 0 0-4.094-.841c-4.691 3.092-11.584 2.586-14.166.107-.516-.496-2.087-2.005.233-5.855 8.291-13.755 4.072-33.312 3.888-34.138a2.956 2.956 0 0 0-5.77 1.283c.059.272 3.86 18.125-3.181 29.805-4.294 7.125-.916 11.583.735 13.169 3.985 3.826 11.479 4.687 17.692 2.458z" class="colore57e73 svgShape"/><path fill="#212851" d="M3157.854 1475.68a28.265 28.265 0 0 0 4.611-2.123 2.957 2.957 0 0 0-2.958-5.118c-14.688 8.497-40.657-.885-40.918-.981a2.956 2.956 0 0 0-2.042 5.547c1.07.393 24.275 8.785 41.307 2.675zM3059.822 1507.376c.123-.044.244-.097.363-.159.642-.332 15.81-8.27 24.629-20.74a2.955 2.955 0 1 0-4.825-3.413c-7.974 11.274-22.377 18.829-22.521 18.904a2.956 2.956 0 0 0 2.354 5.408z" class="color212851 svgShape"/><ellipse cx="3149.499" cy="1504.562" fill="#212851" class="color212851 svgShape" rx="10.373" ry="16.367" transform="rotate(-19.736 3149.356 1504.496)"/><path fill="#212851" d="M3088.823 1524.675c2.603 7.255.985 14.473-3.613 16.122-4.598 1.65-10.435-2.894-13.038-10.149-2.603-7.255-.985-14.473 3.613-16.122 4.599-1.65 10.436 2.894 13.038 10.149z" class="color212851 svgShape"/><path fill="#efa18f" d="M3144.685 1554.388s-4.485-7.177-.622-12.382c3.862-5.205 22.64-13.584 33.592-18.163 17.161-7.175 24.95 1.936 24.767 8.877-.184 6.941-7.699 11.547-23.458 18.729-13.757 6.269-29.383 10.732-34.279 2.939zM3098.017 1570.176c.177-6.711-7.099-15.448-23.092-9.535 3.805 7.997 7.593 15.498 11.375 22.495 7.785-4.31 11.587-8.052 11.717-12.96z" class="colorefa18f svgShape"/><path fill="#e57e73" d="M3175.333 1602.646a2.955 2.955 0 0 0 .647-5.234c-11.136-7.477-22.207-10.058-32.907-7.672-18.115 4.042-28.38 20.84-28.808 21.553a2.956 2.956 0 0 0 5.065 3.046c.094-.155 9.452-15.382 25.072-18.839 9.044-2.004 18.56.291 28.282 6.82a2.963 2.963 0 0 0 2.649.326z" class="colore57e73 svgShape"/><path fill="#192244" d="M3044.61 1348.902c10.226 28.503 37.849 32.805 66.351 22.579 28.502-10.225 47.091-31.106 36.865-59.609-10.226-28.502-41.621-43.319-70.123-33.093-28.502 10.225-43.318 41.62-33.093 70.123z" class="color192244 svgShape"/><path fill="#212851" d="M3075.078 1377.474s37.294 46.305 94.182 68.607c0 0 51.6 21.361 74.362 45.561 22.762 24.2 26.817 28.257 51.048 69.005 14.479 24.349 13.551 51.605 34.764 66.642 0 0 54.729 1.726 94.189 38.789.033.025-19.694-120.076-42.651-172.642-22.958-52.566-95.015-232.447-184.956-196.418 0 0-41.657-26.516-110.953 10.252-69.296 36.767-84.833 114.274-26.716 215.703-.001-.001-34.659-93.791 16.731-145.499z" class="color212851 svgShape"/><path fill="#192244" d="M3204.456 1337.636c-4.072-16.518.447-33.133 10.698-45.165 31.755-2.445 60.84 20.458 85.749 52.146-5.932 14.55-18.493 26.162-34.916 30.21-27.262 6.722-54.81-9.929-61.531-37.191z" class="color192244 svgShape"/><circle cx="3255.825" cy="1319.579" r="50.839" fill="#212851" class="color212851 svgShape" transform="rotate(-30.542 3255.602 1319.503)"/><path fill="#192244" d="M3282.229 1296.785c-4.975-5.635-10.73-11.111-17.959-13.66-7.318-2.58-16.714-1.623-21.655 4.943-10.362 13.772 3.222 30.806 13.579 39.644 5.204 4.441 11.332 8.394 18.203 9.504 3.752.607 8.246.668 11.504-1.587 4.086-2.827 3.246-8.299 1.811-12.352-2.331-6.588-7.251-12.182-13.403-15.475-3.176-1.7-6.833-3.499-10.197-1.886-1.818.16-2.495 1.07-2.03 2.729a7.155 7.155 0 0 0 1.295 3.279c1.354 1.935 3.254 2.832 5.534 3.077 2.541.273 1.804 4.177-.729 3.905-6.061-.652-11.192-6.516-9.938-12.78 1.405-7.017 9.171-5.401 14.145-3.54 7.338 2.745 13.596 8.317 17.242 15.24 2.886 5.481 5.275 13.596.863 18.959-4.83 5.869-14.17 5.414-20.715 3.387-7.323-2.268-13.723-6.945-19.205-12.196-10.788-10.333-22.041-28.163-11.006-42.461 5.373-6.962 14.957-8.954 23.214-6.951 9.32 2.261 16.524 8.945 22.693 15.932 1.694 1.918-1.571 4.186-3.246 2.289z" class="color192244 svgShape"/><path fill="#f6af9a" d="M3238.085 1479.428s-2.062-43.808 24.044-45.455c26.106-1.647 16.845 46.739 12.246 59.683-5.469 15.395-34.016 31.927-36.29-14.228z" class="colorf6af9a svgShape"/><path fill="#e57e73" d="M3255.638 1491.699c-1.014.41-2.111-.055-2.5-1.019-.433-1.072-10.426-26.385 5.499-37.685a1.889 1.889 0 0 1 2.625.446 1.884 1.884 0 0 1-.446 2.626c-13.496 9.578-4.281 32.969-4.187 33.203a1.881 1.881 0 0 1-.991 2.429z" class="colore57e73 svgShape"/><path fill="#e57e73" d="M3253.173 1479.229a1.883 1.883 0 0 1-2.463-2.517c.218-.469 5.447-11.511 15.448-12.589a1.884 1.884 0 0 1 .403 3.745c-7.907.851-12.39 10.333-12.435 10.428a1.874 1.874 0 0 1-.953.933z" class="colore57e73 svgShape"/><path fill="#293668" d="M3412.182 2154.388c2.272-.128 4.223 1.635 4.287 3.91.273 9.762 3.262 35.396 25.144 62.749 27.878 34.847 82.24 183.994 39.029 284.354-43.21 100.36-373.935 130.032-454.781 139.79 0 0-87.442-117.487-113.926-183-26.484-65.513-50.621-104.012-85.468-131.89 0 0 76.726-24.617 192.798-47.922 32.059-5.576 48.786-6.97 48.786-6.97s.869-22.386 25.09-30.666c0 0 23.316-69.949 35.406-98.156a6.118 6.118 0 0 1 7.224-3.501c19.138 5.166 95.976 21.451 276.411 11.302z" class="color293668 svgShape"/><path fill="#23315e" d="M3135.77 2143.086c19.139 5.167 95.978 21.451 276.412 11.302 2.272-.128 4.223 1.635 4.286 3.91.126 4.51.838 12.414 3.719 22.306-47.461 5.784-200.263 20.491-299.128-15.2 2.727-7.201 5.292-13.698 7.486-18.818a6.12 6.12 0 0 1 7.225-3.5zM2894.142 2421.644c23.811-6.488 106.663-29.165 126.761-36.041 23.542-8.054 79.301-20.445 85.496-13.01 5.461 6.554-128.921 65.73-194.426 89.697-5.924-14.632-11.991-28.533-17.831-40.646z" class="color23315e svgShape"/><path fill="#23315e" d="M3131.81 2344.946a2.365 2.365 0 0 1-.104-2.801c.183-.27 18.415-27.614 27.499-84.539 8.841-55.401 17.958-84.318 18.049-84.603a2.377 2.377 0 0 1 2.5-1.634l35.314 3.717a2.36 2.36 0 0 1 1.971 3.166c-.179.487-18.007 49.343-27.154 98.742-9.319 50.323-54.912 68.507-55.372 68.684a2.366 2.366 0 0 1-2.703-.732zm49.394-168.669c-2.098 7.128-9.802 34.901-17.33 82.074-6.729 42.167-18.174 68.075-24.237 79.543 12.626-7.044 38.925-25.724 45.598-61.76 7.953-42.942 22.402-85.448 26.348-96.659l-30.379-3.198zM2994.677 2601.508c.264-.205.57-.362.917-.442 1.04-.239 106.186-24.492 299.113-79.888 65.631-18.845 109.207-49.178 129.517-90.155 26.933-54.34 8.105-117.046-8.399-159.487-25.897-66.591-25.29-98.123-25.251-99.432.038-1.305 1.099-2.36 2.432-2.294a2.364 2.364 0 0 1 2.294 2.433c-.009.312-.619 31.877 24.931 97.58 16.83 43.274 35.992 107.286 8.23 163.3-20.925 42.218-65.487 73.373-132.45 92.599-184.289 52.916-288.562 77.44-298.567 79.769-.911-1.308-1.83-2.63-2.767-3.983zM3093.008 2244.939c1.921 1.799 3.788 3.642 5.509 5.598a93.855 93.855 0 0 1 4.946 5.944 32.086 32.086 0 0 1 2.063 3.214l1.014 1.582c.343.518.759.992 1.133 1.488.762.983 1.614 1.924 2.459 2.898.912.95 1.707 1.963 2.861 2.929.13.109.293.094.385-.015.173-1.594.097-3.071-.281-4.419-.289-1.402-.842-2.686-1.446-3.949-1.239-2.517-3.412-4.358-5.357-6.237a57.123 57.123 0 0 0-6.203-5.199c-2.207-1.536-4.426-3.02-6.819-4.227a.238.238 0 0 0-.27.387l.006.006zM3067.887 2275.581c1.438 1.833 3.047 3.493 4.67 5.167a65.523 65.523 0 0 0 5.225 4.65c1.818 1.461 3.536 3.214 5.792 4.041 2.224.848 4.654 1.38 7.256.979a.27.27 0 0 0 .226-.308c-1.719-2.174-3.453-3.526-5.249-4.838-.893-.657-1.859-1.165-2.877-1.618-1.03-.428-2.066-.871-3.051-1.403a174.777 174.777 0 0 1-5.867-3.366c-1.971-1.137-3.876-2.393-5.8-3.646a.241.241 0 0 0-.336.066.236.236 0 0 0 .011.276z" class="color23315e svgShape"/><path fill="#23315e" d="M3437.429 2360.013a2.365 2.365 0 0 0 .99-4.512c-.334-.154-33.825-15.725-67.301-45.361-30.742-27.218-67.786-72.239-69.678-132.156a2.364 2.364 0 1 0-4.727.15c1.947 61.649 39.885 107.785 71.368 135.633 33.992 30.067 68.022 45.874 68.362 46.03.32.147.656.216.986.216zM3438.823 2373.951a2.365 2.365 0 0 0 .831-4.578c-.025-.009-1.214-.456-3.362-1.354a2.365 2.365 0 0 0-1.824 4.364c2.277.951 3.527 1.419 3.527 1.419.273.101.553.149.828.149zM3427.439 2369.289a285.071 285.071 0 0 1-6.938-3.306 2.365 2.365 0 0 1 2.092-4.241 270.261 270.261 0 0 0 6.82 3.25 2.364 2.364 0 0 1-1.974 4.297zm-13.779-6.791a309.5 309.5 0 0 1-6.751-3.65 2.363 2.363 0 1 1 2.301-4.131 313.17 313.17 0 0 0 6.648 3.595 2.365 2.365 0 1 1-2.198 4.186zm-13.407-7.457a320.61 320.61 0 0 1-6.564-3.967 2.365 2.365 0 0 1 2.494-4.017 323.01 323.01 0 0 0 6.467 3.909 2.365 2.365 0 0 1-2.397 4.075zm-13.032-8.088a322.253 322.253 0 0 1-6.364-4.277 2.366 2.366 0 0 1 2.686-3.893 317.016 317.016 0 0 0 6.268 4.215 2.365 2.365 0 0 1-2.59 3.955zm-12.62-8.715a289.563 289.563 0 0 1-6.142-4.597 2.364 2.364 0 1 1 2.882-3.747c1.967 1.512 4 3.034 6.043 4.521a2.365 2.365 0 0 1-2.783 3.823zm-12.16-9.353a276.856 276.856 0 0 1-5.888-4.919 2.365 2.365 0 1 1 3.081-3.586 278.694 278.694 0 0 0 5.789 4.836 2.365 2.365 0 0 1-2.982 3.669zm-11.638-10.004a261.172 261.172 0 0 1-5.599-5.25 2.366 2.366 0 0 1 3.286-3.402 256.622 256.622 0 0 0 5.497 5.156 2.364 2.364 0 1 1-3.184 3.496zm-11.038-10.673a243.207 243.207 0 0 1-5.266-5.591 2.365 2.365 0 0 1 3.494-3.187 238.02 238.02 0 0 0 5.163 5.48 2.363 2.363 0 0 1-1.696 4.012 2.346 2.346 0 0 1-1.695-.714zm-10.348-11.355a220.603 220.603 0 0 1-4.883-5.935 2.363 2.363 0 0 1 .382-3.321 2.361 2.361 0 0 1 3.322.382c1.532 1.93 3.14 3.883 4.779 5.808a2.364 2.364 0 1 1-3.6 3.066zm-9.556-12.039a207.428 207.428 0 0 1-4.448-6.274 2.366 2.366 0 0 1 3.909-2.662 200.461 200.461 0 0 0 4.345 6.131 2.364 2.364 0 0 1-3.806 2.805zm-8.654-12.715a195.027 195.027 0 0 1-3.953-6.602 2.365 2.365 0 0 1 4.105-2.348 188.774 188.774 0 0 0 3.856 6.44 2.365 2.365 0 0 1-4.008 2.51zm-7.635-13.362a181.449 181.449 0 0 1-3.401-6.907 2.363 2.363 0 1 1 4.285-1.999 178.83 178.83 0 0 0 3.314 6.729 2.363 2.363 0 0 1-2.097 3.453c-.855 0-1.68-.464-2.101-1.276zm-6.508-13.951a177.699 177.699 0 0 1-2.798-7.175 2.364 2.364 0 1 1 4.441-1.622c.853 2.336 1.77 4.686 2.724 6.983a2.364 2.364 0 0 1-4.367 1.814zm-5.281-14.465a175.907 175.907 0 0 1-2.157-7.393 2.363 2.363 0 0 1 1.672-2.895 2.359 2.359 0 0 1 2.896 1.672 166.885 166.885 0 0 0 2.098 7.192 2.365 2.365 0 0 1-4.509 1.424zm-3.983-14.874c-.55-2.49-1.052-5.032-1.493-7.554a2.364 2.364 0 0 1 4.658-.815c.429 2.456.918 4.928 1.453 7.349a2.365 2.365 0 0 1-4.618 1.02zm-2.652-15.166a178.222 178.222 0 0 1-.826-7.657 2.364 2.364 0 0 1 2.153-2.558c1.291-.125 2.446.852 2.558 2.152.214 2.487.484 4.994.804 7.454a2.364 2.364 0 1 1-4.689.609zM3286.188 2187.236c1.408-.059 2.42-1.161 2.364-2.466a184.116 184.116 0 0 1-.122-3.668c-.03-1.307-1.107-2.395-2.419-2.309a2.364 2.364 0 0 0-2.309 2.417c.029 1.26.072 2.515.125 3.762a2.366 2.366 0 0 0 2.361 2.264z" class="color23315e svgShape"/><circle cx="3185.701" cy="2214.921" r="16.728" fill="#23315e" class="color23315e svgShape"/><path fill="#f6af9a" d="M3432.398 1702.65c-3.83-25.264-27.958-42.18-52.883-36.549-18.823 4.253-43.385 19.379-66.972 62.544-47.768 87.418-82.703 188.453-96.063 230.976-13.36 42.522-34.641 111.439-4.37 130.139s62.674-12.503 80.385-39.842c17.711-27.339 63.942-140.568 97.917-201.611 24.775-44.512 48.046-105.678 41.986-145.657z" class="colorf6af9a svgShape"/><path fill="#e57e73" d="m3206.019 1994.843 65.303 45.599c5.502-75.191-10.885-150.381-18.888-181.556-16.792 42.38-29.162 79.119-35.953 100.734-3.303 10.514-7.09 22.641-10.462 35.223z" class="colore57e73 svgShape"/><path fill="#fff" d="M3410.128 1664.307s39.96 11.616 28.809 78.062c-11.152 66.445-64.122 186.791-72.486 212.347 0 0-132.426-44.142-159.376-77.132 0 0 78.062-143.113 99.436-171.922 21.374-28.81 59.94-61.8 103.617-41.355z" class="colorfff svgShape"/><path fill="#f6af9a" d="M3276.239 2047.547s-9.037-66.911-36.129-131.094c-20.782-49.233-50.035-118.253-68.691-158.088-8.88-18.96-18.958-27.059-29.258-25.617-30.643 4.289-15.853 62.347-11.231 101.062 4.033 33.783 29.912 147.857 38.883 183.307 8.971 35.45 14.474 67.112 42.133 76.733 27.658 9.619 71.853-6.844 64.293-46.303z" class="colorf6af9a svgShape"/><path fill="#f6af9a" d="M3131.669 1826.181s-7.437-31.146-13.571-53.049c-6.134-21.903-18.046-43.137-24.641-57.507-6.594-14.37-9.698-27.636-7.61-42.143 2.088-14.506 12.393-58.668 15.739-66.825 3.345-8.158 9.667-11.152 11.458-7.706 0 0 5.597-12.246 13.818-4.849 0 0 8.144-9.777 14.105 1.129 0 0 13.318-4.147 10.22 11.804-1.428 7.356-3.511 14.165-5.243 22.468-3.015 14.453-3.804 29.208-4.109 33.257-.479 6.376 3.294 25.421 7.464 32.882s10.706-18.694 11.754-25.658c1.048-6.964-3.427-21.56 5.21-24.59 8.636-3.03 12.151 24.124 13.399 29.894 1.249 5.77-1.664 29.166-4.918 43.112-3.254 13.946-6.738 25.579-4.196 40.013 2.543 14.434 29.959 64.37 3.58 80.416-21.395 13.016-37.556 4.643-42.459-12.648z" class="colorf6af9a svgShape"/><path fill="#e57e73" d="M3112.878 1598.889c-2.162 5.175-3.938 10.492-5.663 15.827a350.66 350.66 0 0 0-4.564 16.192c-1.333 5.445-2.928 10.859-3.61 16.441-.75 5.565-1.186 11.181-.97 16.847a.18.18 0 0 0 .186.173c1.065-2.825 1.736-5.543 2.404-8.258.705-2.708 1.243-5.438 1.874-8.15a168.898 168.898 0 0 0 1.511-8.202c.384-2.758.897-5.492 1.376-8.236a349.303 349.303 0 0 1 3.504-16.337c1.256-5.431 2.667-10.833 4.285-16.172a.178.178 0 0 0-.112-.225.184.184 0 0 0-.221.1zM3126.693 1594.049c-2.032 5.613-3.818 11.306-5.587 17.007a586.366 586.366 0 0 0-4.852 17.242c-1.505 5.774-3.228 11.534-4.054 17.483-.425 2.97-.778 5.956-.927 8.968-.146 3.008-.213 6.043.299 9.073a.178.178 0 0 0 .205.146c1.236-6.018 2.645-11.763 3.91-17.547 1.323-5.768 2.132-11.652 3.332-17.478a586.33 586.33 0 0 1 3.802-17.43 567.85 567.85 0 0 1 4.212-17.357.178.178 0 0 0-.125-.218.182.182 0 0 0-.215.111zM3140.801 1595.172c-2.204 5.665-3.928 11.493-5.553 17.35a285.216 285.216 0 0 0-4.088 17.776c-1.113 5.975-2.452 11.951-2.786 18.044-.426 6.077-.438 12.19.224 18.284.011.099.099.17.198.159.851-3.14 1.288-6.135 1.771-9.122.516-2.984.86-5.975 1.335-8.951.205-1.491.389-2.984.559-4.478.19-1.492.349-2.988.493-4.487.249-3.003.632-5.991 1.006-8.982a281.842 281.842 0 0 1 3.016-17.837c1.15-5.926 2.504-11.823 4.16-17.635a.178.178 0 0 0-.335-.121z" class="colore57e73 svgShape"/><path fill="#f6af9a" d="M2997.108 2059.012s-10.124 48.884 79.12 75.872c81.677 24.7 183.433 46.837 209.838 53.552 26.405 6.714 35.457-17.862 34.714-30.881-.744-13.019-24.254-30.659-56.239-43.247-31.986-12.588-94.714-39.407-137.851-67.127s-127.182-53.377-129.582 11.831z" class="colorf6af9a svgShape"/><path fill="#e57e73" d="M3316.198 2129.853s16.242-5.762 26.556-16.536c10.314-10.774 34.219-20.815 57.617-9.293 0 0-25.538 50.6-84.173 25.829z" class="colore57e73 svgShape"/><path fill="#f6af9a" d="M3272.679 2144.47s6.558-17.293 24.437-16.12c21.476 1.41 41.896 1.556 58.545-6.063 25.775-11.797 44.047-25.423 53.887-36.888 1.17-1.363 4.812-2.486 6.389-1.626 6.941 3.784 15.31 20.817 6.811 32.491 0 0 22.527 19.98-3.124 33.737 0 0 23.138 16.878 2.585 34.717 0 0 10.132 18.952-4.182 28.576-20.05 13.481-57.822 3.378-89.553-7.127-31.73-10.504-67.732-29.579-55.795-61.697z" class="colorf6af9a svgShape"/><path fill="#e57e73" d="M3422.657 2116.112c-1.99.836-3.971 1.672-5.988 2.416a233.568 233.568 0 0 1-6.015 2.225c-2.01.718-4.142 1.075-6.031 2.048-1.9.969-3.78 1.969-5.557 3.531l.1.34c1.169.162 2.314.169 3.42.044a18.967 18.967 0 0 0 3.265-.588c1.068-.269 2.077-.695 3.055-1.193l2.883-1.581a79.543 79.543 0 0 0 5.674-3.24c1.829-1.184 3.653-2.361 5.376-3.698l-.182-.304zM3419.558 2149.837c-2.309.583-4.628 1.101-6.966 1.482-2.328.413-4.662.747-6.992 1.007-2.336.27-4.694.112-6.979.555-2.3.454-4.591.859-6.987 1.814l-.01.355c1.181.497 2.396.866 3.614 1.049 1.221.221 2.45.323 3.675.317 1.228.027 2.438-.157 3.636-.397l3.548-.899a63.749 63.749 0 0 0 6.954-2.087c2.262-.855 4.501-1.741 6.64-2.866l-.133-.33zM3422.156 2184.55c-2.725.503-5.472.867-8.221 1.032a80.418 80.418 0 0 1-8.207.161c-2.732-.072-5.396-.656-8.084-.706-2.717-.021-5.386-.247-8.329.006l-.097.341c1.219.8 2.508 1.539 3.867 2.003.673.268 1.364.466 2.052.698.696.176 1.4.315 2.103.474 1.41.308 2.851.338 4.282.329 1.434-.101 2.859-.156 4.276-.31a58.725 58.725 0 0 0 8.397-1.243c2.747-.648 5.462-1.389 8.071-2.449l-.11-.336z" class="colore57e73 svgShape"/><path fill="#fff" d="M3542.219 1807.117s44.822 10.458 44.822 126.995v421.325s17.095 69.196-148.203 88.643c-169.335 19.922-177.502 59.156-177.502 193.621 0 0 71.715 9.077 138.948 1.607s212.156-8.964 227.097-124.007c14.941-115.043-2.988-274.907 0-370.527 2.152-68.868 1.204-213.686.505-289.329-.247-26.767-22.015-48.329-48.783-48.329h-36.884z" class="colorfff svgShape"/><path fill="#5571a3" d="m4529.826 2732.934 49.776 564.855c1.112 13.88-9.851 25.757-23.775 25.757h-15.708c-11.857 0-21.914-8.71-23.607-20.446l-90.364-570.166h103.678zM4702.965 2633.405l101.223 562.913c2.373 14.516-8.831 27.699-23.539 27.699h-15.105a23.85 23.85 0 0 1-23.256-18.559l-143-572.053h103.677zM4236.943 2633.405l-101.223 562.913c-2.373 14.516 8.83 27.699 23.539 27.699h15.105c11.134 0 20.786-7.703 23.257-18.559l143-572.053h-103.678zM3944.578 2704.942l-99.46 591.131c-2.219 14.447 8.959 27.473 23.575 27.473h15.143c11.24 0 20.955-7.847 23.318-18.836l141.102-599.768h-103.678z" class="color5571a3 svgShape"/><path fill="#f4d7c9" d="M4261.824 1849.618s-93.308-7.776-93.308 71.536v441.658s13.996 54.43-132.187 82.422c-136.014 26.045-143.072 82.422-133.741 178.84l290.816-111.97-.006-594.061c0 .001-1.555-59.094 68.426-68.425z" class="colorf4d7c9 svgShape"/><path fill="#46699b" d="M4723.698 2659.843s-9.331 73.091-113.524 83.977-513.194 7.776-618.943-17.106c-105.749-24.882-87.087-94.863-87.087-94.863l819.554 27.992z" class="color46699b svgShape"/><path fill="#d6d8d8" d="M4740.805 1918.044v657.821h-547.407v-657.821c0-37.791 30.635-68.426 68.426-68.426h410.555c37.79 0 68.426 30.636 68.426 68.426z" class="colord6d8d8 svgShape"/><path fill="#d6d8d8" d="M4740.805 2575.865s3.11-63.76-141.517-63.76h-405.884l-290.816 111.97s-18.661 40.433 107.304 62.205c125.966 21.772 360.699 31.849 412.111 26.438 59.095-6.221 318.802-136.853 318.802-136.853z" class="colord6d8d8 svgShape"/><path fill="#f6af9a" d="M4204.928 1636.259s-63.359 49.297-135.122 211.58c-71.762 162.283-117.333 206.705-131.859 259.737-12.934 47.221 36.807 74.55 65.16 61.607 33.941-15.493 126.473-125.722 191.264-235.495 64.791-109.773 116.084-206.593 87.206-265.369s-76.649-32.06-76.649-32.06z" class="colorf6af9a svgShape"/><path fill="#d66658" d="M4209.187 1627.212s-74.169 42.048-128.387 169.439c0 0 38.135 75.762 132.728 120.726 0 0 90.118-127.981 85.459-212.781-4.66-84.801-62.352-92.058-89.8-77.384z" class="colord66658 svgShape"/><path fill="#ea9a88" d="M4481.945 2480.016s-10.287-153.902-217.613-152.883c-194.104.953-471.841 2.918-551.182 66.827-23.967 17.209-70.139 123.752 33.149 162.875 103.288 39.123 269.425 76.358 366.132 91.464 96.708 15.106 380.347 46.132 369.514-168.283z" class="colorea9a88 svgShape"/><path fill="#d46557" d="M4486.995 2495.911s6.193-111.476-106.831-154.054c-26.321-10.064-87.478-20.128-205.147-18.579-117.669 1.548-286.431 9.29-376.231 32.514-89.8 23.224-123.862 46.835-119.991 126.572 3.097 70.447 99.864 91.736 131.604 101.025 0 0 243.854 80.51 431.969 79.736 188.115-.774 244.627-68.124 244.627-167.214z" class="colord46557 svgShape"/><path fill="#cc6154" d="m3846.926 2594.632 18.314-109.885s39.892 33.601 57.788 130.737c-30.593-7.776-56.732-15.143-76.102-20.852z" class="colorcc6154 svgShape"/><path fill="#ea9a88" d="M3753.945 2379.073c-47.751 5.088-76.401 48.732-74.377 96.71 3.021 71.603 5.806 163.104 37.369 396.669 42.369 313.531 53.849 298.898 89.722 305.836 44.104 8.53 42.842-91.209 55.467-173.272 11.329-73.64 40.472-239.468 35.749-348.085-5.419-124.636-46.304-273.506-120.492-278.294-8.346-.538-16.153-.34-23.438.436z" class="colorea9a88 svgShape"/><path fill="#e0e0e0" d="M3873.619 3271.598v62.172c0 .663-.38 1.262-.981 1.542-4.388 2.045-23.925 9.612-67.401 6.474v-53.932l68.382-16.256z" class="colore0e0e0 svgShape"/><path fill="#d8d8d8" d="m3805.237 3341.787-26.266-11.537a2.25 2.25 0 0 1-1.345-2.06v-40.334h27.611v53.931z" class="colord8d8d8 svgShape"/><path fill="#e0e0e0" d="M3872.845 3235.472s-3.871-9.161-33.804 3.226-142.7 49.416-175.729 60.254c-33.03 10.838-85.413 3.097-109.67-.516-24.256-3.613-49.029-6.193-47.997.516 0 0 8.773 14.967 50.061 20.644s95.219 12.902 159.215-16.515c63.995-29.418 161.021-31.999 157.924-67.609z" class="colore0e0e0 svgShape"/><path fill="#e8e8e8" d="M3872.845 3235.472s6.096 9.144 4.689 29.833c-.236 3.477-2.594 6.447-5.913 7.51-13.748 4.405-51.677 18.703-94.254 27.169-44.126 8.773-74.204 24.581-89.366 32.181a49.254 49.254 0 0 1-18.337 5.068c-29.146 2.219-86.986 7.804-155.335-10.612-4.529-1.22-7.819-5.108-8.363-9.767-.47-4.029-.745-9.829-.32-17.902 0 0 53.416 25.289 122.572 18.579 69.156-6.709 79.736-24.514 161.279-43.61 81.477-16.451 82.638-29.998 83.348-38.449z" class="colore8e8e8 svgShape"/><path fill="#f6af9a" d="M3853.492 3074.193s-6.451 30.966-1.806 62.705c5.765 39.394 30.32 82.446 5.161 107.992-23.459 23.82-66.318 16.644-122.056 38.32s-65.028 38.707-155.86 35.352c-38.707-4.645-61.972-4.934-60.641-33.546 1.032-22.192 27.095-34.062 52.384-37.675 22.695-3.242 52.125-17.289 102.702-54.448 56.581-41.57 75.35-54.706 74.317-79.994-.764-18.708-2.064-37.933-2.839-55.48-1.008-22.844 18.321-43.997 56.254-45.545 35.832-1.462 57.803 20.128 52.384 62.319z" class="colorf6af9a svgShape"/><path fill="#e8e8e8" d="M3690.406 3308.757s-23.943-15.49-32.901-30.578c-13.817-23.272-25.016-44.38-33.596-52.414a3.769 3.769 0 0 0-3.841-.791c-8.458 2.99-20.198 14.212-57.782 22.24-39.868 8.516-56.125 19.16-56.641 51.738 0-.001 77.93 53.157 184.761 9.805z" class="colore8e8e8 svgShape"/><path fill="#e8e8e8" d="M3854.743 3147.532c1.845 2.068 6.257 8.235 4.466 18.41-.089.506-.344.97-.715 1.327-3.946 3.796-27.994 27.113-55.58 57.881-20.016 22.326-44.513 39.481-43.352 63.479 0 0-37.159 11.612-47.997 16.644 0 0-30.191 10.064-35.61 10.838l-9.935-20.128s47.609-6.58 97.412-60.77c49.426-53.779 84.137-83.147 89.745-87.804a1.128 1.128 0 0 1 1.566.123z" class="colore8e8e8 svgShape"/><path fill="#d46557" d="M3772.465 2372.049s65.028 1.548 94.445 97.542c29.417 95.993 34.062 139.345 41.029 308.881 6.968 169.536-7.483 428.357-15.741 446.936-5.118 11.516-60.512 7.483-113.54-5.677-45.311-11.245-85.155-22.837-110.315-34.836-7.354-5.806-2.953-27.071-.499-81.254 7.056-155.822 7.127-243.8 3.483-350.667-3.483-102.181-43.626-349.572 67.075-378.602 17.225-4.452 34.063-2.323 34.063-2.323z" class="colord46557 svgShape"/><path fill="#f6af9a" d="M4364.612 1580.653c-63.494-3.863-100.852 9.511-146.018 54.304-38.491 38.174-74.236 125.885-105.508 188.227-30.471 60.745-20.902 114.831 18.321 186.567 2.545 4.655 13.16 20.128 13.16 20.128s.849 81.694 8.257 143.216c6.169 51.227 14.84 164.623 151.082 182.824 136.28 18.206 185.659-142.362 210.7-310.299 18.649-125.075 28.466-253.767 25.672-318.252-3.715-85.758-64.436-139.948-175.666-146.715z" class="colorf6af9a svgShape"/><path fill="#f6af9a" d="M4266.078 1540.618s4.664 34.797-1.832 61.607c-6.496 26.81-19.383 55.176 31.053 68.198 39.367 10.164 106.542-17.142 119.873-36.9s12.55-23.156 4.671-44.49c-4.378-11.856-21.968-38.54-16.189-130.469 2.184-28.614-31.297-52.576-66.271-36.629-24.381 11.117-79.412 26.537-71.305 118.683z" class="colorf6af9a svgShape"/><path fill="#e57e73" d="M4337.383 1421.935c34.974-15.948 57.5 15.055 53.328 43.447-4.19 28.51-43.727 114.913-126.053 135.032 5.872-26.539 1.42-59.797 1.42-59.797-8.107-92.145 46.924-107.566 71.305-118.682z" class="colore57e73 svgShape"/><path fill="#f6af9a" d="M4513.058 2070.393s-23.022 118.306 54.758 232.845c67.822 99.874 102.439 300.782-110.238 349.05-161.651 36.687-278.588-89.762-297.786-243.338-7.679-53.751-.387-143.985-3.871-214.695-4.364-88.582 17.979-191.131 79.655-241.306 116.769-94.994 298.963-73.498 277.482 117.444z" class="colorf6af9a svgShape"/><path fill="#de6a5b" d="M4415.581 1578.889s31.933 15.925 60.576 32.181c28.643 16.257 62.706 41.029 68.125 128.507s-4.645 202.824-13.161 249.273c-6.357 34.677-14.708 51.093-17.031 70.447 0 0-3.097 40.255-1.548 49.545 1.548 9.29 14.708 91.348 39.481 147.086s100.638 167.988 66.576 281.012c-34.062 113.024-219.082 169.536-331.332 108.379s-139.345-233.016-135.475-318.945c3.871-85.93-.774-156.376-4.645-196.631-3.871-40.255-9.29-102.573-11.612-114.96 0 0-49.545-56.125-46.448-124.249 3.097-68.124 78.851-185.088 96.768-218.307 18.579-34.449 56.565-69.549 79.175-73.601 0 0-74.53 80.568-104.722 243.138 0 0 65.802-109.928 161.795-174.955.001-.001 81.092-62.374 93.478-87.92z" class="colorde6a5b svgShape"/><path fill="#d66658" d="m4141.533 2058.478 154.493 32.639 24.384-228.747-12.772-5.806s11.611-58.058 26.706-123.082c15.095-65.025 45.285-90.57 127.727-68.508 53.131 14.218 78.082 46.217 83.679 117.07.263 24.315-.337 49.488-1.501 73.841l-18.314 4.162s-52.251 286.804-65.024 337.895c-12.772 51.091-34.834 119.599-91.731 103.343-41.163-11.761-156.468-67.886-217.093-98.028-1.203-29.962-3.152-54.95-4.937-73.514-2.317-24.078-4.078-50.925-5.617-71.265z" class="colord66658 svgShape"/><path fill="#cc6154" d="M4152.44 2371.985c129.408-33.74 203.966-26.576 203.966-26.576 5.043 95.815-112.801 139.308-178.276 156.024-15.42-44.188-23.13-90.433-25.69-129.448z" class="colorcc6154 svgShape"/><path fill="#ed7e6f" d="M4265.03 1598.626c-9.762 11.064-76.818 92.891-104.722 243.138 0 0 6.58-134.507 25.16-153.86 14.421-15.023 54.394-61.761 72.543-82.156 3.31-3.718 5.649-5.602 7.019-7.122zM4309.718 1738.803c-69.673 31.74-149.409 102.96-149.409 102.96s65.802-109.928 161.795-174.955c0 0 81.091-62.373 93.478-87.919-4.645 27.095-27.676 56.18-51.674 115.788-9.189 22.823-31.741 33.288-54.19 44.126z" class="colored7e6f svgShape"/><path fill="#cc6154" d="M4428.017 2135.134c.38.6.837 1.418 1.228 2.172.402.773.788 1.564 1.161 2.365a79.298 79.298 0 0 1 2.073 4.909c1.289 3.328 2.398 6.745 3.371 10.206 1.966 6.927 3.318 14.007 4.411 21.203 1.11 7.187 2.069 14.43 3.125 21.667 1.051 7.238 2.192 14.473 3.519 21.677 2.67 14.401 5.937 28.707 10.417 42.662 2.182 6.994 4.94 13.799 7.528 20.604 1.269 3.412 2.344 6.893 3.024 10.472.693 3.576 1.054 7.213 1.316 10.855-.14-3.648-.379-7.3-.955-10.919-.563-3.621-1.533-7.178-2.693-10.649-2.373-6.928-4.88-13.762-6.818-20.787-1.99-7.004-3.668-14.095-5.202-21.214a415.858 415.858 0 0 1-4.013-21.47c-1.156-7.19-2.126-14.409-3.008-21.647-.889-7.238-1.681-14.495-2.634-21.768-.932-7.264-2.154-14.591-4.015-21.763-.921-3.59-1.987-7.153-3.255-10.666a84.049 84.049 0 0 0-2.069-5.228 61.545 61.545 0 0 0-1.194-2.58 34.196 34.196 0 0 0-1.415-2.623 2.322 2.322 0 0 0-3.978 2.398c.019.033.076.124.076.124zM4417.332 2136.135c1.378 12.479 3.396 24.726 5.717 36.969 1.15 6.123 2.483 12.189 3.69 18.25 1.209 6.065 2.283 12.142 3.076 18.262.802 6.118 1.334 12.273 1.674 18.447.334 6.175.421 12.366.42 18.561-.044 12.391-.643 24.789-1.425 37.172 1.199-12.35 2.217-24.726 2.679-37.146.211-6.21.333-12.429.206-18.655-.133-6.224-.46-12.453-1.062-18.664-1.161-12.431-3.588-24.704-5.62-36.875-1.992-12.19-3.692-24.499-4.727-36.719-.113-1.333-1.237-2.281-2.516-2.173a2.322 2.322 0 0 0-2.112 2.571zM4485.111 2119.49c.447.616.957 1.412 1.413 2.151.468.755.915 1.531 1.359 2.308a89.394 89.394 0 0 1 2.492 4.794 108.118 108.118 0 0 1 4.216 10.017 121.236 121.236 0 0 1 3.297 10.401c.962 3.514 1.837 7.134 2.765 10.705 3.664 14.332 7.562 28.617 11.901 42.768 4.346 14.146 9.106 28.18 14.701 41.887 2.805 6.849 5.826 13.612 9.211 20.194 3.38 6.578 7.19 12.959 11.687 18.824-4.342-5.982-7.97-12.439-11.168-19.084-3.201-6.647-6.034-13.464-8.65-20.36-5.215-13.801-9.591-27.905-13.552-42.113-3.954-14.215-7.464-28.546-10.744-42.937-.836-3.603-1.603-7.188-2.496-10.825a124.998 124.998 0 0 0-3.117-10.806 112.119 112.119 0 0 0-4.105-10.514 93.415 93.415 0 0 0-2.486-5.105 78.96 78.96 0 0 0-1.388-2.503 40.603 40.603 0 0 0-1.567-2.518 2.322 2.322 0 1 0-3.769 2.716zM4474.613 2120.829c-.056 1.888.011 3.578.107 5.344a90.05 90.05 0 0 0 .454 5.208c.393 3.456.962 6.88 1.654 10.275 1.453 6.769 3.422 13.439 5.954 19.842a1146.772 1146.772 0 0 1 14.019 38.321c4.437 12.861 8.656 25.801 12.477 38.861 3.795 13.063 7.213 26.258 9.458 39.696-1.861-13.497-4.909-26.816-8.338-40.005-3.455-13.189-7.313-26.27-11.391-39.28a1148.773 1148.773 0 0 0-12.958-38.806c-2.299-6.334-4.009-12.823-5.23-19.405a114.647 114.647 0 0 1-1.311-9.929 84.86 84.86 0 0 1-.292-4.977c-.045-1.635-.054-3.352.034-4.866.079-1.357-.898-2.456-2.179-2.531a2.323 2.323 0 0 0-2.455 2.184l-.003.068zM4298.139 2153.749c1.114 6.305 1.967 12.778 2.672 19.211.362 3.233.633 6.431.936 9.708.299 3.276.68 6.531 1.08 9.784 1.662 12.997 3.833 25.916 6.746 38.69 1.474 6.382 3.138 12.727 5.183 18.967 2.057 6.259 4.593 12.26 6.964 18.338 2.378 6.064 4.785 12.128 6.317 18.441.764 3.152 1.316 6.366 1.466 9.615.169 3.246-.001 6.509-.433 9.743.539-3.217.821-6.482.76-9.756-.041-3.275-.49-6.539-1.154-9.746-1.334-6.427-3.554-12.611-5.729-18.758-2.174-6.146-4.484-12.27-6.347-18.457-1.846-6.213-3.321-12.543-4.606-18.909-2.537-12.742-4.34-25.641-5.628-38.563-.307-3.231-.595-6.465-.799-9.692-.209-3.225-.397-6.534-.671-9.792-.537-6.551-1.205-13.042-2.179-19.615a2.323 2.323 0 1 0-4.578.791zM4288.056 2153.872c-.848 10.25-1.271 20.419-1.454 30.635-.206 10.197.005 20.431.356 30.586.301 10.165.59 20.328.606 30.49.024 10.162-.294 20.327-1.07 30.472 1.162-10.107 1.868-20.274 2.231-30.452.371-10.178.469-20.36.555-30.537.037-10.185.213-20.301.803-30.434.565-10.111 1.378-20.259 2.589-30.248.16-1.315-.748-2.473-2.021-2.628a2.323 2.323 0 0 0-2.586 2.027l-.009.089zM4485.572 2071.047c.483-12.09.74-24.146.751-36.229.003-3.02-.017-6.04-.059-9.06-.04-1.525.026-2.977.042-4.465.028-1.48.021-2.964.183-4.441.332-5.928 1.419-11.811 2.669-17.661 2.548-11.698 6.287-23.242 8.366-35.172l.411-2.23.32-2.246c.2-1.499.436-2.992.605-4.494.241-3.015.601-6.017.609-9.043.291-6.039-.217-12.073-.861-18.056.452 6.006.764 12.03.281 18.029-.104 3.004-.559 5.98-.893 8.96-.216 1.485-.499 2.961-.744 4.44l-.389 2.216-.479 2.2c-2.441 11.766-6.522 23.102-9.487 34.861-1.455 5.879-2.76 11.85-3.301 17.949-.215 1.515-.258 3.047-.337 4.576-.066 1.523-.18 3.079-.188 4.567a615.752 615.752 0 0 1-.231 9.011 927.12 927.12 0 0 1-1.905 36.008 2.322 2.322 0 1 0 4.633.351l.004-.071zM4476.147 2073.706c.346-7.212.103-14.221-.49-21.282-.304-3.52-.694-7.03-1.225-10.52-.235-1.748-.564-3.484-.85-5.223l-.907-5.154c-1.174-6.878-2.192-13.784-2.924-20.726-.726-6.941-1.177-13.921-1.078-20.918-.486 6.982-.423 14.005-.08 21.007.348 7.005.986 13.995 1.783 20.964l.624 5.224c.186 1.726.414 3.443.55 5.173.331 3.451.522 6.914.629 10.375.203 6.899.042 13.91-.657 20.647-.141 1.359.787 2.501 2.063 2.634a2.324 2.324 0 0 0 2.562-2.201zM4426.983 2088.824c-.162-1.328-.246-2.871-.289-4.328a71.105 71.105 0 0 1 .011-4.453c.096-2.975.351-5.953.76-8.912.397-2.975 1.014-5.841 1.605-8.92.31-1.515.581-3.033.822-4.554.244-1.521.533-3.036.732-4.562 1.798-12.177 2.872-24.415 3.393-36.669.528-12.252.527-24.52-.075-36.754-.607-12.232-1.812-24.436-3.847-36.496 1.651 12.119 2.467 24.329 2.687 36.536.213 12.208-.173 24.417-1.083 36.577-.903 12.158-2.356 24.277-4.511 36.236-.245 1.5-.577 2.98-.863 4.469-.285 1.49-.599 2.972-.948 4.443-.653 2.906-1.421 6.001-1.928 9.075a89.291 89.291 0 0 0-1.093 9.326 76.193 76.193 0 0 0-.161 4.714c.001 1.599.024 3.115.177 4.827a2.323 2.323 0 1 0 4.628-.412l-.017-.143zM4420.416 2090.915c-.07-.827-.16-1.468-.262-2.177a77.348 77.348 0 0 0-.33-2.056 115.16 115.16 0 0 0-.777-4.046 190.633 190.633 0 0 0-1.851-7.963c-1.295-5.281-2.945-10.477-4.211-15.61-2.534-10.365-4.144-21.006-5.228-31.685a278.293 278.293 0 0 1-1.142-16.073c-.259-5.368-.167-10.737-.299-16.156a248.567 248.567 0 0 0-.956-16.172c-.489-5.375-1.111-10.737-1.973-16.06.669 5.349 1.098 10.725 1.394 16.102.293 5.378.432 10.762.374 16.14-.062 5.363-.348 10.775-.282 16.187.031 5.41.225 10.819.569 16.222.707 10.803 1.939 21.592 4.145 32.268 1.127 5.38 2.565 10.525 3.65 15.763a187.055 187.055 0 0 1 1.53 7.851c.224 1.309.432 2.618.608 3.921l.241 1.946c.07.627.133 1.326.159 1.843.066 1.35 1.157 2.337 2.438 2.274a2.323 2.323 0 0 0 2.206-2.435.768.768 0 0 0-.003-.084zM4303.1 2110.031c.378-2.545.595-4.943.782-7.409.18-2.45.294-4.899.351-7.346.058-2.448.059-4.895.017-7.339a50.16 50.16 0 0 1 .444-6.956c.626-4.666 1.763-9.331 2.941-14 1.196-4.671 2.452-9.359 3.538-14.099a143.599 143.599 0 0 0 3.74-28.893 143.034 143.034 0 0 0-2.099-28.946 142.478 142.478 0 0 1 .939 28.89 141.94 141.94 0 0 1-4.833 28.385c-1.26 4.641-2.692 9.243-4.083 13.889-1.373 4.652-2.727 9.352-3.587 14.246a53.608 53.608 0 0 0-.774 7.483 176.097 176.097 0 0 1-.303 7.161 143.095 143.095 0 0 1-.627 7.123c-.27 2.346-.593 4.756-1.016 6.98-.25 1.316.578 2.532 1.838 2.772a2.323 2.323 0 0 0 2.732-1.941zM4296.391 2109.14c-.622-1.506-1.21-3.252-1.718-4.932a84.418 84.418 0 0 1-1.371-5.168 92.216 92.216 0 0 1-1.8-10.588l-.25-2.679-.146-2.664c-.032-1.799-.067-3.6-.03-5.417.039-3.627.184-7.273.344-10.92.319-7.297.739-14.607.935-21.93.15-7.31.319-14.69-.83-21.93.763 7.283.205 14.595-.33 21.867-.582 7.278-1.386 14.541-2.092 21.829-.354 3.645-.694 7.295-.928 10.973-.135 1.835-.197 3.69-.262 5.547l.005 2.816.112 2.792c.209 3.72.646 7.429 1.289 11.113a88.665 88.665 0 0 0 1.151 5.501c.458 1.845.934 3.6 1.607 5.513a2.324 2.324 0 1 0 4.343-1.651l-.029-.072zM4160.309 1841.763c-3.656 10.317-6.568 20.889-9.134 31.546-2.497 10.674-4.548 21.475-5.852 32.404-1.344 10.92-1.909 21.981-1.277 33.073.314 5.525.962 10.991 1.68 16.462.381 2.73.841 5.448 1.26 8.173.517 2.707.981 5.426 1.542 8.124a307.495 307.495 0 0 0 8.635 31.855c1.71 5.218 3.543 10.386 5.34 15.536a413.188 413.188 0 0 1 2.625 7.717c.445 1.283.821 2.567 1.221 3.851l1.191 3.945c3.31 10.508 7.103 20.664 9.533 31.264 1.281 5.277 2.262 10.628 3.08 16.015l.566 4.049.467 4.065c.359 2.709.527 5.435.799 8.158.006-5.467-.092-10.95-.553-16.418a170.497 170.497 0 0 0-2.128-16.34c-.994-5.412-2.294-10.772-3.748-16.069-1.446-5.3-3.105-10.515-4.538-15.741l-1.047-3.939c-.368-1.338-.717-2.689-1.125-4.002-.786-2.648-1.645-5.253-2.488-7.857-1.7-5.203-3.417-10.372-5.006-15.573-3.273-10.37-6.09-20.852-8.28-31.463-2.271-10.588-3.803-21.346-4.651-32.12-.86-10.723-.411-21.581.494-32.39.979-10.811 2.52-21.599 4.481-32.319a477.518 477.518 0 0 1 6.913-32.006zM4188.952 2010.268c8.606 3.388 17.735 5.36 26.914 6.586 2.301.269 4.601.613 6.915.776 2.313.173 4.629.325 6.948.462l6.965.114c1.162.037 2.322-.021 3.482-.067l3.482-.134 3.481-.161 3.47-.333c2.309-.264 4.628-.425 6.925-.774 4.583-.776 9.186-1.415 13.672-2.651 9.061-2.014 17.793-5.321 26.125-9.237-2.265.49-4.5 1.035-6.726 1.587-1.116.266-2.219.565-3.325.85-1.095.322-2.243.464-3.359.704l-6.699 1.393c-1.109.253-2.236.423-3.36.604l-3.369.546c-4.472.817-8.998 1.248-13.494 1.831-2.252.255-4.52.379-6.777.575l-3.388.295-3.398.131c-2.265.079-4.528.269-6.796.259l-6.806.072-6.81-.144c-1.138.003-2.269-.097-3.405-.143l-3.409-.151c-9.087-.533-18.166-1.464-27.258-2.99z" class="colorcc6154 svgShape"/><path fill="#f6af9a" d="M4559.356 2616.644c68.34-54.223 72.508-155.885 9.766-216.498-34.267-33.104-89.292-63.419-173.374-55.137-171.742 16.916-229.906 39.817-361.917 87.718-95.365 34.604-114.673 39.425-178.968 72.922-64.294 33.497-72.883 96.706-59.219 131.21 13.664 34.504 49.929 82.442 162.561 82.442 103.609 0 180.35.068 283.962-12.664 70.162-8.624 229.655-20.541 317.189-89.993z" class="colorf6af9a svgShape"/><path fill="#de6a5b" d="M4616.577 2470.813s-35.996-130.049-178.817-133.532c0 0-121.921-3.483-310.027 56.896 0 0-304.221 80.119-334.411 170.689-26.865 80.595-1.161 142.822 156.755 161.4 162.634 19.133 457.493-31.351 537.613-63.863 80.119-32.512 149.788-96.375 128.887-191.59z" class="colorde6a5b svgShape"/><path fill="#cc6154" d="m4033.696 2730.471-47.569-164.113c61.573 36.441 112.946 127.952 130.118 161.141-28.38 1.87-56.18 2.931-82.549 2.972z" class="colorcc6154 svgShape"/><path fill="#e0e0e0" d="M4260.431 3374.559v61.468a2.79 2.79 0 0 1-1.684 2.562c-5.533 2.403-25.222 9.152-66.699 6.159v-53.932l68.383-16.257z" class="colore0e0e0 svgShape"/><path fill="#d8d8d8" d="m4192.048 3444.747-25.943-11.396a2.788 2.788 0 0 1-1.668-2.554v-39.982h27.611v53.932z" class="colord8d8d8 svgShape"/><path fill="#e0e0e0" d="M4259.657 3338.432s-5.677-6.193-35.611 6.193c-29.933 12.386-140.893 46.448-173.923 57.286-33.03 10.838-100.638 3.097-124.895-.516-24.256-3.613-49.029-6.193-47.997.516 0 0 8.773 14.967 50.061 20.644 41.288 5.677 110.444 12.902 174.439-16.515 63.997-29.417 161.022-31.997 157.926-67.608z" class="colore0e0e0 svgShape"/><path fill="#e8e8e8" d="M4259.657 3338.432s6.096 9.144 4.689 29.833c-.236 3.477-2.594 6.447-5.912 7.51-13.748 4.405-52.188 16.446-94.254 27.169-41.826 10.662-74.204 24.581-89.366 32.181a49.259 49.259 0 0 1-18.338 5.068c-29.146 2.219-102.21 7.804-170.56-10.612-4.529-1.22-7.819-5.108-8.363-9.767-.47-4.03-.745-9.829-.32-17.902 0 0 68.64 25.289 137.797 18.58 69.156-6.709 90.832-27.224 172.375-46.319 46.06-9.678 66.574-21.29 72.252-35.741z" class="colore8e8e8 svgShape"/><path fill="#f6af9a" d="M4201.338 3183.346s0 15.483 17.805 51.093 41.03 95.219 16.257 117.669c-24.772 22.45-54.706 13.161-110.444 34.836-55.738 21.676-85.414 39.223-163.602 34.578-38.707-4.645-72.146-4.91-72.769-33.546-.516-23.74 27.353-31.998 52.641-35.61 22.695-3.242 64.254-8 111.476-53.674 47.222-45.674 61.931-55.738 59.609-74.317-2.322-18.579-11.612-25.546-16.257-41.029-4.645-15.483 6.967-44.126 41.804-52.641 34.837-8.516 49.546 13.16 63.48 52.641z" class="colorf6af9a svgShape"/><path fill="#e8e8e8" d="M4071.283 3413.266s-20.128-15.483-28.385-30.965c-7.783-14.593-23.36-42.941-32.471-51.768a3.698 3.698 0 0 0-3.606-.906c-9.876 2.854-31.322 14.619-66.625 19.903-29.378 4.397-66.576 14.709-62.963 52.383-.001-.001 87.219 54.704 194.05 11.353z" class="colore8e8e8 svgShape"/><path fill="#e8e8e8" d="M4227.862 3249.946c2.659 2.042 9.419 7.664 7.938 20.455a3.21 3.21 0 0 1-.559 1.463c-2.787 4.009-18.293 25.884-45.515 56.247-20.016 22.326-44.513 39.481-43.352 63.479 0 0-37.159 11.612-47.997 16.644 0 0-30.191 10.064-35.61 10.838l-15.483-25.547s53.797-6.187 102.96-55.351c50.636-50.635 71.966-81.967 75.855-87.937a1.215 1.215 0 0 1 1.763-.291z" class="colore8e8e8 svgShape"/><path fill="#f6af9a" d="M3802.611 2658.92s63.78 137.356 134.693 257.775c61.541 104.504 157.209 269.954 188.685 324.196 31.475 54.241 59.847 27.676 70.166 17.021 10.319-10.655 18.651-37.658 1.956-93.143-16.695-55.484-40.035-153.366-68.055-243.429-32.512-104.504-84.767-297.258-166.044-378.535-96.377-96.376-205.525 11.611-161.401 116.115z" class="colorf6af9a svgShape"/><path fill="#de6a5b" d="M3842.912 2512.942s55.738-27.869 117.411 14.193c57.439 39.174 107.347 126.959 150.699 227.597 43.352 100.638 98.832 288.496 121.282 362.039 15.17 49.696 60.899 188.374 23.998 188.89-7.999 2.323-32.597 10.137-61.295 11.632-118.563 6.174-184.365-.02-192.88-6.213-8.515-6.193-9.806-92.123-33.804-167.214-23.998-75.092-99.864-289.528-133.926-374.683-34.062-85.155-65.028-146.312-42.578-199.728 19.353-47.997 51.093-56.513 51.093-56.513z" class="colorde6a5b svgShape"/><path fill="#212851" d="M4514.09 2059.297s-214.834 96.251-370.694 24.514c0 0-6.312 32.385 4.022 48.747 0 0 123.593 60.149 365.124-23.717 0 .001 7.225-20.385 1.548-49.544z" class="color212851 svgShape"/><path fill="#1a2347" d="M4183.533 2128.969s-5.419 20.902-11.612 74.317c-6.193 53.416-1.548 85.929 7.741 138.571 7.344 41.617 17.805 82.833 2.322 130.055 0 0 21.676 1.548 41.804 10.838 0 0 19.354-58.834 3.097-123.862-16.257-65.027-40.256-171.858-43.352-229.919z" class="color1a2347 svgShape"/><path fill="#212851" d="M4202.407 2124.775a3.25 3.25 0 0 1 2.444 2.937c.619 9.321 2.899 45.103 4.228 85.638 1.548 47.222 10.792 71.402 36.384 107.605 31.74 44.9 68.125 82.833 54.964 178.052 0 0-9.29.774-19.354-6.967-10.063-7.741-15.482.774-25.546-2.322 0 0 6.967-68.898-30.966-131.604-36.366-60.115-42.578-91.348-41.803-150.957.6-46.22.347-73.279.203-83.103-.031-2.142 1.98-3.723 4.056-3.195l15.39 3.916z" class="color212851 svgShape"/><path fill="#f6af9a" d="M4316.746 1176.94s-145.406-11.123-150.066 149.542 14.919 241.633 79.347 243.149c64.428 1.516 151.133-56.005 188.891-142.972 37.756-86.967 20.347-239.249-118.172-249.719z" class="colorf6af9a svgShape"/><path fill="#f6af9a" d="M4316.746 1176.94s-145.406-11.123-150.066 149.542 14.919 241.633 79.347 243.149c64.428 1.516 151.133-56.005 188.891-142.972 37.756-86.967 20.347-239.249-118.172-249.719z" class="colorf6af9a svgShape"/><path fill="#f6af9a" d="M4171.911 1473.222a3.548 3.548 0 0 1-.887.014c-16.903-1.854-25.58-5.918-27.307-12.789-1.42-5.651 2.573-10.032 7.197-15.105 2.424-2.66 5.172-5.675 7.552-9.276 7.202-10.904 8.526-46.922 10.426-47.194l.055-.007a3.523 3.523 0 0 1 3.94 3.048c2.489 19.524 2.233 76.273 2.021 78.207a3.522 3.522 0 0 1-2.997 3.102z" class="colorf6af9a svgShape"/><path fill="#192244" d="M4179.557 1368.582c3.863-.547 27.863-4.469 44.074-19.289a3.582 3.582 0 0 0-4.834-5.288c-15.63 14.288-40.37 17.5-40.62 17.534-1.927.222-3.356 2.033-3.113 3.996a3.583 3.583 0 0 0 3.996 3.114c.069-.009.237-.03.497-.067z" class="color192244 svgShape"/><path fill="#e57e73" d="M4195.978 1449.197c-1.058-3.302-.185-6.905 2.083-9.527 3.278-3.79 9.79-9.142 20.951-10.182 17.636-1.644 45.492-5.358 53.134.397 7.643 5.755 8.848 21.772-11.559 25.382-18.664 3.302-58.954 11.585-64.609-6.07z" class="colore57e73 svgShape"/><path fill="#000" d="M4213.91 1394.773c.771 10.046-3.844 18.591-10.31 19.088s-12.333-7.245-13.104-17.29 3.845-18.592 10.31-19.088c6.465-.496 12.333 7.245 13.104 17.29z" class="color000 svgShape"/><path fill="#d1655c" d="M4218.988 1502.73c-6.125-4.292-22.226-13.708-42.841-11.401a244.903 244.903 0 0 0 1.772 7.356c17.634-1.639 31.452 6.456 36.768 10.182a3.74 3.74 0 0 0 2.683.641 3.75 3.75 0 0 0 1.618-6.778z" class="colord1655c svgShape"/><path fill="#e57e73" d="M4313.595 1411.607s2.776-56.06 38.428-49.938c30.04 5.159 9.832 60.04 2.398 74.215-12.564 23.958-48.093 29.075-40.826-24.277z" class="colore57e73 svgShape"/><path fill="#212851" d="M4233.852 1220.13s-5.419 52.641 23.224 92.897c28.643 40.255 36.179 47.384 59.403 80.672s3.56 142.538 69.104 207.566c28.365 28.141 113.798-44.9 155.732 110.444 0 0 7.611-46.448-14.065-113.798s-50.989-72.622-44.126-187.083c8-133.41-27.095-268.11-199.728-234.822-48.77 7.74-49.544 44.124-49.544 44.124z" class="color212851 svgShape"/><path fill="#212851" d="M4293.662 1174.198s-174.935-4.473-126.982 152.284c6.65-30.977 13.107-64.576 66.764-84.039 53.657-19.462 54.566-62.612 60.218-68.245z" class="color212851 svgShape"/><path fill="#f6af9a" d="M4308.821 1413.599s5.062-51.212 35.527-50.285c30.465.927 14.157 55.915 7.72 70.569-7.999 18.212-47.122 33.736-43.247-20.284z" class="colorf6af9a svgShape"/><path fill="#e57e73" d="M4330.818 1430.406a3.07 3.07 0 0 0 1.978-3.787c-.084-.277-8.03-27.765 8.066-37.061a3.063 3.063 0 0 0 1.12-4.19 3.056 3.056 0 0 0-4.189-1.122c-20.293 11.72-11.271 42.81-10.878 44.128a3.07 3.07 0 0 0 3.817 2.059c.029-.008.058-.018.086-.027z" class="colore57e73 svgShape"/><path fill="#e57e73" d="M4329.312 1415.672a3.05 3.05 0 0 0 1.686-1.363c.061-.101 6.107-10.188 14.82-10.318a3.068 3.068 0 0 0-.086-6.135c-12.216.17-19.716 12.821-20.031 13.358a3.068 3.068 0 0 0 3.611 4.458z" class="colore57e73 svgShape"/><path fill="#f7bead" d="M4351.873 2273.826s-43.704-.286-177.197-76.304c-94.961-54.076-163.228-88.542-176.318-106.66-21.321-29.51-3.814-53.312 34.947-49.658 38.457 3.625 104.414 29.047 224.546 61.445 134.617 36.304 162.569 60.383 167.774 95.37 8.961 60.232-25.333 79.972-73.752 75.807z" class="colorf7bead svgShape"/><path fill="#f7bead" d="M4109.89 2060.104s-21.676-6.967-47.222-23.224c-25.547-16.257-76.64-30.191-86.703-19.354-10.064 10.838-6.967 51.867 41.029 84.381s86.704 32.514 104.509 8.516 8.515-41.029-11.613-50.319zM4445.189 1613.921s87.238 13.941 79.87 125.911c-6.163 93.663-65.128 488.062-114.897 519.579-49.77 31.517-106.568 16.93-98.896-113.411s28.049-330.597 39.833-420.81 53.447-120.395 94.09-111.269z" class="colorf7bead svgShape"/><path fill="#de6a5b" d="M4461.062 1610.683s53.803 9.677 69.286 85.542c14.663 71.85 8.516 130.055 10.838 141.667 0 0-119.217 37.159-223.726-.774 0 0 23.998-102.573 38.32-152.892 14.046-49.355 44.125-82.058 105.282-73.543z" class="colorde6a5b svgShape"/><path fill="#212851" d="M3951.192 2046.17s65.802 5.419 85.155 9.29c19.353 3.871 44.126 23.998 51.093 60.383s41.803 179.6 54.964 247.724c13.16 68.124 14.708 106.057-58.061 125.411s-202.824-11.612-271.723-44.9c-68.898-33.288-80.51-51.093-79.736-78.188.774-27.095 30.191-103.735 42.578-162.569 12.386-58.835 39.481-145.538 49.545-155.602 10.064-10.065 42.578-8.516 126.185-1.549z" class="color212851 svgShape"/><path fill="#111b3a" d="M3951.192 2046.17s65.802 5.419 85.155 9.29c8.472 1.695 17.983 6.505 26.584 14.43-8.01 5.025-22.786 11.287-45.937 10.342-37.933-1.548-123.862-38.707-191.987-32.514 10.064-10.064 42.578-8.515 126.185-1.548z" class="color111b3a svgShape"/><path fill="#1a2347" d="M4087.44 2115.842c6.967 36.385 41.803 179.6 54.964 247.724 12.987 67.23 14.659 105.054-55.241 124.637 6.307-11.035 11.936-30.841 8.793-65.802-6.193-68.898-30.191-236.886-37.933-284.109-7.741-47.222-23.224-58.834-23.224-58.834 8.619-1.521 18.65-5.201 28.243-9.462 10.999 10.179 20.494 25.459 24.398 45.846z" class="color1a2347 svgShape"/><path fill="#344075" d="M4006.93 2094.941s-.774 41.029-5.419 43.352c-4.645 2.323-32.514 3.097-34.062-1.548-1.548-4.645 1.548-37.158 2.323-44.126.773-6.968 37.158-8.516 37.158 2.322zM3873.004 2071.716s-4.645 40.255-9.29 42.578-32.514-1.548-34.062-6.193c-1.548-4.645 5.419-36.385 6.193-43.352.774-6.967 37.159-3.871 37.159 6.967z" class="color344075 svgShape"/><path fill="#28325b" d="M3886.938 2305.12c25.528 0 46.952-9.07 63.678-26.958 20.258-21.665 33.345-55.543 38.901-100.689 4.103-33.35 2.383-60.022 2.308-61.142a4.259 4.259 0 0 0-8.497.571c.071 1.062 6.577 106.791-38.943 155.455-15.049 16.089-34.377 24.246-57.447 24.246-16.828 0-29.362-5.866-38.32-17.936-37.011-49.867 3.277-185.005 3.688-186.364a4.258 4.258 0 0 0-8.151-2.467c-1.73 5.718-41.913 140.635-2.375 193.906 10.528 14.185 25.721 21.378 45.158 21.378z" class="color28325b svgShape"/><path fill="#f7bead" d="M3826.874 2113.837c1.288-3.74 1.286-7.014 1.286-7.014s7.261 4.989 12.764.133c6.669-5.884-.641-18.454-.641-18.454s11.431 5.797 17.561-.588c7.963-8.294-.769-20.648-.769-20.648s13.208 10.97 20.268.574c5.338-7.862-18.979-33.422-20.362-34.985-6.827-6.379-11.19-10.059-18.328-13.177-7.219-3.099-16.895.347-15.84 10.851 0 0-21.016 1.671-18.286 18.241 0 0-15.395.021-13.49 17.521 0 0-12.44 6.925-6.924 18.489 2.832 5.937 13.688 21.212 31.341 32.043 4.722 2.899 9.614 2.257 11.42-2.986z" class="colorf7bead svgShape"/><path fill="#e57e73" d="M3856.91 2067.418c-3.115-2.819-6.143-5.719-9.218-8.576l-4.552-4.341-4.503-4.387c-1.497-1.466-3.055-2.875-4.593-4.303a48.425 48.425 0 0 1-4.299-4.577 69.957 69.957 0 0 1-3.799-5.043c-1.201-1.742-2.339-3.543-3.299-5.51a.233.233 0 0 1 .326-.304c1.895 1.095 3.612 2.355 5.266 3.675a70.246 70.246 0 0 1 4.767 4.141 48.427 48.427 0 0 1 4.266 4.608c1.317 1.633 2.615 3.285 3.973 4.881l4.063 4.797 4.014 4.843c2.636 3.266 5.319 6.488 7.914 9.792a.224.224 0 0 1-.326.304zM3840.117 2088.651c-3.245-3.073-6.399-6.226-9.602-9.336l-4.743-4.72-4.693-4.765c-1.561-1.592-3.182-3.129-4.785-4.683a55.196 55.196 0 0 1-4.486-4.951 78.697 78.697 0 0 1-3.978-5.409c-1.26-1.863-2.455-3.783-3.47-5.866a.232.232 0 0 1 .331-.298c1.965 1.228 3.749 2.618 5.47 4.067a79.011 79.011 0 0 1 4.961 4.524 54.912 54.912 0 0 1 4.453 4.981c1.378 1.756 2.736 3.531 4.155 5.25l4.246 5.168 4.196 5.212c2.757 3.512 5.562 6.98 8.277 10.529a.224.224 0 0 1-.042.314.227.227 0 0 1-.29-.017zM3827.995 2106.973c-3.356-3.137-6.624-6.356-9.939-9.531l-4.912-4.818-4.862-4.863c-1.617-1.625-3.295-3.194-4.953-4.781a58.09 58.09 0 0 1-4.657-5.051 83.51 83.51 0 0 1-4.153-5.513c-1.318-1.898-2.573-3.854-3.649-5.975a.231.231 0 0 1 .329-.301c2.018 1.258 3.857 2.679 5.632 4.158a82.905 82.905 0 0 1 5.128 4.62 58.23 58.23 0 0 1 4.624 5.081c1.436 1.791 2.852 3.6 4.328 5.353l4.418 5.27 4.369 5.315c2.872 3.58 5.792 7.117 8.624 10.735a.224.224 0 0 1-.038.314.222.222 0 0 1-.289-.013z" class="colore57e73 svgShape"/><path fill="#f6af9a" d="M3877.342 2067.84c4.44-6.538-11.622-25.306-17.955-32.342-6.597 16.185-12.138 38.583-12.647 46.226-.774 11.612 8.413 9.54 11.104 6.19 7.963-8.294-.769-20.648-.769-20.648s13.207 10.97 20.267.574z" class="colorf6af9a svgShape"/><path fill="#f7bead" d="M4076.602 2045.396s-25.934-14.709-34.836-34.062c-5.355-11.642-22.45-19.354-35.61-15.483 0 0-13.935-16.257-34.836-10.064 0 0-18.579-8.516-34.836-3.871-16.257 4.645-47.997 21.676-58.061 27.869-10.064 6.193-22.45 51.867-23.224 63.479-.774 11.612 8.515 9.29 10.838 6.193 0 0-3.355 21.289 7.87 22.063 7.723.532 14.58-11.225 14.58-11.225s-2.839 21.16 6.451 21.16 16.773-18.063 16.773-18.063 5.419 25.547 15.483 5.419c10.064-20.127 18.58-38.707 22.45-42.577 3.871-3.871 27.095-10.838 57.286-3.097 30.191 7.741 69.672-7.741 69.672-7.741z" class="colorf7bead svgShape"/><path fill="#e57e73" d="M3866.286 2079.564c3.686-7.512 7.248-15.077 10.896-22.603l10.748-22.65c1.823-3.742 3.666-7.533 5.591-11.134.532-1.071.751-1.364 1.313-1.979.511-.588 1.247-1.157 1.952-1.734 1.481-1.135 3.135-2.231 4.845-3.269 6.881-4.21 14.42-7.811 21.778-11.958a.275.275 0 0 0 .111-.373.281.281 0 0 0-.282-.141c-4.219.621-8.323 1.67-12.367 2.95-4.041 1.296-8.028 2.81-11.896 4.799-1.926 1.015-3.833 2.128-5.662 3.547-.913.738-1.802 1.502-2.653 2.505-.217.223-.417.521-.618.794l-.298.418-.279.486-.269.49c-.088.164-.118.259-.18.391l-.327.742c-1.646 3.954-3.157 7.82-4.725 11.716l-4.693 11.641-4.576 11.684c-2.979 7.819-6.017 15.61-8.907 23.465a.271.271 0 0 0 .498.213zM3888.74 2090.39l9.879-23.107 4.957-11.533a866.249 866.249 0 0 1 5-11.493c1.714-3.8 3.494-7.587 5.394-11.2l.707-1.323c.232-.446.477-.902.693-1.213l.322-.527c.104-.165.216-.393.305-.454.088-.097.167-.201.318-.324.132-.117.247-.243.418-.372.602-.523 1.389-1.032 2.197-1.532.799-.513 1.667-.993 2.541-1.464 3.523-1.894 7.281-3.646 11.052-5.388 3.781-1.737 7.597-3.473 11.389-5.382a.275.275 0 0 0-.148-.521c-4.248.424-8.404 1.257-12.516 2.311-4.111 1.069-8.178 2.339-12.179 4.122-1.998.949-3.974 1.896-5.958 3.53a7.535 7.535 0 0 0-.747.678 7.672 7.672 0 0 0-.742.83c-.279.317-.391.57-.564.848l-.479.823c-.349.572-.55 1.064-.776 1.559l-.677 1.495a183.698 183.698 0 0 0-2.338 5.941 334.478 334.478 0 0 0-2.22 5.916 861.072 861.072 0 0 0-4.343 11.821l-4.133 11.88c-2.659 7.953-5.349 15.889-7.858 23.89a.271.271 0 0 0 .178.34.268.268 0 0 0 .328-.151zM3911.963 2093.49c3.085-6.711 6.094-13.449 9.232-20.124a754.305 754.305 0 0 1 4.686-10.007 369.538 369.538 0 0 1 4.801-9.903c.843-1.614 1.687-3.23 2.604-4.756.439-.804.931-1.452 1.386-2.182a9.259 9.259 0 0 1 1.485-1.601c2.34-2.065 5.427-3.867 8.49-5.629 3.096-1.757 6.312-3.442 9.565-5.115 3.258-1.669 6.549-3.339 9.83-5.161a.277.277 0 0 0 .112-.378.275.275 0 0 0-.267-.141c-3.77.347-7.44 1.128-11.059 2.129-3.617 1.01-7.186 2.243-10.658 3.846-3.456 1.638-6.863 3.551-9.812 6.661a14.494 14.494 0 0 0-1.988 2.686c-.442.881-.961 1.781-1.326 2.639-.808 1.734-1.544 3.451-2.29 5.167a374.507 374.507 0 0 0-4.186 10.319 757.4 757.4 0 0 0-3.88 10.397c-2.47 6.97-4.95 13.927-7.231 20.959a.273.273 0 0 0 .174.342.276.276 0 0 0 .332-.148z" class="colore57e73 svgShape"/><path fill="#e8e8e8" d="M4672.379 1849.618s46.654 10.886 46.654 132.186v438.547s17.794 72.025-154.262 92.267c-176.257 20.736-184.757 61.576-184.757 201.538 0 0 74.646 9.447 144.627 1.671 69.981-7.776 220.829-9.331 236.38-129.076 15.551-119.745-3.11-286.145 0-385.673 2.24-71.683 1.253-222.421.526-301.156-.258-27.861-22.916-50.304-50.778-50.304h-38.39z" class="colore8e8e8 svgShape"/></svg>